%TF.GenerationSoftware,KiCad,Pcbnew,9.0.2*%
%TF.CreationDate,2025-07-09T07:13:16+08:00*%
%TF.ProjectId,imu,696d752e-6b69-4636-9164-5f7063625858,rev?*%
%TF.SameCoordinates,Original*%
%TF.FileFunction,Soldermask,Top*%
%TF.FilePolarity,Negative*%
%FSLAX46Y46*%
G04 Gerber Fmt 4.6, Leading zero omitted, Abs format (unit mm)*
G04 Created by KiCad (PCBNEW 9.0.2) date 2025-07-09 07:13:16*
%MOMM*%
%LPD*%
G01*
G04 APERTURE LIST*
G04 Aperture macros list*
%AMRoundRect*
0 Rectangle with rounded corners*
0 $1 Rounding radius*
0 $2 $3 $4 $5 $6 $7 $8 $9 X,Y pos of 4 corners*
0 Add a 4 corners polygon primitive as box body*
4,1,4,$2,$3,$4,$5,$6,$7,$8,$9,$2,$3,0*
0 Add four circle primitives for the rounded corners*
1,1,$1+$1,$2,$3*
1,1,$1+$1,$4,$5*
1,1,$1+$1,$6,$7*
1,1,$1+$1,$8,$9*
0 Add four rect primitives between the rounded corners*
20,1,$1+$1,$2,$3,$4,$5,0*
20,1,$1+$1,$4,$5,$6,$7,0*
20,1,$1+$1,$6,$7,$8,$9,0*
20,1,$1+$1,$8,$9,$2,$3,0*%
G04 Aperture macros list end*
%ADD10C,0.600000*%
%ADD11R,2.900000X2.900000*%
%ADD12R,0.900000X1.500000*%
%ADD13C,0.650000*%
%ADD14RoundRect,0.150000X0.150000X0.425000X-0.150000X0.425000X-0.150000X-0.425000X0.150000X-0.425000X0*%
%ADD15RoundRect,0.075000X0.075000X0.500000X-0.075000X0.500000X-0.075000X-0.500000X0.075000X-0.500000X0*%
%ADD16O,1.000000X2.100000*%
%ADD17O,1.000000X1.800000*%
%ADD18RoundRect,0.250000X0.350000X0.450000X-0.350000X0.450000X-0.350000X-0.450000X0.350000X-0.450000X0*%
%ADD19RoundRect,0.250000X0.475000X-0.337500X0.475000X0.337500X-0.475000X0.337500X-0.475000X-0.337500X0*%
%ADD20RoundRect,0.250000X-0.350000X-0.450000X0.350000X-0.450000X0.350000X0.450000X-0.350000X0.450000X0*%
%ADD21RoundRect,0.250000X0.325000X0.450000X-0.325000X0.450000X-0.325000X-0.450000X0.325000X-0.450000X0*%
%ADD22RoundRect,0.250000X0.350000X0.625000X-0.350000X0.625000X-0.350000X-0.625000X0.350000X-0.625000X0*%
%ADD23O,1.200000X1.750000*%
%ADD24RoundRect,0.250000X-0.475000X0.337500X-0.475000X-0.337500X0.475000X-0.337500X0.475000X0.337500X0*%
%ADD25RoundRect,0.250000X0.337500X0.475000X-0.337500X0.475000X-0.337500X-0.475000X0.337500X-0.475000X0*%
%ADD26RoundRect,0.375000X0.375000X-0.625000X0.375000X0.625000X-0.375000X0.625000X-0.375000X-0.625000X0*%
%ADD27RoundRect,0.500000X1.400000X-0.500000X1.400000X0.500000X-1.400000X0.500000X-1.400000X-0.500000X0*%
%ADD28RoundRect,0.087500X0.087500X-0.225000X0.087500X0.225000X-0.087500X0.225000X-0.087500X-0.225000X0*%
%ADD29RoundRect,0.087500X0.225000X-0.087500X0.225000X0.087500X-0.225000X0.087500X-0.225000X-0.087500X0*%
%ADD30R,1.000000X1.250000*%
%ADD31C,0.800000*%
%ADD32C,6.400000*%
%ADD33R,1.700000X1.700000*%
%ADD34C,1.700000*%
%ADD35R,0.375000X0.350000*%
%ADD36R,0.350000X0.375000*%
%ADD37RoundRect,0.250000X-0.300000X-0.300000X0.300000X-0.300000X0.300000X0.300000X-0.300000X0.300000X0*%
%ADD38RoundRect,0.250000X0.250000X0.250000X-0.250000X0.250000X-0.250000X-0.250000X0.250000X-0.250000X0*%
%ADD39RoundRect,0.250000X-0.900000X1.000000X-0.900000X-1.000000X0.900000X-1.000000X0.900000X1.000000X0*%
%ADD40RoundRect,0.250000X-0.350000X-0.625000X0.350000X-0.625000X0.350000X0.625000X-0.350000X0.625000X0*%
%ADD41RoundRect,0.250000X0.275000X0.350000X-0.275000X0.350000X-0.275000X-0.350000X0.275000X-0.350000X0*%
%ADD42RoundRect,0.250000X-0.337500X-0.475000X0.337500X-0.475000X0.337500X0.475000X-0.337500X0.475000X0*%
G04 APERTURE END LIST*
D10*
%TO.C,U4*%
X122950000Y-66300000D03*
X121850000Y-66300000D03*
X123500000Y-66850000D03*
X122400000Y-66850000D03*
X121300000Y-66850000D03*
X122950000Y-67400000D03*
D11*
X122400000Y-67400000D03*
D10*
X121850000Y-67400000D03*
X123500000Y-67950000D03*
X122400000Y-67950000D03*
X121300000Y-67950000D03*
X122950000Y-68500000D03*
X121850000Y-68500000D03*
D12*
X116200000Y-59610000D03*
X117700000Y-59610000D03*
X119200000Y-59610000D03*
X120700000Y-59610000D03*
X122200000Y-59610000D03*
X123700000Y-59610000D03*
X125200000Y-59610000D03*
X126700000Y-59610000D03*
X128200000Y-59610000D03*
X128200000Y-77110000D03*
X126700000Y-77110000D03*
X125200000Y-77110000D03*
X123700000Y-77110000D03*
X122200000Y-77110000D03*
X120700000Y-77110000D03*
X119200000Y-77110000D03*
X117700000Y-77110000D03*
X116200000Y-77110000D03*
%TD*%
D13*
%TO.C,J1*%
X163890000Y-44925000D03*
X158110000Y-44925000D03*
D14*
X164200000Y-46000000D03*
X163400000Y-46000000D03*
D15*
X162250000Y-46000000D03*
X161250000Y-46000000D03*
X160750000Y-46000000D03*
X159750000Y-46000000D03*
D14*
X158600000Y-46000000D03*
X157800000Y-46000000D03*
X157800000Y-46000000D03*
X158600000Y-46000000D03*
D15*
X159250000Y-46000000D03*
X160250000Y-46000000D03*
X161750000Y-46000000D03*
X162750000Y-46000000D03*
D14*
X163400000Y-46000000D03*
X164200000Y-46000000D03*
D16*
X165320000Y-45425000D03*
D17*
X165320000Y-41245000D03*
D16*
X156680000Y-45425000D03*
D17*
X156680000Y-41245000D03*
%TD*%
D18*
%TO.C,R8*%
X128750000Y-80000000D03*
X126750000Y-80000000D03*
%TD*%
D19*
%TO.C,C4*%
X149000000Y-53600000D03*
X149000000Y-51525000D03*
%TD*%
D20*
%TO.C,R5*%
X152650000Y-43800000D03*
X154650000Y-43800000D03*
%TD*%
D21*
%TO.C,D3*%
X150225000Y-46000000D03*
X148175000Y-46000000D03*
%TD*%
D22*
%TO.C,J3*%
X140500000Y-46000000D03*
D23*
X138500000Y-46000000D03*
X136500000Y-46000000D03*
X134500000Y-46000000D03*
%TD*%
D24*
%TO.C,C11*%
X131000000Y-68837500D03*
X131000000Y-70912500D03*
%TD*%
D25*
%TO.C,C14*%
X152250000Y-69250000D03*
X150175000Y-69250000D03*
%TD*%
D20*
%TO.C,R6*%
X130500000Y-79125000D03*
X132500000Y-79125000D03*
%TD*%
D26*
%TO.C,U3*%
X142000000Y-55600000D03*
X144300000Y-55600000D03*
D27*
X144300000Y-49300000D03*
D26*
X146600000Y-55600000D03*
%TD*%
D28*
%TO.C,U1*%
X145000000Y-69575000D03*
X145500000Y-69575000D03*
X146000000Y-69575000D03*
X146500000Y-69575000D03*
D29*
X146662500Y-68912500D03*
X146662500Y-68412500D03*
X146662500Y-67912500D03*
D28*
X146500000Y-67250000D03*
X146000000Y-67250000D03*
X145500000Y-67250000D03*
X145000000Y-67250000D03*
D29*
X144837500Y-67912500D03*
X144837500Y-68412500D03*
X144837500Y-68912500D03*
%TD*%
D20*
%TO.C,R1*%
X144205000Y-45995000D03*
X146205000Y-45995000D03*
%TD*%
D30*
%TO.C,SW1*%
X134250000Y-70750000D03*
X134250000Y-78500000D03*
%TD*%
D19*
%TO.C,C12*%
X167000000Y-84800000D03*
X167000000Y-82725000D03*
%TD*%
D25*
%TO.C,C7*%
X153037500Y-53500000D03*
X150962500Y-53500000D03*
%TD*%
D31*
%TO.C,REF\u002A\u002A*%
X117350000Y-43250000D03*
X118052944Y-41552944D03*
X118052944Y-44947056D03*
X119750000Y-40850000D03*
D32*
X119750000Y-43250000D03*
D31*
X119750000Y-45650000D03*
X121447056Y-41552944D03*
X121447056Y-44947056D03*
X122150000Y-43250000D03*
%TD*%
D30*
%TO.C,SW2*%
X134250000Y-68875000D03*
X134250000Y-61125000D03*
%TD*%
D31*
%TO.C,REF\u002A\u002A*%
X117350000Y-93500000D03*
X118052944Y-91802944D03*
X118052944Y-95197056D03*
X119750000Y-91100000D03*
D32*
X119750000Y-93500000D03*
D31*
X119750000Y-95900000D03*
X121447056Y-91802944D03*
X121447056Y-95197056D03*
X122150000Y-93500000D03*
%TD*%
D20*
%TO.C,R7*%
X132000000Y-59000000D03*
X134000000Y-59000000D03*
%TD*%
D19*
%TO.C,C13*%
X165000000Y-84800000D03*
X165000000Y-82725000D03*
%TD*%
%TO.C,C10*%
X137400000Y-79037500D03*
X137400000Y-76962500D03*
%TD*%
D33*
%TO.C,J5*%
X117460000Y-86500000D03*
D34*
X120000000Y-86500000D03*
X122540000Y-86500000D03*
X125080000Y-86500000D03*
X127620000Y-86500000D03*
X130160000Y-86500000D03*
%TD*%
D35*
%TO.C,U2*%
X158075000Y-81400000D03*
X158075000Y-81900000D03*
X158075000Y-82400000D03*
X158075000Y-82900000D03*
D36*
X158587500Y-82912500D03*
X159087500Y-82912500D03*
D35*
X159600000Y-82900000D03*
X159600000Y-82400000D03*
X159600000Y-81900000D03*
X159600000Y-81400000D03*
D36*
X159087500Y-81387500D03*
X158587500Y-81387500D03*
%TD*%
D37*
%TO.C,D1*%
X155100000Y-51000000D03*
X157900000Y-51000000D03*
%TD*%
D20*
%TO.C,R4*%
X152650000Y-46000000D03*
X154650000Y-46000000D03*
%TD*%
D25*
%TO.C,C9*%
X118537500Y-83000000D03*
X116462500Y-83000000D03*
%TD*%
D38*
%TO.C,D5*%
X145250000Y-88250000D03*
X142750000Y-88250000D03*
%TD*%
D25*
%TO.C,C5*%
X144237500Y-58000000D03*
X142162500Y-58000000D03*
%TD*%
D39*
%TO.C,D2*%
X161500000Y-51350000D03*
X161500000Y-55650000D03*
%TD*%
D40*
%TO.C,J2*%
X134750000Y-91250000D03*
D23*
X136750000Y-91250000D03*
X138750000Y-91250000D03*
X140750000Y-91250000D03*
%TD*%
D41*
%TO.C,FB1*%
X153150000Y-51000000D03*
X150850000Y-51000000D03*
%TD*%
D42*
%TO.C,C6*%
X155462500Y-53500000D03*
X157537500Y-53500000D03*
%TD*%
D25*
%TO.C,C8*%
X118537500Y-81010000D03*
X116462500Y-81010000D03*
%TD*%
D20*
%TO.C,R9*%
X123000000Y-80000000D03*
X125000000Y-80000000D03*
%TD*%
D42*
%TO.C,C1*%
X164925000Y-80800000D03*
X167000000Y-80800000D03*
%TD*%
D33*
%TO.C,J4*%
X117170000Y-49250000D03*
D34*
X119710000Y-49250000D03*
X122250000Y-49250000D03*
X124790000Y-49250000D03*
X127330000Y-49250000D03*
X129870000Y-49250000D03*
%TD*%
D42*
%TO.C,C3*%
X156125000Y-88000000D03*
X158200000Y-88000000D03*
%TD*%
D25*
%TO.C,C2*%
X149037500Y-63500000D03*
X146962500Y-63500000D03*
%TD*%
D20*
%TO.C,R2*%
X161000000Y-88000000D03*
X163000000Y-88000000D03*
%TD*%
%TO.C,R3*%
X146750000Y-73250000D03*
X148750000Y-73250000D03*
%TD*%
D31*
%TO.C,REF\u002A\u002A*%
X169100000Y-43250000D03*
X169802944Y-41552944D03*
X169802944Y-44947056D03*
X171500000Y-40850000D03*
D32*
X171500000Y-43250000D03*
D31*
X171500000Y-45650000D03*
X173197056Y-41552944D03*
X173197056Y-44947056D03*
X173900000Y-43250000D03*
%TD*%
D38*
%TO.C,D4*%
X145250000Y-86250000D03*
X142750000Y-86250000D03*
%TD*%
D31*
%TO.C,REF\u002A\u002A*%
X169100000Y-93500000D03*
X169802944Y-91802944D03*
X169802944Y-95197056D03*
X171500000Y-91100000D03*
D32*
X171500000Y-93500000D03*
D31*
X171500000Y-95900000D03*
X173197056Y-91802944D03*
X173197056Y-95197056D03*
X173900000Y-93500000D03*
%TD*%
M02*
