%TF.GenerationSoftware,KiCad,Pcbnew,9.0.2*%
%TF.CreationDate,2025-07-09T07:13:15+08:00*%
%TF.ProjectId,imu,696d752e-6b69-4636-9164-5f7063625858,rev?*%
%TF.SameCoordinates,Original*%
%TF.FileFunction,Copper,L2,Inr*%
%TF.FilePolarity,Positive*%
%FSLAX46Y46*%
G04 Gerber Fmt 4.6, Leading zero omitted, Abs format (unit mm)*
G04 Created by KiCad (PCBNEW 9.0.2) date 2025-07-09 07:13:15*
%MOMM*%
%LPD*%
G01*
G04 APERTURE LIST*
G04 Aperture macros list*
%AMRoundRect*
0 Rectangle with rounded corners*
0 $1 Rounding radius*
0 $2 $3 $4 $5 $6 $7 $8 $9 X,Y pos of 4 corners*
0 Add a 4 corners polygon primitive as box body*
4,1,4,$2,$3,$4,$5,$6,$7,$8,$9,$2,$3,0*
0 Add four circle primitives for the rounded corners*
1,1,$1+$1,$2,$3*
1,1,$1+$1,$4,$5*
1,1,$1+$1,$6,$7*
1,1,$1+$1,$8,$9*
0 Add four rect primitives between the rounded corners*
20,1,$1+$1,$2,$3,$4,$5,0*
20,1,$1+$1,$4,$5,$6,$7,0*
20,1,$1+$1,$6,$7,$8,$9,0*
20,1,$1+$1,$8,$9,$2,$3,0*%
G04 Aperture macros list end*
%TA.AperFunction,HeatsinkPad*%
%ADD10C,0.600000*%
%TD*%
%TA.AperFunction,HeatsinkPad*%
%ADD11O,1.000000X2.100000*%
%TD*%
%TA.AperFunction,HeatsinkPad*%
%ADD12O,1.000000X1.800000*%
%TD*%
%TA.AperFunction,ComponentPad*%
%ADD13RoundRect,0.250000X0.350000X0.625000X-0.350000X0.625000X-0.350000X-0.625000X0.350000X-0.625000X0*%
%TD*%
%TA.AperFunction,ComponentPad*%
%ADD14O,1.200000X1.750000*%
%TD*%
%TA.AperFunction,ComponentPad*%
%ADD15C,0.800000*%
%TD*%
%TA.AperFunction,ComponentPad*%
%ADD16C,6.400000*%
%TD*%
%TA.AperFunction,ComponentPad*%
%ADD17R,1.700000X1.700000*%
%TD*%
%TA.AperFunction,ComponentPad*%
%ADD18C,1.700000*%
%TD*%
%TA.AperFunction,ComponentPad*%
%ADD19RoundRect,0.250000X-0.350000X-0.625000X0.350000X-0.625000X0.350000X0.625000X-0.350000X0.625000X0*%
%TD*%
%TA.AperFunction,ViaPad*%
%ADD20C,0.800000*%
%TD*%
%TA.AperFunction,ViaPad*%
%ADD21C,1.500000*%
%TD*%
G04 APERTURE END LIST*
D10*
%TO.N,GND*%
%TO.C,U4*%
X122950000Y-66300000D03*
X121850000Y-66300000D03*
X123500000Y-66850000D03*
X122400000Y-66850000D03*
X121300000Y-66850000D03*
X122950000Y-67400000D03*
X121850000Y-67400000D03*
X123500000Y-67950000D03*
X122400000Y-67950000D03*
X121300000Y-67950000D03*
X122950000Y-68500000D03*
X121850000Y-68500000D03*
%TD*%
D11*
%TO.N,GND*%
%TO.C,J1*%
X165320000Y-45425000D03*
D12*
X165320000Y-41245000D03*
D11*
X156680000Y-45425000D03*
D12*
X156680000Y-41245000D03*
%TD*%
D13*
%TO.N,+3V3*%
%TO.C,J3*%
X140500000Y-46000000D03*
D14*
%TO.N,GND*%
X138500000Y-46000000D03*
%TO.N,TX0*%
X136500000Y-46000000D03*
%TO.N,RX0*%
X134500000Y-46000000D03*
%TD*%
D15*
%TO.N,N/C*%
%TO.C,REF\u002A\u002A*%
X117350000Y-43250000D03*
X118052944Y-41552944D03*
X118052944Y-44947056D03*
X119750000Y-40850000D03*
D16*
X119750000Y-43250000D03*
D15*
X119750000Y-45650000D03*
X121447056Y-41552944D03*
X121447056Y-44947056D03*
X122150000Y-43250000D03*
%TD*%
%TO.N,N/C*%
%TO.C,REF\u002A\u002A*%
X117350000Y-93500000D03*
X118052944Y-91802944D03*
X118052944Y-95197056D03*
X119750000Y-91100000D03*
D16*
X119750000Y-93500000D03*
D15*
X119750000Y-95900000D03*
X121447056Y-91802944D03*
X121447056Y-95197056D03*
X122150000Y-93500000D03*
%TD*%
D17*
%TO.N,+3V3*%
%TO.C,J5*%
X117460000Y-86500000D03*
D18*
%TO.N,IO4*%
X120000000Y-86500000D03*
%TO.N,IO5*%
X122540000Y-86500000D03*
%TO.N,INT_MAG*%
X125080000Y-86500000D03*
%TO.N,INT_IMU*%
X127620000Y-86500000D03*
%TO.N,GND*%
X130160000Y-86500000D03*
%TD*%
D19*
%TO.N,+3V3*%
%TO.C,J2*%
X134750000Y-91250000D03*
D14*
%TO.N,GND*%
X136750000Y-91250000D03*
%TO.N,SCL*%
X138750000Y-91250000D03*
%TO.N,SDA*%
X140750000Y-91250000D03*
%TD*%
D17*
%TO.N,+3V3*%
%TO.C,J4*%
X117170000Y-49250000D03*
D18*
%TO.N,IO1*%
X119710000Y-49250000D03*
%TO.N,IO2*%
X122250000Y-49250000D03*
%TO.N,IO3*%
X124790000Y-49250000D03*
%TO.N,IO8*%
X127330000Y-49250000D03*
%TO.N,GND*%
X129870000Y-49250000D03*
%TD*%
D15*
%TO.N,N/C*%
%TO.C,REF\u002A\u002A*%
X169100000Y-43250000D03*
X169802944Y-41552944D03*
X169802944Y-44947056D03*
X171500000Y-40850000D03*
D16*
X171500000Y-43250000D03*
D15*
X171500000Y-45650000D03*
X173197056Y-41552944D03*
X173197056Y-44947056D03*
X173900000Y-43250000D03*
%TD*%
%TO.N,N/C*%
%TO.C,REF\u002A\u002A*%
X169100000Y-93500000D03*
X169802944Y-91802944D03*
X169802944Y-95197056D03*
X171500000Y-91100000D03*
D16*
X171500000Y-93500000D03*
D15*
X171500000Y-95900000D03*
X173197056Y-91802944D03*
X173197056Y-95197056D03*
X173900000Y-93500000D03*
%TD*%
D20*
%TO.N,GND*%
X129400000Y-68800000D03*
X164800000Y-47400000D03*
X138600000Y-75800000D03*
X121800000Y-57000000D03*
X159250000Y-91750000D03*
X150000000Y-43250000D03*
X160500000Y-96250000D03*
X163250000Y-76750000D03*
X149250000Y-85750000D03*
X157500000Y-48500000D03*
X140500000Y-68250000D03*
X128500000Y-94500000D03*
X124000000Y-55400000D03*
X146500000Y-94500000D03*
X138250000Y-66000000D03*
X144500000Y-92000000D03*
X130600000Y-56000000D03*
X148250000Y-62000000D03*
X129500000Y-58250000D03*
X135000000Y-43250000D03*
X152250000Y-86250000D03*
X147500000Y-81250000D03*
X138250000Y-61750000D03*
X147500000Y-48500000D03*
X125000000Y-43250000D03*
X123750000Y-91000000D03*
X128250000Y-51500000D03*
X149000000Y-50250000D03*
X127250000Y-85000000D03*
X140000000Y-94500000D03*
X132800000Y-69000000D03*
X153000000Y-94500000D03*
X146600000Y-86400000D03*
X117800000Y-54600000D03*
X130000000Y-61750000D03*
X152500000Y-48500000D03*
X141750000Y-78500000D03*
X118600000Y-85050000D03*
X154800000Y-88000000D03*
X142750000Y-64000000D03*
X145500000Y-72650000D03*
X159600000Y-87600000D03*
X151500000Y-65500000D03*
X142750000Y-90000000D03*
X144000000Y-82500000D03*
X132750000Y-82500000D03*
X159750000Y-47750000D03*
X152250000Y-70750000D03*
X164600000Y-86200000D03*
X146600000Y-88400000D03*
X136000000Y-81000000D03*
X148750000Y-74500000D03*
X138500000Y-70750000D03*
X126400000Y-55600000D03*
X148000000Y-78000000D03*
X127200000Y-84000000D03*
X140000000Y-43250000D03*
X165750000Y-91750000D03*
X137400000Y-87200000D03*
X128500000Y-78500000D03*
X132800000Y-54600000D03*
X145250000Y-75750000D03*
X131500000Y-46750000D03*
X150500000Y-90750000D03*
X141000000Y-57750000D03*
X153000000Y-80500000D03*
X142000000Y-53750000D03*
X137000000Y-89200000D03*
X162750000Y-48750000D03*
X157750000Y-71500000D03*
X164400000Y-88000000D03*
X166400000Y-79200000D03*
X137000000Y-52750000D03*
X154500000Y-74250000D03*
X153000000Y-55000000D03*
X161500000Y-57750000D03*
X149676000Y-67600000D03*
X134000000Y-88250000D03*
X123200000Y-81800000D03*
X124500000Y-47000000D03*
X156000000Y-91000000D03*
X141500000Y-72250000D03*
X131800000Y-85600000D03*
X148500000Y-83000000D03*
X130000000Y-90000000D03*
X135800000Y-85400000D03*
X145000000Y-43250000D03*
X135000000Y-57750000D03*
X134000000Y-94500000D03*
X138500000Y-48000000D03*
X159000000Y-52600000D03*
X143750000Y-85250000D03*
X151750000Y-83000000D03*
X167000000Y-86250000D03*
X145500000Y-64000000D03*
X137250000Y-84500000D03*
X130000000Y-43250000D03*
X139750000Y-81750000D03*
X132200000Y-81400000D03*
%TO.N,+3V3*%
X135600000Y-52600000D03*
X118400000Y-52600000D03*
X153126990Y-82278317D03*
X126042891Y-82275000D03*
X128750000Y-81250000D03*
X116750000Y-84500000D03*
D21*
X144400000Y-61000000D03*
D20*
X150400000Y-70800000D03*
X130500000Y-77500000D03*
X126800000Y-91200000D03*
X131400000Y-91200000D03*
%TO.N,SCL*%
X136250000Y-87250000D03*
X138250000Y-89250000D03*
%TO.N,EN*%
X131475000Y-80650000D03*
X126750000Y-83000000D03*
X123750000Y-83000000D03*
X117500000Y-78500000D03*
%TO.N,USB_D-*%
X122500000Y-58000000D03*
X162000000Y-47825837D03*
%TO.N,USB_D+*%
X124025000Y-56500000D03*
X161000000Y-47825837D03*
%TO.N,TX0*%
X127500000Y-56000000D03*
X129725000Y-55224999D03*
%TO.N,INT_IMU*%
X142500000Y-81500000D03*
%TO.N,BOOT*%
X131750000Y-55250000D03*
X119025000Y-54500000D03*
%TO.N,IO8*%
X128250000Y-58250000D03*
X124750000Y-58250000D03*
%TO.N,SDA*%
X134750000Y-84500000D03*
X131250000Y-84500000D03*
%TO.N,GND*%
X161000000Y-42320000D03*
%TD*%
%TA.AperFunction,Conductor*%
%TO.N,GND*%
G36*
X156102265Y-39819685D02*
G01*
X156148020Y-39872489D01*
X156157964Y-39941647D01*
X156128939Y-40005203D01*
X156104117Y-40027102D01*
X156042537Y-40068248D01*
X156042533Y-40068251D01*
X155903251Y-40207533D01*
X155903248Y-40207537D01*
X155793814Y-40371315D01*
X155793807Y-40371328D01*
X155718430Y-40553306D01*
X155718427Y-40553318D01*
X155680000Y-40746504D01*
X155680000Y-40995000D01*
X156380000Y-40995000D01*
X156380000Y-41495000D01*
X155680000Y-41495000D01*
X155680000Y-41743495D01*
X155718427Y-41936681D01*
X155718430Y-41936693D01*
X155793807Y-42118671D01*
X155793814Y-42118684D01*
X155903248Y-42282462D01*
X155903251Y-42282466D01*
X156042533Y-42421748D01*
X156042537Y-42421751D01*
X156206315Y-42531185D01*
X156206328Y-42531192D01*
X156388308Y-42606569D01*
X156430000Y-42614862D01*
X156430000Y-41811988D01*
X156439940Y-41829205D01*
X156495795Y-41885060D01*
X156564204Y-41924556D01*
X156640504Y-41945000D01*
X156719496Y-41945000D01*
X156795796Y-41924556D01*
X156864205Y-41885060D01*
X156920060Y-41829205D01*
X156930000Y-41811988D01*
X156930000Y-42614862D01*
X156971690Y-42606569D01*
X156971692Y-42606569D01*
X157153671Y-42531192D01*
X157153684Y-42531185D01*
X157317462Y-42421751D01*
X157317466Y-42421748D01*
X157456748Y-42282466D01*
X157456751Y-42282462D01*
X157566185Y-42118684D01*
X157566192Y-42118671D01*
X157641569Y-41936693D01*
X157641572Y-41936681D01*
X157679999Y-41743495D01*
X157680000Y-41743492D01*
X157680000Y-41495000D01*
X156980000Y-41495000D01*
X156980000Y-40995000D01*
X157680000Y-40995000D01*
X157680000Y-40746508D01*
X157679999Y-40746504D01*
X157641572Y-40553318D01*
X157641569Y-40553306D01*
X157566192Y-40371328D01*
X157566185Y-40371315D01*
X157456751Y-40207537D01*
X157456748Y-40207533D01*
X157317466Y-40068251D01*
X157317462Y-40068248D01*
X157255883Y-40027102D01*
X157211078Y-39973490D01*
X157202371Y-39904165D01*
X157232526Y-39841137D01*
X157291969Y-39804418D01*
X157324774Y-39800000D01*
X164675226Y-39800000D01*
X164742265Y-39819685D01*
X164788020Y-39872489D01*
X164797964Y-39941647D01*
X164768939Y-40005203D01*
X164744117Y-40027102D01*
X164682537Y-40068248D01*
X164682533Y-40068251D01*
X164543251Y-40207533D01*
X164543248Y-40207537D01*
X164433814Y-40371315D01*
X164433807Y-40371328D01*
X164358430Y-40553306D01*
X164358427Y-40553318D01*
X164320000Y-40746504D01*
X164320000Y-40995000D01*
X165020000Y-40995000D01*
X165020000Y-41495000D01*
X164320000Y-41495000D01*
X164320000Y-41743495D01*
X164358427Y-41936681D01*
X164358430Y-41936693D01*
X164433807Y-42118671D01*
X164433814Y-42118684D01*
X164543248Y-42282462D01*
X164543251Y-42282466D01*
X164682533Y-42421748D01*
X164682537Y-42421751D01*
X164846315Y-42531185D01*
X164846328Y-42531192D01*
X165028308Y-42606569D01*
X165070000Y-42614862D01*
X165070000Y-41811988D01*
X165079940Y-41829205D01*
X165135795Y-41885060D01*
X165204204Y-41924556D01*
X165280504Y-41945000D01*
X165359496Y-41945000D01*
X165435796Y-41924556D01*
X165504205Y-41885060D01*
X165560060Y-41829205D01*
X165570000Y-41811988D01*
X165570000Y-42614862D01*
X165611690Y-42606569D01*
X165611692Y-42606569D01*
X165793671Y-42531192D01*
X165793684Y-42531185D01*
X165957462Y-42421751D01*
X165957466Y-42421748D01*
X166096748Y-42282466D01*
X166096751Y-42282462D01*
X166206185Y-42118684D01*
X166206192Y-42118671D01*
X166281569Y-41936693D01*
X166281572Y-41936681D01*
X166319999Y-41743495D01*
X166320000Y-41743492D01*
X166320000Y-41495000D01*
X165620000Y-41495000D01*
X165620000Y-40995000D01*
X166320000Y-40995000D01*
X166320000Y-40746508D01*
X166319999Y-40746504D01*
X166281572Y-40553318D01*
X166281569Y-40553306D01*
X166206192Y-40371328D01*
X166206185Y-40371315D01*
X166096751Y-40207537D01*
X166096748Y-40207533D01*
X165957466Y-40068251D01*
X165957462Y-40068248D01*
X165895883Y-40027102D01*
X165851078Y-39973490D01*
X165842371Y-39904165D01*
X165872526Y-39841137D01*
X165931969Y-39804418D01*
X165964774Y-39800000D01*
X169609384Y-39800000D01*
X169676423Y-39819685D01*
X169722178Y-39872489D01*
X169732122Y-39941647D01*
X169703097Y-40005203D01*
X169667837Y-40033358D01*
X169595279Y-40072140D01*
X169595261Y-40072151D01*
X169292964Y-40274140D01*
X169292950Y-40274150D01*
X169011893Y-40504807D01*
X168754807Y-40761893D01*
X168524150Y-41042950D01*
X168524140Y-41042964D01*
X168322151Y-41345261D01*
X168322140Y-41345279D01*
X168150756Y-41665916D01*
X168150754Y-41665921D01*
X168011614Y-42001834D01*
X167906067Y-42349776D01*
X167906064Y-42349787D01*
X167835137Y-42706369D01*
X167799500Y-43068209D01*
X167799500Y-43431790D01*
X167835137Y-43793630D01*
X167906064Y-44150212D01*
X167906067Y-44150223D01*
X168011614Y-44498165D01*
X168150754Y-44834078D01*
X168150756Y-44834083D01*
X168322140Y-45154720D01*
X168322151Y-45154738D01*
X168524140Y-45457035D01*
X168524150Y-45457049D01*
X168754807Y-45738106D01*
X169011893Y-45995192D01*
X169011898Y-45995196D01*
X169011899Y-45995197D01*
X169292956Y-46225854D01*
X169595268Y-46427853D01*
X169595277Y-46427858D01*
X169595279Y-46427859D01*
X169915916Y-46599243D01*
X169915918Y-46599243D01*
X169915924Y-46599247D01*
X170251836Y-46738386D01*
X170599767Y-46843930D01*
X170599773Y-46843931D01*
X170599776Y-46843932D01*
X170599787Y-46843935D01*
X170956369Y-46914862D01*
X171318206Y-46950500D01*
X171318209Y-46950500D01*
X171681791Y-46950500D01*
X171681794Y-46950500D01*
X172043631Y-46914862D01*
X172113045Y-46901054D01*
X172400212Y-46843935D01*
X172400223Y-46843932D01*
X172400223Y-46843931D01*
X172400233Y-46843930D01*
X172748164Y-46738386D01*
X173084076Y-46599247D01*
X173404732Y-46427853D01*
X173707044Y-46225854D01*
X173988101Y-45995197D01*
X174245197Y-45738101D01*
X174475854Y-45457044D01*
X174677853Y-45154732D01*
X174716642Y-45082163D01*
X174765604Y-45032319D01*
X174833742Y-45016858D01*
X174899421Y-45040690D01*
X174941790Y-45096247D01*
X174950000Y-45140616D01*
X174950000Y-91609383D01*
X174930315Y-91676422D01*
X174877511Y-91722177D01*
X174808353Y-91732121D01*
X174744797Y-91703096D01*
X174716642Y-91667837D01*
X174693745Y-91625000D01*
X174677853Y-91595268D01*
X174475854Y-91292956D01*
X174245197Y-91011899D01*
X174245196Y-91011898D01*
X174245192Y-91011893D01*
X173988106Y-90754807D01*
X173707049Y-90524150D01*
X173707048Y-90524149D01*
X173707044Y-90524146D01*
X173404732Y-90322147D01*
X173404727Y-90322144D01*
X173404720Y-90322140D01*
X173084083Y-90150756D01*
X173084078Y-90150754D01*
X173047459Y-90135586D01*
X172981085Y-90108093D01*
X172748165Y-90011614D01*
X172400223Y-89906067D01*
X172400212Y-89906064D01*
X172043630Y-89835137D01*
X171771111Y-89808296D01*
X171681794Y-89799500D01*
X171318206Y-89799500D01*
X171235679Y-89807628D01*
X170956369Y-89835137D01*
X170599787Y-89906064D01*
X170599776Y-89906067D01*
X170251834Y-90011614D01*
X169915921Y-90150754D01*
X169915916Y-90150756D01*
X169595279Y-90322140D01*
X169595261Y-90322151D01*
X169292964Y-90524140D01*
X169292950Y-90524150D01*
X169011893Y-90754807D01*
X168754807Y-91011893D01*
X168524150Y-91292950D01*
X168524140Y-91292964D01*
X168322151Y-91595261D01*
X168322140Y-91595279D01*
X168150756Y-91915916D01*
X168150754Y-91915921D01*
X168011614Y-92251834D01*
X167906067Y-92599776D01*
X167906064Y-92599787D01*
X167835137Y-92956369D01*
X167799500Y-93318209D01*
X167799500Y-93681790D01*
X167835137Y-94043630D01*
X167906064Y-94400212D01*
X167906067Y-94400223D01*
X168011614Y-94748165D01*
X168150754Y-95084078D01*
X168150756Y-95084083D01*
X168322140Y-95404720D01*
X168322151Y-95404738D01*
X168524140Y-95707035D01*
X168524150Y-95707049D01*
X168754807Y-95988106D01*
X169011893Y-96245192D01*
X169011898Y-96245196D01*
X169011899Y-96245197D01*
X169292956Y-96475854D01*
X169398730Y-96546530D01*
X169438192Y-96572898D01*
X169482997Y-96626510D01*
X169491704Y-96695835D01*
X169461550Y-96758863D01*
X169402107Y-96795582D01*
X169369301Y-96800000D01*
X121880699Y-96800000D01*
X121813660Y-96780315D01*
X121767905Y-96727511D01*
X121757961Y-96658353D01*
X121786986Y-96594797D01*
X121811808Y-96572898D01*
X121828191Y-96561951D01*
X121957044Y-96475854D01*
X122238101Y-96245197D01*
X122495197Y-95988101D01*
X122725854Y-95707044D01*
X122927853Y-95404732D01*
X123099247Y-95084076D01*
X123238386Y-94748164D01*
X123343930Y-94400233D01*
X123343932Y-94400223D01*
X123343935Y-94400212D01*
X123414862Y-94043630D01*
X123450500Y-93681790D01*
X123450500Y-93318209D01*
X123414862Y-92956369D01*
X123343935Y-92599787D01*
X123343932Y-92599776D01*
X123343931Y-92599773D01*
X123343930Y-92599767D01*
X123238386Y-92251836D01*
X123099247Y-91915924D01*
X123090447Y-91899461D01*
X122927859Y-91595279D01*
X122927858Y-91595277D01*
X122927853Y-91595268D01*
X122725854Y-91292956D01*
X122576776Y-91111304D01*
X125899500Y-91111304D01*
X125899500Y-91288695D01*
X125934103Y-91462658D01*
X125934106Y-91462667D01*
X126001983Y-91626540D01*
X126001990Y-91626553D01*
X126100535Y-91774034D01*
X126100538Y-91774038D01*
X126225961Y-91899461D01*
X126225965Y-91899464D01*
X126373446Y-91998009D01*
X126373459Y-91998016D01*
X126496363Y-92048923D01*
X126537334Y-92065894D01*
X126537336Y-92065894D01*
X126537341Y-92065896D01*
X126711304Y-92100499D01*
X126711307Y-92100500D01*
X126711309Y-92100500D01*
X126888693Y-92100500D01*
X126888694Y-92100499D01*
X126946682Y-92088964D01*
X127062658Y-92065896D01*
X127062661Y-92065894D01*
X127062666Y-92065894D01*
X127226547Y-91998013D01*
X127374035Y-91899464D01*
X127499464Y-91774035D01*
X127598013Y-91626547D01*
X127605123Y-91609383D01*
X127659983Y-91476936D01*
X127665894Y-91462666D01*
X127679405Y-91394745D01*
X127699650Y-91292964D01*
X127700500Y-91288691D01*
X127700500Y-91111309D01*
X127700500Y-91111306D01*
X127700499Y-91111304D01*
X130499500Y-91111304D01*
X130499500Y-91288695D01*
X130534103Y-91462658D01*
X130534106Y-91462667D01*
X130601983Y-91626540D01*
X130601990Y-91626553D01*
X130700535Y-91774034D01*
X130700538Y-91774038D01*
X130825961Y-91899461D01*
X130825965Y-91899464D01*
X130973446Y-91998009D01*
X130973459Y-91998016D01*
X131096363Y-92048923D01*
X131137334Y-92065894D01*
X131137336Y-92065894D01*
X131137341Y-92065896D01*
X131311304Y-92100499D01*
X131311307Y-92100500D01*
X131311309Y-92100500D01*
X131488693Y-92100500D01*
X131488694Y-92100499D01*
X131546682Y-92088964D01*
X131662658Y-92065896D01*
X131662661Y-92065894D01*
X131662666Y-92065894D01*
X131826547Y-91998013D01*
X131974035Y-91899464D01*
X132099464Y-91774035D01*
X132198013Y-91626547D01*
X132205123Y-91609383D01*
X132259983Y-91476936D01*
X132265894Y-91462666D01*
X132279405Y-91394745D01*
X132299650Y-91292964D01*
X132300500Y-91288691D01*
X132300500Y-91111309D01*
X132300500Y-91111306D01*
X132300499Y-91111304D01*
X132265896Y-90937341D01*
X132265893Y-90937332D01*
X132198016Y-90773459D01*
X132198009Y-90773446D01*
X132109327Y-90640725D01*
X132109326Y-90640724D01*
X132099466Y-90625967D01*
X132099461Y-90625961D01*
X132048483Y-90574983D01*
X133649500Y-90574983D01*
X133649500Y-91925001D01*
X133649501Y-91925018D01*
X133660000Y-92027796D01*
X133660001Y-92027799D01*
X133698013Y-92142510D01*
X133715186Y-92194334D01*
X133807288Y-92343656D01*
X133931344Y-92467712D01*
X134080666Y-92559814D01*
X134247203Y-92614999D01*
X134349991Y-92625500D01*
X135150008Y-92625499D01*
X135150016Y-92625498D01*
X135150019Y-92625498D01*
X135206302Y-92619748D01*
X135252797Y-92614999D01*
X135419334Y-92559814D01*
X135568656Y-92467712D01*
X135692712Y-92343656D01*
X135732581Y-92279016D01*
X135784525Y-92232294D01*
X135853488Y-92221071D01*
X135917570Y-92248914D01*
X135925799Y-92256434D01*
X136033397Y-92364032D01*
X136173475Y-92465804D01*
X136327744Y-92544408D01*
X136492415Y-92597914D01*
X136492414Y-92597914D01*
X136499999Y-92599115D01*
X136500000Y-92599114D01*
X136500000Y-91530330D01*
X136519745Y-91550075D01*
X136605255Y-91599444D01*
X136700630Y-91625000D01*
X136799370Y-91625000D01*
X136894745Y-91599444D01*
X136980255Y-91550075D01*
X137000000Y-91530330D01*
X137000000Y-92599115D01*
X137007584Y-92597914D01*
X137172255Y-92544408D01*
X137326524Y-92465804D01*
X137466602Y-92364032D01*
X137589036Y-92241598D01*
X137649371Y-92158552D01*
X137704700Y-92115886D01*
X137774313Y-92109905D01*
X137836109Y-92142510D01*
X137850008Y-92158550D01*
X137850318Y-92158976D01*
X137910586Y-92241928D01*
X138033072Y-92364414D01*
X138173212Y-92466232D01*
X138327555Y-92544873D01*
X138492299Y-92598402D01*
X138663389Y-92625500D01*
X138663390Y-92625500D01*
X138836610Y-92625500D01*
X138836611Y-92625500D01*
X139007701Y-92598402D01*
X139172445Y-92544873D01*
X139326788Y-92466232D01*
X139466928Y-92364414D01*
X139589414Y-92241928D01*
X139649682Y-92158975D01*
X139705012Y-92116311D01*
X139774626Y-92110332D01*
X139836421Y-92142938D01*
X139850315Y-92158973D01*
X139910586Y-92241928D01*
X140033072Y-92364414D01*
X140173212Y-92466232D01*
X140327555Y-92544873D01*
X140492299Y-92598402D01*
X140663389Y-92625500D01*
X140663390Y-92625500D01*
X140836610Y-92625500D01*
X140836611Y-92625500D01*
X141007701Y-92598402D01*
X141172445Y-92544873D01*
X141326788Y-92466232D01*
X141466928Y-92364414D01*
X141589414Y-92241928D01*
X141691232Y-92101788D01*
X141769873Y-91947445D01*
X141823402Y-91782701D01*
X141850500Y-91611611D01*
X141850500Y-90888389D01*
X141823402Y-90717299D01*
X141769873Y-90552555D01*
X141691232Y-90398212D01*
X141589414Y-90258072D01*
X141466928Y-90135586D01*
X141326788Y-90033768D01*
X141172445Y-89955127D01*
X141007701Y-89901598D01*
X141007699Y-89901597D01*
X141007698Y-89901597D01*
X140876271Y-89880781D01*
X140836611Y-89874500D01*
X140663389Y-89874500D01*
X140623728Y-89880781D01*
X140492302Y-89901597D01*
X140327552Y-89955128D01*
X140173211Y-90033768D01*
X140153601Y-90048016D01*
X140033072Y-90135586D01*
X140033070Y-90135588D01*
X140033069Y-90135588D01*
X139910588Y-90258069D01*
X139910581Y-90258078D01*
X139850317Y-90341023D01*
X139794987Y-90383689D01*
X139725374Y-90389667D01*
X139663579Y-90357061D01*
X139649683Y-90341023D01*
X139589418Y-90258078D01*
X139589414Y-90258072D01*
X139466928Y-90135586D01*
X139326788Y-90033768D01*
X139323883Y-90032288D01*
X139172449Y-89955128D01*
X139073061Y-89922835D01*
X139015386Y-89883397D01*
X138988188Y-89819038D01*
X139000103Y-89750192D01*
X139008271Y-89736023D01*
X139048013Y-89676547D01*
X139115894Y-89512666D01*
X139150500Y-89338691D01*
X139150500Y-89161309D01*
X139150500Y-89161306D01*
X139150499Y-89161304D01*
X139115896Y-88987341D01*
X139115893Y-88987332D01*
X139048016Y-88823459D01*
X139048009Y-88823446D01*
X138949464Y-88675965D01*
X138949461Y-88675961D01*
X138824038Y-88550538D01*
X138824034Y-88550535D01*
X138676553Y-88451990D01*
X138676540Y-88451983D01*
X138512667Y-88384106D01*
X138512658Y-88384103D01*
X138338694Y-88349500D01*
X138338691Y-88349500D01*
X138161309Y-88349500D01*
X138161306Y-88349500D01*
X137987341Y-88384103D01*
X137987332Y-88384106D01*
X137823459Y-88451983D01*
X137823446Y-88451990D01*
X137675965Y-88550535D01*
X137675961Y-88550538D01*
X137550538Y-88675961D01*
X137550535Y-88675965D01*
X137451990Y-88823446D01*
X137451983Y-88823459D01*
X137384106Y-88987332D01*
X137384103Y-88987341D01*
X137349500Y-89161304D01*
X137349500Y-89338695D01*
X137384103Y-89512658D01*
X137384106Y-89512667D01*
X137451983Y-89676540D01*
X137451990Y-89676553D01*
X137550535Y-89824034D01*
X137550538Y-89824038D01*
X137675961Y-89949461D01*
X137675965Y-89949464D01*
X137823446Y-90048009D01*
X137823459Y-90048016D01*
X137862659Y-90064253D01*
X137881008Y-90079039D01*
X137901828Y-90090085D01*
X137907710Y-90100556D01*
X137917063Y-90108093D01*
X137924505Y-90130454D01*
X137936048Y-90151002D01*
X137935335Y-90162992D01*
X137939128Y-90174388D01*
X137933299Y-90197222D01*
X137931901Y-90220748D01*
X137923678Y-90234919D01*
X137921849Y-90242087D01*
X137915360Y-90251926D01*
X137911650Y-90257007D01*
X137910586Y-90258072D01*
X137850195Y-90341192D01*
X137849843Y-90341675D01*
X137822262Y-90362843D01*
X137794677Y-90384115D01*
X137794532Y-90384127D01*
X137794417Y-90384216D01*
X137759773Y-90387112D01*
X137725063Y-90390093D01*
X137724934Y-90390024D01*
X137724790Y-90390037D01*
X137694001Y-90373702D01*
X137663269Y-90357486D01*
X137663128Y-90357323D01*
X137663069Y-90357292D01*
X137663010Y-90357187D01*
X137649371Y-90341447D01*
X137589036Y-90258401D01*
X137466602Y-90135967D01*
X137326524Y-90034195D01*
X137172257Y-89955591D01*
X137007589Y-89902087D01*
X137007581Y-89902085D01*
X137000000Y-89900884D01*
X137000000Y-90969670D01*
X136980255Y-90949925D01*
X136894745Y-90900556D01*
X136799370Y-90875000D01*
X136700630Y-90875000D01*
X136605255Y-90900556D01*
X136519745Y-90949925D01*
X136500000Y-90969670D01*
X136500000Y-89900884D01*
X136499999Y-89900884D01*
X136492418Y-89902085D01*
X136492410Y-89902087D01*
X136327742Y-89955591D01*
X136173475Y-90034195D01*
X136033401Y-90135964D01*
X135925799Y-90243566D01*
X135864476Y-90277050D01*
X135794784Y-90272066D01*
X135738851Y-90230194D01*
X135732585Y-90220988D01*
X135692712Y-90156344D01*
X135568656Y-90032288D01*
X135443559Y-89955128D01*
X135419336Y-89940187D01*
X135419331Y-89940185D01*
X135366972Y-89922835D01*
X135252797Y-89885001D01*
X135252795Y-89885000D01*
X135150010Y-89874500D01*
X134349998Y-89874500D01*
X134349980Y-89874501D01*
X134247203Y-89885000D01*
X134247200Y-89885001D01*
X134080668Y-89940185D01*
X134080663Y-89940187D01*
X133931342Y-90032289D01*
X133807289Y-90156342D01*
X133715187Y-90305663D01*
X133715185Y-90305668D01*
X133696239Y-90362843D01*
X133660001Y-90472203D01*
X133660001Y-90472204D01*
X133660000Y-90472204D01*
X133649500Y-90574983D01*
X132048483Y-90574983D01*
X131974038Y-90500538D01*
X131974034Y-90500535D01*
X131826553Y-90401990D01*
X131826540Y-90401983D01*
X131662667Y-90334106D01*
X131662658Y-90334103D01*
X131488694Y-90299500D01*
X131488691Y-90299500D01*
X131311309Y-90299500D01*
X131311306Y-90299500D01*
X131137341Y-90334103D01*
X131137332Y-90334106D01*
X130973459Y-90401983D01*
X130973446Y-90401990D01*
X130825965Y-90500535D01*
X130825961Y-90500538D01*
X130700538Y-90625961D01*
X130700535Y-90625965D01*
X130601990Y-90773446D01*
X130601983Y-90773459D01*
X130534106Y-90937332D01*
X130534103Y-90937341D01*
X130499500Y-91111304D01*
X127700499Y-91111304D01*
X127665896Y-90937341D01*
X127665893Y-90937332D01*
X127598016Y-90773459D01*
X127598009Y-90773446D01*
X127499464Y-90625965D01*
X127499461Y-90625961D01*
X127374038Y-90500538D01*
X127374034Y-90500535D01*
X127226553Y-90401990D01*
X127226540Y-90401983D01*
X127062667Y-90334106D01*
X127062658Y-90334103D01*
X126888694Y-90299500D01*
X126888691Y-90299500D01*
X126711309Y-90299500D01*
X126711306Y-90299500D01*
X126537341Y-90334103D01*
X126537332Y-90334106D01*
X126373459Y-90401983D01*
X126373446Y-90401990D01*
X126225965Y-90500535D01*
X126225961Y-90500538D01*
X126100538Y-90625961D01*
X126100535Y-90625965D01*
X126001990Y-90773446D01*
X126001983Y-90773459D01*
X125934106Y-90937332D01*
X125934103Y-90937341D01*
X125899500Y-91111304D01*
X122576776Y-91111304D01*
X122495197Y-91011899D01*
X122495195Y-91011897D01*
X122495191Y-91011892D01*
X122238106Y-90754807D01*
X121957049Y-90524150D01*
X121957048Y-90524149D01*
X121957044Y-90524146D01*
X121654732Y-90322147D01*
X121654727Y-90322144D01*
X121654720Y-90322140D01*
X121334083Y-90150756D01*
X121334078Y-90150754D01*
X121297459Y-90135586D01*
X121231085Y-90108093D01*
X120998165Y-90011614D01*
X120650223Y-89906067D01*
X120650212Y-89906064D01*
X120293630Y-89835137D01*
X120021111Y-89808296D01*
X119931794Y-89799500D01*
X119568206Y-89799500D01*
X119485679Y-89807628D01*
X119206369Y-89835137D01*
X118849787Y-89906064D01*
X118849776Y-89906067D01*
X118501834Y-90011614D01*
X118165921Y-90150754D01*
X118165916Y-90150756D01*
X117845279Y-90322140D01*
X117845261Y-90322151D01*
X117542964Y-90524140D01*
X117542950Y-90524150D01*
X117261893Y-90754807D01*
X117004807Y-91011893D01*
X116774150Y-91292950D01*
X116774140Y-91292964D01*
X116627102Y-91513022D01*
X116573490Y-91557827D01*
X116504165Y-91566534D01*
X116441137Y-91536380D01*
X116404418Y-91476936D01*
X116400000Y-91444131D01*
X116400000Y-87971115D01*
X116419685Y-87904076D01*
X116472489Y-87858321D01*
X116537255Y-87847826D01*
X116540574Y-87848182D01*
X116562127Y-87850500D01*
X118357872Y-87850499D01*
X118417483Y-87844091D01*
X118552331Y-87793796D01*
X118667546Y-87707546D01*
X118753796Y-87592331D01*
X118802810Y-87460916D01*
X118844681Y-87404984D01*
X118910145Y-87380566D01*
X118978418Y-87395417D01*
X119006673Y-87416569D01*
X119120213Y-87530109D01*
X119292179Y-87655048D01*
X119292181Y-87655049D01*
X119292184Y-87655051D01*
X119481588Y-87751557D01*
X119683757Y-87817246D01*
X119893713Y-87850500D01*
X119893714Y-87850500D01*
X120106286Y-87850500D01*
X120106287Y-87850500D01*
X120316243Y-87817246D01*
X120518412Y-87751557D01*
X120707816Y-87655051D01*
X120794138Y-87592335D01*
X120879786Y-87530109D01*
X120879788Y-87530106D01*
X120879792Y-87530104D01*
X121030104Y-87379792D01*
X121030106Y-87379788D01*
X121030109Y-87379786D01*
X121155048Y-87207820D01*
X121155047Y-87207820D01*
X121155051Y-87207816D01*
X121159514Y-87199054D01*
X121207488Y-87148259D01*
X121275308Y-87131463D01*
X121341444Y-87153999D01*
X121380486Y-87199056D01*
X121384951Y-87207820D01*
X121509890Y-87379786D01*
X121660213Y-87530109D01*
X121832179Y-87655048D01*
X121832181Y-87655049D01*
X121832184Y-87655051D01*
X122021588Y-87751557D01*
X122223757Y-87817246D01*
X122433713Y-87850500D01*
X122433714Y-87850500D01*
X122646286Y-87850500D01*
X122646287Y-87850500D01*
X122856243Y-87817246D01*
X123058412Y-87751557D01*
X123247816Y-87655051D01*
X123334138Y-87592335D01*
X123419786Y-87530109D01*
X123419788Y-87530106D01*
X123419792Y-87530104D01*
X123570104Y-87379792D01*
X123570106Y-87379788D01*
X123570109Y-87379786D01*
X123695048Y-87207820D01*
X123695047Y-87207820D01*
X123695051Y-87207816D01*
X123699514Y-87199054D01*
X123747488Y-87148259D01*
X123815308Y-87131463D01*
X123881444Y-87153999D01*
X123920486Y-87199056D01*
X123924951Y-87207820D01*
X124049890Y-87379786D01*
X124200213Y-87530109D01*
X124372179Y-87655048D01*
X124372181Y-87655049D01*
X124372184Y-87655051D01*
X124561588Y-87751557D01*
X124763757Y-87817246D01*
X124973713Y-87850500D01*
X124973714Y-87850500D01*
X125186286Y-87850500D01*
X125186287Y-87850500D01*
X125396243Y-87817246D01*
X125598412Y-87751557D01*
X125787816Y-87655051D01*
X125874138Y-87592335D01*
X125959786Y-87530109D01*
X125959788Y-87530106D01*
X125959792Y-87530104D01*
X126110104Y-87379792D01*
X126110106Y-87379788D01*
X126110109Y-87379786D01*
X126235048Y-87207820D01*
X126235047Y-87207820D01*
X126235051Y-87207816D01*
X126239514Y-87199054D01*
X126287488Y-87148259D01*
X126355308Y-87131463D01*
X126421444Y-87153999D01*
X126460486Y-87199056D01*
X126464951Y-87207820D01*
X126589890Y-87379786D01*
X126740213Y-87530109D01*
X126912179Y-87655048D01*
X126912181Y-87655049D01*
X126912184Y-87655051D01*
X127101588Y-87751557D01*
X127303757Y-87817246D01*
X127513713Y-87850500D01*
X127513714Y-87850500D01*
X127726286Y-87850500D01*
X127726287Y-87850500D01*
X127936243Y-87817246D01*
X128138412Y-87751557D01*
X128327816Y-87655051D01*
X128414138Y-87592335D01*
X128499786Y-87530109D01*
X128499788Y-87530106D01*
X128499792Y-87530104D01*
X128650104Y-87379792D01*
X128650106Y-87379788D01*
X128650109Y-87379786D01*
X128735890Y-87261717D01*
X128775051Y-87207816D01*
X128779793Y-87198508D01*
X128827763Y-87147711D01*
X128895583Y-87130911D01*
X128961719Y-87153445D01*
X129000763Y-87198500D01*
X129005373Y-87207547D01*
X129044728Y-87261716D01*
X129677037Y-86629408D01*
X129694075Y-86692993D01*
X129759901Y-86807007D01*
X129852993Y-86900099D01*
X129967007Y-86965925D01*
X130030590Y-86982962D01*
X129398282Y-87615269D01*
X129398282Y-87615270D01*
X129452449Y-87654624D01*
X129641782Y-87751095D01*
X129843870Y-87816757D01*
X130053754Y-87850000D01*
X130266246Y-87850000D01*
X130476127Y-87816757D01*
X130476130Y-87816757D01*
X130678217Y-87751095D01*
X130867554Y-87654622D01*
X130921716Y-87615270D01*
X130921717Y-87615270D01*
X130289408Y-86982962D01*
X130352993Y-86965925D01*
X130467007Y-86900099D01*
X130560099Y-86807007D01*
X130625925Y-86692993D01*
X130642962Y-86629408D01*
X131275270Y-87261717D01*
X131275270Y-87261716D01*
X131314622Y-87207554D01*
X131338188Y-87161304D01*
X135349500Y-87161304D01*
X135349500Y-87338695D01*
X135384103Y-87512658D01*
X135384106Y-87512667D01*
X135451983Y-87676540D01*
X135451990Y-87676553D01*
X135550535Y-87824034D01*
X135550538Y-87824038D01*
X135675961Y-87949461D01*
X135675965Y-87949464D01*
X135823446Y-88048009D01*
X135823459Y-88048016D01*
X135946363Y-88098923D01*
X135987334Y-88115894D01*
X135987336Y-88115894D01*
X135987341Y-88115896D01*
X136161304Y-88150499D01*
X136161307Y-88150500D01*
X136161309Y-88150500D01*
X136338693Y-88150500D01*
X136338694Y-88150499D01*
X136396682Y-88138964D01*
X136512658Y-88115896D01*
X136512661Y-88115894D01*
X136512666Y-88115894D01*
X136676547Y-88048013D01*
X136824035Y-87949464D01*
X136949464Y-87824035D01*
X137048013Y-87676547D01*
X137115894Y-87512666D01*
X137150500Y-87338691D01*
X137150500Y-87161309D01*
X137150500Y-87161306D01*
X137150499Y-87161304D01*
X137115896Y-86987341D01*
X137115893Y-86987332D01*
X137048016Y-86823459D01*
X137048009Y-86823446D01*
X136949464Y-86675965D01*
X136949461Y-86675961D01*
X136824038Y-86550538D01*
X136824034Y-86550535D01*
X136676553Y-86451990D01*
X136676540Y-86451983D01*
X136512667Y-86384106D01*
X136512658Y-86384103D01*
X136338694Y-86349500D01*
X136338691Y-86349500D01*
X136161309Y-86349500D01*
X136161306Y-86349500D01*
X135987341Y-86384103D01*
X135987332Y-86384106D01*
X135823459Y-86451983D01*
X135823446Y-86451990D01*
X135675965Y-86550535D01*
X135675961Y-86550538D01*
X135550538Y-86675961D01*
X135550535Y-86675965D01*
X135451990Y-86823446D01*
X135451983Y-86823459D01*
X135384106Y-86987332D01*
X135384103Y-86987341D01*
X135349500Y-87161304D01*
X131338188Y-87161304D01*
X131369974Y-87098922D01*
X131411095Y-87018217D01*
X131476757Y-86816130D01*
X131476757Y-86816127D01*
X131510000Y-86606246D01*
X131510000Y-86393753D01*
X131476757Y-86183872D01*
X131476757Y-86183869D01*
X131411095Y-85981782D01*
X131314624Y-85792449D01*
X131275270Y-85738282D01*
X131275269Y-85738282D01*
X130642962Y-86370590D01*
X130625925Y-86307007D01*
X130560099Y-86192993D01*
X130467007Y-86099901D01*
X130352993Y-86034075D01*
X130289409Y-86017037D01*
X130901446Y-85404999D01*
X130962769Y-85371514D01*
X131013319Y-85371063D01*
X131161306Y-85400500D01*
X131161309Y-85400500D01*
X131338693Y-85400500D01*
X131338694Y-85400499D01*
X131417987Y-85384727D01*
X131512658Y-85365896D01*
X131512661Y-85365894D01*
X131512666Y-85365894D01*
X131676547Y-85298013D01*
X131824035Y-85199464D01*
X131949464Y-85074035D01*
X132048013Y-84926547D01*
X132115894Y-84762666D01*
X132150500Y-84588691D01*
X132150500Y-84411309D01*
X132150500Y-84411306D01*
X132150499Y-84411304D01*
X133849500Y-84411304D01*
X133849500Y-84588695D01*
X133884103Y-84762658D01*
X133884106Y-84762667D01*
X133951983Y-84926540D01*
X133951990Y-84926553D01*
X134050535Y-85074034D01*
X134050538Y-85074038D01*
X134175961Y-85199461D01*
X134175965Y-85199464D01*
X134323446Y-85298009D01*
X134323459Y-85298016D01*
X134437808Y-85345380D01*
X134487334Y-85365894D01*
X134487336Y-85365894D01*
X134487341Y-85365896D01*
X134661304Y-85400499D01*
X134661307Y-85400500D01*
X134661309Y-85400500D01*
X134838693Y-85400500D01*
X134838694Y-85400499D01*
X134917987Y-85384727D01*
X135012658Y-85365896D01*
X135012661Y-85365894D01*
X135012666Y-85365894D01*
X135176547Y-85298013D01*
X135324035Y-85199464D01*
X135449464Y-85074035D01*
X135548013Y-84926547D01*
X135615894Y-84762666D01*
X135650500Y-84588691D01*
X135650500Y-84411309D01*
X135650500Y-84411306D01*
X135650499Y-84411304D01*
X135615896Y-84237341D01*
X135615893Y-84237332D01*
X135548016Y-84073459D01*
X135548009Y-84073446D01*
X135449464Y-83925965D01*
X135449461Y-83925961D01*
X135324038Y-83800538D01*
X135324034Y-83800535D01*
X135176553Y-83701990D01*
X135176540Y-83701983D01*
X135012667Y-83634106D01*
X135012658Y-83634103D01*
X134838694Y-83599500D01*
X134838691Y-83599500D01*
X134661309Y-83599500D01*
X134661306Y-83599500D01*
X134487341Y-83634103D01*
X134487332Y-83634106D01*
X134323459Y-83701983D01*
X134323446Y-83701990D01*
X134175965Y-83800535D01*
X134175961Y-83800538D01*
X134050538Y-83925961D01*
X134050535Y-83925965D01*
X133951990Y-84073446D01*
X133951983Y-84073459D01*
X133884106Y-84237332D01*
X133884103Y-84237341D01*
X133849500Y-84411304D01*
X132150499Y-84411304D01*
X132115896Y-84237341D01*
X132115893Y-84237332D01*
X132048016Y-84073459D01*
X132048009Y-84073446D01*
X131949464Y-83925965D01*
X131949461Y-83925961D01*
X131824038Y-83800538D01*
X131824034Y-83800535D01*
X131676553Y-83701990D01*
X131676540Y-83701983D01*
X131512667Y-83634106D01*
X131512658Y-83634103D01*
X131338694Y-83599500D01*
X131338691Y-83599500D01*
X131161309Y-83599500D01*
X131161306Y-83599500D01*
X130987341Y-83634103D01*
X130987332Y-83634106D01*
X130823459Y-83701983D01*
X130823446Y-83701990D01*
X130675965Y-83800535D01*
X130675961Y-83800538D01*
X130550538Y-83925961D01*
X130550535Y-83925965D01*
X130451990Y-84073446D01*
X130451983Y-84073459D01*
X130384106Y-84237332D01*
X130384103Y-84237341D01*
X130349500Y-84411304D01*
X130349500Y-84588695D01*
X130384103Y-84762658D01*
X130384106Y-84762667D01*
X130451983Y-84926540D01*
X130451990Y-84926552D01*
X130483450Y-84973635D01*
X130504328Y-85040312D01*
X130485844Y-85107692D01*
X130433865Y-85154383D01*
X130364895Y-85165559D01*
X130360951Y-85164999D01*
X130266247Y-85150000D01*
X130053754Y-85150000D01*
X129843872Y-85183242D01*
X129843869Y-85183242D01*
X129641782Y-85248904D01*
X129452439Y-85345380D01*
X129398282Y-85384727D01*
X129398282Y-85384728D01*
X130030591Y-86017037D01*
X129967007Y-86034075D01*
X129852993Y-86099901D01*
X129759901Y-86192993D01*
X129694075Y-86307007D01*
X129677037Y-86370591D01*
X129044728Y-85738282D01*
X129044727Y-85738282D01*
X129005380Y-85792440D01*
X129005376Y-85792446D01*
X129000760Y-85801505D01*
X128952781Y-85852297D01*
X128884959Y-85869087D01*
X128818826Y-85846543D01*
X128779794Y-85801493D01*
X128775051Y-85792184D01*
X128775049Y-85792181D01*
X128775048Y-85792179D01*
X128650109Y-85620213D01*
X128499786Y-85469890D01*
X128327820Y-85344951D01*
X128138414Y-85248444D01*
X128138413Y-85248443D01*
X128138412Y-85248443D01*
X127936243Y-85182754D01*
X127936241Y-85182753D01*
X127936240Y-85182753D01*
X127774957Y-85157208D01*
X127726287Y-85149500D01*
X127513713Y-85149500D01*
X127465042Y-85157208D01*
X127303760Y-85182753D01*
X127101585Y-85248444D01*
X126912179Y-85344951D01*
X126740213Y-85469890D01*
X126589890Y-85620213D01*
X126464949Y-85792182D01*
X126460484Y-85800946D01*
X126412509Y-85851742D01*
X126344688Y-85868536D01*
X126278553Y-85845998D01*
X126239516Y-85800946D01*
X126235050Y-85792182D01*
X126110109Y-85620213D01*
X125959786Y-85469890D01*
X125787820Y-85344951D01*
X125598414Y-85248444D01*
X125598413Y-85248443D01*
X125598412Y-85248443D01*
X125396243Y-85182754D01*
X125396241Y-85182753D01*
X125396240Y-85182753D01*
X125234957Y-85157208D01*
X125186287Y-85149500D01*
X124973713Y-85149500D01*
X124925042Y-85157208D01*
X124763760Y-85182753D01*
X124561585Y-85248444D01*
X124372179Y-85344951D01*
X124200213Y-85469890D01*
X124049890Y-85620213D01*
X123924949Y-85792182D01*
X123920484Y-85800946D01*
X123872509Y-85851742D01*
X123804688Y-85868536D01*
X123738553Y-85845998D01*
X123699516Y-85800946D01*
X123695050Y-85792182D01*
X123570109Y-85620213D01*
X123419786Y-85469890D01*
X123247820Y-85344951D01*
X123058414Y-85248444D01*
X123058413Y-85248443D01*
X123058412Y-85248443D01*
X122856243Y-85182754D01*
X122856241Y-85182753D01*
X122856240Y-85182753D01*
X122694957Y-85157208D01*
X122646287Y-85149500D01*
X122433713Y-85149500D01*
X122385042Y-85157208D01*
X122223760Y-85182753D01*
X122021585Y-85248444D01*
X121832179Y-85344951D01*
X121660213Y-85469890D01*
X121509890Y-85620213D01*
X121384949Y-85792182D01*
X121380484Y-85800946D01*
X121332509Y-85851742D01*
X121264688Y-85868536D01*
X121198553Y-85845998D01*
X121159516Y-85800946D01*
X121155050Y-85792182D01*
X121030109Y-85620213D01*
X120879786Y-85469890D01*
X120707820Y-85344951D01*
X120518414Y-85248444D01*
X120518413Y-85248443D01*
X120518412Y-85248443D01*
X120316243Y-85182754D01*
X120316241Y-85182753D01*
X120316240Y-85182753D01*
X120154957Y-85157208D01*
X120106287Y-85149500D01*
X119893713Y-85149500D01*
X119845042Y-85157208D01*
X119683760Y-85182753D01*
X119481585Y-85248444D01*
X119292179Y-85344951D01*
X119120215Y-85469889D01*
X119006673Y-85583431D01*
X118945350Y-85616915D01*
X118875658Y-85611931D01*
X118819725Y-85570059D01*
X118802810Y-85539082D01*
X118753797Y-85407671D01*
X118753793Y-85407664D01*
X118667547Y-85292455D01*
X118667544Y-85292452D01*
X118552335Y-85206206D01*
X118552328Y-85206202D01*
X118417482Y-85155908D01*
X118417483Y-85155908D01*
X118357883Y-85149501D01*
X118357881Y-85149500D01*
X118357873Y-85149500D01*
X118357865Y-85149500D01*
X117631029Y-85149500D01*
X117563990Y-85129815D01*
X117518235Y-85077011D01*
X117508291Y-85007853D01*
X117527927Y-84956610D01*
X117548006Y-84926558D01*
X117548009Y-84926553D01*
X117548013Y-84926547D01*
X117615894Y-84762666D01*
X117650500Y-84588691D01*
X117650500Y-84411309D01*
X117650500Y-84411306D01*
X117650499Y-84411304D01*
X117615896Y-84237341D01*
X117615893Y-84237332D01*
X117548016Y-84073459D01*
X117548009Y-84073446D01*
X117449464Y-83925965D01*
X117449461Y-83925961D01*
X117324038Y-83800538D01*
X117324034Y-83800535D01*
X117176553Y-83701990D01*
X117176540Y-83701983D01*
X117012667Y-83634106D01*
X117012658Y-83634103D01*
X116838694Y-83599500D01*
X116838691Y-83599500D01*
X116661309Y-83599500D01*
X116661306Y-83599500D01*
X116548191Y-83622000D01*
X116478600Y-83615773D01*
X116423422Y-83572910D01*
X116400178Y-83507020D01*
X116400000Y-83500383D01*
X116400000Y-82911304D01*
X122849500Y-82911304D01*
X122849500Y-83088695D01*
X122884103Y-83262658D01*
X122884106Y-83262667D01*
X122951983Y-83426540D01*
X122951990Y-83426553D01*
X123050535Y-83574034D01*
X123050538Y-83574038D01*
X123175961Y-83699461D01*
X123175965Y-83699464D01*
X123323446Y-83798009D01*
X123323459Y-83798016D01*
X123446363Y-83848923D01*
X123487334Y-83865894D01*
X123487336Y-83865894D01*
X123487341Y-83865896D01*
X123661304Y-83900499D01*
X123661307Y-83900500D01*
X123661309Y-83900500D01*
X123838693Y-83900500D01*
X123838694Y-83900499D01*
X123896682Y-83888964D01*
X124012658Y-83865896D01*
X124012661Y-83865894D01*
X124012666Y-83865894D01*
X124176547Y-83798013D01*
X124324035Y-83699464D01*
X124449464Y-83574035D01*
X124548013Y-83426547D01*
X124615894Y-83262666D01*
X124633609Y-83173610D01*
X124650499Y-83088695D01*
X124650500Y-83088693D01*
X124650500Y-82911306D01*
X124650499Y-82911304D01*
X124615896Y-82737341D01*
X124615893Y-82737332D01*
X124548016Y-82573459D01*
X124548009Y-82573446D01*
X124449464Y-82425965D01*
X124449461Y-82425961D01*
X124324038Y-82300538D01*
X124298268Y-82283319D01*
X124298266Y-82283317D01*
X124176553Y-82201990D01*
X124176540Y-82201983D01*
X124138687Y-82186304D01*
X125142391Y-82186304D01*
X125142391Y-82363695D01*
X125176994Y-82537658D01*
X125176997Y-82537667D01*
X125244874Y-82701540D01*
X125244881Y-82701553D01*
X125343426Y-82849034D01*
X125343429Y-82849038D01*
X125468852Y-82974461D01*
X125468856Y-82974464D01*
X125616337Y-83073009D01*
X125616350Y-83073016D01*
X125739254Y-83123923D01*
X125780225Y-83140894D01*
X125781854Y-83141218D01*
X125781899Y-83141227D01*
X125782693Y-83141642D01*
X125786060Y-83142664D01*
X125785866Y-83143302D01*
X125843811Y-83173610D01*
X125878387Y-83234324D01*
X125879329Y-83238653D01*
X125884104Y-83262660D01*
X125884107Y-83262670D01*
X125951983Y-83426540D01*
X125951990Y-83426553D01*
X126050535Y-83574034D01*
X126050538Y-83574038D01*
X126175961Y-83699461D01*
X126175965Y-83699464D01*
X126323446Y-83798009D01*
X126323459Y-83798016D01*
X126446363Y-83848923D01*
X126487334Y-83865894D01*
X126487336Y-83865894D01*
X126487341Y-83865896D01*
X126661304Y-83900499D01*
X126661307Y-83900500D01*
X126661309Y-83900500D01*
X126838693Y-83900500D01*
X126838694Y-83900499D01*
X126896682Y-83888964D01*
X127012658Y-83865896D01*
X127012661Y-83865894D01*
X127012666Y-83865894D01*
X127176547Y-83798013D01*
X127324035Y-83699464D01*
X127449464Y-83574035D01*
X127548013Y-83426547D01*
X127615894Y-83262666D01*
X127633609Y-83173610D01*
X127650499Y-83088695D01*
X127650500Y-83088693D01*
X127650500Y-82911306D01*
X127650499Y-82911304D01*
X127615896Y-82737341D01*
X127615893Y-82737332D01*
X127548016Y-82573459D01*
X127548009Y-82573446D01*
X127449464Y-82425965D01*
X127449461Y-82425961D01*
X127324038Y-82300538D01*
X127324034Y-82300535D01*
X127176553Y-82201990D01*
X127176540Y-82201983D01*
X127012668Y-82134106D01*
X127012656Y-82134103D01*
X127010982Y-82133770D01*
X127010186Y-82133353D01*
X127006832Y-82132336D01*
X127007024Y-82131699D01*
X126949072Y-82101383D01*
X126914500Y-82040666D01*
X126913567Y-82036378D01*
X126908785Y-82012334D01*
X126882744Y-81949464D01*
X126840907Y-81848459D01*
X126840900Y-81848446D01*
X126742355Y-81700965D01*
X126742352Y-81700961D01*
X126616929Y-81575538D01*
X126616925Y-81575535D01*
X126469444Y-81476990D01*
X126469431Y-81476983D01*
X126305558Y-81409106D01*
X126305549Y-81409103D01*
X126131585Y-81374500D01*
X126131582Y-81374500D01*
X125954200Y-81374500D01*
X125954197Y-81374500D01*
X125780232Y-81409103D01*
X125780223Y-81409106D01*
X125616350Y-81476983D01*
X125616337Y-81476990D01*
X125468856Y-81575535D01*
X125468852Y-81575538D01*
X125343429Y-81700961D01*
X125343426Y-81700965D01*
X125244881Y-81848446D01*
X125244874Y-81848459D01*
X125176997Y-82012332D01*
X125176994Y-82012341D01*
X125142391Y-82186304D01*
X124138687Y-82186304D01*
X124012667Y-82134106D01*
X124012658Y-82134103D01*
X123838694Y-82099500D01*
X123838691Y-82099500D01*
X123661309Y-82099500D01*
X123661306Y-82099500D01*
X123487341Y-82134103D01*
X123487332Y-82134106D01*
X123323459Y-82201983D01*
X123323446Y-82201990D01*
X123175965Y-82300535D01*
X123175961Y-82300538D01*
X123050538Y-82425961D01*
X123050535Y-82425965D01*
X122951990Y-82573446D01*
X122951983Y-82573459D01*
X122884106Y-82737332D01*
X122884103Y-82737341D01*
X122849500Y-82911304D01*
X116400000Y-82911304D01*
X116400000Y-81161304D01*
X127849500Y-81161304D01*
X127849500Y-81338695D01*
X127884103Y-81512658D01*
X127884106Y-81512667D01*
X127951983Y-81676540D01*
X127951990Y-81676553D01*
X128050535Y-81824034D01*
X128050538Y-81824038D01*
X128175961Y-81949461D01*
X128175965Y-81949464D01*
X128323446Y-82048009D01*
X128323459Y-82048016D01*
X128438950Y-82095853D01*
X128487334Y-82115894D01*
X128487336Y-82115894D01*
X128487341Y-82115896D01*
X128661304Y-82150499D01*
X128661307Y-82150500D01*
X128661309Y-82150500D01*
X128838693Y-82150500D01*
X128838694Y-82150499D01*
X128922798Y-82133770D01*
X129012658Y-82115896D01*
X129012661Y-82115894D01*
X129012666Y-82115894D01*
X129176547Y-82048013D01*
X129324035Y-81949464D01*
X129449464Y-81824035D01*
X129548013Y-81676547D01*
X129615894Y-81512666D01*
X129622332Y-81480304D01*
X129650499Y-81338695D01*
X129650500Y-81338693D01*
X129650500Y-81161306D01*
X129650499Y-81161304D01*
X129615896Y-80987341D01*
X129615893Y-80987332D01*
X129548016Y-80823459D01*
X129548009Y-80823446D01*
X129449464Y-80675965D01*
X129449461Y-80675961D01*
X129334804Y-80561304D01*
X130574500Y-80561304D01*
X130574500Y-80738695D01*
X130609103Y-80912658D01*
X130609106Y-80912667D01*
X130676983Y-81076540D01*
X130676990Y-81076553D01*
X130775535Y-81224034D01*
X130775538Y-81224038D01*
X130900961Y-81349461D01*
X130900965Y-81349464D01*
X131048446Y-81448009D01*
X131048459Y-81448016D01*
X131126411Y-81480304D01*
X131212334Y-81515894D01*
X131212336Y-81515894D01*
X131212341Y-81515896D01*
X131386304Y-81550499D01*
X131386307Y-81550500D01*
X131386309Y-81550500D01*
X131563693Y-81550500D01*
X131563694Y-81550499D01*
X131621682Y-81538964D01*
X131737658Y-81515896D01*
X131737661Y-81515894D01*
X131737666Y-81515894D01*
X131901547Y-81448013D01*
X131956486Y-81411304D01*
X141599500Y-81411304D01*
X141599500Y-81588695D01*
X141634103Y-81762658D01*
X141634106Y-81762667D01*
X141701983Y-81926540D01*
X141701990Y-81926553D01*
X141800535Y-82074034D01*
X141800538Y-82074038D01*
X141925961Y-82199461D01*
X141925965Y-82199464D01*
X142073446Y-82298009D01*
X142073459Y-82298016D01*
X142196363Y-82348923D01*
X142237334Y-82365894D01*
X142237336Y-82365894D01*
X142237341Y-82365896D01*
X142411304Y-82400499D01*
X142411307Y-82400500D01*
X142411309Y-82400500D01*
X142588693Y-82400500D01*
X142588694Y-82400499D01*
X142646682Y-82388964D01*
X142762658Y-82365896D01*
X142762661Y-82365894D01*
X142762666Y-82365894D01*
X142926547Y-82298013D01*
X143074035Y-82199464D01*
X143083878Y-82189621D01*
X152226490Y-82189621D01*
X152226490Y-82367012D01*
X152261093Y-82540975D01*
X152261096Y-82540984D01*
X152328973Y-82704857D01*
X152328980Y-82704870D01*
X152427525Y-82852351D01*
X152427528Y-82852355D01*
X152552951Y-82977778D01*
X152552955Y-82977781D01*
X152700436Y-83076326D01*
X152700449Y-83076333D01*
X152823353Y-83127240D01*
X152864324Y-83144211D01*
X152864326Y-83144211D01*
X152864331Y-83144213D01*
X153038294Y-83178816D01*
X153038297Y-83178817D01*
X153038299Y-83178817D01*
X153215683Y-83178817D01*
X153215684Y-83178816D01*
X153273672Y-83167281D01*
X153389648Y-83144213D01*
X153389651Y-83144211D01*
X153389656Y-83144211D01*
X153553537Y-83076330D01*
X153701025Y-82977781D01*
X153826454Y-82852352D01*
X153925003Y-82704864D01*
X153926375Y-82701553D01*
X153979432Y-82573459D01*
X153992884Y-82540983D01*
X153993546Y-82537658D01*
X154027489Y-82367012D01*
X154027490Y-82367010D01*
X154027490Y-82189623D01*
X154027489Y-82189621D01*
X153992886Y-82015658D01*
X153992883Y-82015649D01*
X153925006Y-81851776D01*
X153924999Y-81851763D01*
X153826454Y-81704282D01*
X153826451Y-81704278D01*
X153701028Y-81578855D01*
X153701024Y-81578852D01*
X153553543Y-81480307D01*
X153553530Y-81480300D01*
X153389657Y-81412423D01*
X153389648Y-81412420D01*
X153215684Y-81377817D01*
X153215681Y-81377817D01*
X153038299Y-81377817D01*
X153038296Y-81377817D01*
X152864331Y-81412420D01*
X152864322Y-81412423D01*
X152700449Y-81480300D01*
X152700436Y-81480307D01*
X152552955Y-81578852D01*
X152552951Y-81578855D01*
X152427528Y-81704278D01*
X152427525Y-81704282D01*
X152328980Y-81851763D01*
X152328973Y-81851776D01*
X152261096Y-82015649D01*
X152261093Y-82015658D01*
X152226490Y-82189621D01*
X143083878Y-82189621D01*
X143123000Y-82150499D01*
X143177647Y-82095853D01*
X143199461Y-82074038D01*
X143199464Y-82074035D01*
X143298013Y-81926547D01*
X143365894Y-81762666D01*
X143377508Y-81704282D01*
X143400499Y-81588695D01*
X143400500Y-81588693D01*
X143400500Y-81411306D01*
X143400499Y-81411304D01*
X143365896Y-81237341D01*
X143365893Y-81237332D01*
X143298016Y-81073459D01*
X143298009Y-81073446D01*
X143199464Y-80925965D01*
X143199461Y-80925961D01*
X143074038Y-80800538D01*
X143074034Y-80800535D01*
X142926553Y-80701990D01*
X142926540Y-80701983D01*
X142762667Y-80634106D01*
X142762658Y-80634103D01*
X142588694Y-80599500D01*
X142588691Y-80599500D01*
X142411309Y-80599500D01*
X142411306Y-80599500D01*
X142237341Y-80634103D01*
X142237332Y-80634106D01*
X142073459Y-80701983D01*
X142073446Y-80701990D01*
X141925965Y-80800535D01*
X141925961Y-80800538D01*
X141800538Y-80925961D01*
X141800535Y-80925965D01*
X141701990Y-81073446D01*
X141701983Y-81073459D01*
X141634106Y-81237332D01*
X141634103Y-81237341D01*
X141599500Y-81411304D01*
X131956486Y-81411304D01*
X132049035Y-81349464D01*
X132059808Y-81338691D01*
X132080964Y-81317536D01*
X132174461Y-81224038D01*
X132174464Y-81224035D01*
X132273013Y-81076547D01*
X132274298Y-81073446D01*
X132309966Y-80987334D01*
X132340894Y-80912666D01*
X132358639Y-80823459D01*
X132375499Y-80738695D01*
X132375500Y-80738693D01*
X132375500Y-80561306D01*
X132375499Y-80561304D01*
X132340896Y-80387341D01*
X132340893Y-80387332D01*
X132273016Y-80223459D01*
X132273009Y-80223446D01*
X132174464Y-80075965D01*
X132174461Y-80075961D01*
X132049038Y-79950538D01*
X132049034Y-79950535D01*
X131901553Y-79851990D01*
X131901540Y-79851983D01*
X131737667Y-79784106D01*
X131737658Y-79784103D01*
X131563694Y-79749500D01*
X131563691Y-79749500D01*
X131386309Y-79749500D01*
X131386306Y-79749500D01*
X131212341Y-79784103D01*
X131212332Y-79784106D01*
X131048459Y-79851983D01*
X131048446Y-79851990D01*
X130900965Y-79950535D01*
X130900961Y-79950538D01*
X130775538Y-80075961D01*
X130775535Y-80075965D01*
X130676990Y-80223446D01*
X130676983Y-80223459D01*
X130609106Y-80387332D01*
X130609103Y-80387341D01*
X130574500Y-80561304D01*
X129334804Y-80561304D01*
X129324038Y-80550538D01*
X129324034Y-80550535D01*
X129176553Y-80451990D01*
X129176540Y-80451983D01*
X129012667Y-80384106D01*
X129012658Y-80384103D01*
X128838694Y-80349500D01*
X128838691Y-80349500D01*
X128661309Y-80349500D01*
X128661306Y-80349500D01*
X128487341Y-80384103D01*
X128487332Y-80384106D01*
X128323459Y-80451983D01*
X128323446Y-80451990D01*
X128175965Y-80550535D01*
X128175961Y-80550538D01*
X128050538Y-80675961D01*
X128050535Y-80675965D01*
X127951990Y-80823446D01*
X127951983Y-80823459D01*
X127884106Y-80987332D01*
X127884103Y-80987341D01*
X127849500Y-81161304D01*
X116400000Y-81161304D01*
X116400000Y-78820873D01*
X116419685Y-78753834D01*
X116472489Y-78708079D01*
X116541647Y-78698135D01*
X116605203Y-78727160D01*
X116638561Y-78773421D01*
X116701983Y-78926541D01*
X116701990Y-78926553D01*
X116800535Y-79074034D01*
X116800538Y-79074038D01*
X116925961Y-79199461D01*
X116925965Y-79199464D01*
X117073446Y-79298009D01*
X117073459Y-79298016D01*
X117196363Y-79348923D01*
X117237334Y-79365894D01*
X117237336Y-79365894D01*
X117237341Y-79365896D01*
X117411304Y-79400499D01*
X117411307Y-79400500D01*
X117411309Y-79400500D01*
X117588693Y-79400500D01*
X117588694Y-79400499D01*
X117646682Y-79388964D01*
X117762658Y-79365896D01*
X117762661Y-79365894D01*
X117762666Y-79365894D01*
X117926547Y-79298013D01*
X118074035Y-79199464D01*
X118199464Y-79074035D01*
X118298013Y-78926547D01*
X118365894Y-78762666D01*
X118400500Y-78588691D01*
X118400500Y-78411309D01*
X118400500Y-78411306D01*
X118400499Y-78411304D01*
X118365896Y-78237341D01*
X118365893Y-78237332D01*
X118298016Y-78073459D01*
X118298009Y-78073446D01*
X118199464Y-77925965D01*
X118199461Y-77925961D01*
X118074038Y-77800538D01*
X118074034Y-77800535D01*
X117926553Y-77701990D01*
X117926540Y-77701983D01*
X117762667Y-77634106D01*
X117762658Y-77634103D01*
X117588694Y-77599500D01*
X117588691Y-77599500D01*
X117411309Y-77599500D01*
X117411306Y-77599500D01*
X117237341Y-77634103D01*
X117237332Y-77634106D01*
X117073459Y-77701983D01*
X117073446Y-77701990D01*
X116925965Y-77800535D01*
X116925961Y-77800538D01*
X116800538Y-77925961D01*
X116800535Y-77925965D01*
X116701990Y-78073446D01*
X116701983Y-78073459D01*
X116638561Y-78226578D01*
X116594721Y-78280982D01*
X116528427Y-78303047D01*
X116460727Y-78285768D01*
X116413116Y-78234631D01*
X116400000Y-78179126D01*
X116400000Y-77411304D01*
X129599500Y-77411304D01*
X129599500Y-77588695D01*
X129634103Y-77762658D01*
X129634106Y-77762667D01*
X129701983Y-77926540D01*
X129701990Y-77926553D01*
X129800535Y-78074034D01*
X129800538Y-78074038D01*
X129925961Y-78199461D01*
X129925965Y-78199464D01*
X130073446Y-78298009D01*
X130073459Y-78298016D01*
X130196363Y-78348923D01*
X130237334Y-78365894D01*
X130237336Y-78365894D01*
X130237341Y-78365896D01*
X130411304Y-78400499D01*
X130411307Y-78400500D01*
X130411309Y-78400500D01*
X130588693Y-78400500D01*
X130588694Y-78400499D01*
X130646682Y-78388964D01*
X130762658Y-78365896D01*
X130762661Y-78365894D01*
X130762666Y-78365894D01*
X130926547Y-78298013D01*
X131074035Y-78199464D01*
X131199464Y-78074035D01*
X131298013Y-77926547D01*
X131365894Y-77762666D01*
X131400500Y-77588691D01*
X131400500Y-77411309D01*
X131400500Y-77411306D01*
X131400499Y-77411304D01*
X131365896Y-77237341D01*
X131365893Y-77237332D01*
X131298016Y-77073459D01*
X131298009Y-77073446D01*
X131199464Y-76925965D01*
X131199461Y-76925961D01*
X131074038Y-76800538D01*
X131074034Y-76800535D01*
X130926553Y-76701990D01*
X130926540Y-76701983D01*
X130762667Y-76634106D01*
X130762658Y-76634103D01*
X130588694Y-76599500D01*
X130588691Y-76599500D01*
X130411309Y-76599500D01*
X130411306Y-76599500D01*
X130237341Y-76634103D01*
X130237332Y-76634106D01*
X130073459Y-76701983D01*
X130073446Y-76701990D01*
X129925965Y-76800535D01*
X129925961Y-76800538D01*
X129800538Y-76925961D01*
X129800535Y-76925965D01*
X129701990Y-77073446D01*
X129701983Y-77073459D01*
X129634106Y-77237332D01*
X129634103Y-77237341D01*
X129599500Y-77411304D01*
X116400000Y-77411304D01*
X116400000Y-70711304D01*
X149499500Y-70711304D01*
X149499500Y-70888695D01*
X149534103Y-71062658D01*
X149534106Y-71062667D01*
X149601983Y-71226540D01*
X149601990Y-71226553D01*
X149700535Y-71374034D01*
X149700538Y-71374038D01*
X149825961Y-71499461D01*
X149825965Y-71499464D01*
X149973446Y-71598009D01*
X149973459Y-71598016D01*
X150096363Y-71648923D01*
X150137334Y-71665894D01*
X150137336Y-71665894D01*
X150137341Y-71665896D01*
X150311304Y-71700499D01*
X150311307Y-71700500D01*
X150311309Y-71700500D01*
X150488693Y-71700500D01*
X150488694Y-71700499D01*
X150546682Y-71688964D01*
X150662658Y-71665896D01*
X150662661Y-71665894D01*
X150662666Y-71665894D01*
X150826547Y-71598013D01*
X150974035Y-71499464D01*
X151099464Y-71374035D01*
X151198013Y-71226547D01*
X151265894Y-71062666D01*
X151300500Y-70888691D01*
X151300500Y-70711309D01*
X151300500Y-70711306D01*
X151300499Y-70711304D01*
X151265896Y-70537341D01*
X151265893Y-70537332D01*
X151198016Y-70373459D01*
X151198009Y-70373446D01*
X151099464Y-70225965D01*
X151099461Y-70225961D01*
X150974038Y-70100538D01*
X150974034Y-70100535D01*
X150826553Y-70001990D01*
X150826540Y-70001983D01*
X150662667Y-69934106D01*
X150662658Y-69934103D01*
X150488694Y-69899500D01*
X150488691Y-69899500D01*
X150311309Y-69899500D01*
X150311306Y-69899500D01*
X150137341Y-69934103D01*
X150137332Y-69934106D01*
X149973459Y-70001983D01*
X149973446Y-70001990D01*
X149825965Y-70100535D01*
X149825961Y-70100538D01*
X149700538Y-70225961D01*
X149700535Y-70225965D01*
X149601990Y-70373446D01*
X149601983Y-70373459D01*
X149534106Y-70537332D01*
X149534103Y-70537341D01*
X149499500Y-70711304D01*
X116400000Y-70711304D01*
X116400000Y-60901577D01*
X143149500Y-60901577D01*
X143149500Y-61098422D01*
X143180290Y-61292826D01*
X143241117Y-61480029D01*
X143330476Y-61655405D01*
X143446172Y-61814646D01*
X143585354Y-61953828D01*
X143744595Y-62069524D01*
X143827455Y-62111743D01*
X143919970Y-62158882D01*
X143919972Y-62158882D01*
X143919975Y-62158884D01*
X144020317Y-62191487D01*
X144107173Y-62219709D01*
X144301578Y-62250500D01*
X144301583Y-62250500D01*
X144498422Y-62250500D01*
X144692826Y-62219709D01*
X144880025Y-62158884D01*
X145055405Y-62069524D01*
X145214646Y-61953828D01*
X145353828Y-61814646D01*
X145469524Y-61655405D01*
X145558884Y-61480025D01*
X145619709Y-61292826D01*
X145650500Y-61098422D01*
X145650500Y-60901577D01*
X145619709Y-60707173D01*
X145558882Y-60519970D01*
X145469523Y-60344594D01*
X145353828Y-60185354D01*
X145214646Y-60046172D01*
X145055405Y-59930476D01*
X144880029Y-59841117D01*
X144692826Y-59780290D01*
X144498422Y-59749500D01*
X144498417Y-59749500D01*
X144301583Y-59749500D01*
X144301578Y-59749500D01*
X144107173Y-59780290D01*
X143919970Y-59841117D01*
X143744594Y-59930476D01*
X143653741Y-59996485D01*
X143585354Y-60046172D01*
X143585352Y-60046174D01*
X143585351Y-60046174D01*
X143446174Y-60185351D01*
X143446174Y-60185352D01*
X143446172Y-60185354D01*
X143396485Y-60253741D01*
X143330476Y-60344594D01*
X143241117Y-60519970D01*
X143180290Y-60707173D01*
X143149500Y-60901577D01*
X116400000Y-60901577D01*
X116400000Y-57911304D01*
X121599500Y-57911304D01*
X121599500Y-58088695D01*
X121634103Y-58262658D01*
X121634106Y-58262667D01*
X121701983Y-58426540D01*
X121701990Y-58426553D01*
X121800535Y-58574034D01*
X121800538Y-58574038D01*
X121925961Y-58699461D01*
X121925965Y-58699464D01*
X122073446Y-58798009D01*
X122073459Y-58798016D01*
X122196363Y-58848923D01*
X122237334Y-58865894D01*
X122237336Y-58865894D01*
X122237341Y-58865896D01*
X122411304Y-58900499D01*
X122411307Y-58900500D01*
X122411309Y-58900500D01*
X122588693Y-58900500D01*
X122588694Y-58900499D01*
X122646682Y-58888964D01*
X122762658Y-58865896D01*
X122762661Y-58865894D01*
X122762666Y-58865894D01*
X122926547Y-58798013D01*
X123074035Y-58699464D01*
X123199464Y-58574035D01*
X123298013Y-58426547D01*
X123365894Y-58262666D01*
X123400500Y-58088691D01*
X123400500Y-57911309D01*
X123400500Y-57911306D01*
X123400499Y-57911304D01*
X123365896Y-57737341D01*
X123365893Y-57737332D01*
X123298016Y-57573459D01*
X123298009Y-57573446D01*
X123199464Y-57425965D01*
X123199461Y-57425961D01*
X123074038Y-57300538D01*
X123074034Y-57300535D01*
X122926553Y-57201990D01*
X122926540Y-57201983D01*
X122762667Y-57134106D01*
X122762658Y-57134103D01*
X122588694Y-57099500D01*
X122588691Y-57099500D01*
X122411309Y-57099500D01*
X122411306Y-57099500D01*
X122237341Y-57134103D01*
X122237332Y-57134106D01*
X122073459Y-57201983D01*
X122073446Y-57201990D01*
X121925965Y-57300535D01*
X121925961Y-57300538D01*
X121800538Y-57425961D01*
X121800535Y-57425965D01*
X121701990Y-57573446D01*
X121701983Y-57573459D01*
X121634106Y-57737332D01*
X121634103Y-57737341D01*
X121599500Y-57911304D01*
X116400000Y-57911304D01*
X116400000Y-56411304D01*
X123124500Y-56411304D01*
X123124500Y-56588695D01*
X123159103Y-56762658D01*
X123159106Y-56762667D01*
X123226983Y-56926540D01*
X123226990Y-56926553D01*
X123325535Y-57074034D01*
X123325538Y-57074038D01*
X123450961Y-57199461D01*
X123450965Y-57199464D01*
X123598446Y-57298009D01*
X123598459Y-57298016D01*
X123721363Y-57348923D01*
X123762334Y-57365894D01*
X123762336Y-57365894D01*
X123762341Y-57365896D01*
X123936304Y-57400499D01*
X123936307Y-57400500D01*
X124026638Y-57400500D01*
X124093677Y-57420185D01*
X124139432Y-57472989D01*
X124149376Y-57542147D01*
X124120351Y-57605703D01*
X124114319Y-57612181D01*
X124050538Y-57675961D01*
X124050535Y-57675965D01*
X123951990Y-57823446D01*
X123951983Y-57823459D01*
X123884106Y-57987332D01*
X123884103Y-57987341D01*
X123849500Y-58161304D01*
X123849500Y-58338695D01*
X123884103Y-58512658D01*
X123884106Y-58512667D01*
X123951983Y-58676540D01*
X123951990Y-58676553D01*
X124050535Y-58824034D01*
X124050538Y-58824038D01*
X124175961Y-58949461D01*
X124175965Y-58949464D01*
X124323446Y-59048009D01*
X124323459Y-59048016D01*
X124446363Y-59098923D01*
X124487334Y-59115894D01*
X124487336Y-59115894D01*
X124487341Y-59115896D01*
X124661304Y-59150499D01*
X124661307Y-59150500D01*
X124661309Y-59150500D01*
X124838693Y-59150500D01*
X124838694Y-59150499D01*
X124896682Y-59138964D01*
X125012658Y-59115896D01*
X125012661Y-59115894D01*
X125012666Y-59115894D01*
X125176547Y-59048013D01*
X125324035Y-58949464D01*
X125449464Y-58824035D01*
X125548013Y-58676547D01*
X125615894Y-58512666D01*
X125650500Y-58338691D01*
X125650500Y-58161309D01*
X125650500Y-58161306D01*
X125650499Y-58161304D01*
X127349500Y-58161304D01*
X127349500Y-58338695D01*
X127384103Y-58512658D01*
X127384106Y-58512667D01*
X127451983Y-58676540D01*
X127451990Y-58676553D01*
X127550535Y-58824034D01*
X127550538Y-58824038D01*
X127675961Y-58949461D01*
X127675965Y-58949464D01*
X127823446Y-59048009D01*
X127823459Y-59048016D01*
X127946363Y-59098923D01*
X127987334Y-59115894D01*
X127987336Y-59115894D01*
X127987341Y-59115896D01*
X128161304Y-59150499D01*
X128161307Y-59150500D01*
X128161309Y-59150500D01*
X128338693Y-59150500D01*
X128338694Y-59150499D01*
X128396682Y-59138964D01*
X128512658Y-59115896D01*
X128512661Y-59115894D01*
X128512666Y-59115894D01*
X128676547Y-59048013D01*
X128824035Y-58949464D01*
X128949464Y-58824035D01*
X129048013Y-58676547D01*
X129115894Y-58512666D01*
X129150500Y-58338691D01*
X129150500Y-58161309D01*
X129150500Y-58161306D01*
X129150499Y-58161304D01*
X129115896Y-57987341D01*
X129115893Y-57987332D01*
X129048016Y-57823459D01*
X129048009Y-57823446D01*
X128949464Y-57675965D01*
X128949461Y-57675961D01*
X128824038Y-57550538D01*
X128824034Y-57550535D01*
X128676553Y-57451990D01*
X128676540Y-57451983D01*
X128512667Y-57384106D01*
X128512658Y-57384103D01*
X128338694Y-57349500D01*
X128338691Y-57349500D01*
X128161309Y-57349500D01*
X128161306Y-57349500D01*
X127987341Y-57384103D01*
X127987332Y-57384106D01*
X127823459Y-57451983D01*
X127823446Y-57451990D01*
X127675965Y-57550535D01*
X127675961Y-57550538D01*
X127550538Y-57675961D01*
X127550535Y-57675965D01*
X127451990Y-57823446D01*
X127451983Y-57823459D01*
X127384106Y-57987332D01*
X127384103Y-57987341D01*
X127349500Y-58161304D01*
X125650499Y-58161304D01*
X125615896Y-57987341D01*
X125615893Y-57987332D01*
X125548016Y-57823459D01*
X125548009Y-57823446D01*
X125449464Y-57675965D01*
X125449461Y-57675961D01*
X125324038Y-57550538D01*
X125324034Y-57550535D01*
X125176553Y-57451990D01*
X125176540Y-57451983D01*
X125012667Y-57384106D01*
X125012658Y-57384103D01*
X124838694Y-57349500D01*
X124838691Y-57349500D01*
X124748362Y-57349500D01*
X124681323Y-57329815D01*
X124635568Y-57277011D01*
X124625624Y-57207853D01*
X124654649Y-57144297D01*
X124660681Y-57137819D01*
X124724461Y-57074038D01*
X124724464Y-57074035D01*
X124823013Y-56926547D01*
X124890894Y-56762666D01*
X124903467Y-56699461D01*
X124925499Y-56588695D01*
X124925500Y-56588693D01*
X124925500Y-56411306D01*
X124925499Y-56411304D01*
X124890896Y-56237341D01*
X124890893Y-56237332D01*
X124823016Y-56073459D01*
X124823009Y-56073446D01*
X124756633Y-55974108D01*
X124724464Y-55925965D01*
X124724461Y-55925961D01*
X124709804Y-55911304D01*
X126599500Y-55911304D01*
X126599500Y-56088695D01*
X126634103Y-56262658D01*
X126634106Y-56262667D01*
X126701983Y-56426540D01*
X126701990Y-56426553D01*
X126800535Y-56574034D01*
X126800538Y-56574038D01*
X126925961Y-56699461D01*
X126925965Y-56699464D01*
X127073446Y-56798009D01*
X127073459Y-56798016D01*
X127196363Y-56848923D01*
X127237334Y-56865894D01*
X127237336Y-56865894D01*
X127237341Y-56865896D01*
X127411304Y-56900499D01*
X127411307Y-56900500D01*
X127411309Y-56900500D01*
X127588693Y-56900500D01*
X127588694Y-56900499D01*
X127646682Y-56888964D01*
X127762658Y-56865896D01*
X127762661Y-56865894D01*
X127762666Y-56865894D01*
X127926547Y-56798013D01*
X128074035Y-56699464D01*
X128199464Y-56574035D01*
X128298013Y-56426547D01*
X128365894Y-56262666D01*
X128370932Y-56237341D01*
X128393179Y-56125498D01*
X128400500Y-56088691D01*
X128400500Y-55911309D01*
X128400500Y-55911306D01*
X128400499Y-55911304D01*
X128365896Y-55737341D01*
X128365893Y-55737332D01*
X128298016Y-55573459D01*
X128298009Y-55573446D01*
X128199464Y-55425965D01*
X128199461Y-55425961D01*
X128074038Y-55300538D01*
X128074034Y-55300535D01*
X127973438Y-55233318D01*
X127926553Y-55201990D01*
X127926540Y-55201983D01*
X127767971Y-55136303D01*
X128824500Y-55136303D01*
X128824500Y-55313694D01*
X128859103Y-55487657D01*
X128859106Y-55487666D01*
X128926983Y-55651539D01*
X128926990Y-55651552D01*
X129025535Y-55799033D01*
X129025538Y-55799037D01*
X129150961Y-55924460D01*
X129150965Y-55924463D01*
X129298446Y-56023008D01*
X129298459Y-56023015D01*
X129420213Y-56073446D01*
X129462334Y-56090893D01*
X129462336Y-56090893D01*
X129462341Y-56090895D01*
X129636304Y-56125498D01*
X129636307Y-56125499D01*
X129636309Y-56125499D01*
X129813693Y-56125499D01*
X129813694Y-56125498D01*
X129871682Y-56113963D01*
X129987658Y-56090895D01*
X129987661Y-56090893D01*
X129987666Y-56090893D01*
X130151547Y-56023012D01*
X130299035Y-55924463D01*
X130424464Y-55799034D01*
X130523013Y-55651546D01*
X130590894Y-55487665D01*
X130613396Y-55374541D01*
X130645781Y-55312630D01*
X130706496Y-55278056D01*
X130776266Y-55281795D01*
X130832938Y-55322661D01*
X130856630Y-55374540D01*
X130884104Y-55512659D01*
X130884106Y-55512667D01*
X130951983Y-55676540D01*
X130951990Y-55676553D01*
X131050535Y-55824034D01*
X131050538Y-55824038D01*
X131175961Y-55949461D01*
X131175965Y-55949464D01*
X131323446Y-56048009D01*
X131323459Y-56048016D01*
X131426980Y-56090895D01*
X131487334Y-56115894D01*
X131487336Y-56115894D01*
X131487341Y-56115896D01*
X131661304Y-56150499D01*
X131661307Y-56150500D01*
X131661309Y-56150500D01*
X131838693Y-56150500D01*
X131838694Y-56150499D01*
X131896682Y-56138964D01*
X132012658Y-56115896D01*
X132012661Y-56115894D01*
X132012666Y-56115894D01*
X132176547Y-56048013D01*
X132324035Y-55949464D01*
X132449464Y-55824035D01*
X132548013Y-55676547D01*
X132615894Y-55512666D01*
X132615894Y-55512661D01*
X132615896Y-55512658D01*
X132643369Y-55374540D01*
X132650500Y-55338691D01*
X132650500Y-55161309D01*
X132650500Y-55161306D01*
X132650499Y-55161304D01*
X132615896Y-54987341D01*
X132615893Y-54987332D01*
X132605537Y-54962331D01*
X132590718Y-54926553D01*
X132548016Y-54823459D01*
X132548009Y-54823446D01*
X132449464Y-54675965D01*
X132449461Y-54675961D01*
X132324038Y-54550538D01*
X132324034Y-54550535D01*
X132176553Y-54451990D01*
X132176540Y-54451983D01*
X132012667Y-54384106D01*
X132012658Y-54384103D01*
X131838694Y-54349500D01*
X131838691Y-54349500D01*
X131661309Y-54349500D01*
X131661306Y-54349500D01*
X131487341Y-54384103D01*
X131487332Y-54384106D01*
X131323459Y-54451983D01*
X131323446Y-54451990D01*
X131175965Y-54550535D01*
X131175961Y-54550538D01*
X131050538Y-54675961D01*
X131050535Y-54675965D01*
X130951990Y-54823446D01*
X130951983Y-54823459D01*
X130884106Y-54987332D01*
X130884104Y-54987340D01*
X130861603Y-55100458D01*
X130829218Y-55162369D01*
X130768502Y-55196943D01*
X130698732Y-55193202D01*
X130642060Y-55152336D01*
X130618369Y-55100457D01*
X130590896Y-54962340D01*
X130590893Y-54962331D01*
X130523016Y-54798458D01*
X130523009Y-54798445D01*
X130424464Y-54650964D01*
X130424461Y-54650960D01*
X130299038Y-54525537D01*
X130299034Y-54525534D01*
X130151553Y-54426989D01*
X130151540Y-54426982D01*
X129987667Y-54359105D01*
X129987658Y-54359102D01*
X129813694Y-54324499D01*
X129813691Y-54324499D01*
X129636309Y-54324499D01*
X129636306Y-54324499D01*
X129462341Y-54359102D01*
X129462332Y-54359105D01*
X129298459Y-54426982D01*
X129298446Y-54426989D01*
X129150965Y-54525534D01*
X129150961Y-54525537D01*
X129025538Y-54650960D01*
X129025535Y-54650964D01*
X128926990Y-54798445D01*
X128926983Y-54798458D01*
X128859106Y-54962331D01*
X128859103Y-54962340D01*
X128824500Y-55136303D01*
X127767971Y-55136303D01*
X127762667Y-55134106D01*
X127762658Y-55134103D01*
X127588694Y-55099500D01*
X127588691Y-55099500D01*
X127411309Y-55099500D01*
X127411306Y-55099500D01*
X127237341Y-55134103D01*
X127237332Y-55134106D01*
X127073459Y-55201983D01*
X127073446Y-55201990D01*
X126925965Y-55300535D01*
X126925961Y-55300538D01*
X126800538Y-55425961D01*
X126800535Y-55425965D01*
X126701990Y-55573446D01*
X126701983Y-55573459D01*
X126634106Y-55737332D01*
X126634103Y-55737341D01*
X126599500Y-55911304D01*
X124709804Y-55911304D01*
X124599038Y-55800538D01*
X124599034Y-55800535D01*
X124451553Y-55701990D01*
X124451540Y-55701983D01*
X124287667Y-55634106D01*
X124287658Y-55634103D01*
X124113694Y-55599500D01*
X124113691Y-55599500D01*
X123936309Y-55599500D01*
X123936306Y-55599500D01*
X123762341Y-55634103D01*
X123762332Y-55634106D01*
X123598459Y-55701983D01*
X123598446Y-55701990D01*
X123450965Y-55800535D01*
X123450961Y-55800538D01*
X123325538Y-55925961D01*
X123325535Y-55925965D01*
X123226990Y-56073446D01*
X123226983Y-56073459D01*
X123159106Y-56237332D01*
X123159103Y-56237341D01*
X123124500Y-56411304D01*
X116400000Y-56411304D01*
X116400000Y-52511304D01*
X117499500Y-52511304D01*
X117499500Y-52688695D01*
X117534103Y-52862658D01*
X117534106Y-52862667D01*
X117601983Y-53026540D01*
X117601990Y-53026553D01*
X117700535Y-53174034D01*
X117700538Y-53174038D01*
X117825961Y-53299461D01*
X117825965Y-53299464D01*
X117973446Y-53398009D01*
X117973459Y-53398016D01*
X118096363Y-53448923D01*
X118137334Y-53465894D01*
X118137336Y-53465894D01*
X118137341Y-53465896D01*
X118311304Y-53500499D01*
X118311307Y-53500500D01*
X118491226Y-53500500D01*
X118558265Y-53520185D01*
X118604020Y-53572989D01*
X118613964Y-53642147D01*
X118584939Y-53705703D01*
X118560117Y-53727602D01*
X118450965Y-53800535D01*
X118450961Y-53800538D01*
X118325538Y-53925961D01*
X118325535Y-53925965D01*
X118226990Y-54073446D01*
X118226983Y-54073459D01*
X118159106Y-54237332D01*
X118159103Y-54237341D01*
X118124500Y-54411304D01*
X118124500Y-54588695D01*
X118159103Y-54762658D01*
X118159106Y-54762667D01*
X118226983Y-54926540D01*
X118226990Y-54926553D01*
X118325535Y-55074034D01*
X118325538Y-55074038D01*
X118450961Y-55199461D01*
X118450965Y-55199464D01*
X118598446Y-55298009D01*
X118598459Y-55298016D01*
X118657959Y-55322661D01*
X118762334Y-55365894D01*
X118762336Y-55365894D01*
X118762341Y-55365896D01*
X118936304Y-55400499D01*
X118936307Y-55400500D01*
X118936309Y-55400500D01*
X119113693Y-55400500D01*
X119113694Y-55400499D01*
X119171682Y-55388964D01*
X119287658Y-55365896D01*
X119287661Y-55365894D01*
X119287666Y-55365894D01*
X119451547Y-55298013D01*
X119599035Y-55199464D01*
X119724464Y-55074035D01*
X119823013Y-54926547D01*
X119890894Y-54762666D01*
X119925500Y-54588691D01*
X119925500Y-54411309D01*
X119925500Y-54411306D01*
X119925499Y-54411304D01*
X119890896Y-54237341D01*
X119890893Y-54237332D01*
X119823016Y-54073459D01*
X119823009Y-54073446D01*
X119724464Y-53925965D01*
X119724461Y-53925961D01*
X119599038Y-53800538D01*
X119599034Y-53800535D01*
X119451553Y-53701990D01*
X119451540Y-53701983D01*
X119287667Y-53634106D01*
X119287658Y-53634103D01*
X119113694Y-53599500D01*
X119113691Y-53599500D01*
X118936309Y-53599500D01*
X118933774Y-53599500D01*
X118866735Y-53579815D01*
X118820980Y-53527011D01*
X118811036Y-53457853D01*
X118840061Y-53394297D01*
X118864883Y-53372398D01*
X118909965Y-53342274D01*
X118974035Y-53299464D01*
X119099464Y-53174035D01*
X119198013Y-53026547D01*
X119265894Y-52862666D01*
X119300500Y-52688691D01*
X119300500Y-52511309D01*
X119300500Y-52511306D01*
X119300499Y-52511304D01*
X134699500Y-52511304D01*
X134699500Y-52688695D01*
X134734103Y-52862658D01*
X134734106Y-52862667D01*
X134801983Y-53026540D01*
X134801990Y-53026553D01*
X134900535Y-53174034D01*
X134900538Y-53174038D01*
X135025961Y-53299461D01*
X135025965Y-53299464D01*
X135173446Y-53398009D01*
X135173459Y-53398016D01*
X135296363Y-53448923D01*
X135337334Y-53465894D01*
X135337336Y-53465894D01*
X135337341Y-53465896D01*
X135511304Y-53500499D01*
X135511307Y-53500500D01*
X135511309Y-53500500D01*
X135688693Y-53500500D01*
X135688694Y-53500499D01*
X135746682Y-53488964D01*
X135862658Y-53465896D01*
X135862661Y-53465894D01*
X135862666Y-53465894D01*
X136026547Y-53398013D01*
X136174035Y-53299464D01*
X136299464Y-53174035D01*
X136398013Y-53026547D01*
X136465894Y-52862666D01*
X136500500Y-52688691D01*
X136500500Y-52511309D01*
X136500500Y-52511306D01*
X136500499Y-52511304D01*
X136465896Y-52337341D01*
X136465893Y-52337332D01*
X136398016Y-52173459D01*
X136398009Y-52173446D01*
X136299464Y-52025965D01*
X136299461Y-52025961D01*
X136174038Y-51900538D01*
X136174034Y-51900535D01*
X136026553Y-51801990D01*
X136026540Y-51801983D01*
X135862667Y-51734106D01*
X135862658Y-51734103D01*
X135688694Y-51699500D01*
X135688691Y-51699500D01*
X135511309Y-51699500D01*
X135511306Y-51699500D01*
X135337341Y-51734103D01*
X135337332Y-51734106D01*
X135173459Y-51801983D01*
X135173446Y-51801990D01*
X135025965Y-51900535D01*
X135025961Y-51900538D01*
X134900538Y-52025961D01*
X134900535Y-52025965D01*
X134801990Y-52173446D01*
X134801983Y-52173459D01*
X134734106Y-52337332D01*
X134734103Y-52337341D01*
X134699500Y-52511304D01*
X119300499Y-52511304D01*
X119265896Y-52337341D01*
X119265893Y-52337332D01*
X119198016Y-52173459D01*
X119198009Y-52173446D01*
X119099464Y-52025965D01*
X119099461Y-52025961D01*
X118974038Y-51900538D01*
X118974034Y-51900535D01*
X118826553Y-51801990D01*
X118826540Y-51801983D01*
X118662667Y-51734106D01*
X118662658Y-51734103D01*
X118488694Y-51699500D01*
X118488691Y-51699500D01*
X118311309Y-51699500D01*
X118311306Y-51699500D01*
X118137341Y-51734103D01*
X118137332Y-51734106D01*
X117973459Y-51801983D01*
X117973446Y-51801990D01*
X117825965Y-51900535D01*
X117825961Y-51900538D01*
X117700538Y-52025961D01*
X117700535Y-52025965D01*
X117601990Y-52173446D01*
X117601983Y-52173459D01*
X117534106Y-52337332D01*
X117534103Y-52337341D01*
X117499500Y-52511304D01*
X116400000Y-52511304D01*
X116400000Y-50724499D01*
X116419685Y-50657460D01*
X116472489Y-50611705D01*
X116523996Y-50600499D01*
X118067872Y-50600499D01*
X118127483Y-50594091D01*
X118262331Y-50543796D01*
X118377546Y-50457546D01*
X118463796Y-50342331D01*
X118512810Y-50210916D01*
X118554681Y-50154984D01*
X118620145Y-50130566D01*
X118688418Y-50145417D01*
X118716673Y-50166569D01*
X118830213Y-50280109D01*
X119002179Y-50405048D01*
X119002181Y-50405049D01*
X119002184Y-50405051D01*
X119191588Y-50501557D01*
X119393757Y-50567246D01*
X119603713Y-50600500D01*
X119603714Y-50600500D01*
X119816286Y-50600500D01*
X119816287Y-50600500D01*
X120026243Y-50567246D01*
X120228412Y-50501557D01*
X120417816Y-50405051D01*
X120504138Y-50342335D01*
X120589786Y-50280109D01*
X120589788Y-50280106D01*
X120589792Y-50280104D01*
X120740104Y-50129792D01*
X120740106Y-50129788D01*
X120740109Y-50129786D01*
X120865048Y-49957820D01*
X120865047Y-49957820D01*
X120865051Y-49957816D01*
X120869514Y-49949054D01*
X120917488Y-49898259D01*
X120985308Y-49881463D01*
X121051444Y-49903999D01*
X121090486Y-49949056D01*
X121094951Y-49957820D01*
X121219890Y-50129786D01*
X121370213Y-50280109D01*
X121542179Y-50405048D01*
X121542181Y-50405049D01*
X121542184Y-50405051D01*
X121731588Y-50501557D01*
X121933757Y-50567246D01*
X122143713Y-50600500D01*
X122143714Y-50600500D01*
X122356286Y-50600500D01*
X122356287Y-50600500D01*
X122566243Y-50567246D01*
X122768412Y-50501557D01*
X122957816Y-50405051D01*
X123044138Y-50342335D01*
X123129786Y-50280109D01*
X123129788Y-50280106D01*
X123129792Y-50280104D01*
X123280104Y-50129792D01*
X123280106Y-50129788D01*
X123280109Y-50129786D01*
X123405048Y-49957820D01*
X123405047Y-49957820D01*
X123405051Y-49957816D01*
X123409514Y-49949054D01*
X123457488Y-49898259D01*
X123525308Y-49881463D01*
X123591444Y-49903999D01*
X123630486Y-49949056D01*
X123634951Y-49957820D01*
X123759890Y-50129786D01*
X123910213Y-50280109D01*
X124082179Y-50405048D01*
X124082181Y-50405049D01*
X124082184Y-50405051D01*
X124271588Y-50501557D01*
X124473757Y-50567246D01*
X124683713Y-50600500D01*
X124683714Y-50600500D01*
X124896286Y-50600500D01*
X124896287Y-50600500D01*
X125106243Y-50567246D01*
X125308412Y-50501557D01*
X125497816Y-50405051D01*
X125584138Y-50342335D01*
X125669786Y-50280109D01*
X125669788Y-50280106D01*
X125669792Y-50280104D01*
X125820104Y-50129792D01*
X125820106Y-50129788D01*
X125820109Y-50129786D01*
X125945048Y-49957820D01*
X125945047Y-49957820D01*
X125945051Y-49957816D01*
X125949514Y-49949054D01*
X125997488Y-49898259D01*
X126065308Y-49881463D01*
X126131444Y-49903999D01*
X126170486Y-49949056D01*
X126174951Y-49957820D01*
X126299890Y-50129786D01*
X126450213Y-50280109D01*
X126622179Y-50405048D01*
X126622181Y-50405049D01*
X126622184Y-50405051D01*
X126811588Y-50501557D01*
X127013757Y-50567246D01*
X127223713Y-50600500D01*
X127223714Y-50600500D01*
X127436286Y-50600500D01*
X127436287Y-50600500D01*
X127646243Y-50567246D01*
X127848412Y-50501557D01*
X128037816Y-50405051D01*
X128124138Y-50342335D01*
X128209786Y-50280109D01*
X128209788Y-50280106D01*
X128209792Y-50280104D01*
X128360104Y-50129792D01*
X128360106Y-50129788D01*
X128360109Y-50129786D01*
X128445890Y-50011717D01*
X128485051Y-49957816D01*
X128489793Y-49948508D01*
X128537763Y-49897711D01*
X128605583Y-49880911D01*
X128671719Y-49903445D01*
X128710763Y-49948500D01*
X128715373Y-49957547D01*
X128754728Y-50011716D01*
X129387037Y-49379408D01*
X129404075Y-49442993D01*
X129469901Y-49557007D01*
X129562993Y-49650099D01*
X129677007Y-49715925D01*
X129740590Y-49732962D01*
X129108282Y-50365269D01*
X129108282Y-50365270D01*
X129162449Y-50404624D01*
X129351782Y-50501095D01*
X129553870Y-50566757D01*
X129763754Y-50600000D01*
X129976246Y-50600000D01*
X130186127Y-50566757D01*
X130186130Y-50566757D01*
X130388217Y-50501095D01*
X130577554Y-50404622D01*
X130631716Y-50365270D01*
X130631717Y-50365270D01*
X129999408Y-49732962D01*
X130062993Y-49715925D01*
X130177007Y-49650099D01*
X130270099Y-49557007D01*
X130335925Y-49442993D01*
X130352962Y-49379408D01*
X130985270Y-50011717D01*
X130985270Y-50011716D01*
X131024622Y-49957554D01*
X131121095Y-49768217D01*
X131186757Y-49566130D01*
X131186757Y-49566127D01*
X131220000Y-49356246D01*
X131220000Y-49143753D01*
X131186757Y-48933872D01*
X131186757Y-48933869D01*
X131121095Y-48731782D01*
X131024624Y-48542449D01*
X130985270Y-48488282D01*
X130985269Y-48488282D01*
X130352962Y-49120590D01*
X130335925Y-49057007D01*
X130270099Y-48942993D01*
X130177007Y-48849901D01*
X130062993Y-48784075D01*
X129999409Y-48767037D01*
X130631716Y-48134728D01*
X130577550Y-48095375D01*
X130388217Y-47998904D01*
X130186129Y-47933242D01*
X129976246Y-47900000D01*
X129763754Y-47900000D01*
X129553872Y-47933242D01*
X129553869Y-47933242D01*
X129351782Y-47998904D01*
X129162439Y-48095380D01*
X129108282Y-48134727D01*
X129108282Y-48134728D01*
X129740591Y-48767037D01*
X129677007Y-48784075D01*
X129562993Y-48849901D01*
X129469901Y-48942993D01*
X129404075Y-49057007D01*
X129387037Y-49120591D01*
X128754728Y-48488282D01*
X128754727Y-48488282D01*
X128715380Y-48542440D01*
X128715376Y-48542446D01*
X128710760Y-48551505D01*
X128662781Y-48602297D01*
X128594959Y-48619087D01*
X128528826Y-48596543D01*
X128489794Y-48551493D01*
X128485051Y-48542184D01*
X128485049Y-48542181D01*
X128485048Y-48542179D01*
X128360109Y-48370213D01*
X128209786Y-48219890D01*
X128037820Y-48094951D01*
X127848414Y-47998444D01*
X127848413Y-47998443D01*
X127848412Y-47998443D01*
X127646243Y-47932754D01*
X127646241Y-47932753D01*
X127646240Y-47932753D01*
X127484957Y-47907208D01*
X127436287Y-47899500D01*
X127223713Y-47899500D01*
X127175042Y-47907208D01*
X127013760Y-47932753D01*
X126811585Y-47998444D01*
X126622179Y-48094951D01*
X126450213Y-48219890D01*
X126299890Y-48370213D01*
X126174949Y-48542182D01*
X126170484Y-48550946D01*
X126122509Y-48601742D01*
X126054688Y-48618536D01*
X125988553Y-48595998D01*
X125949516Y-48550946D01*
X125945050Y-48542182D01*
X125820109Y-48370213D01*
X125669786Y-48219890D01*
X125497820Y-48094951D01*
X125308414Y-47998444D01*
X125308413Y-47998443D01*
X125308412Y-47998443D01*
X125106243Y-47932754D01*
X125106241Y-47932753D01*
X125106240Y-47932753D01*
X124944957Y-47907208D01*
X124896287Y-47899500D01*
X124683713Y-47899500D01*
X124635042Y-47907208D01*
X124473760Y-47932753D01*
X124271585Y-47998444D01*
X124082179Y-48094951D01*
X123910213Y-48219890D01*
X123759890Y-48370213D01*
X123634949Y-48542182D01*
X123630484Y-48550946D01*
X123582509Y-48601742D01*
X123514688Y-48618536D01*
X123448553Y-48595998D01*
X123409516Y-48550946D01*
X123405050Y-48542182D01*
X123280109Y-48370213D01*
X123129786Y-48219890D01*
X122957820Y-48094951D01*
X122768414Y-47998444D01*
X122768413Y-47998443D01*
X122768412Y-47998443D01*
X122566243Y-47932754D01*
X122566241Y-47932753D01*
X122566240Y-47932753D01*
X122404957Y-47907208D01*
X122356287Y-47899500D01*
X122143713Y-47899500D01*
X122095042Y-47907208D01*
X121933760Y-47932753D01*
X121731585Y-47998444D01*
X121542179Y-48094951D01*
X121370213Y-48219890D01*
X121219890Y-48370213D01*
X121094949Y-48542182D01*
X121090484Y-48550946D01*
X121042509Y-48601742D01*
X120974688Y-48618536D01*
X120908553Y-48595998D01*
X120869516Y-48550946D01*
X120865050Y-48542182D01*
X120740109Y-48370213D01*
X120589786Y-48219890D01*
X120417820Y-48094951D01*
X120228414Y-47998444D01*
X120228413Y-47998443D01*
X120228412Y-47998443D01*
X120026243Y-47932754D01*
X120026241Y-47932753D01*
X120026240Y-47932753D01*
X119864957Y-47907208D01*
X119816287Y-47899500D01*
X119603713Y-47899500D01*
X119555042Y-47907208D01*
X119393760Y-47932753D01*
X119191585Y-47998444D01*
X119002179Y-48094951D01*
X118830215Y-48219889D01*
X118716673Y-48333431D01*
X118655350Y-48366915D01*
X118585658Y-48361931D01*
X118529725Y-48320059D01*
X118512810Y-48289082D01*
X118463797Y-48157671D01*
X118463793Y-48157664D01*
X118377547Y-48042455D01*
X118377544Y-48042452D01*
X118262335Y-47956206D01*
X118262328Y-47956202D01*
X118127482Y-47905908D01*
X118127483Y-47905908D01*
X118067883Y-47899501D01*
X118067881Y-47899500D01*
X118067873Y-47899500D01*
X118067865Y-47899500D01*
X116524000Y-47899500D01*
X116515314Y-47896949D01*
X116506353Y-47898238D01*
X116482312Y-47887259D01*
X116456961Y-47879815D01*
X116451033Y-47872974D01*
X116442797Y-47869213D01*
X116428507Y-47846978D01*
X116411206Y-47827011D01*
X116408918Y-47816496D01*
X116405023Y-47810435D01*
X116400000Y-47775500D01*
X116400000Y-47737141D01*
X160099500Y-47737141D01*
X160099500Y-47914532D01*
X160134103Y-48088495D01*
X160134106Y-48088504D01*
X160201983Y-48252377D01*
X160201990Y-48252390D01*
X160300535Y-48399871D01*
X160300538Y-48399875D01*
X160425961Y-48525298D01*
X160425965Y-48525301D01*
X160573446Y-48623846D01*
X160573459Y-48623853D01*
X160696363Y-48674760D01*
X160737334Y-48691731D01*
X160737336Y-48691731D01*
X160737341Y-48691733D01*
X160911304Y-48726336D01*
X160911307Y-48726337D01*
X160911309Y-48726337D01*
X161088693Y-48726337D01*
X161088694Y-48726336D01*
X161146682Y-48714801D01*
X161262658Y-48691733D01*
X161262661Y-48691731D01*
X161262666Y-48691731D01*
X161426547Y-48623850D01*
X161431107Y-48620802D01*
X161497783Y-48599923D01*
X161565163Y-48618406D01*
X161568867Y-48620785D01*
X161573453Y-48623850D01*
X161573455Y-48623851D01*
X161573457Y-48623852D01*
X161682707Y-48669104D01*
X161737334Y-48691731D01*
X161737336Y-48691731D01*
X161737341Y-48691733D01*
X161911304Y-48726336D01*
X161911307Y-48726337D01*
X161911309Y-48726337D01*
X162088693Y-48726337D01*
X162088694Y-48726336D01*
X162146682Y-48714801D01*
X162262658Y-48691733D01*
X162262661Y-48691731D01*
X162262666Y-48691731D01*
X162426547Y-48623850D01*
X162574035Y-48525301D01*
X162699464Y-48399872D01*
X162798013Y-48252384D01*
X162865894Y-48088503D01*
X162883717Y-47998904D01*
X162892210Y-47956202D01*
X162900500Y-47914528D01*
X162900500Y-47737146D01*
X162900500Y-47737143D01*
X162900499Y-47737141D01*
X162865896Y-47563178D01*
X162865893Y-47563169D01*
X162798016Y-47399296D01*
X162798009Y-47399283D01*
X162699464Y-47251802D01*
X162699461Y-47251798D01*
X162574038Y-47126375D01*
X162574034Y-47126372D01*
X162426553Y-47027827D01*
X162426540Y-47027820D01*
X162262667Y-46959943D01*
X162262658Y-46959940D01*
X162088694Y-46925337D01*
X162088691Y-46925337D01*
X161911309Y-46925337D01*
X161911306Y-46925337D01*
X161737341Y-46959940D01*
X161737332Y-46959943D01*
X161573459Y-47027820D01*
X161573446Y-47027827D01*
X161568887Y-47030874D01*
X161502208Y-47051749D01*
X161434829Y-47033262D01*
X161431113Y-47030874D01*
X161426553Y-47027827D01*
X161426540Y-47027820D01*
X161262667Y-46959943D01*
X161262658Y-46959940D01*
X161088694Y-46925337D01*
X161088691Y-46925337D01*
X160911309Y-46925337D01*
X160911306Y-46925337D01*
X160737341Y-46959940D01*
X160737332Y-46959943D01*
X160573459Y-47027820D01*
X160573446Y-47027827D01*
X160425965Y-47126372D01*
X160425961Y-47126375D01*
X160300538Y-47251798D01*
X160300535Y-47251802D01*
X160201990Y-47399283D01*
X160201983Y-47399296D01*
X160134106Y-47563169D01*
X160134103Y-47563178D01*
X160099500Y-47737141D01*
X116400000Y-47737141D01*
X116400000Y-45305868D01*
X116419685Y-45238829D01*
X116472489Y-45193074D01*
X116541647Y-45183130D01*
X116605203Y-45212155D01*
X116627099Y-45236974D01*
X116739618Y-45405369D01*
X116774140Y-45457035D01*
X116774150Y-45457049D01*
X117004807Y-45738106D01*
X117261893Y-45995192D01*
X117261898Y-45995196D01*
X117261899Y-45995197D01*
X117542956Y-46225854D01*
X117845268Y-46427853D01*
X117845277Y-46427858D01*
X117845279Y-46427859D01*
X118165916Y-46599243D01*
X118165918Y-46599243D01*
X118165924Y-46599247D01*
X118501836Y-46738386D01*
X118849767Y-46843930D01*
X118849773Y-46843931D01*
X118849776Y-46843932D01*
X118849787Y-46843935D01*
X119206369Y-46914862D01*
X119568206Y-46950500D01*
X119568209Y-46950500D01*
X119931791Y-46950500D01*
X119931794Y-46950500D01*
X120293631Y-46914862D01*
X120363045Y-46901054D01*
X120650212Y-46843935D01*
X120650223Y-46843932D01*
X120650223Y-46843931D01*
X120650233Y-46843930D01*
X120998164Y-46738386D01*
X121334076Y-46599247D01*
X121654732Y-46427853D01*
X121957044Y-46225854D01*
X122238101Y-45995197D01*
X122495197Y-45738101D01*
X122577028Y-45638389D01*
X133399500Y-45638389D01*
X133399500Y-46361611D01*
X133426598Y-46532701D01*
X133480127Y-46697445D01*
X133558768Y-46851788D01*
X133660586Y-46991928D01*
X133783072Y-47114414D01*
X133923212Y-47216232D01*
X134077555Y-47294873D01*
X134242299Y-47348402D01*
X134413389Y-47375500D01*
X134413390Y-47375500D01*
X134586610Y-47375500D01*
X134586611Y-47375500D01*
X134757701Y-47348402D01*
X134922445Y-47294873D01*
X135076788Y-47216232D01*
X135216928Y-47114414D01*
X135339414Y-46991928D01*
X135399682Y-46908975D01*
X135455012Y-46866311D01*
X135524626Y-46860332D01*
X135586421Y-46892938D01*
X135600315Y-46908973D01*
X135660586Y-46991928D01*
X135783072Y-47114414D01*
X135923212Y-47216232D01*
X136077555Y-47294873D01*
X136242299Y-47348402D01*
X136413389Y-47375500D01*
X136413390Y-47375500D01*
X136586610Y-47375500D01*
X136586611Y-47375500D01*
X136757701Y-47348402D01*
X136922445Y-47294873D01*
X137076788Y-47216232D01*
X137216928Y-47114414D01*
X137339414Y-46991928D01*
X137399991Y-46908550D01*
X137455321Y-46865885D01*
X137524934Y-46859906D01*
X137586729Y-46892512D01*
X137600628Y-46908551D01*
X137660967Y-46991602D01*
X137783397Y-47114032D01*
X137923475Y-47215804D01*
X138077744Y-47294408D01*
X138242415Y-47347914D01*
X138242414Y-47347914D01*
X138249999Y-47349115D01*
X138250000Y-47349114D01*
X138250000Y-46280330D01*
X138269745Y-46300075D01*
X138355255Y-46349444D01*
X138450630Y-46375000D01*
X138549370Y-46375000D01*
X138644745Y-46349444D01*
X138730255Y-46300075D01*
X138750000Y-46280330D01*
X138750000Y-47349115D01*
X138757584Y-47347914D01*
X138922255Y-47294408D01*
X139076524Y-47215804D01*
X139216598Y-47114035D01*
X139324199Y-47006434D01*
X139385522Y-46972949D01*
X139455214Y-46977933D01*
X139511148Y-47019804D01*
X139517418Y-47029016D01*
X139557288Y-47093656D01*
X139681344Y-47217712D01*
X139830666Y-47309814D01*
X139997203Y-47364999D01*
X140099991Y-47375500D01*
X140900008Y-47375499D01*
X140900016Y-47375498D01*
X140900019Y-47375498D01*
X140956302Y-47369748D01*
X141002797Y-47364999D01*
X141169334Y-47309814D01*
X141318656Y-47217712D01*
X141442712Y-47093656D01*
X141534814Y-46944334D01*
X141589999Y-46777797D01*
X141600500Y-46675009D01*
X141600499Y-45324992D01*
X141598545Y-45305868D01*
X141589999Y-45222203D01*
X141589998Y-45222200D01*
X141580880Y-45194685D01*
X141534814Y-45055666D01*
X141442712Y-44906344D01*
X141318656Y-44782288D01*
X141309279Y-44776504D01*
X155680000Y-44776504D01*
X155680000Y-45175000D01*
X156380000Y-45175000D01*
X156380000Y-45675000D01*
X155680000Y-45675000D01*
X155680000Y-46073495D01*
X155718427Y-46266681D01*
X155718430Y-46266693D01*
X155793807Y-46448671D01*
X155793814Y-46448684D01*
X155903248Y-46612462D01*
X155903251Y-46612466D01*
X156042533Y-46751748D01*
X156042537Y-46751751D01*
X156206315Y-46861185D01*
X156206328Y-46861192D01*
X156388308Y-46936569D01*
X156430000Y-46944862D01*
X156430000Y-46141988D01*
X156439940Y-46159205D01*
X156495795Y-46215060D01*
X156564204Y-46254556D01*
X156640504Y-46275000D01*
X156719496Y-46275000D01*
X156795796Y-46254556D01*
X156864205Y-46215060D01*
X156920060Y-46159205D01*
X156930000Y-46141988D01*
X156930000Y-46944862D01*
X156971690Y-46936569D01*
X156971692Y-46936569D01*
X157153671Y-46861192D01*
X157153684Y-46861185D01*
X157317462Y-46751751D01*
X157317466Y-46751748D01*
X157456748Y-46612466D01*
X157456751Y-46612462D01*
X157566185Y-46448684D01*
X157566192Y-46448671D01*
X157641569Y-46266693D01*
X157641572Y-46266681D01*
X157679999Y-46073495D01*
X157680000Y-46073492D01*
X157680000Y-45675000D01*
X156980000Y-45675000D01*
X156980000Y-45175000D01*
X157587499Y-45175000D01*
X157654538Y-45194685D01*
X157694884Y-45236997D01*
X157697498Y-45241524D01*
X157793476Y-45337502D01*
X157793477Y-45337503D01*
X157793479Y-45337504D01*
X157911021Y-45405367D01*
X157911022Y-45405367D01*
X157911025Y-45405369D01*
X158042133Y-45440500D01*
X158042135Y-45440500D01*
X158177865Y-45440500D01*
X158177867Y-45440500D01*
X158308975Y-45405369D01*
X158426524Y-45337502D01*
X158522502Y-45241524D01*
X158590369Y-45123975D01*
X158625500Y-44992867D01*
X158625500Y-44857133D01*
X163374500Y-44857133D01*
X163374500Y-44992867D01*
X163400916Y-45091449D01*
X163409632Y-45123978D01*
X163477495Y-45241520D01*
X163477497Y-45241522D01*
X163477498Y-45241524D01*
X163573476Y-45337502D01*
X163573477Y-45337503D01*
X163573479Y-45337504D01*
X163691021Y-45405367D01*
X163691022Y-45405367D01*
X163691025Y-45405369D01*
X163822133Y-45440500D01*
X163822135Y-45440500D01*
X163957865Y-45440500D01*
X163957867Y-45440500D01*
X164088975Y-45405369D01*
X164206524Y-45337502D01*
X164302502Y-45241524D01*
X164305115Y-45236997D01*
X164355682Y-45188784D01*
X164412501Y-45175000D01*
X165020000Y-45175000D01*
X165020000Y-45675000D01*
X164320000Y-45675000D01*
X164320000Y-46073495D01*
X164358427Y-46266681D01*
X164358430Y-46266693D01*
X164433807Y-46448671D01*
X164433814Y-46448684D01*
X164543248Y-46612462D01*
X164543251Y-46612466D01*
X164682533Y-46751748D01*
X164682537Y-46751751D01*
X164846315Y-46861185D01*
X164846328Y-46861192D01*
X165028308Y-46936569D01*
X165070000Y-46944862D01*
X165070000Y-46141988D01*
X165079940Y-46159205D01*
X165135795Y-46215060D01*
X165204204Y-46254556D01*
X165280504Y-46275000D01*
X165359496Y-46275000D01*
X165435796Y-46254556D01*
X165504205Y-46215060D01*
X165560060Y-46159205D01*
X165570000Y-46141988D01*
X165570000Y-46944862D01*
X165611690Y-46936569D01*
X165611692Y-46936569D01*
X165793671Y-46861192D01*
X165793684Y-46861185D01*
X165957462Y-46751751D01*
X165957466Y-46751748D01*
X166096748Y-46612466D01*
X166096751Y-46612462D01*
X166206185Y-46448684D01*
X166206192Y-46448671D01*
X166281569Y-46266693D01*
X166281572Y-46266681D01*
X166319999Y-46073495D01*
X166320000Y-46073492D01*
X166320000Y-45675000D01*
X165620000Y-45675000D01*
X165620000Y-45175000D01*
X166320000Y-45175000D01*
X166320000Y-44776508D01*
X166319999Y-44776504D01*
X166281572Y-44583318D01*
X166281569Y-44583306D01*
X166206192Y-44401328D01*
X166206185Y-44401315D01*
X166096751Y-44237537D01*
X166096748Y-44237533D01*
X165957466Y-44098251D01*
X165957462Y-44098248D01*
X165793684Y-43988814D01*
X165793671Y-43988807D01*
X165611691Y-43913429D01*
X165611683Y-43913427D01*
X165570000Y-43905135D01*
X165570000Y-44708011D01*
X165560060Y-44690795D01*
X165504205Y-44634940D01*
X165435796Y-44595444D01*
X165359496Y-44575000D01*
X165280504Y-44575000D01*
X165204204Y-44595444D01*
X165135795Y-44634940D01*
X165079940Y-44690795D01*
X165070000Y-44708011D01*
X165070000Y-43905136D01*
X165069999Y-43905135D01*
X165028316Y-43913427D01*
X165028308Y-43913429D01*
X164846328Y-43988807D01*
X164846315Y-43988814D01*
X164682537Y-44098248D01*
X164682533Y-44098251D01*
X164543251Y-44237533D01*
X164543248Y-44237537D01*
X164433814Y-44401315D01*
X164433809Y-44401325D01*
X164405695Y-44469199D01*
X164361854Y-44523602D01*
X164295560Y-44545667D01*
X164227860Y-44528388D01*
X164213270Y-44517053D01*
X164212970Y-44517445D01*
X164206520Y-44512495D01*
X164088978Y-44444632D01*
X164088979Y-44444632D01*
X164073484Y-44440480D01*
X163957867Y-44409500D01*
X163822133Y-44409500D01*
X163706515Y-44440480D01*
X163691021Y-44444632D01*
X163573479Y-44512495D01*
X163573473Y-44512500D01*
X163477500Y-44608473D01*
X163477495Y-44608479D01*
X163409632Y-44726021D01*
X163409631Y-44726025D01*
X163374500Y-44857133D01*
X158625500Y-44857133D01*
X158590369Y-44726025D01*
X158578571Y-44705591D01*
X158522504Y-44608479D01*
X158522499Y-44608473D01*
X158426526Y-44512500D01*
X158426520Y-44512495D01*
X158308978Y-44444632D01*
X158308979Y-44444632D01*
X158293484Y-44440480D01*
X158177867Y-44409500D01*
X158042133Y-44409500D01*
X157926515Y-44440480D01*
X157911021Y-44444632D01*
X157793479Y-44512495D01*
X157787030Y-44517445D01*
X157785506Y-44515460D01*
X157735200Y-44542917D01*
X157665510Y-44537920D01*
X157609584Y-44496038D01*
X157594304Y-44469198D01*
X157566192Y-44401327D01*
X157566185Y-44401315D01*
X157456751Y-44237537D01*
X157456748Y-44237533D01*
X157317466Y-44098251D01*
X157317462Y-44098248D01*
X157153684Y-43988814D01*
X157153671Y-43988807D01*
X156971691Y-43913429D01*
X156971683Y-43913427D01*
X156930000Y-43905135D01*
X156930000Y-44708011D01*
X156920060Y-44690795D01*
X156864205Y-44634940D01*
X156795796Y-44595444D01*
X156719496Y-44575000D01*
X156640504Y-44575000D01*
X156564204Y-44595444D01*
X156495795Y-44634940D01*
X156439940Y-44690795D01*
X156430000Y-44708011D01*
X156430000Y-43905136D01*
X156429999Y-43905135D01*
X156388316Y-43913427D01*
X156388308Y-43913429D01*
X156206328Y-43988807D01*
X156206315Y-43988814D01*
X156042537Y-44098248D01*
X156042533Y-44098251D01*
X155903251Y-44237533D01*
X155903248Y-44237537D01*
X155793814Y-44401315D01*
X155793807Y-44401328D01*
X155718430Y-44583306D01*
X155718427Y-44583318D01*
X155680000Y-44776504D01*
X141309279Y-44776504D01*
X141193559Y-44705128D01*
X141169336Y-44690187D01*
X141169331Y-44690185D01*
X141167862Y-44689698D01*
X141002797Y-44635001D01*
X141002795Y-44635000D01*
X140900010Y-44624500D01*
X140099998Y-44624500D01*
X140099980Y-44624501D01*
X139997203Y-44635000D01*
X139997200Y-44635001D01*
X139830668Y-44690185D01*
X139830663Y-44690187D01*
X139681342Y-44782289D01*
X139557289Y-44906342D01*
X139517420Y-44970981D01*
X139465472Y-45017705D01*
X139396509Y-45028928D01*
X139332427Y-45001084D01*
X139324200Y-44993565D01*
X139216602Y-44885967D01*
X139076524Y-44784195D01*
X138922257Y-44705591D01*
X138757589Y-44652087D01*
X138757581Y-44652085D01*
X138750000Y-44650884D01*
X138750000Y-45719670D01*
X138730255Y-45699925D01*
X138644745Y-45650556D01*
X138549370Y-45625000D01*
X138450630Y-45625000D01*
X138355255Y-45650556D01*
X138269745Y-45699925D01*
X138250000Y-45719670D01*
X138250000Y-44650884D01*
X138249999Y-44650884D01*
X138242418Y-44652085D01*
X138242410Y-44652087D01*
X138077742Y-44705591D01*
X137923475Y-44784195D01*
X137783397Y-44885967D01*
X137660965Y-45008399D01*
X137660961Y-45008404D01*
X137600627Y-45091448D01*
X137545297Y-45134114D01*
X137475684Y-45140093D01*
X137413889Y-45107488D01*
X137399991Y-45091449D01*
X137399990Y-45091448D01*
X137339414Y-45008072D01*
X137216928Y-44885586D01*
X137076788Y-44783768D01*
X136922445Y-44705127D01*
X136757701Y-44651598D01*
X136757699Y-44651597D01*
X136757698Y-44651597D01*
X136626271Y-44630781D01*
X136586611Y-44624500D01*
X136413389Y-44624500D01*
X136373728Y-44630781D01*
X136242302Y-44651597D01*
X136077552Y-44705128D01*
X135923211Y-44783768D01*
X135852004Y-44835504D01*
X135783072Y-44885586D01*
X135783070Y-44885588D01*
X135783069Y-44885588D01*
X135660588Y-45008069D01*
X135660581Y-45008078D01*
X135600317Y-45091023D01*
X135544987Y-45133689D01*
X135475374Y-45139667D01*
X135413579Y-45107061D01*
X135399683Y-45091023D01*
X135339655Y-45008404D01*
X135339414Y-45008072D01*
X135216928Y-44885586D01*
X135076788Y-44783768D01*
X134922445Y-44705127D01*
X134757701Y-44651598D01*
X134757699Y-44651597D01*
X134757698Y-44651597D01*
X134626271Y-44630781D01*
X134586611Y-44624500D01*
X134413389Y-44624500D01*
X134373728Y-44630781D01*
X134242302Y-44651597D01*
X134077552Y-44705128D01*
X133923211Y-44783768D01*
X133852004Y-44835504D01*
X133783072Y-44885586D01*
X133783070Y-44885588D01*
X133783069Y-44885588D01*
X133660588Y-45008069D01*
X133660588Y-45008070D01*
X133660586Y-45008072D01*
X133636888Y-45040690D01*
X133558768Y-45148211D01*
X133480128Y-45302552D01*
X133426597Y-45467302D01*
X133412731Y-45554852D01*
X133399500Y-45638389D01*
X122577028Y-45638389D01*
X122725854Y-45457044D01*
X122927853Y-45154732D01*
X123099247Y-44834076D01*
X123238386Y-44498164D01*
X123343930Y-44150233D01*
X123343932Y-44150223D01*
X123343935Y-44150212D01*
X123414862Y-43793630D01*
X123450500Y-43431790D01*
X123450500Y-43068209D01*
X123414862Y-42706369D01*
X123343935Y-42349787D01*
X123343932Y-42349776D01*
X123343931Y-42349773D01*
X123343930Y-42349767D01*
X123238386Y-42001836D01*
X123099247Y-41665924D01*
X123010826Y-41500500D01*
X122927859Y-41345279D01*
X122927858Y-41345277D01*
X122927853Y-41345268D01*
X122725854Y-41042956D01*
X122495197Y-40761899D01*
X122495196Y-40761898D01*
X122495192Y-40761893D01*
X122238106Y-40504807D01*
X121957049Y-40274150D01*
X121957048Y-40274149D01*
X121957044Y-40274146D01*
X121654732Y-40072147D01*
X121654727Y-40072144D01*
X121654720Y-40072140D01*
X121582163Y-40033358D01*
X121532319Y-39984396D01*
X121516858Y-39916258D01*
X121540690Y-39850579D01*
X121596247Y-39808210D01*
X121640616Y-39800000D01*
X156035226Y-39800000D01*
X156102265Y-39819685D01*
G37*
%TD.AperFunction*%
%TD*%
M02*
