M48
; DRILL file {KiCad 9.0.2} date 2025-06-11T21:50:25+0800
; FORMAT={-:-/ absolute / metric / decimal}
; #@! TF.CreationDate,2025-06-11T21:50:25+08:00
; #@! TF.GenerationSoftware,Kicad,Pcbnew,9.0.2
; #@! TF.FileFunction,Plated,1,2,PTH
FMAT,2
METRIC
; #@! TA.AperFunction,Plated,PTH,ViaDrill
T1C0.300
; #@! TA.AperFunction,Plated,PTH,ViaDrill
T2C0.400
; #@! TA.AperFunction,Plated,PTH,ComponentDrill
T3C1.000
%
G90
G05
T1
X71.877Y-40.391
X73.31Y-39.071
X76.454Y-39.116
X76.454Y-40.386
X76.454Y-42.418
X81.026Y-29.464
X81.788Y-30.734
T2
X65.024Y-21.082
X65.024Y-24.13
X65.024Y-27.178
X65.024Y-30.226
X65.024Y-33.274
X65.024Y-36.322
X68.072Y-24.13
X69.342Y-33.274
X69.342Y-36.322
X69.342Y-39.37
X70.358Y-42.418
X71.12Y-24.13
X74.168Y-27.94
X74.168Y-34.036
X74.168Y-35.56
X74.422Y-20.066
X76.454Y-30.988
X77.216Y-34.036
X77.216Y-35.56
X77.724Y-25.908
X78.74Y-42.418
X80.01Y-37.084
X80.264Y-24.13
X81.28Y-20.066
X81.28Y-40.132
X82.55Y-42.418
X83.312Y-24.13
X83.312Y-27.178
X83.312Y-36.322
X83.312Y-39.37
X83.566Y-34.036
X84.836Y-29.464
X85.852Y-23.876
X87.376Y-39.37
X87.376Y-42.418
X88.138Y-23.368
X89.408Y-39.37
X90.043Y-37.719
T3
X89.916Y-21.844
X89.916Y-24.384
X89.916Y-26.924
X89.916Y-29.464
X89.916Y-32.004
X89.916Y-34.544
M30
