%TF.GenerationSoftware,KiCad,Pcbnew,9.0.2*%
%TF.CreationDate,2025-06-11T21:50:26+08:00*%
%TF.ProjectId,imu,696d752e-6b69-4636-9164-5f7063625858,rev?*%
%TF.SameCoordinates,Original*%
%TF.FileFunction,Legend,Bot*%
%TF.FilePolarity,Positive*%
%FSLAX46Y46*%
G04 Gerber Fmt 4.6, Leading zero omitted, Abs format (unit mm)*
G04 Created by KiCad (PCBNEW 9.0.2) date 2025-06-11 21:50:26*
%MOMM*%
%LPD*%
G01*
G04 APERTURE LIST*
%ADD10C,0.150000*%
%ADD11C,0.120000*%
G04 APERTURE END LIST*
D10*
X86052819Y-25169905D02*
X85052819Y-25169905D01*
X85052819Y-25169905D02*
X85052819Y-25408000D01*
X85052819Y-25408000D02*
X85100438Y-25550857D01*
X85100438Y-25550857D02*
X85195676Y-25646095D01*
X85195676Y-25646095D02*
X85290914Y-25693714D01*
X85290914Y-25693714D02*
X85481390Y-25741333D01*
X85481390Y-25741333D02*
X85624247Y-25741333D01*
X85624247Y-25741333D02*
X85814723Y-25693714D01*
X85814723Y-25693714D02*
X85909961Y-25646095D01*
X85909961Y-25646095D02*
X86005200Y-25550857D01*
X86005200Y-25550857D02*
X86052819Y-25408000D01*
X86052819Y-25408000D02*
X86052819Y-25169905D01*
X85052819Y-26646095D02*
X85052819Y-26169905D01*
X85052819Y-26169905D02*
X85529009Y-26122286D01*
X85529009Y-26122286D02*
X85481390Y-26169905D01*
X85481390Y-26169905D02*
X85433771Y-26265143D01*
X85433771Y-26265143D02*
X85433771Y-26503238D01*
X85433771Y-26503238D02*
X85481390Y-26598476D01*
X85481390Y-26598476D02*
X85529009Y-26646095D01*
X85529009Y-26646095D02*
X85624247Y-26693714D01*
X85624247Y-26693714D02*
X85862342Y-26693714D01*
X85862342Y-26693714D02*
X85957580Y-26646095D01*
X85957580Y-26646095D02*
X86005200Y-26598476D01*
X86005200Y-26598476D02*
X86052819Y-26503238D01*
X86052819Y-26503238D02*
X86052819Y-26265143D01*
X86052819Y-26265143D02*
X86005200Y-26169905D01*
X86005200Y-26169905D02*
X85957580Y-26122286D01*
X86052819Y-31157905D02*
X85052819Y-31157905D01*
X85052819Y-31157905D02*
X85052819Y-31396000D01*
X85052819Y-31396000D02*
X85100438Y-31538857D01*
X85100438Y-31538857D02*
X85195676Y-31634095D01*
X85195676Y-31634095D02*
X85290914Y-31681714D01*
X85290914Y-31681714D02*
X85481390Y-31729333D01*
X85481390Y-31729333D02*
X85624247Y-31729333D01*
X85624247Y-31729333D02*
X85814723Y-31681714D01*
X85814723Y-31681714D02*
X85909961Y-31634095D01*
X85909961Y-31634095D02*
X86005200Y-31538857D01*
X86005200Y-31538857D02*
X86052819Y-31396000D01*
X86052819Y-31396000D02*
X86052819Y-31157905D01*
X85386152Y-32586476D02*
X86052819Y-32586476D01*
X85005200Y-32348381D02*
X85719485Y-32110286D01*
X85719485Y-32110286D02*
X85719485Y-32729333D01*
D11*
%TO.C,D5*%
X86272000Y-23898000D02*
X86272000Y-27158000D01*
X86272000Y-23898000D02*
X87972000Y-23898000D01*
X87972000Y-23898000D02*
X87972000Y-27158000D01*
%TO.C,D4*%
X86272000Y-33526000D02*
X86272000Y-30266000D01*
X87972000Y-33526000D02*
X86272000Y-33526000D01*
X87972000Y-33526000D02*
X87972000Y-30266000D01*
%TD*%
M02*
