%TF.GenerationSoftware,KiCad,Pcbnew,9.0.2*%
%TF.CreationDate,2025-06-11T21:50:26+08:00*%
%TF.ProjectId,imu,696d752e-6b69-4636-9164-5f7063625858,rev?*%
%TF.SameCoordinates,Original*%
%TF.FileFunction,Copper,L2,Bot*%
%TF.FilePolarity,Positive*%
%FSLAX46Y46*%
G04 Gerber Fmt 4.6, Leading zero omitted, Abs format (unit mm)*
G04 Created by KiCad (PCBNEW 9.0.2) date 2025-06-11 21:50:26*
%MOMM*%
%LPD*%
G01*
G04 APERTURE LIST*
G04 Aperture macros list*
%AMRoundRect*
0 Rectangle with rounded corners*
0 $1 Rounding radius*
0 $2 $3 $4 $5 $6 $7 $8 $9 X,Y pos of 4 corners*
0 Add a 4 corners polygon primitive as box body*
4,1,4,$2,$3,$4,$5,$6,$7,$8,$9,$2,$3,0*
0 Add four circle primitives for the rounded corners*
1,1,$1+$1,$2,$3*
1,1,$1+$1,$4,$5*
1,1,$1+$1,$6,$7*
1,1,$1+$1,$8,$9*
0 Add four rect primitives between the rounded corners*
20,1,$1+$1,$2,$3,$4,$5,0*
20,1,$1+$1,$4,$5,$6,$7,0*
20,1,$1+$1,$6,$7,$8,$9,0*
20,1,$1+$1,$8,$9,$2,$3,0*%
G04 Aperture macros list end*
%TA.AperFunction,ComponentPad*%
%ADD10R,1.700000X1.700000*%
%TD*%
%TA.AperFunction,ComponentPad*%
%ADD11C,1.700000*%
%TD*%
%TA.AperFunction,SMDPad,CuDef*%
%ADD12RoundRect,0.250000X-0.250000X0.250000X-0.250000X-0.250000X0.250000X-0.250000X0.250000X0.250000X0*%
%TD*%
%TA.AperFunction,SMDPad,CuDef*%
%ADD13RoundRect,0.250000X0.250000X-0.250000X0.250000X0.250000X-0.250000X0.250000X-0.250000X-0.250000X0*%
%TD*%
%TA.AperFunction,ViaPad*%
%ADD14C,0.800000*%
%TD*%
%TA.AperFunction,ViaPad*%
%ADD15C,0.700000*%
%TD*%
%TA.AperFunction,Conductor*%
%ADD16C,0.250000*%
%TD*%
G04 APERTURE END LIST*
D10*
%TO.P,J1,1,Pin_1*%
%TO.N,Net-(D1-A)*%
X89916000Y-21844000D03*
D11*
%TO.P,J1,2,Pin_2*%
%TO.N,GND*%
X89916000Y-24384000D03*
%TO.P,J1,3,Pin_3*%
%TO.N,SDA*%
X89916000Y-26924000D03*
%TO.P,J1,4,Pin_4*%
%TO.N,SCL*%
X89916000Y-29464000D03*
%TO.P,J1,5,Pin_5*%
%TO.N,INT0*%
X89916000Y-32004000D03*
%TO.P,J1,6,Pin_6*%
%TO.N,INT1*%
X89916000Y-34544000D03*
%TD*%
D12*
%TO.P,D5,1,A1*%
%TO.N,GND*%
X87122000Y-24658000D03*
%TO.P,D5,2,A2*%
%TO.N,SDA*%
X87122000Y-27158000D03*
%TD*%
D13*
%TO.P,D4,1,A1*%
%TO.N,GND*%
X87122000Y-32766000D03*
%TO.P,D4,2,A2*%
%TO.N,SCL*%
X87122000Y-30266000D03*
%TD*%
D14*
%TO.N,GND*%
X80264000Y-24130000D03*
X83312000Y-27178000D03*
X74168000Y-35560000D03*
X65024000Y-21082000D03*
X74168000Y-34036000D03*
X76454000Y-30988000D03*
X87376000Y-39370000D03*
X80010000Y-37084000D03*
X77216000Y-35560000D03*
X84836000Y-29464000D03*
X70358000Y-42418000D03*
X78740000Y-42418000D03*
X65024000Y-30226000D03*
X81280000Y-40132000D03*
X69342000Y-39370000D03*
X87376000Y-42418000D03*
X69342000Y-36322000D03*
X83312000Y-39370000D03*
X81280000Y-20066000D03*
X83566000Y-34036000D03*
X65024000Y-36322000D03*
X83312000Y-24130000D03*
X83312000Y-36322000D03*
X77724000Y-25908000D03*
X65024000Y-27178000D03*
X68072000Y-24130000D03*
X89408000Y-39370000D03*
X77216000Y-34036000D03*
X85852000Y-23876000D03*
X88138000Y-23368000D03*
X74422000Y-20066000D03*
X82550000Y-42418000D03*
X65024000Y-24130000D03*
X71120000Y-24130000D03*
X69342000Y-33274000D03*
X90043000Y-37719000D03*
X74168000Y-27940000D03*
X65024000Y-33274000D03*
D15*
%TO.N,+3V3*%
X76454000Y-42418000D03*
X76454000Y-40386000D03*
%TO.N,SDA*%
X81026000Y-29464000D03*
X76454000Y-39116000D03*
%TO.N,SCL*%
X81788000Y-30734000D03*
%TO.N,INT1*%
X73310293Y-39071000D03*
X71877347Y-40390653D03*
%TD*%
D16*
%TO.N,+3V3*%
X76454000Y-40386000D02*
X76454000Y-42418000D01*
%TO.N,SDA*%
X89916000Y-26924000D02*
X87610000Y-26924000D01*
X87610000Y-26924000D02*
X87376000Y-27158000D01*
X76708000Y-39116000D02*
X78740000Y-37084000D01*
X78740000Y-37084000D02*
X78740000Y-29972000D01*
X87376000Y-27158000D02*
X86340000Y-28194000D01*
X82296000Y-28194000D02*
X81026000Y-29464000D01*
X86340000Y-28194000D02*
X82296000Y-28194000D01*
X79248000Y-29464000D02*
X81026000Y-29464000D01*
X78740000Y-29972000D02*
X79248000Y-29464000D01*
X76454000Y-39116000D02*
X76708000Y-39116000D01*
%TO.N,SCL*%
X87082000Y-30266000D02*
X87376000Y-30266000D01*
X87670000Y-29972000D02*
X89408000Y-29972000D01*
X86614000Y-30734000D02*
X87082000Y-30266000D01*
X87376000Y-30266000D02*
X87670000Y-29972000D01*
X89408000Y-29972000D02*
X89916000Y-29464000D01*
X81788000Y-30734000D02*
X86614000Y-30734000D01*
%TO.N,INT1*%
X73310293Y-39071000D02*
X72898000Y-39071000D01*
X71877347Y-40091653D02*
X71877347Y-40390653D01*
X72898000Y-39071000D02*
X71877347Y-40091653D01*
%TD*%
%TA.AperFunction,Conductor*%
%TO.N,GND*%
G36*
X90948059Y-19051061D02*
G01*
X91053223Y-19064906D01*
X91084491Y-19073284D01*
X91174918Y-19110740D01*
X91202952Y-19126925D01*
X91280602Y-19186509D01*
X91303491Y-19209398D01*
X91363074Y-19287048D01*
X91379259Y-19315081D01*
X91416715Y-19405508D01*
X91425093Y-19436775D01*
X91438939Y-19541939D01*
X91440000Y-19558125D01*
X91440000Y-23922791D01*
X91420315Y-23989830D01*
X91367511Y-24035585D01*
X91298353Y-24045529D01*
X91234797Y-24016504D01*
X91198069Y-23961109D01*
X91167095Y-23865782D01*
X91070624Y-23676449D01*
X91031270Y-23622282D01*
X91031269Y-23622282D01*
X90398962Y-24254590D01*
X90381925Y-24191007D01*
X90316099Y-24076993D01*
X90223007Y-23983901D01*
X90108993Y-23918075D01*
X90045409Y-23901037D01*
X90677716Y-23268728D01*
X90623550Y-23229375D01*
X90434217Y-23132904D01*
X90291186Y-23086431D01*
X90233511Y-23046994D01*
X90206312Y-22982635D01*
X90218227Y-22913789D01*
X90265471Y-22862313D01*
X90329504Y-22844500D01*
X90780822Y-22844500D01*
X90824717Y-22835768D01*
X90824717Y-22835767D01*
X90824722Y-22835767D01*
X90874504Y-22802504D01*
X90907767Y-22752722D01*
X90916500Y-22708820D01*
X90916500Y-20979180D01*
X90916500Y-20979177D01*
X90907768Y-20935282D01*
X90907767Y-20935281D01*
X90907767Y-20935278D01*
X90874504Y-20885496D01*
X90862374Y-20877391D01*
X90824724Y-20852234D01*
X90824717Y-20852231D01*
X90780822Y-20843500D01*
X90780820Y-20843500D01*
X89051180Y-20843500D01*
X89051178Y-20843500D01*
X89007282Y-20852231D01*
X89007275Y-20852234D01*
X88957496Y-20885495D01*
X88957495Y-20885496D01*
X88924234Y-20935275D01*
X88924231Y-20935282D01*
X88915500Y-20979177D01*
X88915500Y-20979180D01*
X88915500Y-22708820D01*
X88915500Y-22708822D01*
X88915499Y-22708822D01*
X88924231Y-22752717D01*
X88924232Y-22752721D01*
X88924233Y-22752722D01*
X88957496Y-22802504D01*
X89007278Y-22835767D01*
X89007281Y-22835767D01*
X89007282Y-22835768D01*
X89051177Y-22844500D01*
X89502496Y-22844500D01*
X89569535Y-22864185D01*
X89615290Y-22916989D01*
X89625234Y-22986147D01*
X89596209Y-23049703D01*
X89540814Y-23086431D01*
X89397782Y-23132904D01*
X89208439Y-23229380D01*
X89154282Y-23268727D01*
X89154282Y-23268728D01*
X89786591Y-23901037D01*
X89723007Y-23918075D01*
X89608993Y-23983901D01*
X89515901Y-24076993D01*
X89450075Y-24191007D01*
X89433037Y-24254591D01*
X88800728Y-23622282D01*
X88800727Y-23622282D01*
X88761380Y-23676439D01*
X88664904Y-23865782D01*
X88599242Y-24067869D01*
X88599242Y-24067872D01*
X88566000Y-24277753D01*
X88566000Y-24490246D01*
X88599242Y-24700127D01*
X88599242Y-24700130D01*
X88664904Y-24902217D01*
X88761375Y-25091550D01*
X88800728Y-25145716D01*
X89433037Y-24513408D01*
X89450075Y-24576993D01*
X89515901Y-24691007D01*
X89608993Y-24784099D01*
X89723007Y-24849925D01*
X89786590Y-24866962D01*
X89154282Y-25499269D01*
X89154282Y-25499270D01*
X89208449Y-25538624D01*
X89397782Y-25635095D01*
X89599865Y-25700755D01*
X89658587Y-25710056D01*
X89721722Y-25739985D01*
X89758654Y-25799297D01*
X89757656Y-25869159D01*
X89719047Y-25927392D01*
X89663384Y-25954147D01*
X89624167Y-25961948D01*
X89624160Y-25961950D01*
X89442092Y-26037364D01*
X89442079Y-26037371D01*
X89278218Y-26146860D01*
X89278214Y-26146863D01*
X89138863Y-26286214D01*
X89138860Y-26286218D01*
X89029371Y-26450079D01*
X89029366Y-26450088D01*
X88978889Y-26571953D01*
X88935048Y-26626356D01*
X88868754Y-26648421D01*
X88864328Y-26648500D01*
X87730254Y-26648500D01*
X87663215Y-26628815D01*
X87642572Y-26612180D01*
X87610346Y-26579953D01*
X87610344Y-26579952D01*
X87610342Y-26579950D01*
X87533517Y-26540805D01*
X87497301Y-26522352D01*
X87403524Y-26507500D01*
X86840482Y-26507500D01*
X86759519Y-26520323D01*
X86746696Y-26522354D01*
X86633658Y-26579950D01*
X86633657Y-26579951D01*
X86633652Y-26579954D01*
X86543954Y-26669652D01*
X86543951Y-26669657D01*
X86486352Y-26782698D01*
X86471500Y-26876475D01*
X86471500Y-27439517D01*
X86486354Y-27533306D01*
X86487554Y-27535660D01*
X86488149Y-27538831D01*
X86489370Y-27542588D01*
X86488884Y-27542745D01*
X86500449Y-27604330D01*
X86474171Y-27669070D01*
X86464750Y-27679634D01*
X86262202Y-27882182D01*
X86200882Y-27915666D01*
X86174523Y-27918500D01*
X82241198Y-27918500D01*
X82169599Y-27948158D01*
X82139939Y-27960443D01*
X81173203Y-28927181D01*
X81111880Y-28960666D01*
X81085522Y-28963500D01*
X80960108Y-28963500D01*
X80832812Y-28997608D01*
X80718686Y-29063500D01*
X80718683Y-29063502D01*
X80630005Y-29152181D01*
X80568682Y-29185666D01*
X80542324Y-29188500D01*
X79193197Y-29188500D01*
X79121771Y-29218087D01*
X79121770Y-29218087D01*
X79091946Y-29230440D01*
X79091938Y-29230445D01*
X78583942Y-29738443D01*
X78506444Y-29815940D01*
X78464500Y-29917199D01*
X78464500Y-36918522D01*
X78444815Y-36985561D01*
X78428181Y-37006203D01*
X76801694Y-38632689D01*
X76740371Y-38666174D01*
X76670679Y-38661190D01*
X76652019Y-38652398D01*
X76647186Y-38649608D01*
X76519892Y-38615500D01*
X76388108Y-38615500D01*
X76260812Y-38649608D01*
X76146686Y-38715500D01*
X76146683Y-38715502D01*
X76053502Y-38808683D01*
X76053500Y-38808686D01*
X75987608Y-38922812D01*
X75953500Y-39050108D01*
X75953500Y-39181891D01*
X75987608Y-39309187D01*
X75987610Y-39309190D01*
X76053500Y-39423314D01*
X76146686Y-39516500D01*
X76260814Y-39582392D01*
X76388108Y-39616500D01*
X76388110Y-39616500D01*
X76519890Y-39616500D01*
X76519892Y-39616500D01*
X76647186Y-39582392D01*
X76761314Y-39516500D01*
X76854500Y-39423314D01*
X76920392Y-39309186D01*
X76920394Y-39309176D01*
X76922235Y-39304734D01*
X76949119Y-39264496D01*
X77643115Y-38570500D01*
X78973557Y-37240058D01*
X79015500Y-37138800D01*
X79015500Y-34642543D01*
X88915499Y-34642543D01*
X88953947Y-34835829D01*
X88953950Y-34835839D01*
X89029364Y-35017907D01*
X89029371Y-35017920D01*
X89138860Y-35181781D01*
X89138863Y-35181785D01*
X89278214Y-35321136D01*
X89278218Y-35321139D01*
X89442079Y-35430628D01*
X89442092Y-35430635D01*
X89624160Y-35506049D01*
X89624165Y-35506051D01*
X89624169Y-35506051D01*
X89624170Y-35506052D01*
X89817456Y-35544500D01*
X89817459Y-35544500D01*
X90014543Y-35544500D01*
X90144582Y-35518632D01*
X90207835Y-35506051D01*
X90389914Y-35430632D01*
X90553782Y-35321139D01*
X90693139Y-35181782D01*
X90802632Y-35017914D01*
X90878051Y-34835835D01*
X90916500Y-34642541D01*
X90916500Y-34445459D01*
X90916500Y-34445456D01*
X90878052Y-34252170D01*
X90878051Y-34252169D01*
X90878051Y-34252165D01*
X90878049Y-34252160D01*
X90802635Y-34070092D01*
X90802628Y-34070079D01*
X90693139Y-33906218D01*
X90693136Y-33906214D01*
X90553785Y-33766863D01*
X90553781Y-33766860D01*
X90389920Y-33657371D01*
X90389907Y-33657364D01*
X90207839Y-33581950D01*
X90207829Y-33581947D01*
X90014543Y-33543500D01*
X90014541Y-33543500D01*
X89817459Y-33543500D01*
X89817457Y-33543500D01*
X89624170Y-33581947D01*
X89624160Y-33581950D01*
X89442092Y-33657364D01*
X89442079Y-33657371D01*
X89278218Y-33766860D01*
X89278214Y-33766863D01*
X89138863Y-33906214D01*
X89138860Y-33906218D01*
X89029371Y-34070079D01*
X89029364Y-34070092D01*
X88953950Y-34252160D01*
X88953947Y-34252170D01*
X88915500Y-34445456D01*
X88915500Y-34445459D01*
X88915500Y-34642541D01*
X88915500Y-34642543D01*
X88915499Y-34642543D01*
X79015500Y-34642543D01*
X79015500Y-33065986D01*
X86122001Y-33065986D01*
X86132494Y-33168697D01*
X86187641Y-33335119D01*
X86187643Y-33335124D01*
X86279684Y-33484345D01*
X86403654Y-33608315D01*
X86552875Y-33700356D01*
X86552880Y-33700358D01*
X86719302Y-33755505D01*
X86719309Y-33755506D01*
X86822019Y-33765999D01*
X87372000Y-33765999D01*
X87421972Y-33765999D01*
X87421986Y-33765998D01*
X87524697Y-33755505D01*
X87691119Y-33700358D01*
X87691124Y-33700356D01*
X87840345Y-33608315D01*
X87964315Y-33484345D01*
X88056356Y-33335124D01*
X88056358Y-33335119D01*
X88111505Y-33168697D01*
X88111506Y-33168690D01*
X88121999Y-33065986D01*
X88122000Y-33065973D01*
X88122000Y-33016000D01*
X87372000Y-33016000D01*
X87372000Y-33765999D01*
X86822019Y-33765999D01*
X86871999Y-33765998D01*
X86872000Y-33765998D01*
X86872000Y-33016000D01*
X86122001Y-33016000D01*
X86122001Y-33065986D01*
X79015500Y-33065986D01*
X79015500Y-32466013D01*
X86122000Y-32466013D01*
X86122000Y-32516000D01*
X86872000Y-32516000D01*
X87372000Y-32516000D01*
X88121999Y-32516000D01*
X88121999Y-32466028D01*
X88121998Y-32466013D01*
X88111505Y-32363302D01*
X88056358Y-32196880D01*
X88056356Y-32196875D01*
X87998171Y-32102543D01*
X88915499Y-32102543D01*
X88953947Y-32295829D01*
X88953950Y-32295839D01*
X89029364Y-32477907D01*
X89029371Y-32477920D01*
X89138860Y-32641781D01*
X89138863Y-32641785D01*
X89278214Y-32781136D01*
X89278218Y-32781139D01*
X89442079Y-32890628D01*
X89442092Y-32890635D01*
X89624160Y-32966049D01*
X89624165Y-32966051D01*
X89624169Y-32966051D01*
X89624170Y-32966052D01*
X89817456Y-33004500D01*
X89817459Y-33004500D01*
X90014543Y-33004500D01*
X90144582Y-32978632D01*
X90207835Y-32966051D01*
X90389914Y-32890632D01*
X90553782Y-32781139D01*
X90693139Y-32641782D01*
X90802632Y-32477914D01*
X90878051Y-32295835D01*
X90916500Y-32102541D01*
X90916500Y-31905459D01*
X90916500Y-31905456D01*
X90878052Y-31712170D01*
X90878051Y-31712169D01*
X90878051Y-31712165D01*
X90878049Y-31712160D01*
X90802635Y-31530092D01*
X90802628Y-31530079D01*
X90693139Y-31366218D01*
X90693136Y-31366214D01*
X90553785Y-31226863D01*
X90553781Y-31226860D01*
X90389920Y-31117371D01*
X90389907Y-31117364D01*
X90207839Y-31041950D01*
X90207829Y-31041947D01*
X90014543Y-31003500D01*
X90014541Y-31003500D01*
X89817459Y-31003500D01*
X89817457Y-31003500D01*
X89624170Y-31041947D01*
X89624160Y-31041950D01*
X89442092Y-31117364D01*
X89442079Y-31117371D01*
X89278218Y-31226860D01*
X89278214Y-31226863D01*
X89138863Y-31366214D01*
X89138860Y-31366218D01*
X89029371Y-31530079D01*
X89029364Y-31530092D01*
X88953950Y-31712160D01*
X88953947Y-31712170D01*
X88915500Y-31905456D01*
X88915500Y-31905459D01*
X88915500Y-32102541D01*
X88915500Y-32102543D01*
X88915499Y-32102543D01*
X87998171Y-32102543D01*
X87964315Y-32047654D01*
X87840345Y-31923684D01*
X87691124Y-31831643D01*
X87691119Y-31831641D01*
X87524697Y-31776494D01*
X87524690Y-31776493D01*
X87421986Y-31766000D01*
X87372000Y-31766000D01*
X87372000Y-32516000D01*
X86872000Y-32516000D01*
X86872000Y-31766000D01*
X86871999Y-31765999D01*
X86822029Y-31766000D01*
X86822011Y-31766001D01*
X86719302Y-31776494D01*
X86552880Y-31831641D01*
X86552875Y-31831643D01*
X86403654Y-31923684D01*
X86279684Y-32047654D01*
X86187643Y-32196875D01*
X86187641Y-32196880D01*
X86132494Y-32363302D01*
X86132493Y-32363309D01*
X86122000Y-32466013D01*
X79015500Y-32466013D01*
X79015500Y-30668108D01*
X81287500Y-30668108D01*
X81287500Y-30799892D01*
X81299332Y-30844050D01*
X81321608Y-30927187D01*
X81336409Y-30952822D01*
X81387500Y-31041314D01*
X81480686Y-31134500D01*
X81594814Y-31200392D01*
X81722108Y-31234500D01*
X81722110Y-31234500D01*
X81853890Y-31234500D01*
X81853892Y-31234500D01*
X81981186Y-31200392D01*
X82095314Y-31134500D01*
X82183995Y-31045819D01*
X82245318Y-31012334D01*
X82271676Y-31009500D01*
X86668799Y-31009500D01*
X86668800Y-31009500D01*
X86770058Y-30967557D01*
X86784794Y-30952819D01*
X86846113Y-30919334D01*
X86872467Y-30916499D01*
X87403518Y-30916499D01*
X87497304Y-30901646D01*
X87610342Y-30844050D01*
X87700050Y-30754342D01*
X87757646Y-30641304D01*
X87757646Y-30641302D01*
X87757647Y-30641301D01*
X87772499Y-30547524D01*
X87772500Y-30547519D01*
X87772499Y-30371499D01*
X87792183Y-30304461D01*
X87844987Y-30258706D01*
X87896499Y-30247500D01*
X89250123Y-30247500D01*
X89317162Y-30267185D01*
X89319014Y-30268398D01*
X89442079Y-30350628D01*
X89442092Y-30350635D01*
X89564987Y-30401539D01*
X89624165Y-30426051D01*
X89624169Y-30426051D01*
X89624170Y-30426052D01*
X89817456Y-30464500D01*
X89817459Y-30464500D01*
X90014543Y-30464500D01*
X90144582Y-30438632D01*
X90207835Y-30426051D01*
X90389914Y-30350632D01*
X90553782Y-30241139D01*
X90693139Y-30101782D01*
X90802632Y-29937914D01*
X90878051Y-29755835D01*
X90903011Y-29630354D01*
X90916500Y-29562543D01*
X90916500Y-29365456D01*
X90878052Y-29172170D01*
X90878051Y-29172169D01*
X90878051Y-29172165D01*
X90878049Y-29172160D01*
X90802635Y-28990092D01*
X90802628Y-28990079D01*
X90693139Y-28826218D01*
X90693136Y-28826214D01*
X90553785Y-28686863D01*
X90553781Y-28686860D01*
X90389920Y-28577371D01*
X90389907Y-28577364D01*
X90207839Y-28501950D01*
X90207829Y-28501947D01*
X90014543Y-28463500D01*
X90014541Y-28463500D01*
X89817459Y-28463500D01*
X89817457Y-28463500D01*
X89624170Y-28501947D01*
X89624160Y-28501950D01*
X89442092Y-28577364D01*
X89442079Y-28577371D01*
X89278218Y-28686860D01*
X89278214Y-28686863D01*
X89138863Y-28826214D01*
X89138860Y-28826218D01*
X89029371Y-28990079D01*
X89029364Y-28990092D01*
X88953950Y-29172160D01*
X88953947Y-29172170D01*
X88915500Y-29365456D01*
X88915500Y-29568633D01*
X88913711Y-29568633D01*
X88902267Y-29628988D01*
X88854204Y-29679700D01*
X88791881Y-29696500D01*
X87656891Y-29696500D01*
X87600599Y-29682985D01*
X87497304Y-29630354D01*
X87497303Y-29630353D01*
X87497300Y-29630352D01*
X87497301Y-29630352D01*
X87403524Y-29615500D01*
X86840482Y-29615500D01*
X86759519Y-29628323D01*
X86746696Y-29630354D01*
X86633658Y-29687950D01*
X86633657Y-29687951D01*
X86633652Y-29687954D01*
X86543954Y-29777652D01*
X86543951Y-29777657D01*
X86486352Y-29890698D01*
X86471500Y-29984475D01*
X86471501Y-30334500D01*
X86451817Y-30401539D01*
X86399013Y-30447294D01*
X86347501Y-30458500D01*
X82271676Y-30458500D01*
X82204637Y-30438815D01*
X82183995Y-30422181D01*
X82095316Y-30333502D01*
X82095314Y-30333500D01*
X82038250Y-30300554D01*
X81981187Y-30267608D01*
X81882390Y-30241136D01*
X81853892Y-30233500D01*
X81722108Y-30233500D01*
X81594812Y-30267608D01*
X81480686Y-30333500D01*
X81480683Y-30333502D01*
X81387502Y-30426683D01*
X81387500Y-30426686D01*
X81321608Y-30540812D01*
X81319811Y-30547519D01*
X81287500Y-30668108D01*
X79015500Y-30668108D01*
X79015500Y-30137477D01*
X79035185Y-30070438D01*
X79051819Y-30049796D01*
X79325797Y-29775819D01*
X79387120Y-29742334D01*
X79413478Y-29739500D01*
X80542324Y-29739500D01*
X80609363Y-29759185D01*
X80630005Y-29775819D01*
X80718686Y-29864500D01*
X80832814Y-29930392D01*
X80960108Y-29964500D01*
X80960110Y-29964500D01*
X81091890Y-29964500D01*
X81091892Y-29964500D01*
X81219186Y-29930392D01*
X81333314Y-29864500D01*
X81426500Y-29771314D01*
X81492392Y-29657186D01*
X81526500Y-29529892D01*
X81526500Y-29404476D01*
X81546185Y-29337437D01*
X81562819Y-29316795D01*
X82373797Y-28505819D01*
X82435120Y-28472334D01*
X82461478Y-28469500D01*
X86394799Y-28469500D01*
X86394800Y-28469500D01*
X86496058Y-28427557D01*
X86573557Y-28350058D01*
X86573556Y-28350058D01*
X86632125Y-28291489D01*
X87078797Y-27844818D01*
X87140120Y-27811333D01*
X87166478Y-27808499D01*
X87403517Y-27808499D01*
X87403518Y-27808499D01*
X87497304Y-27793646D01*
X87610342Y-27736050D01*
X87700050Y-27646342D01*
X87757646Y-27533304D01*
X87757646Y-27533302D01*
X87757647Y-27533301D01*
X87772500Y-27439524D01*
X87772500Y-27323500D01*
X87792185Y-27256461D01*
X87844989Y-27210706D01*
X87896500Y-27199500D01*
X88864328Y-27199500D01*
X88931367Y-27219185D01*
X88977122Y-27271989D01*
X88978889Y-27276047D01*
X89029366Y-27397911D01*
X89029371Y-27397920D01*
X89138860Y-27561781D01*
X89138863Y-27561785D01*
X89278214Y-27701136D01*
X89278218Y-27701139D01*
X89442079Y-27810628D01*
X89442092Y-27810635D01*
X89614822Y-27882181D01*
X89624165Y-27886051D01*
X89624169Y-27886051D01*
X89624170Y-27886052D01*
X89817456Y-27924500D01*
X89817459Y-27924500D01*
X90014543Y-27924500D01*
X90144582Y-27898632D01*
X90207835Y-27886051D01*
X90389914Y-27810632D01*
X90553782Y-27701139D01*
X90693139Y-27561782D01*
X90802632Y-27397914D01*
X90878051Y-27215835D01*
X90916500Y-27022541D01*
X90916500Y-26825459D01*
X90916500Y-26825456D01*
X90878052Y-26632170D01*
X90878051Y-26632169D01*
X90878051Y-26632165D01*
X90856424Y-26579953D01*
X90802635Y-26450092D01*
X90802628Y-26450079D01*
X90693139Y-26286218D01*
X90693136Y-26286214D01*
X90553785Y-26146863D01*
X90553781Y-26146860D01*
X90389920Y-26037371D01*
X90389907Y-26037364D01*
X90207839Y-25961950D01*
X90207830Y-25961947D01*
X90168616Y-25954147D01*
X90106705Y-25921761D01*
X90072132Y-25861045D01*
X90075873Y-25791275D01*
X90116740Y-25734604D01*
X90173412Y-25710056D01*
X90232134Y-25700755D01*
X90434217Y-25635095D01*
X90623554Y-25538622D01*
X90677716Y-25499270D01*
X90677717Y-25499270D01*
X90045408Y-24866962D01*
X90108993Y-24849925D01*
X90223007Y-24784099D01*
X90316099Y-24691007D01*
X90381925Y-24576993D01*
X90398962Y-24513409D01*
X91031270Y-25145717D01*
X91031270Y-25145716D01*
X91070622Y-25091554D01*
X91167095Y-24902217D01*
X91198069Y-24806890D01*
X91237506Y-24749215D01*
X91301865Y-24722016D01*
X91370711Y-24733930D01*
X91422187Y-24781174D01*
X91440000Y-24845208D01*
X91440000Y-46481874D01*
X91438939Y-46498059D01*
X91438939Y-46498060D01*
X91425093Y-46603224D01*
X91416715Y-46634491D01*
X91379259Y-46724918D01*
X91363074Y-46752951D01*
X91303491Y-46830601D01*
X91280601Y-46853491D01*
X91202951Y-46913074D01*
X91174918Y-46929259D01*
X91084491Y-46966715D01*
X91053224Y-46975093D01*
X90959398Y-46987446D01*
X90948058Y-46988939D01*
X90931874Y-46990000D01*
X60198126Y-46990000D01*
X60181941Y-46988939D01*
X60168917Y-46987224D01*
X60076775Y-46975093D01*
X60045508Y-46966715D01*
X59955081Y-46929259D01*
X59927048Y-46913074D01*
X59849398Y-46853491D01*
X59826508Y-46830601D01*
X59766925Y-46752951D01*
X59750740Y-46724918D01*
X59713284Y-46634491D01*
X59704906Y-46603223D01*
X59691061Y-46498059D01*
X59690000Y-46481874D01*
X59690000Y-44449999D01*
X60703521Y-44449999D01*
X60705098Y-44469533D01*
X60705500Y-44479511D01*
X60705500Y-44569985D01*
X60720475Y-44664534D01*
X60720475Y-44664535D01*
X60723767Y-44685323D01*
X60724894Y-44694603D01*
X60726423Y-44702095D01*
X60729677Y-44722638D01*
X60729679Y-44722646D01*
X60743038Y-44806989D01*
X60774316Y-44903254D01*
X60774316Y-44903255D01*
X60781018Y-44923883D01*
X60783622Y-44932872D01*
X60785833Y-44938703D01*
X60792320Y-44958667D01*
X60817188Y-45035200D01*
X60817190Y-45035205D01*
X60865743Y-45130497D01*
X60876154Y-45150929D01*
X60879810Y-45158634D01*
X60882109Y-45162617D01*
X60891765Y-45181566D01*
X60926131Y-45249012D01*
X61007299Y-45360730D01*
X61010967Y-45366043D01*
X61012709Y-45368177D01*
X61067177Y-45443145D01*
X61067179Y-45443147D01*
X61172213Y-45548181D01*
X61173698Y-45549727D01*
X61174232Y-45550200D01*
X61236858Y-45612826D01*
X61288880Y-45650622D01*
X61414850Y-45742144D01*
X61430986Y-45753868D01*
X61430988Y-45753869D01*
X61644795Y-45862810D01*
X61873012Y-45936962D01*
X62110019Y-45974500D01*
X62110021Y-45974500D01*
X62349979Y-45974500D01*
X62349981Y-45974500D01*
X62586988Y-45936962D01*
X62815205Y-45862810D01*
X63029012Y-45753869D01*
X63223145Y-45612823D01*
X63392823Y-45443145D01*
X63533869Y-45249012D01*
X63642810Y-45035205D01*
X63716962Y-44806988D01*
X63717173Y-44805654D01*
X63754500Y-44569986D01*
X63754500Y-44449999D01*
X87627521Y-44449999D01*
X87629098Y-44469533D01*
X87629500Y-44479511D01*
X87629500Y-44569985D01*
X87644475Y-44664534D01*
X87644475Y-44664535D01*
X87647767Y-44685323D01*
X87648894Y-44694603D01*
X87650423Y-44702095D01*
X87653677Y-44722638D01*
X87653679Y-44722646D01*
X87667038Y-44806989D01*
X87698316Y-44903254D01*
X87698316Y-44903255D01*
X87705018Y-44923883D01*
X87707622Y-44932872D01*
X87709833Y-44938703D01*
X87716320Y-44958667D01*
X87741188Y-45035200D01*
X87741190Y-45035205D01*
X87789743Y-45130497D01*
X87800154Y-45150929D01*
X87803810Y-45158634D01*
X87806109Y-45162617D01*
X87815765Y-45181566D01*
X87850131Y-45249012D01*
X87931299Y-45360730D01*
X87934967Y-45366043D01*
X87936709Y-45368177D01*
X87991177Y-45443145D01*
X87991179Y-45443147D01*
X88096213Y-45548181D01*
X88097698Y-45549727D01*
X88098232Y-45550200D01*
X88160858Y-45612826D01*
X88212880Y-45650622D01*
X88338850Y-45742144D01*
X88354986Y-45753868D01*
X88354988Y-45753869D01*
X88568795Y-45862810D01*
X88797012Y-45936962D01*
X89034019Y-45974500D01*
X89034021Y-45974500D01*
X89273979Y-45974500D01*
X89273981Y-45974500D01*
X89510988Y-45936962D01*
X89739205Y-45862810D01*
X89953012Y-45753869D01*
X90147145Y-45612823D01*
X90316823Y-45443145D01*
X90457869Y-45249012D01*
X90566810Y-45035205D01*
X90640962Y-44806988D01*
X90641173Y-44805654D01*
X90678500Y-44569986D01*
X90678500Y-44330013D01*
X90640962Y-44093011D01*
X90602976Y-43976104D01*
X90566810Y-43864795D01*
X90457869Y-43650988D01*
X90316823Y-43456855D01*
X90147145Y-43287177D01*
X89953012Y-43146131D01*
X89739205Y-43037190D01*
X89739202Y-43037189D01*
X89739200Y-43037188D01*
X89701947Y-43025083D01*
X89687540Y-43020402D01*
X89510986Y-42963037D01*
X89470690Y-42956655D01*
X89470689Y-42956655D01*
X89443922Y-42952415D01*
X89443920Y-42952414D01*
X89273987Y-42925500D01*
X89273981Y-42925500D01*
X89034019Y-42925500D01*
X89034017Y-42925500D01*
X88985523Y-42933178D01*
X88985524Y-42933179D01*
X88945691Y-42939489D01*
X88945689Y-42939488D01*
X88945689Y-42939489D01*
X88797017Y-42963037D01*
X88797005Y-42963039D01*
X88746283Y-42979518D01*
X88746284Y-42979519D01*
X88703502Y-42993420D01*
X88568794Y-43037190D01*
X88568786Y-43037194D01*
X88517441Y-43063353D01*
X88517442Y-43063354D01*
X88474001Y-43085487D01*
X88474001Y-43085488D01*
X88354993Y-43146127D01*
X88354986Y-43146131D01*
X88304820Y-43182577D01*
X88304821Y-43182578D01*
X88262953Y-43212997D01*
X88160851Y-43287179D01*
X88113853Y-43334177D01*
X88098208Y-43349821D01*
X88097698Y-43350273D01*
X88096284Y-43351744D01*
X88075606Y-43372422D01*
X88075590Y-43372440D01*
X87991175Y-43456857D01*
X87949431Y-43514312D01*
X87936699Y-43531834D01*
X87934967Y-43533957D01*
X87931337Y-43539215D01*
X87916527Y-43559600D01*
X87850134Y-43650982D01*
X87815770Y-43718423D01*
X87806104Y-43737391D01*
X87803810Y-43741366D01*
X87800162Y-43749054D01*
X87789746Y-43769496D01*
X87789744Y-43769497D01*
X87741191Y-43864790D01*
X87741190Y-43864792D01*
X87716320Y-43941329D01*
X87716321Y-43941330D01*
X87709831Y-43961300D01*
X87707622Y-43967128D01*
X87705021Y-43976104D01*
X87698314Y-43996749D01*
X87667038Y-44093008D01*
X87653679Y-44177354D01*
X87653679Y-44177356D01*
X87650425Y-44197897D01*
X87648894Y-44205397D01*
X87647768Y-44214670D01*
X87644478Y-44235440D01*
X87644477Y-44235450D01*
X87629500Y-44330018D01*
X87629500Y-44420487D01*
X87629098Y-44430464D01*
X87627521Y-44449999D01*
X63754500Y-44449999D01*
X63754500Y-44330013D01*
X63716962Y-44093011D01*
X63678976Y-43976104D01*
X63642810Y-43864795D01*
X63533869Y-43650988D01*
X63392823Y-43456855D01*
X63223145Y-43287177D01*
X63029012Y-43146131D01*
X62815205Y-43037190D01*
X62815202Y-43037189D01*
X62815200Y-43037188D01*
X62777947Y-43025083D01*
X62763540Y-43020402D01*
X62586986Y-42963037D01*
X62546690Y-42956655D01*
X62546689Y-42956655D01*
X62519922Y-42952415D01*
X62519920Y-42952414D01*
X62349987Y-42925500D01*
X62349981Y-42925500D01*
X62110019Y-42925500D01*
X62110017Y-42925500D01*
X62061523Y-42933178D01*
X62061524Y-42933179D01*
X62021691Y-42939489D01*
X62021689Y-42939488D01*
X62021689Y-42939489D01*
X61873017Y-42963037D01*
X61873005Y-42963039D01*
X61822283Y-42979518D01*
X61822284Y-42979519D01*
X61779502Y-42993420D01*
X61644794Y-43037190D01*
X61644786Y-43037194D01*
X61593441Y-43063353D01*
X61593442Y-43063354D01*
X61550001Y-43085487D01*
X61550001Y-43085488D01*
X61430993Y-43146127D01*
X61430986Y-43146131D01*
X61380820Y-43182577D01*
X61380821Y-43182578D01*
X61338953Y-43212997D01*
X61236851Y-43287179D01*
X61189853Y-43334177D01*
X61174208Y-43349821D01*
X61173698Y-43350273D01*
X61172284Y-43351744D01*
X61151606Y-43372422D01*
X61151590Y-43372440D01*
X61067175Y-43456857D01*
X61025431Y-43514312D01*
X61012699Y-43531834D01*
X61010967Y-43533957D01*
X61007337Y-43539215D01*
X60992527Y-43559600D01*
X60926134Y-43650982D01*
X60891770Y-43718423D01*
X60882104Y-43737391D01*
X60879810Y-43741366D01*
X60876162Y-43749054D01*
X60865746Y-43769496D01*
X60865744Y-43769497D01*
X60817191Y-43864790D01*
X60817190Y-43864792D01*
X60792320Y-43941329D01*
X60792321Y-43941330D01*
X60785831Y-43961300D01*
X60783622Y-43967128D01*
X60781021Y-43976104D01*
X60774314Y-43996749D01*
X60743038Y-44093008D01*
X60729679Y-44177354D01*
X60729679Y-44177356D01*
X60726425Y-44197897D01*
X60724894Y-44205397D01*
X60723768Y-44214670D01*
X60720478Y-44235440D01*
X60720477Y-44235450D01*
X60705500Y-44330018D01*
X60705500Y-44420487D01*
X60705098Y-44430464D01*
X60703521Y-44449999D01*
X59690000Y-44449999D01*
X59690000Y-40324761D01*
X71376847Y-40324761D01*
X71376847Y-40456544D01*
X71410955Y-40583840D01*
X71443901Y-40640903D01*
X71476847Y-40697967D01*
X71570033Y-40791153D01*
X71684161Y-40857045D01*
X71811455Y-40891153D01*
X71811457Y-40891153D01*
X71943237Y-40891153D01*
X71943239Y-40891153D01*
X72070533Y-40857045D01*
X72184661Y-40791153D01*
X72277847Y-40697967D01*
X72343739Y-40583839D01*
X72377847Y-40456545D01*
X72377847Y-40324761D01*
X72376600Y-40320108D01*
X75953500Y-40320108D01*
X75953500Y-40451892D01*
X75954747Y-40456545D01*
X75987608Y-40579187D01*
X76020554Y-40636250D01*
X76053500Y-40693314D01*
X76053502Y-40693316D01*
X76142181Y-40781995D01*
X76175666Y-40843318D01*
X76178500Y-40869676D01*
X76178500Y-41934324D01*
X76158815Y-42001363D01*
X76142181Y-42022005D01*
X76053502Y-42110683D01*
X76053500Y-42110686D01*
X75987608Y-42224812D01*
X75953500Y-42352108D01*
X75953500Y-42483891D01*
X75987608Y-42611187D01*
X76020554Y-42668250D01*
X76053500Y-42725314D01*
X76146686Y-42818500D01*
X76260814Y-42884392D01*
X76388108Y-42918500D01*
X76388110Y-42918500D01*
X76519890Y-42918500D01*
X76519892Y-42918500D01*
X76647186Y-42884392D01*
X76761314Y-42818500D01*
X76854500Y-42725314D01*
X76920392Y-42611186D01*
X76954500Y-42483892D01*
X76954500Y-42352108D01*
X76920392Y-42224814D01*
X76854500Y-42110686D01*
X76765819Y-42022005D01*
X76732334Y-41960682D01*
X76729500Y-41934324D01*
X76729500Y-40869676D01*
X76749185Y-40802637D01*
X76765819Y-40781995D01*
X76854500Y-40693314D01*
X76920392Y-40579186D01*
X76954500Y-40451892D01*
X76954500Y-40320108D01*
X76920392Y-40192814D01*
X76854500Y-40078686D01*
X76761314Y-39985500D01*
X76697987Y-39948938D01*
X76647187Y-39919608D01*
X76583539Y-39902554D01*
X76519892Y-39885500D01*
X76388108Y-39885500D01*
X76260812Y-39919608D01*
X76146686Y-39985500D01*
X76146683Y-39985502D01*
X76053502Y-40078683D01*
X76053500Y-40078686D01*
X75987608Y-40192812D01*
X75986361Y-40197467D01*
X75953500Y-40320108D01*
X72376600Y-40320108D01*
X72343739Y-40197467D01*
X72318122Y-40153097D01*
X72314131Y-40141022D01*
X72313367Y-40118300D01*
X72308007Y-40096207D01*
X72312215Y-40084048D01*
X72311783Y-40071192D01*
X72323424Y-40051664D01*
X72330860Y-40030181D01*
X72344179Y-40014434D01*
X72862247Y-39496367D01*
X72923566Y-39462885D01*
X72993258Y-39467869D01*
X73011915Y-39476659D01*
X73117107Y-39537392D01*
X73244401Y-39571500D01*
X73244403Y-39571500D01*
X73376183Y-39571500D01*
X73376185Y-39571500D01*
X73503479Y-39537392D01*
X73617607Y-39471500D01*
X73710793Y-39378314D01*
X73776685Y-39264186D01*
X73810793Y-39136892D01*
X73810793Y-39005108D01*
X73776685Y-38877814D01*
X73710793Y-38763686D01*
X73617607Y-38670500D01*
X73552117Y-38632689D01*
X73503480Y-38604608D01*
X73439832Y-38587554D01*
X73376185Y-38570500D01*
X73244401Y-38570500D01*
X73117105Y-38604608D01*
X73002979Y-38670500D01*
X72913213Y-38760266D01*
X72869058Y-38788694D01*
X72850902Y-38795500D01*
X72843200Y-38795500D01*
X72771772Y-38825087D01*
X72769839Y-38825887D01*
X72769806Y-38825900D01*
X72741946Y-38837440D01*
X72741938Y-38837445D01*
X71721796Y-39857588D01*
X71721747Y-39857637D01*
X71721289Y-39858096D01*
X71643790Y-39935595D01*
X71642631Y-39938391D01*
X71632299Y-39948938D01*
X71620950Y-39955286D01*
X71605726Y-39969545D01*
X71570036Y-39990151D01*
X71570030Y-39990155D01*
X71476849Y-40083336D01*
X71476847Y-40083339D01*
X71410955Y-40197465D01*
X71376847Y-40324761D01*
X59690000Y-40324761D01*
X59690000Y-24957986D01*
X86122001Y-24957986D01*
X86132494Y-25060697D01*
X86187641Y-25227119D01*
X86187643Y-25227124D01*
X86279684Y-25376345D01*
X86403654Y-25500315D01*
X86552875Y-25592356D01*
X86552880Y-25592358D01*
X86719302Y-25647505D01*
X86719309Y-25647506D01*
X86822019Y-25657999D01*
X87372000Y-25657999D01*
X87421972Y-25657999D01*
X87421986Y-25657998D01*
X87524697Y-25647505D01*
X87691119Y-25592358D01*
X87691124Y-25592356D01*
X87840345Y-25500315D01*
X87964315Y-25376345D01*
X88056356Y-25227124D01*
X88056358Y-25227119D01*
X88111505Y-25060697D01*
X88111506Y-25060690D01*
X88121999Y-24957986D01*
X88122000Y-24957973D01*
X88122000Y-24908000D01*
X87372000Y-24908000D01*
X87372000Y-25657999D01*
X86822019Y-25657999D01*
X86871999Y-25657998D01*
X86872000Y-25657998D01*
X86872000Y-24908000D01*
X86122001Y-24908000D01*
X86122001Y-24957986D01*
X59690000Y-24957986D01*
X59690000Y-24358013D01*
X86122000Y-24358013D01*
X86122000Y-24408000D01*
X86872000Y-24408000D01*
X87372000Y-24408000D01*
X88121999Y-24408000D01*
X88121999Y-24358028D01*
X88121998Y-24358011D01*
X88114589Y-24285482D01*
X88111505Y-24255302D01*
X88056358Y-24088880D01*
X88056356Y-24088875D01*
X87964315Y-23939654D01*
X87840345Y-23815684D01*
X87691124Y-23723643D01*
X87691119Y-23723641D01*
X87524697Y-23668494D01*
X87524690Y-23668493D01*
X87421986Y-23658000D01*
X87372000Y-23658000D01*
X87372000Y-24408000D01*
X86872000Y-24408000D01*
X86872000Y-23658000D01*
X86871999Y-23657999D01*
X86822029Y-23658000D01*
X86822011Y-23658001D01*
X86719302Y-23668494D01*
X86552880Y-23723641D01*
X86552875Y-23723643D01*
X86403654Y-23815684D01*
X86279684Y-23939654D01*
X86187643Y-24088875D01*
X86187641Y-24088880D01*
X86132494Y-24255302D01*
X86132493Y-24255309D01*
X86122000Y-24358013D01*
X59690000Y-24358013D01*
X59690000Y-21589999D01*
X60703521Y-21589999D01*
X60705098Y-21609533D01*
X60705500Y-21619511D01*
X60705500Y-21709985D01*
X60720475Y-21804534D01*
X60720475Y-21804535D01*
X60723767Y-21825323D01*
X60724894Y-21834603D01*
X60726423Y-21842095D01*
X60729677Y-21862638D01*
X60729679Y-21862646D01*
X60743038Y-21946989D01*
X60774316Y-22043254D01*
X60774316Y-22043255D01*
X60781018Y-22063883D01*
X60783622Y-22072872D01*
X60785833Y-22078703D01*
X60792320Y-22098667D01*
X60817188Y-22175200D01*
X60817190Y-22175205D01*
X60865743Y-22270497D01*
X60876154Y-22290929D01*
X60879810Y-22298634D01*
X60882109Y-22302617D01*
X60891765Y-22321566D01*
X60926131Y-22389012D01*
X61007299Y-22500730D01*
X61010967Y-22506043D01*
X61012709Y-22508177D01*
X61067177Y-22583145D01*
X61067179Y-22583147D01*
X61172213Y-22688181D01*
X61173698Y-22689727D01*
X61174232Y-22690200D01*
X61236858Y-22752826D01*
X61288880Y-22790622D01*
X61390132Y-22864185D01*
X61430986Y-22893868D01*
X61430988Y-22893869D01*
X61644795Y-23002810D01*
X61873012Y-23076962D01*
X62110019Y-23114500D01*
X62110021Y-23114500D01*
X62349979Y-23114500D01*
X62349981Y-23114500D01*
X62586988Y-23076962D01*
X62815205Y-23002810D01*
X63029012Y-22893869D01*
X63223145Y-22752823D01*
X63392823Y-22583145D01*
X63533869Y-22389012D01*
X63642810Y-22175205D01*
X63716962Y-21946988D01*
X63717173Y-21945654D01*
X63754500Y-21709986D01*
X63754500Y-21470013D01*
X63716962Y-21233011D01*
X63644958Y-21011406D01*
X63642810Y-21004795D01*
X63533869Y-20790988D01*
X63392823Y-20596855D01*
X63223145Y-20427177D01*
X63029012Y-20286131D01*
X62815205Y-20177190D01*
X62815202Y-20177189D01*
X62815200Y-20177188D01*
X62777947Y-20165083D01*
X62763540Y-20160402D01*
X62586986Y-20103037D01*
X62546690Y-20096655D01*
X62546689Y-20096655D01*
X62519922Y-20092415D01*
X62519920Y-20092414D01*
X62349987Y-20065500D01*
X62349981Y-20065500D01*
X62110019Y-20065500D01*
X62110017Y-20065500D01*
X62061523Y-20073178D01*
X62061524Y-20073179D01*
X62021691Y-20079489D01*
X62021689Y-20079488D01*
X62021689Y-20079489D01*
X61873017Y-20103037D01*
X61873005Y-20103039D01*
X61822283Y-20119518D01*
X61822284Y-20119519D01*
X61779502Y-20133420D01*
X61644794Y-20177190D01*
X61644786Y-20177194D01*
X61593441Y-20203353D01*
X61593442Y-20203354D01*
X61550001Y-20225487D01*
X61550001Y-20225488D01*
X61430993Y-20286127D01*
X61430986Y-20286131D01*
X61380820Y-20322577D01*
X61380821Y-20322578D01*
X61338953Y-20352997D01*
X61236851Y-20427179D01*
X61189853Y-20474177D01*
X61174208Y-20489821D01*
X61173698Y-20490273D01*
X61172284Y-20491744D01*
X61151606Y-20512422D01*
X61151590Y-20512440D01*
X61067175Y-20596857D01*
X61025431Y-20654312D01*
X61012699Y-20671834D01*
X61010967Y-20673957D01*
X61007337Y-20679215D01*
X60992527Y-20699600D01*
X60926134Y-20790982D01*
X60891770Y-20858423D01*
X60882104Y-20877391D01*
X60879810Y-20881366D01*
X60876162Y-20889054D01*
X60865746Y-20909496D01*
X60865744Y-20909497D01*
X60817191Y-21004790D01*
X60817190Y-21004792D01*
X60792320Y-21081329D01*
X60792321Y-21081330D01*
X60785831Y-21101300D01*
X60783622Y-21107128D01*
X60781021Y-21116104D01*
X60774314Y-21136749D01*
X60743038Y-21233008D01*
X60729679Y-21317354D01*
X60729679Y-21317356D01*
X60726425Y-21337897D01*
X60724894Y-21345397D01*
X60723768Y-21354670D01*
X60720478Y-21375440D01*
X60720477Y-21375450D01*
X60705500Y-21470018D01*
X60705500Y-21560487D01*
X60705098Y-21570464D01*
X60703521Y-21589999D01*
X59690000Y-21589999D01*
X59690000Y-19558125D01*
X59691061Y-19541940D01*
X59704906Y-19436776D01*
X59704906Y-19436775D01*
X59713284Y-19405508D01*
X59750740Y-19315081D01*
X59766923Y-19287050D01*
X59826513Y-19209392D01*
X59849392Y-19186513D01*
X59927050Y-19126923D01*
X59955079Y-19110740D01*
X60045509Y-19073283D01*
X60076775Y-19064906D01*
X60181941Y-19051061D01*
X60198126Y-19050000D01*
X90931874Y-19050000D01*
X90948059Y-19051061D01*
G37*
%TD.AperFunction*%
%TD*%
M02*
