%TF.GenerationSoftware,KiCad,Pcbnew,9.0.2*%
%TF.CreationDate,2025-06-11T21:50:26+08:00*%
%TF.ProjectId,imu,696d752e-6b69-4636-9164-5f7063625858,rev?*%
%TF.SameCoordinates,Original*%
%TF.FileFunction,Legend,Top*%
%TF.FilePolarity,Positive*%
%FSLAX46Y46*%
G04 Gerber Fmt 4.6, Leading zero omitted, Abs format (unit mm)*
G04 Created by KiCad (PCBNEW 9.0.2) date 2025-06-11 21:50:26*
%MOMM*%
%LPD*%
G01*
G04 APERTURE LIST*
%ADD10C,0.100000*%
%ADD11C,0.150000*%
%ADD12C,0.120000*%
G04 APERTURE END LIST*
D10*
X89214429Y-37229371D02*
X89214429Y-36629371D01*
X89500143Y-37229371D02*
X89500143Y-36629371D01*
X89500143Y-36629371D02*
X89843000Y-37229371D01*
X89843000Y-37229371D02*
X89843000Y-36629371D01*
X90042999Y-36629371D02*
X90385857Y-36629371D01*
X90214428Y-37229371D02*
X90214428Y-36629371D01*
X90900142Y-37229371D02*
X90557285Y-37229371D01*
X90728714Y-37229371D02*
X90728714Y-36629371D01*
X90728714Y-36629371D02*
X90671571Y-36715085D01*
X90671571Y-36715085D02*
X90614428Y-36772228D01*
X90614428Y-36772228D02*
X90557285Y-36800800D01*
X86293429Y-33927371D02*
X86293429Y-33327371D01*
X86579143Y-33927371D02*
X86579143Y-33327371D01*
X86579143Y-33327371D02*
X86922000Y-33927371D01*
X86922000Y-33927371D02*
X86922000Y-33327371D01*
X87121999Y-33327371D02*
X87464857Y-33327371D01*
X87293428Y-33927371D02*
X87293428Y-33327371D01*
X87779142Y-33327371D02*
X87836285Y-33327371D01*
X87836285Y-33327371D02*
X87893428Y-33355942D01*
X87893428Y-33355942D02*
X87922000Y-33384514D01*
X87922000Y-33384514D02*
X87950571Y-33441657D01*
X87950571Y-33441657D02*
X87979142Y-33555942D01*
X87979142Y-33555942D02*
X87979142Y-33698800D01*
X87979142Y-33698800D02*
X87950571Y-33813085D01*
X87950571Y-33813085D02*
X87922000Y-33870228D01*
X87922000Y-33870228D02*
X87893428Y-33898800D01*
X87893428Y-33898800D02*
X87836285Y-33927371D01*
X87836285Y-33927371D02*
X87779142Y-33927371D01*
X87779142Y-33927371D02*
X87722000Y-33898800D01*
X87722000Y-33898800D02*
X87693428Y-33870228D01*
X87693428Y-33870228D02*
X87664857Y-33813085D01*
X87664857Y-33813085D02*
X87636285Y-33698800D01*
X87636285Y-33698800D02*
X87636285Y-33555942D01*
X87636285Y-33555942D02*
X87664857Y-33441657D01*
X87664857Y-33441657D02*
X87693428Y-33384514D01*
X87693428Y-33384514D02*
X87722000Y-33355942D01*
X87722000Y-33355942D02*
X87779142Y-33327371D01*
X86280714Y-29707800D02*
X86366429Y-29736371D01*
X86366429Y-29736371D02*
X86509286Y-29736371D01*
X86509286Y-29736371D02*
X86566429Y-29707800D01*
X86566429Y-29707800D02*
X86595000Y-29679228D01*
X86595000Y-29679228D02*
X86623571Y-29622085D01*
X86623571Y-29622085D02*
X86623571Y-29564942D01*
X86623571Y-29564942D02*
X86595000Y-29507800D01*
X86595000Y-29507800D02*
X86566429Y-29479228D01*
X86566429Y-29479228D02*
X86509286Y-29450657D01*
X86509286Y-29450657D02*
X86395000Y-29422085D01*
X86395000Y-29422085D02*
X86337857Y-29393514D01*
X86337857Y-29393514D02*
X86309286Y-29364942D01*
X86309286Y-29364942D02*
X86280714Y-29307800D01*
X86280714Y-29307800D02*
X86280714Y-29250657D01*
X86280714Y-29250657D02*
X86309286Y-29193514D01*
X86309286Y-29193514D02*
X86337857Y-29164942D01*
X86337857Y-29164942D02*
X86395000Y-29136371D01*
X86395000Y-29136371D02*
X86537857Y-29136371D01*
X86537857Y-29136371D02*
X86623571Y-29164942D01*
X87223572Y-29679228D02*
X87195000Y-29707800D01*
X87195000Y-29707800D02*
X87109286Y-29736371D01*
X87109286Y-29736371D02*
X87052143Y-29736371D01*
X87052143Y-29736371D02*
X86966429Y-29707800D01*
X86966429Y-29707800D02*
X86909286Y-29650657D01*
X86909286Y-29650657D02*
X86880715Y-29593514D01*
X86880715Y-29593514D02*
X86852143Y-29479228D01*
X86852143Y-29479228D02*
X86852143Y-29393514D01*
X86852143Y-29393514D02*
X86880715Y-29279228D01*
X86880715Y-29279228D02*
X86909286Y-29222085D01*
X86909286Y-29222085D02*
X86966429Y-29164942D01*
X86966429Y-29164942D02*
X87052143Y-29136371D01*
X87052143Y-29136371D02*
X87109286Y-29136371D01*
X87109286Y-29136371D02*
X87195000Y-29164942D01*
X87195000Y-29164942D02*
X87223572Y-29193514D01*
X87766429Y-29736371D02*
X87480715Y-29736371D01*
X87480715Y-29736371D02*
X87480715Y-29136371D01*
X86266428Y-27167800D02*
X86352143Y-27196371D01*
X86352143Y-27196371D02*
X86495000Y-27196371D01*
X86495000Y-27196371D02*
X86552143Y-27167800D01*
X86552143Y-27167800D02*
X86580714Y-27139228D01*
X86580714Y-27139228D02*
X86609285Y-27082085D01*
X86609285Y-27082085D02*
X86609285Y-27024942D01*
X86609285Y-27024942D02*
X86580714Y-26967800D01*
X86580714Y-26967800D02*
X86552143Y-26939228D01*
X86552143Y-26939228D02*
X86495000Y-26910657D01*
X86495000Y-26910657D02*
X86380714Y-26882085D01*
X86380714Y-26882085D02*
X86323571Y-26853514D01*
X86323571Y-26853514D02*
X86295000Y-26824942D01*
X86295000Y-26824942D02*
X86266428Y-26767800D01*
X86266428Y-26767800D02*
X86266428Y-26710657D01*
X86266428Y-26710657D02*
X86295000Y-26653514D01*
X86295000Y-26653514D02*
X86323571Y-26624942D01*
X86323571Y-26624942D02*
X86380714Y-26596371D01*
X86380714Y-26596371D02*
X86523571Y-26596371D01*
X86523571Y-26596371D02*
X86609285Y-26624942D01*
X86866429Y-27196371D02*
X86866429Y-26596371D01*
X86866429Y-26596371D02*
X87009286Y-26596371D01*
X87009286Y-26596371D02*
X87095000Y-26624942D01*
X87095000Y-26624942D02*
X87152143Y-26682085D01*
X87152143Y-26682085D02*
X87180714Y-26739228D01*
X87180714Y-26739228D02*
X87209286Y-26853514D01*
X87209286Y-26853514D02*
X87209286Y-26939228D01*
X87209286Y-26939228D02*
X87180714Y-27053514D01*
X87180714Y-27053514D02*
X87152143Y-27110657D01*
X87152143Y-27110657D02*
X87095000Y-27167800D01*
X87095000Y-27167800D02*
X87009286Y-27196371D01*
X87009286Y-27196371D02*
X86866429Y-27196371D01*
X87437857Y-27024942D02*
X87723572Y-27024942D01*
X87380714Y-27196371D02*
X87580714Y-26596371D01*
X87580714Y-26596371D02*
X87780714Y-27196371D01*
X86537857Y-24084942D02*
X86480715Y-24056371D01*
X86480715Y-24056371D02*
X86395000Y-24056371D01*
X86395000Y-24056371D02*
X86309286Y-24084942D01*
X86309286Y-24084942D02*
X86252143Y-24142085D01*
X86252143Y-24142085D02*
X86223572Y-24199228D01*
X86223572Y-24199228D02*
X86195000Y-24313514D01*
X86195000Y-24313514D02*
X86195000Y-24399228D01*
X86195000Y-24399228D02*
X86223572Y-24513514D01*
X86223572Y-24513514D02*
X86252143Y-24570657D01*
X86252143Y-24570657D02*
X86309286Y-24627800D01*
X86309286Y-24627800D02*
X86395000Y-24656371D01*
X86395000Y-24656371D02*
X86452143Y-24656371D01*
X86452143Y-24656371D02*
X86537857Y-24627800D01*
X86537857Y-24627800D02*
X86566429Y-24599228D01*
X86566429Y-24599228D02*
X86566429Y-24399228D01*
X86566429Y-24399228D02*
X86452143Y-24399228D01*
X86823572Y-24656371D02*
X86823572Y-24056371D01*
X86823572Y-24056371D02*
X87166429Y-24656371D01*
X87166429Y-24656371D02*
X87166429Y-24056371D01*
X87452143Y-24656371D02*
X87452143Y-24056371D01*
X87452143Y-24056371D02*
X87595000Y-24056371D01*
X87595000Y-24056371D02*
X87680714Y-24084942D01*
X87680714Y-24084942D02*
X87737857Y-24142085D01*
X87737857Y-24142085D02*
X87766428Y-24199228D01*
X87766428Y-24199228D02*
X87795000Y-24313514D01*
X87795000Y-24313514D02*
X87795000Y-24399228D01*
X87795000Y-24399228D02*
X87766428Y-24513514D01*
X87766428Y-24513514D02*
X87737857Y-24570657D01*
X87737857Y-24570657D02*
X87680714Y-24627800D01*
X87680714Y-24627800D02*
X87595000Y-24656371D01*
X87595000Y-24656371D02*
X87452143Y-24656371D01*
X86194999Y-21516371D02*
X86394999Y-22116371D01*
X86394999Y-22116371D02*
X86594999Y-21516371D01*
X87137857Y-22059228D02*
X87109285Y-22087800D01*
X87109285Y-22087800D02*
X87023571Y-22116371D01*
X87023571Y-22116371D02*
X86966428Y-22116371D01*
X86966428Y-22116371D02*
X86880714Y-22087800D01*
X86880714Y-22087800D02*
X86823571Y-22030657D01*
X86823571Y-22030657D02*
X86795000Y-21973514D01*
X86795000Y-21973514D02*
X86766428Y-21859228D01*
X86766428Y-21859228D02*
X86766428Y-21773514D01*
X86766428Y-21773514D02*
X86795000Y-21659228D01*
X86795000Y-21659228D02*
X86823571Y-21602085D01*
X86823571Y-21602085D02*
X86880714Y-21544942D01*
X86880714Y-21544942D02*
X86966428Y-21516371D01*
X86966428Y-21516371D02*
X87023571Y-21516371D01*
X87023571Y-21516371D02*
X87109285Y-21544942D01*
X87109285Y-21544942D02*
X87137857Y-21573514D01*
X87737857Y-22059228D02*
X87709285Y-22087800D01*
X87709285Y-22087800D02*
X87623571Y-22116371D01*
X87623571Y-22116371D02*
X87566428Y-22116371D01*
X87566428Y-22116371D02*
X87480714Y-22087800D01*
X87480714Y-22087800D02*
X87423571Y-22030657D01*
X87423571Y-22030657D02*
X87395000Y-21973514D01*
X87395000Y-21973514D02*
X87366428Y-21859228D01*
X87366428Y-21859228D02*
X87366428Y-21773514D01*
X87366428Y-21773514D02*
X87395000Y-21659228D01*
X87395000Y-21659228D02*
X87423571Y-21602085D01*
X87423571Y-21602085D02*
X87480714Y-21544942D01*
X87480714Y-21544942D02*
X87566428Y-21516371D01*
X87566428Y-21516371D02*
X87623571Y-21516371D01*
X87623571Y-21516371D02*
X87709285Y-21544942D01*
X87709285Y-21544942D02*
X87737857Y-21573514D01*
D11*
X67397333Y-39824819D02*
X67064000Y-39348628D01*
X66825905Y-39824819D02*
X66825905Y-38824819D01*
X66825905Y-38824819D02*
X67206857Y-38824819D01*
X67206857Y-38824819D02*
X67302095Y-38872438D01*
X67302095Y-38872438D02*
X67349714Y-38920057D01*
X67349714Y-38920057D02*
X67397333Y-39015295D01*
X67397333Y-39015295D02*
X67397333Y-39158152D01*
X67397333Y-39158152D02*
X67349714Y-39253390D01*
X67349714Y-39253390D02*
X67302095Y-39301009D01*
X67302095Y-39301009D02*
X67206857Y-39348628D01*
X67206857Y-39348628D02*
X66825905Y-39348628D01*
X68349714Y-39824819D02*
X67778286Y-39824819D01*
X68064000Y-39824819D02*
X68064000Y-38824819D01*
X68064000Y-38824819D02*
X67968762Y-38967676D01*
X67968762Y-38967676D02*
X67873524Y-39062914D01*
X67873524Y-39062914D02*
X67778286Y-39110533D01*
X85798819Y-35218666D02*
X85322628Y-35551999D01*
X85798819Y-35790094D02*
X84798819Y-35790094D01*
X84798819Y-35790094D02*
X84798819Y-35409142D01*
X84798819Y-35409142D02*
X84846438Y-35313904D01*
X84846438Y-35313904D02*
X84894057Y-35266285D01*
X84894057Y-35266285D02*
X84989295Y-35218666D01*
X84989295Y-35218666D02*
X85132152Y-35218666D01*
X85132152Y-35218666D02*
X85227390Y-35266285D01*
X85227390Y-35266285D02*
X85275009Y-35313904D01*
X85275009Y-35313904D02*
X85322628Y-35409142D01*
X85322628Y-35409142D02*
X85322628Y-35790094D01*
X84894057Y-34837713D02*
X84846438Y-34790094D01*
X84846438Y-34790094D02*
X84798819Y-34694856D01*
X84798819Y-34694856D02*
X84798819Y-34456761D01*
X84798819Y-34456761D02*
X84846438Y-34361523D01*
X84846438Y-34361523D02*
X84894057Y-34313904D01*
X84894057Y-34313904D02*
X84989295Y-34266285D01*
X84989295Y-34266285D02*
X85084533Y-34266285D01*
X85084533Y-34266285D02*
X85227390Y-34313904D01*
X85227390Y-34313904D02*
X85798819Y-34885332D01*
X85798819Y-34885332D02*
X85798819Y-34266285D01*
X67418833Y-32265580D02*
X67371214Y-32313200D01*
X67371214Y-32313200D02*
X67228357Y-32360819D01*
X67228357Y-32360819D02*
X67133119Y-32360819D01*
X67133119Y-32360819D02*
X66990262Y-32313200D01*
X66990262Y-32313200D02*
X66895024Y-32217961D01*
X66895024Y-32217961D02*
X66847405Y-32122723D01*
X66847405Y-32122723D02*
X66799786Y-31932247D01*
X66799786Y-31932247D02*
X66799786Y-31789390D01*
X66799786Y-31789390D02*
X66847405Y-31598914D01*
X66847405Y-31598914D02*
X66895024Y-31503676D01*
X66895024Y-31503676D02*
X66990262Y-31408438D01*
X66990262Y-31408438D02*
X67133119Y-31360819D01*
X67133119Y-31360819D02*
X67228357Y-31360819D01*
X67228357Y-31360819D02*
X67371214Y-31408438D01*
X67371214Y-31408438D02*
X67418833Y-31456057D01*
X68323595Y-31360819D02*
X67847405Y-31360819D01*
X67847405Y-31360819D02*
X67799786Y-31837009D01*
X67799786Y-31837009D02*
X67847405Y-31789390D01*
X67847405Y-31789390D02*
X67942643Y-31741771D01*
X67942643Y-31741771D02*
X68180738Y-31741771D01*
X68180738Y-31741771D02*
X68275976Y-31789390D01*
X68275976Y-31789390D02*
X68323595Y-31837009D01*
X68323595Y-31837009D02*
X68371214Y-31932247D01*
X68371214Y-31932247D02*
X68371214Y-32170342D01*
X68371214Y-32170342D02*
X68323595Y-32265580D01*
X68323595Y-32265580D02*
X68275976Y-32313200D01*
X68275976Y-32313200D02*
X68180738Y-32360819D01*
X68180738Y-32360819D02*
X67942643Y-32360819D01*
X67942643Y-32360819D02*
X67847405Y-32313200D01*
X67847405Y-32313200D02*
X67799786Y-32265580D01*
X73913595Y-41673819D02*
X73913595Y-42483342D01*
X73913595Y-42483342D02*
X73961214Y-42578580D01*
X73961214Y-42578580D02*
X74008833Y-42626200D01*
X74008833Y-42626200D02*
X74104071Y-42673819D01*
X74104071Y-42673819D02*
X74294547Y-42673819D01*
X74294547Y-42673819D02*
X74389785Y-42626200D01*
X74389785Y-42626200D02*
X74437404Y-42578580D01*
X74437404Y-42578580D02*
X74485023Y-42483342D01*
X74485023Y-42483342D02*
X74485023Y-41673819D01*
X74913595Y-41769057D02*
X74961214Y-41721438D01*
X74961214Y-41721438D02*
X75056452Y-41673819D01*
X75056452Y-41673819D02*
X75294547Y-41673819D01*
X75294547Y-41673819D02*
X75389785Y-41721438D01*
X75389785Y-41721438D02*
X75437404Y-41769057D01*
X75437404Y-41769057D02*
X75485023Y-41864295D01*
X75485023Y-41864295D02*
X75485023Y-41959533D01*
X75485023Y-41959533D02*
X75437404Y-42102390D01*
X75437404Y-42102390D02*
X74865976Y-42673819D01*
X74865976Y-42673819D02*
X75485023Y-42673819D01*
X70307580Y-31154666D02*
X70355200Y-31202285D01*
X70355200Y-31202285D02*
X70402819Y-31345142D01*
X70402819Y-31345142D02*
X70402819Y-31440380D01*
X70402819Y-31440380D02*
X70355200Y-31583237D01*
X70355200Y-31583237D02*
X70259961Y-31678475D01*
X70259961Y-31678475D02*
X70164723Y-31726094D01*
X70164723Y-31726094D02*
X69974247Y-31773713D01*
X69974247Y-31773713D02*
X69831390Y-31773713D01*
X69831390Y-31773713D02*
X69640914Y-31726094D01*
X69640914Y-31726094D02*
X69545676Y-31678475D01*
X69545676Y-31678475D02*
X69450438Y-31583237D01*
X69450438Y-31583237D02*
X69402819Y-31440380D01*
X69402819Y-31440380D02*
X69402819Y-31345142D01*
X69402819Y-31345142D02*
X69450438Y-31202285D01*
X69450438Y-31202285D02*
X69498057Y-31154666D01*
X70402819Y-30202285D02*
X70402819Y-30773713D01*
X70402819Y-30487999D02*
X69402819Y-30487999D01*
X69402819Y-30487999D02*
X69545676Y-30583237D01*
X69545676Y-30583237D02*
X69640914Y-30678475D01*
X69640914Y-30678475D02*
X69688533Y-30773713D01*
X89582666Y-18918819D02*
X89582666Y-19633104D01*
X89582666Y-19633104D02*
X89535047Y-19775961D01*
X89535047Y-19775961D02*
X89439809Y-19871200D01*
X89439809Y-19871200D02*
X89296952Y-19918819D01*
X89296952Y-19918819D02*
X89201714Y-19918819D01*
X90582666Y-19918819D02*
X90011238Y-19918819D01*
X90296952Y-19918819D02*
X90296952Y-18918819D01*
X90296952Y-18918819D02*
X90201714Y-19061676D01*
X90201714Y-19061676D02*
X90106476Y-19156914D01*
X90106476Y-19156914D02*
X90011238Y-19204533D01*
X80498319Y-31233904D02*
X81307842Y-31233904D01*
X81307842Y-31233904D02*
X81403080Y-31186285D01*
X81403080Y-31186285D02*
X81450700Y-31138666D01*
X81450700Y-31138666D02*
X81498319Y-31043428D01*
X81498319Y-31043428D02*
X81498319Y-30852952D01*
X81498319Y-30852952D02*
X81450700Y-30757714D01*
X81450700Y-30757714D02*
X81403080Y-30710095D01*
X81403080Y-30710095D02*
X81307842Y-30662476D01*
X81307842Y-30662476D02*
X80498319Y-30662476D01*
X81498319Y-29662476D02*
X81498319Y-30233904D01*
X81498319Y-29948190D02*
X80498319Y-29948190D01*
X80498319Y-29948190D02*
X80641176Y-30043428D01*
X80641176Y-30043428D02*
X80736414Y-30138666D01*
X80736414Y-30138666D02*
X80784033Y-30233904D01*
X85113905Y-20012819D02*
X85113905Y-19012819D01*
X85113905Y-19012819D02*
X85352000Y-19012819D01*
X85352000Y-19012819D02*
X85494857Y-19060438D01*
X85494857Y-19060438D02*
X85590095Y-19155676D01*
X85590095Y-19155676D02*
X85637714Y-19250914D01*
X85637714Y-19250914D02*
X85685333Y-19441390D01*
X85685333Y-19441390D02*
X85685333Y-19584247D01*
X85685333Y-19584247D02*
X85637714Y-19774723D01*
X85637714Y-19774723D02*
X85590095Y-19869961D01*
X85590095Y-19869961D02*
X85494857Y-19965200D01*
X85494857Y-19965200D02*
X85352000Y-20012819D01*
X85352000Y-20012819D02*
X85113905Y-20012819D01*
X86066286Y-19108057D02*
X86113905Y-19060438D01*
X86113905Y-19060438D02*
X86209143Y-19012819D01*
X86209143Y-19012819D02*
X86447238Y-19012819D01*
X86447238Y-19012819D02*
X86542476Y-19060438D01*
X86542476Y-19060438D02*
X86590095Y-19108057D01*
X86590095Y-19108057D02*
X86637714Y-19203295D01*
X86637714Y-19203295D02*
X86637714Y-19298533D01*
X86637714Y-19298533D02*
X86590095Y-19441390D01*
X86590095Y-19441390D02*
X86018667Y-20012819D01*
X86018667Y-20012819D02*
X86637714Y-20012819D01*
X73722666Y-19743009D02*
X73389333Y-19743009D01*
X73389333Y-20266819D02*
X73389333Y-19266819D01*
X73389333Y-19266819D02*
X73865523Y-19266819D01*
X74579809Y-19743009D02*
X74722666Y-19790628D01*
X74722666Y-19790628D02*
X74770285Y-19838247D01*
X74770285Y-19838247D02*
X74817904Y-19933485D01*
X74817904Y-19933485D02*
X74817904Y-20076342D01*
X74817904Y-20076342D02*
X74770285Y-20171580D01*
X74770285Y-20171580D02*
X74722666Y-20219200D01*
X74722666Y-20219200D02*
X74627428Y-20266819D01*
X74627428Y-20266819D02*
X74246476Y-20266819D01*
X74246476Y-20266819D02*
X74246476Y-19266819D01*
X74246476Y-19266819D02*
X74579809Y-19266819D01*
X74579809Y-19266819D02*
X74675047Y-19314438D01*
X74675047Y-19314438D02*
X74722666Y-19362057D01*
X74722666Y-19362057D02*
X74770285Y-19457295D01*
X74770285Y-19457295D02*
X74770285Y-19552533D01*
X74770285Y-19552533D02*
X74722666Y-19647771D01*
X74722666Y-19647771D02*
X74675047Y-19695390D01*
X74675047Y-19695390D02*
X74579809Y-19743009D01*
X74579809Y-19743009D02*
X74246476Y-19743009D01*
X75770285Y-20266819D02*
X75198857Y-20266819D01*
X75484571Y-20266819D02*
X75484571Y-19266819D01*
X75484571Y-19266819D02*
X75389333Y-19409676D01*
X75389333Y-19409676D02*
X75294095Y-19504914D01*
X75294095Y-19504914D02*
X75198857Y-19552533D01*
X64539905Y-39824819D02*
X64539905Y-38824819D01*
X64539905Y-38824819D02*
X64778000Y-38824819D01*
X64778000Y-38824819D02*
X64920857Y-38872438D01*
X64920857Y-38872438D02*
X65016095Y-38967676D01*
X65016095Y-38967676D02*
X65063714Y-39062914D01*
X65063714Y-39062914D02*
X65111333Y-39253390D01*
X65111333Y-39253390D02*
X65111333Y-39396247D01*
X65111333Y-39396247D02*
X65063714Y-39586723D01*
X65063714Y-39586723D02*
X65016095Y-39681961D01*
X65016095Y-39681961D02*
X64920857Y-39777200D01*
X64920857Y-39777200D02*
X64778000Y-39824819D01*
X64778000Y-39824819D02*
X64539905Y-39824819D01*
X65444667Y-38824819D02*
X66063714Y-38824819D01*
X66063714Y-38824819D02*
X65730381Y-39205771D01*
X65730381Y-39205771D02*
X65873238Y-39205771D01*
X65873238Y-39205771D02*
X65968476Y-39253390D01*
X65968476Y-39253390D02*
X66016095Y-39301009D01*
X66016095Y-39301009D02*
X66063714Y-39396247D01*
X66063714Y-39396247D02*
X66063714Y-39634342D01*
X66063714Y-39634342D02*
X66016095Y-39729580D01*
X66016095Y-39729580D02*
X65968476Y-39777200D01*
X65968476Y-39777200D02*
X65873238Y-39824819D01*
X65873238Y-39824819D02*
X65587524Y-39824819D01*
X65587524Y-39824819D02*
X65492286Y-39777200D01*
X65492286Y-39777200D02*
X65444667Y-39729580D01*
X75953580Y-31176166D02*
X76001200Y-31223785D01*
X76001200Y-31223785D02*
X76048819Y-31366642D01*
X76048819Y-31366642D02*
X76048819Y-31461880D01*
X76048819Y-31461880D02*
X76001200Y-31604737D01*
X76001200Y-31604737D02*
X75905961Y-31699975D01*
X75905961Y-31699975D02*
X75810723Y-31747594D01*
X75810723Y-31747594D02*
X75620247Y-31795213D01*
X75620247Y-31795213D02*
X75477390Y-31795213D01*
X75477390Y-31795213D02*
X75286914Y-31747594D01*
X75286914Y-31747594D02*
X75191676Y-31699975D01*
X75191676Y-31699975D02*
X75096438Y-31604737D01*
X75096438Y-31604737D02*
X75048819Y-31461880D01*
X75048819Y-31461880D02*
X75048819Y-31366642D01*
X75048819Y-31366642D02*
X75096438Y-31223785D01*
X75096438Y-31223785D02*
X75144057Y-31176166D01*
X75144057Y-30795213D02*
X75096438Y-30747594D01*
X75096438Y-30747594D02*
X75048819Y-30652356D01*
X75048819Y-30652356D02*
X75048819Y-30414261D01*
X75048819Y-30414261D02*
X75096438Y-30319023D01*
X75096438Y-30319023D02*
X75144057Y-30271404D01*
X75144057Y-30271404D02*
X75239295Y-30223785D01*
X75239295Y-30223785D02*
X75334533Y-30223785D01*
X75334533Y-30223785D02*
X75477390Y-30271404D01*
X75477390Y-30271404D02*
X76048819Y-30842832D01*
X76048819Y-30842832D02*
X76048819Y-30223785D01*
X74001333Y-36525580D02*
X73953714Y-36573200D01*
X73953714Y-36573200D02*
X73810857Y-36620819D01*
X73810857Y-36620819D02*
X73715619Y-36620819D01*
X73715619Y-36620819D02*
X73572762Y-36573200D01*
X73572762Y-36573200D02*
X73477524Y-36477961D01*
X73477524Y-36477961D02*
X73429905Y-36382723D01*
X73429905Y-36382723D02*
X73382286Y-36192247D01*
X73382286Y-36192247D02*
X73382286Y-36049390D01*
X73382286Y-36049390D02*
X73429905Y-35858914D01*
X73429905Y-35858914D02*
X73477524Y-35763676D01*
X73477524Y-35763676D02*
X73572762Y-35668438D01*
X73572762Y-35668438D02*
X73715619Y-35620819D01*
X73715619Y-35620819D02*
X73810857Y-35620819D01*
X73810857Y-35620819D02*
X73953714Y-35668438D01*
X73953714Y-35668438D02*
X74001333Y-35716057D01*
X74334667Y-35620819D02*
X74953714Y-35620819D01*
X74953714Y-35620819D02*
X74620381Y-36001771D01*
X74620381Y-36001771D02*
X74763238Y-36001771D01*
X74763238Y-36001771D02*
X74858476Y-36049390D01*
X74858476Y-36049390D02*
X74906095Y-36097009D01*
X74906095Y-36097009D02*
X74953714Y-36192247D01*
X74953714Y-36192247D02*
X74953714Y-36430342D01*
X74953714Y-36430342D02*
X74906095Y-36525580D01*
X74906095Y-36525580D02*
X74858476Y-36573200D01*
X74858476Y-36573200D02*
X74763238Y-36620819D01*
X74763238Y-36620819D02*
X74477524Y-36620819D01*
X74477524Y-36620819D02*
X74382286Y-36573200D01*
X74382286Y-36573200D02*
X74334667Y-36525580D01*
X77557333Y-20425580D02*
X77509714Y-20473200D01*
X77509714Y-20473200D02*
X77366857Y-20520819D01*
X77366857Y-20520819D02*
X77271619Y-20520819D01*
X77271619Y-20520819D02*
X77128762Y-20473200D01*
X77128762Y-20473200D02*
X77033524Y-20377961D01*
X77033524Y-20377961D02*
X76985905Y-20282723D01*
X76985905Y-20282723D02*
X76938286Y-20092247D01*
X76938286Y-20092247D02*
X76938286Y-19949390D01*
X76938286Y-19949390D02*
X76985905Y-19758914D01*
X76985905Y-19758914D02*
X77033524Y-19663676D01*
X77033524Y-19663676D02*
X77128762Y-19568438D01*
X77128762Y-19568438D02*
X77271619Y-19520819D01*
X77271619Y-19520819D02*
X77366857Y-19520819D01*
X77366857Y-19520819D02*
X77509714Y-19568438D01*
X77509714Y-19568438D02*
X77557333Y-19616057D01*
X78414476Y-19520819D02*
X78224000Y-19520819D01*
X78224000Y-19520819D02*
X78128762Y-19568438D01*
X78128762Y-19568438D02*
X78081143Y-19616057D01*
X78081143Y-19616057D02*
X77985905Y-19758914D01*
X77985905Y-19758914D02*
X77938286Y-19949390D01*
X77938286Y-19949390D02*
X77938286Y-20330342D01*
X77938286Y-20330342D02*
X77985905Y-20425580D01*
X77985905Y-20425580D02*
X78033524Y-20473200D01*
X78033524Y-20473200D02*
X78128762Y-20520819D01*
X78128762Y-20520819D02*
X78319238Y-20520819D01*
X78319238Y-20520819D02*
X78414476Y-20473200D01*
X78414476Y-20473200D02*
X78462095Y-20425580D01*
X78462095Y-20425580D02*
X78509714Y-20330342D01*
X78509714Y-20330342D02*
X78509714Y-20092247D01*
X78509714Y-20092247D02*
X78462095Y-19997009D01*
X78462095Y-19997009D02*
X78414476Y-19949390D01*
X78414476Y-19949390D02*
X78319238Y-19901771D01*
X78319238Y-19901771D02*
X78128762Y-19901771D01*
X78128762Y-19901771D02*
X78033524Y-19949390D01*
X78033524Y-19949390D02*
X77985905Y-19997009D01*
X77985905Y-19997009D02*
X77938286Y-20092247D01*
X80414905Y-20393819D02*
X80414905Y-19393819D01*
X80414905Y-19393819D02*
X80653000Y-19393819D01*
X80653000Y-19393819D02*
X80795857Y-19441438D01*
X80795857Y-19441438D02*
X80891095Y-19536676D01*
X80891095Y-19536676D02*
X80938714Y-19631914D01*
X80938714Y-19631914D02*
X80986333Y-19822390D01*
X80986333Y-19822390D02*
X80986333Y-19965247D01*
X80986333Y-19965247D02*
X80938714Y-20155723D01*
X80938714Y-20155723D02*
X80891095Y-20250961D01*
X80891095Y-20250961D02*
X80795857Y-20346200D01*
X80795857Y-20346200D02*
X80653000Y-20393819D01*
X80653000Y-20393819D02*
X80414905Y-20393819D01*
X81938714Y-20393819D02*
X81367286Y-20393819D01*
X81653000Y-20393819D02*
X81653000Y-19393819D01*
X81653000Y-19393819D02*
X81557762Y-19536676D01*
X81557762Y-19536676D02*
X81462524Y-19631914D01*
X81462524Y-19631914D02*
X81367286Y-19679533D01*
X63774819Y-25043904D02*
X64584342Y-25043904D01*
X64584342Y-25043904D02*
X64679580Y-24996285D01*
X64679580Y-24996285D02*
X64727200Y-24948666D01*
X64727200Y-24948666D02*
X64774819Y-24853428D01*
X64774819Y-24853428D02*
X64774819Y-24662952D01*
X64774819Y-24662952D02*
X64727200Y-24567714D01*
X64727200Y-24567714D02*
X64679580Y-24520095D01*
X64679580Y-24520095D02*
X64584342Y-24472476D01*
X64584342Y-24472476D02*
X63774819Y-24472476D01*
X63774819Y-24091523D02*
X63774819Y-23472476D01*
X63774819Y-23472476D02*
X64155771Y-23805809D01*
X64155771Y-23805809D02*
X64155771Y-23662952D01*
X64155771Y-23662952D02*
X64203390Y-23567714D01*
X64203390Y-23567714D02*
X64251009Y-23520095D01*
X64251009Y-23520095D02*
X64346247Y-23472476D01*
X64346247Y-23472476D02*
X64584342Y-23472476D01*
X64584342Y-23472476D02*
X64679580Y-23520095D01*
X64679580Y-23520095D02*
X64727200Y-23567714D01*
X64727200Y-23567714D02*
X64774819Y-23662952D01*
X64774819Y-23662952D02*
X64774819Y-23948666D01*
X64774819Y-23948666D02*
X64727200Y-24043904D01*
X64727200Y-24043904D02*
X64679580Y-24091523D01*
X85798819Y-31408666D02*
X85322628Y-31741999D01*
X85798819Y-31980094D02*
X84798819Y-31980094D01*
X84798819Y-31980094D02*
X84798819Y-31599142D01*
X84798819Y-31599142D02*
X84846438Y-31503904D01*
X84846438Y-31503904D02*
X84894057Y-31456285D01*
X84894057Y-31456285D02*
X84989295Y-31408666D01*
X84989295Y-31408666D02*
X85132152Y-31408666D01*
X85132152Y-31408666D02*
X85227390Y-31456285D01*
X85227390Y-31456285D02*
X85275009Y-31503904D01*
X85275009Y-31503904D02*
X85322628Y-31599142D01*
X85322628Y-31599142D02*
X85322628Y-31980094D01*
X84798819Y-31075332D02*
X84798819Y-30456285D01*
X84798819Y-30456285D02*
X85179771Y-30789618D01*
X85179771Y-30789618D02*
X85179771Y-30646761D01*
X85179771Y-30646761D02*
X85227390Y-30551523D01*
X85227390Y-30551523D02*
X85275009Y-30503904D01*
X85275009Y-30503904D02*
X85370247Y-30456285D01*
X85370247Y-30456285D02*
X85608342Y-30456285D01*
X85608342Y-30456285D02*
X85703580Y-30503904D01*
X85703580Y-30503904D02*
X85751200Y-30551523D01*
X85751200Y-30551523D02*
X85798819Y-30646761D01*
X85798819Y-30646761D02*
X85798819Y-30932475D01*
X85798819Y-30932475D02*
X85751200Y-31027713D01*
X85751200Y-31027713D02*
X85703580Y-31075332D01*
D12*
%TO.C,C7*%
X74661752Y-22887000D02*
X74139248Y-22887000D01*
X74661752Y-24357000D02*
X74139248Y-24357000D01*
%TO.C,R1*%
X66829000Y-41682936D02*
X66829000Y-42137064D01*
X68299000Y-41682936D02*
X68299000Y-42137064D01*
%TO.C,R2*%
X86387000Y-35586936D02*
X86387000Y-36041064D01*
X87857000Y-35586936D02*
X87857000Y-36041064D01*
%TO.C,C5*%
X67846752Y-29491000D02*
X67324248Y-29491000D01*
X67846752Y-30961000D02*
X67324248Y-30961000D01*
%TO.C,U2*%
X73575500Y-39044000D02*
X74075500Y-39044000D01*
X73575500Y-39544000D02*
X73575500Y-39044000D01*
X73575500Y-40744000D02*
X73575500Y-40744000D01*
X73575500Y-41244000D02*
X73575500Y-40744000D01*
X74075500Y-39044000D02*
X74075500Y-39044000D01*
X74075500Y-41244000D02*
X73575500Y-41244000D01*
X75275500Y-39044000D02*
X75775500Y-39044000D01*
X75275500Y-41244000D02*
X75575500Y-41244000D01*
X75775500Y-39044000D02*
X75775500Y-39544000D01*
X75775500Y-39544000D02*
X75775500Y-39544000D01*
X75775500Y-40744000D02*
X75775500Y-41044000D01*
X75775500Y-41244000D02*
X75775500Y-41244000D01*
X75775500Y-41604000D02*
X75775500Y-41244000D01*
X76135500Y-41244000D01*
X75775500Y-41604000D01*
G36*
X75775500Y-41604000D02*
G01*
X75775500Y-41244000D01*
X76135500Y-41244000D01*
X75775500Y-41604000D01*
G37*
%TO.C,C1*%
X70893000Y-31249252D02*
X70893000Y-30726748D01*
X72363000Y-31249252D02*
X72363000Y-30726748D01*
%TO.C,J1*%
X88536000Y-20464000D02*
X89916000Y-20464000D01*
X88536000Y-21844000D02*
X88536000Y-20464000D01*
X88536000Y-23114000D02*
X88536000Y-35924000D01*
X88536000Y-23114000D02*
X91296000Y-23114000D01*
X88536000Y-35924000D02*
X91296000Y-35924000D01*
X91296000Y-23114000D02*
X91296000Y-35924000D01*
%TO.C,U1*%
X77483500Y-28862000D02*
X77658500Y-28862000D01*
X77483500Y-29537000D02*
X77483500Y-28862000D01*
X77483500Y-31407000D02*
X77483500Y-32082000D01*
X77483500Y-32082000D02*
X77658500Y-32082000D01*
X80203500Y-29537000D02*
X80203500Y-29162000D01*
X80203500Y-31407000D02*
X80203500Y-32082000D01*
X80203500Y-32082000D02*
X80028500Y-32082000D01*
X80393500Y-29002000D02*
X80203500Y-28862000D01*
X80393500Y-28722000D01*
X80393500Y-29002000D01*
G36*
X80393500Y-29002000D02*
G01*
X80203500Y-28862000D01*
X80393500Y-28722000D01*
X80393500Y-29002000D01*
G37*
%TO.C,D2*%
X83702000Y-20216000D02*
X83702000Y-26026000D01*
X88002000Y-20216000D02*
X83702000Y-20216000D01*
X88002000Y-20216000D02*
X88002000Y-26026000D01*
%TO.C,FB1*%
X74966242Y-21030000D02*
X74145758Y-21030000D01*
X74966242Y-22150000D02*
X74145758Y-22150000D01*
%TO.C,D3*%
X64406000Y-40073000D02*
X64406000Y-42933000D01*
X66326000Y-40073000D02*
X64406000Y-40073000D01*
X66326000Y-42933000D02*
X66326000Y-40073000D01*
%TO.C,C2*%
X73179000Y-30748248D02*
X73179000Y-31270752D01*
X74649000Y-30748248D02*
X74649000Y-31270752D01*
%TO.C,C3*%
X73906748Y-37111000D02*
X74429252Y-37111000D01*
X73906748Y-38581000D02*
X74429252Y-38581000D01*
%TO.C,C6*%
X76989000Y-22598748D02*
X76989000Y-23121252D01*
X78459000Y-22598748D02*
X78459000Y-23121252D01*
%TO.C,D1*%
X79070000Y-20844000D02*
X79070000Y-22844000D01*
X79070000Y-20844000D02*
X82930000Y-20844000D01*
X79070000Y-22844000D02*
X82930000Y-22844000D01*
%TO.C,U3*%
X65410000Y-22372000D02*
X66670000Y-22372000D01*
X65410000Y-26132000D02*
X65410000Y-22372000D01*
X72230000Y-22372000D02*
X70970000Y-22372000D01*
X72230000Y-26132000D02*
X72230000Y-22372000D01*
X65510000Y-27412000D02*
X65180000Y-27652000D01*
X65180000Y-27172000D01*
X65510000Y-27412000D01*
G36*
X65510000Y-27412000D02*
G01*
X65180000Y-27652000D01*
X65180000Y-27172000D01*
X65510000Y-27412000D01*
G37*
%TO.C,C4*%
X74139248Y-24919000D02*
X74661752Y-24919000D01*
X74139248Y-26389000D02*
X74661752Y-26389000D01*
%TO.C,R3*%
X86387000Y-31739064D02*
X86387000Y-31284936D01*
X87857000Y-31739064D02*
X87857000Y-31284936D01*
%TD*%
M02*
