M48
; DRILL file {KiCad 9.0.2} date 2025-07-09T07:13:14+0800
; FORMAT={-:-/ absolute / metric / decimal}
; #@! TF.CreationDate,2025-07-09T07:13:14+08:00
; #@! TF.GenerationSoftware,Kicad,Pcbnew,9.0.2
; #@! TF.FileFunction,Plated,1,4,PTH
FMAT,2
METRIC
; #@! TA.AperFunction,Plated,PTH,ComponentDrill
T1C0.200
; #@! TA.AperFunction,Plated,PTH,ViaDrill
T2C0.400
; #@! TA.AperFunction,Plated,PTH,ComponentDrill
T3C0.500
; #@! TA.AperFunction,Plated,PTH,ComponentDrill
T4C0.600
; #@! TA.AperFunction,Plated,PTH,ViaDrill
T5C0.750
; #@! TA.AperFunction,Plated,PTH,ComponentDrill
T6C0.750
; #@! TA.AperFunction,Plated,PTH,ComponentDrill
T7C1.000
; #@! TA.AperFunction,Plated,PTH,ComponentDrill
T8C3.200
%
G90
G05
T1
X121.3Y-66.85
X121.3Y-67.95
X121.85Y-66.3
X121.85Y-67.4
X121.85Y-68.5
X122.4Y-66.85
X122.4Y-67.95
X122.95Y-66.3
X122.95Y-67.4
X122.95Y-68.5
X123.5Y-66.85
X123.5Y-67.95
T2
X116.75Y-84.5
X117.5Y-78.5
X117.8Y-54.6
X118.4Y-52.6
X118.6Y-85.05
X119.025Y-54.5
X121.8Y-57.0
X122.5Y-58.0
X123.2Y-81.8
X123.75Y-83.0
X123.75Y-91.0
X124.0Y-55.4
X124.025Y-56.5
X124.5Y-47.0
X124.75Y-58.25
X125.0Y-43.25
X126.043Y-82.275
X126.4Y-55.6
X126.75Y-83.0
X126.8Y-91.2
X127.2Y-84.0
X127.25Y-85.0
X127.5Y-56.0
X128.25Y-51.5
X128.25Y-58.25
X128.5Y-78.5
X128.5Y-94.5
X128.75Y-81.25
X129.4Y-68.8
X129.5Y-58.25
X129.725Y-55.225
X130.0Y-43.25
X130.0Y-61.75
X130.0Y-90.0
X130.5Y-77.5
X130.6Y-56.0
X131.25Y-84.5
X131.4Y-91.2
X131.475Y-80.65
X131.5Y-46.75
X131.75Y-55.25
X131.8Y-85.6
X132.2Y-81.4
X132.75Y-82.5
X132.8Y-54.6
X132.8Y-69.0
X134.0Y-88.25
X134.0Y-94.5
X134.75Y-84.5
X135.0Y-43.25
X135.0Y-57.75
X135.6Y-52.6
X135.8Y-85.4
X136.0Y-81.0
X136.25Y-87.25
X137.0Y-52.75
X137.0Y-89.2
X137.25Y-84.5
X137.4Y-87.2
X138.25Y-61.75
X138.25Y-66.0
X138.25Y-89.25
X138.5Y-48.0
X138.5Y-70.75
X138.6Y-75.8
X139.75Y-81.75
X140.0Y-43.25
X140.0Y-94.5
X140.5Y-68.25
X141.0Y-57.75
X141.5Y-72.25
X141.75Y-78.5
X142.0Y-53.75
X142.5Y-81.5
X142.75Y-64.0
X142.75Y-90.0
X143.75Y-85.25
X144.0Y-82.5
X144.5Y-92.0
X145.0Y-43.25
X145.25Y-75.75
X145.5Y-64.0
X145.5Y-72.65
X146.5Y-94.5
X146.6Y-86.4
X146.6Y-88.4
X147.5Y-48.5
X147.5Y-81.25
X148.0Y-78.0
X148.25Y-62.0
X148.5Y-83.0
X148.75Y-74.5
X149.0Y-50.25
X149.25Y-85.75
X149.676Y-67.6
X150.0Y-43.25
X150.4Y-70.8
X150.5Y-90.75
X151.5Y-65.5
X151.75Y-83.0
X152.25Y-70.75
X152.25Y-86.25
X152.5Y-48.5
X153.0Y-55.0
X153.0Y-80.5
X153.0Y-94.5
X153.127Y-82.278
X154.5Y-74.25
X154.8Y-88.0
X156.0Y-91.0
X157.5Y-48.5
X157.75Y-71.5
X159.0Y-52.6
X159.25Y-91.75
X159.6Y-87.6
X159.75Y-47.75
X160.5Y-96.25
X161.0Y-42.32
X161.0Y-47.826
X161.5Y-57.75
X162.0Y-47.826
X162.75Y-48.75
X163.25Y-76.75
X164.4Y-88.0
X164.6Y-86.2
X164.8Y-47.4
X165.75Y-91.75
X166.4Y-79.2
X167.0Y-86.25
T3
X117.35Y-43.25
X117.35Y-93.5
X118.053Y-41.553
X118.053Y-44.947
X118.053Y-91.803
X118.053Y-95.197
X119.75Y-40.85
X119.75Y-45.65
X119.75Y-91.1
X119.75Y-95.9
X121.447Y-41.553
X121.447Y-44.947
X121.447Y-91.803
X121.447Y-95.197
X122.15Y-43.25
X122.15Y-93.5
X169.1Y-43.25
X169.1Y-93.5
X169.803Y-41.553
X169.803Y-44.947
X169.803Y-91.803
X169.803Y-95.197
X171.5Y-40.85
X171.5Y-45.65
X171.5Y-91.1
X171.5Y-95.9
X173.197Y-41.553
X173.197Y-44.947
X173.197Y-91.803
X173.197Y-95.197
X173.9Y-43.25
X173.9Y-93.5
T5
X144.4Y-61.0
T6
X134.5Y-46.0
X134.75Y-91.25
X136.5Y-46.0
X136.75Y-91.25
X138.5Y-46.0
X138.75Y-91.25
X140.5Y-46.0
X140.75Y-91.25
T7
X117.17Y-49.25
X117.46Y-86.5
X119.71Y-49.25
X120.0Y-86.5
X122.25Y-49.25
X122.54Y-86.5
X124.79Y-49.25
X125.08Y-86.5
X127.33Y-49.25
X127.62Y-86.5
X129.87Y-49.25
X130.16Y-86.5
T8
X119.75Y-43.25
X119.75Y-93.5
X171.5Y-43.25
X171.5Y-93.5
T4
G00X156.68Y-41.645
M15
G01X156.68Y-40.845
M16
G05
G00X156.68Y-45.975
M15
G01X156.68Y-44.875
M16
G05
G00X165.32Y-41.645
M15
G01X165.32Y-40.845
M16
G05
G00X165.32Y-45.975
M15
G01X165.32Y-44.875
M16
G05
M30
