%TF.GenerationSoftware,KiCad,Pcbnew,9.0.2*%
%TF.CreationDate,2025-07-09T07:13:15+08:00*%
%TF.ProjectId,imu,696d752e-6b69-4636-9164-5f7063625858,rev?*%
%TF.SameCoordinates,Original*%
%TF.FileFunction,Copper,L1,Top*%
%TF.FilePolarity,Positive*%
%FSLAX46Y46*%
G04 Gerber Fmt 4.6, Leading zero omitted, Abs format (unit mm)*
G04 Created by KiCad (PCBNEW 9.0.2) date 2025-07-09 07:13:15*
%MOMM*%
%LPD*%
G01*
G04 APERTURE LIST*
G04 Aperture macros list*
%AMRoundRect*
0 Rectangle with rounded corners*
0 $1 Rounding radius*
0 $2 $3 $4 $5 $6 $7 $8 $9 X,Y pos of 4 corners*
0 Add a 4 corners polygon primitive as box body*
4,1,4,$2,$3,$4,$5,$6,$7,$8,$9,$2,$3,0*
0 Add four circle primitives for the rounded corners*
1,1,$1+$1,$2,$3*
1,1,$1+$1,$4,$5*
1,1,$1+$1,$6,$7*
1,1,$1+$1,$8,$9*
0 Add four rect primitives between the rounded corners*
20,1,$1+$1,$2,$3,$4,$5,0*
20,1,$1+$1,$4,$5,$6,$7,0*
20,1,$1+$1,$6,$7,$8,$9,0*
20,1,$1+$1,$8,$9,$2,$3,0*%
G04 Aperture macros list end*
%TA.AperFunction,HeatsinkPad*%
%ADD10C,0.600000*%
%TD*%
%TA.AperFunction,HeatsinkPad*%
%ADD11R,2.900000X2.900000*%
%TD*%
%TA.AperFunction,SMDPad,CuDef*%
%ADD12R,0.900000X1.500000*%
%TD*%
%TA.AperFunction,SMDPad,CuDef*%
%ADD13RoundRect,0.150000X0.150000X0.425000X-0.150000X0.425000X-0.150000X-0.425000X0.150000X-0.425000X0*%
%TD*%
%TA.AperFunction,SMDPad,CuDef*%
%ADD14RoundRect,0.075000X0.075000X0.500000X-0.075000X0.500000X-0.075000X-0.500000X0.075000X-0.500000X0*%
%TD*%
%TA.AperFunction,HeatsinkPad*%
%ADD15O,1.000000X2.100000*%
%TD*%
%TA.AperFunction,HeatsinkPad*%
%ADD16O,1.000000X1.800000*%
%TD*%
%TA.AperFunction,SMDPad,CuDef*%
%ADD17RoundRect,0.250000X0.350000X0.450000X-0.350000X0.450000X-0.350000X-0.450000X0.350000X-0.450000X0*%
%TD*%
%TA.AperFunction,SMDPad,CuDef*%
%ADD18RoundRect,0.250000X0.475000X-0.337500X0.475000X0.337500X-0.475000X0.337500X-0.475000X-0.337500X0*%
%TD*%
%TA.AperFunction,SMDPad,CuDef*%
%ADD19RoundRect,0.250000X-0.350000X-0.450000X0.350000X-0.450000X0.350000X0.450000X-0.350000X0.450000X0*%
%TD*%
%TA.AperFunction,SMDPad,CuDef*%
%ADD20RoundRect,0.250000X0.325000X0.450000X-0.325000X0.450000X-0.325000X-0.450000X0.325000X-0.450000X0*%
%TD*%
%TA.AperFunction,ComponentPad*%
%ADD21RoundRect,0.250000X0.350000X0.625000X-0.350000X0.625000X-0.350000X-0.625000X0.350000X-0.625000X0*%
%TD*%
%TA.AperFunction,ComponentPad*%
%ADD22O,1.200000X1.750000*%
%TD*%
%TA.AperFunction,SMDPad,CuDef*%
%ADD23RoundRect,0.250000X-0.475000X0.337500X-0.475000X-0.337500X0.475000X-0.337500X0.475000X0.337500X0*%
%TD*%
%TA.AperFunction,SMDPad,CuDef*%
%ADD24RoundRect,0.250000X0.337500X0.475000X-0.337500X0.475000X-0.337500X-0.475000X0.337500X-0.475000X0*%
%TD*%
%TA.AperFunction,SMDPad,CuDef*%
%ADD25RoundRect,0.375000X0.375000X-0.625000X0.375000X0.625000X-0.375000X0.625000X-0.375000X-0.625000X0*%
%TD*%
%TA.AperFunction,SMDPad,CuDef*%
%ADD26RoundRect,0.500000X1.400000X-0.500000X1.400000X0.500000X-1.400000X0.500000X-1.400000X-0.500000X0*%
%TD*%
%TA.AperFunction,SMDPad,CuDef*%
%ADD27RoundRect,0.087500X0.087500X-0.225000X0.087500X0.225000X-0.087500X0.225000X-0.087500X-0.225000X0*%
%TD*%
%TA.AperFunction,SMDPad,CuDef*%
%ADD28RoundRect,0.087500X0.225000X-0.087500X0.225000X0.087500X-0.225000X0.087500X-0.225000X-0.087500X0*%
%TD*%
%TA.AperFunction,SMDPad,CuDef*%
%ADD29R,1.000000X1.250000*%
%TD*%
%TA.AperFunction,ComponentPad*%
%ADD30C,0.800000*%
%TD*%
%TA.AperFunction,ComponentPad*%
%ADD31C,6.400000*%
%TD*%
%TA.AperFunction,ComponentPad*%
%ADD32R,1.700000X1.700000*%
%TD*%
%TA.AperFunction,ComponentPad*%
%ADD33C,1.700000*%
%TD*%
%TA.AperFunction,SMDPad,CuDef*%
%ADD34R,0.375000X0.350000*%
%TD*%
%TA.AperFunction,SMDPad,CuDef*%
%ADD35R,0.350000X0.375000*%
%TD*%
%TA.AperFunction,SMDPad,CuDef*%
%ADD36RoundRect,0.250000X-0.300000X-0.300000X0.300000X-0.300000X0.300000X0.300000X-0.300000X0.300000X0*%
%TD*%
%TA.AperFunction,SMDPad,CuDef*%
%ADD37RoundRect,0.250000X0.250000X0.250000X-0.250000X0.250000X-0.250000X-0.250000X0.250000X-0.250000X0*%
%TD*%
%TA.AperFunction,SMDPad,CuDef*%
%ADD38RoundRect,0.250000X-0.900000X1.000000X-0.900000X-1.000000X0.900000X-1.000000X0.900000X1.000000X0*%
%TD*%
%TA.AperFunction,ComponentPad*%
%ADD39RoundRect,0.250000X-0.350000X-0.625000X0.350000X-0.625000X0.350000X0.625000X-0.350000X0.625000X0*%
%TD*%
%TA.AperFunction,SMDPad,CuDef*%
%ADD40RoundRect,0.250000X0.275000X0.350000X-0.275000X0.350000X-0.275000X-0.350000X0.275000X-0.350000X0*%
%TD*%
%TA.AperFunction,SMDPad,CuDef*%
%ADD41RoundRect,0.250000X-0.337500X-0.475000X0.337500X-0.475000X0.337500X0.475000X-0.337500X0.475000X0*%
%TD*%
%TA.AperFunction,ViaPad*%
%ADD42C,0.800000*%
%TD*%
%TA.AperFunction,ViaPad*%
%ADD43C,1.500000*%
%TD*%
%TA.AperFunction,Conductor*%
%ADD44C,0.250000*%
%TD*%
%TA.AperFunction,Conductor*%
%ADD45C,0.400000*%
%TD*%
%TA.AperFunction,Conductor*%
%ADD46C,0.350000*%
%TD*%
%TA.AperFunction,Conductor*%
%ADD47C,0.284000*%
%TD*%
%TA.AperFunction,Conductor*%
%ADD48C,0.200000*%
%TD*%
G04 APERTURE END LIST*
D10*
%TO.P,U4,19,GND*%
%TO.N,GND*%
X122950000Y-66300000D03*
X121850000Y-66300000D03*
X123500000Y-66850000D03*
X122400000Y-66850000D03*
X121300000Y-66850000D03*
X122950000Y-67400000D03*
D11*
X122400000Y-67400000D03*
D10*
X121850000Y-67400000D03*
X123500000Y-67950000D03*
X122400000Y-67950000D03*
X121300000Y-67950000D03*
X122950000Y-68500000D03*
X121850000Y-68500000D03*
D12*
%TO.P,U4,18,IO0*%
%TO.N,BOOT*%
X116200000Y-59610000D03*
%TO.P,U4,17,IO1*%
%TO.N,IO1*%
X117700000Y-59610000D03*
%TO.P,U4,16,IO2*%
%TO.N,IO2*%
X119200000Y-59610000D03*
%TO.P,U4,15,IO3*%
%TO.N,IO3*%
X120700000Y-59610000D03*
%TO.P,U4,14,IO19*%
%TO.N,USB_D-*%
X122200000Y-59610000D03*
%TO.P,U4,13,IO18*%
%TO.N,USB_D+*%
X123700000Y-59610000D03*
%TO.P,U4,12,IO21/TXD*%
%TO.N,TX0*%
X125200000Y-59610000D03*
%TO.P,U4,11,IO20/RXD*%
%TO.N,RX0*%
X126700000Y-59610000D03*
%TO.P,U4,10,IO10*%
%TO.N,IO8*%
X128200000Y-59610000D03*
%TO.P,U4,9,GND*%
%TO.N,GND*%
X128200000Y-77110000D03*
%TO.P,U4,8,IO9*%
%TO.N,SCL*%
X126700000Y-77110000D03*
%TO.P,U4,7,IO8*%
%TO.N,SDA*%
X125200000Y-77110000D03*
%TO.P,U4,6,IO7*%
%TO.N,INT_IMU*%
X123700000Y-77110000D03*
%TO.P,U4,5,IO6*%
%TO.N,INT_MAG*%
X122200000Y-77110000D03*
%TO.P,U4,4,IO5*%
%TO.N,IO5*%
X120700000Y-77110000D03*
%TO.P,U4,3,IO4*%
%TO.N,IO4*%
X119200000Y-77110000D03*
%TO.P,U4,2,EN*%
%TO.N,EN*%
X117700000Y-77110000D03*
%TO.P,U4,1,3V3*%
%TO.N,+3V3*%
X116200000Y-77110000D03*
%TD*%
D13*
%TO.P,J1,A1,GND*%
%TO.N,GND*%
X164200000Y-46000000D03*
%TO.P,J1,A4,VBUS*%
%TO.N,+5V*%
X163400000Y-46000000D03*
D14*
%TO.P,J1,A5,CC1*%
%TO.N,Net-(J1-CC1)*%
X162250000Y-46000000D03*
%TO.P,J1,A6,D+*%
%TO.N,USB_D+*%
X161250000Y-46000000D03*
%TO.P,J1,A7,D-*%
%TO.N,USB_D-*%
X160750000Y-46000000D03*
%TO.P,J1,A8,SBU1*%
%TO.N,unconnected-(J1-SBU1-PadA8)*%
X159750000Y-46000000D03*
D13*
%TO.P,J1,A9,VBUS*%
%TO.N,+5V*%
X158600000Y-46000000D03*
%TO.P,J1,A12,GND*%
%TO.N,GND*%
X157800000Y-46000000D03*
%TO.P,J1,B1,GND*%
X157800000Y-46000000D03*
%TO.P,J1,B4,VBUS*%
%TO.N,+5V*%
X158600000Y-46000000D03*
D14*
%TO.P,J1,B5,CC2*%
%TO.N,Net-(J1-CC2)*%
X159250000Y-46000000D03*
%TO.P,J1,B6,D+*%
%TO.N,USB_D+*%
X160250000Y-46000000D03*
%TO.P,J1,B7,D-*%
%TO.N,USB_D-*%
X161750000Y-46000000D03*
%TO.P,J1,B8,SBU2*%
%TO.N,unconnected-(J1-SBU2-PadB8)*%
X162750000Y-46000000D03*
D13*
%TO.P,J1,B9,VBUS*%
%TO.N,+5V*%
X163400000Y-46000000D03*
%TO.P,J1,B12,GND*%
%TO.N,GND*%
X164200000Y-46000000D03*
D15*
%TO.P,J1,S1,SHIELD*%
X165320000Y-45425000D03*
D16*
X165320000Y-41245000D03*
D15*
X156680000Y-45425000D03*
D16*
X156680000Y-41245000D03*
%TD*%
D17*
%TO.P,R8,1*%
%TO.N,+3V3*%
X128750000Y-80000000D03*
%TO.P,R8,2*%
%TO.N,SCL*%
X126750000Y-80000000D03*
%TD*%
D18*
%TO.P,C4,1*%
%TO.N,+5V*%
X149000000Y-53600000D03*
%TO.P,C4,2*%
%TO.N,GND*%
X149000000Y-51525000D03*
%TD*%
D19*
%TO.P,R5,1*%
%TO.N,GND*%
X152650000Y-43800000D03*
%TO.P,R5,2*%
%TO.N,Net-(J1-CC1)*%
X154650000Y-43800000D03*
%TD*%
D20*
%TO.P,D3,1,K*%
%TO.N,GND*%
X150225000Y-46000000D03*
%TO.P,D3,2,A*%
%TO.N,Net-(D3-A)*%
X148175000Y-46000000D03*
%TD*%
D21*
%TO.P,J3,1,Pin_1*%
%TO.N,+3V3*%
X140500000Y-46000000D03*
D22*
%TO.P,J3,2,Pin_2*%
%TO.N,GND*%
X138500000Y-46000000D03*
%TO.P,J3,3,Pin_3*%
%TO.N,TX0*%
X136500000Y-46000000D03*
%TO.P,J3,4,Pin_4*%
%TO.N,RX0*%
X134500000Y-46000000D03*
%TD*%
D23*
%TO.P,C11,1*%
%TO.N,GND*%
X131000000Y-68837500D03*
%TO.P,C11,2*%
%TO.N,Net-(C11-Pad2)*%
X131000000Y-70912500D03*
%TD*%
D24*
%TO.P,C14,1*%
%TO.N,GND*%
X152250000Y-69250000D03*
%TO.P,C14,2*%
%TO.N,+3V3*%
X150175000Y-69250000D03*
%TD*%
D19*
%TO.P,R6,1*%
%TO.N,+3V3*%
X130500000Y-79125000D03*
%TO.P,R6,2*%
%TO.N,EN*%
X132500000Y-79125000D03*
%TD*%
D25*
%TO.P,U3,1,GND*%
%TO.N,GND*%
X142000000Y-55600000D03*
%TO.P,U3,2,VO*%
%TO.N,+3V3*%
X144300000Y-55600000D03*
D26*
X144300000Y-49300000D03*
D25*
%TO.P,U3,3,VI*%
%TO.N,+5V*%
X146600000Y-55600000D03*
%TD*%
D27*
%TO.P,U1,1,SDO/SA0*%
%TO.N,GND*%
X145000000Y-69575000D03*
%TO.P,U1,2,SDX*%
X145500000Y-69575000D03*
%TO.P,U1,3,SCX*%
X146000000Y-69575000D03*
%TO.P,U1,4,INT1*%
%TO.N,INT_IMU*%
X146500000Y-69575000D03*
D28*
%TO.P,U1,5,VDDIO*%
%TO.N,+3V3*%
X146662500Y-68912500D03*
%TO.P,U1,6,GND*%
%TO.N,GND*%
X146662500Y-68412500D03*
%TO.P,U1,7,GND*%
X146662500Y-67912500D03*
D27*
%TO.P,U1,8,VDD*%
%TO.N,+3V3*%
X146500000Y-67250000D03*
%TO.P,U1,9,INT2*%
%TO.N,GND*%
X146000000Y-67250000D03*
%TO.P,U1,10,NC*%
%TO.N,unconnected-(U1-NC-Pad10)*%
X145500000Y-67250000D03*
%TO.P,U1,11,NC*%
%TO.N,unconnected-(U1-NC-Pad11)*%
X145000000Y-67250000D03*
D28*
%TO.P,U1,12,CS*%
%TO.N,+3V3*%
X144837500Y-67912500D03*
%TO.P,U1,13,SCL*%
%TO.N,SCL*%
X144837500Y-68412500D03*
%TO.P,U1,14,SDA*%
%TO.N,SDA*%
X144837500Y-68912500D03*
%TD*%
D19*
%TO.P,R1,1*%
%TO.N,+3V3*%
X144205000Y-45995000D03*
%TO.P,R1,2*%
%TO.N,Net-(D3-A)*%
X146205000Y-45995000D03*
%TD*%
D29*
%TO.P,SW1,1,1*%
%TO.N,Net-(C11-Pad2)*%
X134250000Y-70750000D03*
%TO.P,SW1,2,2*%
%TO.N,EN*%
X134250000Y-78500000D03*
%TD*%
D18*
%TO.P,C12,1*%
%TO.N,GND*%
X167000000Y-84800000D03*
%TO.P,C12,2*%
%TO.N,+3V3*%
X167000000Y-82725000D03*
%TD*%
D24*
%TO.P,C7,1*%
%TO.N,GND*%
X153037500Y-53500000D03*
%TO.P,C7,2*%
%TO.N,+5V*%
X150962500Y-53500000D03*
%TD*%
D30*
%TO.P,REF\u002A\u002A,1*%
%TO.N,N/C*%
X117350000Y-43250000D03*
X118052944Y-41552944D03*
X118052944Y-44947056D03*
X119750000Y-40850000D03*
D31*
X119750000Y-43250000D03*
D30*
X119750000Y-45650000D03*
X121447056Y-41552944D03*
X121447056Y-44947056D03*
X122150000Y-43250000D03*
%TD*%
D29*
%TO.P,SW2,1,1*%
%TO.N,GND*%
X134250000Y-68875000D03*
%TO.P,SW2,2,2*%
%TO.N,Net-(R7-Pad2)*%
X134250000Y-61125000D03*
%TD*%
D30*
%TO.P,REF\u002A\u002A,1*%
%TO.N,N/C*%
X117350000Y-93500000D03*
X118052944Y-91802944D03*
X118052944Y-95197056D03*
X119750000Y-91100000D03*
D31*
X119750000Y-93500000D03*
D30*
X119750000Y-95900000D03*
X121447056Y-91802944D03*
X121447056Y-95197056D03*
X122150000Y-93500000D03*
%TD*%
D19*
%TO.P,R7,1*%
%TO.N,BOOT*%
X132000000Y-59000000D03*
%TO.P,R7,2*%
%TO.N,Net-(R7-Pad2)*%
X134000000Y-59000000D03*
%TD*%
D18*
%TO.P,C13,1*%
%TO.N,GND*%
X165000000Y-84800000D03*
%TO.P,C13,2*%
%TO.N,+3V3*%
X165000000Y-82725000D03*
%TD*%
%TO.P,C10,1*%
%TO.N,EN*%
X137400000Y-79037500D03*
%TO.P,C10,2*%
%TO.N,GND*%
X137400000Y-76962500D03*
%TD*%
D32*
%TO.P,J5,1,Pin_1*%
%TO.N,+3V3*%
X117460000Y-86500000D03*
D33*
%TO.P,J5,2,Pin_2*%
%TO.N,IO4*%
X120000000Y-86500000D03*
%TO.P,J5,3,Pin_3*%
%TO.N,IO5*%
X122540000Y-86500000D03*
%TO.P,J5,4,Pin_4*%
%TO.N,INT_MAG*%
X125080000Y-86500000D03*
%TO.P,J5,5,Pin_5*%
%TO.N,INT_IMU*%
X127620000Y-86500000D03*
%TO.P,J5,6,Pin_6*%
%TO.N,GND*%
X130160000Y-86500000D03*
%TD*%
D34*
%TO.P,U2,1,SCL/SPC*%
%TO.N,SCL*%
X158075000Y-81400000D03*
%TO.P,U2,2,NC*%
%TO.N,unconnected-(U2-NC-Pad2)*%
X158075000Y-81900000D03*
%TO.P,U2,3,~{CS}*%
%TO.N,+3V3*%
X158075000Y-82400000D03*
%TO.P,U2,4,SDA/SDI/SDO*%
%TO.N,SDA*%
X158075000Y-82900000D03*
D35*
%TO.P,U2,5,C1*%
%TO.N,Net-(U2-C1)*%
X158587500Y-82912500D03*
%TO.P,U2,6,GND*%
%TO.N,GND*%
X159087500Y-82912500D03*
D34*
%TO.P,U2,7,DRDY*%
%TO.N,INT_MAG*%
X159600000Y-82900000D03*
%TO.P,U2,8,GND*%
%TO.N,GND*%
X159600000Y-82400000D03*
%TO.P,U2,9,Vdd*%
%TO.N,+3V3*%
X159600000Y-81900000D03*
%TO.P,U2,10,Vdd_IO*%
X159600000Y-81400000D03*
D35*
%TO.P,U2,11,NC*%
%TO.N,unconnected-(U2-NC-Pad11)*%
X159087500Y-81387500D03*
%TO.P,U2,12,NC*%
%TO.N,unconnected-(U2-NC-Pad12)*%
X158587500Y-81387500D03*
%TD*%
D36*
%TO.P,D1,1,K*%
%TO.N,Net-(D1-K)*%
X155100000Y-51000000D03*
%TO.P,D1,2,A*%
%TO.N,+5V*%
X157900000Y-51000000D03*
%TD*%
D19*
%TO.P,R4,1*%
%TO.N,GND*%
X152650000Y-46000000D03*
%TO.P,R4,2*%
%TO.N,Net-(J1-CC2)*%
X154650000Y-46000000D03*
%TD*%
D24*
%TO.P,C9,1*%
%TO.N,GND*%
X118537500Y-83000000D03*
%TO.P,C9,2*%
%TO.N,+3V3*%
X116462500Y-83000000D03*
%TD*%
D37*
%TO.P,D5,1,A1*%
%TO.N,GND*%
X145250000Y-88250000D03*
%TO.P,D5,2,A2*%
%TO.N,SDA*%
X142750000Y-88250000D03*
%TD*%
D24*
%TO.P,C5,1*%
%TO.N,+3V3*%
X144237500Y-58000000D03*
%TO.P,C5,2*%
%TO.N,GND*%
X142162500Y-58000000D03*
%TD*%
D38*
%TO.P,D2,1,A1*%
%TO.N,+5V*%
X161500000Y-51350000D03*
%TO.P,D2,2,A2*%
%TO.N,GND*%
X161500000Y-55650000D03*
%TD*%
D39*
%TO.P,J2,1,Pin_1*%
%TO.N,+3V3*%
X134750000Y-91250000D03*
D22*
%TO.P,J2,2,Pin_2*%
%TO.N,GND*%
X136750000Y-91250000D03*
%TO.P,J2,3,Pin_3*%
%TO.N,SCL*%
X138750000Y-91250000D03*
%TO.P,J2,4,Pin_4*%
%TO.N,SDA*%
X140750000Y-91250000D03*
%TD*%
D40*
%TO.P,FB1,1*%
%TO.N,Net-(D1-K)*%
X153150000Y-51000000D03*
%TO.P,FB1,2*%
%TO.N,+5V*%
X150850000Y-51000000D03*
%TD*%
D41*
%TO.P,C6,1*%
%TO.N,Net-(D1-K)*%
X155462500Y-53500000D03*
%TO.P,C6,2*%
%TO.N,GND*%
X157537500Y-53500000D03*
%TD*%
D24*
%TO.P,C8,1*%
%TO.N,GND*%
X118537500Y-81010000D03*
%TO.P,C8,2*%
%TO.N,+3V3*%
X116462500Y-81010000D03*
%TD*%
D19*
%TO.P,R9,1*%
%TO.N,+3V3*%
X123000000Y-80000000D03*
%TO.P,R9,2*%
%TO.N,SDA*%
X125000000Y-80000000D03*
%TD*%
D41*
%TO.P,C1,1*%
%TO.N,+3V3*%
X164925000Y-80800000D03*
%TO.P,C1,2*%
%TO.N,GND*%
X167000000Y-80800000D03*
%TD*%
D32*
%TO.P,J4,1,Pin_1*%
%TO.N,+3V3*%
X117170000Y-49250000D03*
D33*
%TO.P,J4,2,Pin_2*%
%TO.N,IO1*%
X119710000Y-49250000D03*
%TO.P,J4,3,Pin_3*%
%TO.N,IO2*%
X122250000Y-49250000D03*
%TO.P,J4,4,Pin_4*%
%TO.N,IO3*%
X124790000Y-49250000D03*
%TO.P,J4,5,Pin_5*%
%TO.N,IO8*%
X127330000Y-49250000D03*
%TO.P,J4,6,Pin_6*%
%TO.N,GND*%
X129870000Y-49250000D03*
%TD*%
D41*
%TO.P,C3,1*%
%TO.N,GND*%
X156125000Y-88000000D03*
%TO.P,C3,2*%
%TO.N,Net-(U2-C1)*%
X158200000Y-88000000D03*
%TD*%
D24*
%TO.P,C2,1*%
%TO.N,GND*%
X149037500Y-63500000D03*
%TO.P,C2,2*%
%TO.N,+3V3*%
X146962500Y-63500000D03*
%TD*%
D19*
%TO.P,R2,1*%
%TO.N,INT_MAG*%
X161000000Y-88000000D03*
%TO.P,R2,2*%
%TO.N,GND*%
X163000000Y-88000000D03*
%TD*%
%TO.P,R3,1*%
%TO.N,INT_IMU*%
X146750000Y-73250000D03*
%TO.P,R3,2*%
%TO.N,GND*%
X148750000Y-73250000D03*
%TD*%
D30*
%TO.P,REF\u002A\u002A,1*%
%TO.N,N/C*%
X169100000Y-43250000D03*
X169802944Y-41552944D03*
X169802944Y-44947056D03*
X171500000Y-40850000D03*
D31*
X171500000Y-43250000D03*
D30*
X171500000Y-45650000D03*
X173197056Y-41552944D03*
X173197056Y-44947056D03*
X173900000Y-43250000D03*
%TD*%
D37*
%TO.P,D4,1,A1*%
%TO.N,GND*%
X145250000Y-86250000D03*
%TO.P,D4,2,A2*%
%TO.N,SCL*%
X142750000Y-86250000D03*
%TD*%
D30*
%TO.P,REF\u002A\u002A,1*%
%TO.N,N/C*%
X169100000Y-93500000D03*
X169802944Y-91802944D03*
X169802944Y-95197056D03*
X171500000Y-91100000D03*
D31*
X171500000Y-93500000D03*
D30*
X171500000Y-95900000D03*
X173197056Y-91802944D03*
X173197056Y-95197056D03*
X173900000Y-93500000D03*
%TD*%
D42*
%TO.N,GND*%
X129400000Y-68800000D03*
X164800000Y-47400000D03*
X138600000Y-75800000D03*
X121800000Y-57000000D03*
X159250000Y-91750000D03*
X150000000Y-43250000D03*
X160500000Y-96250000D03*
X163250000Y-76750000D03*
X149250000Y-85750000D03*
X157500000Y-48500000D03*
X140500000Y-68250000D03*
X128500000Y-94500000D03*
X124000000Y-55400000D03*
X146500000Y-94500000D03*
X138250000Y-66000000D03*
X144500000Y-92000000D03*
X130600000Y-56000000D03*
X148250000Y-62000000D03*
X129500000Y-58250000D03*
X135000000Y-43250000D03*
X152250000Y-86250000D03*
X147500000Y-81250000D03*
X138250000Y-61750000D03*
X147500000Y-48500000D03*
X125000000Y-43250000D03*
X123750000Y-91000000D03*
X128250000Y-51500000D03*
X149000000Y-50250000D03*
X127250000Y-85000000D03*
X140000000Y-94500000D03*
X132800000Y-69000000D03*
X153000000Y-94500000D03*
X146600000Y-86400000D03*
X117800000Y-54600000D03*
X130000000Y-61750000D03*
X152500000Y-48500000D03*
X141750000Y-78500000D03*
X118600000Y-85050000D03*
X154800000Y-88000000D03*
X142750000Y-64000000D03*
X145500000Y-72650000D03*
X159600000Y-87600000D03*
X151500000Y-65500000D03*
X142750000Y-90000000D03*
X144000000Y-82500000D03*
X132750000Y-82500000D03*
X159750000Y-47750000D03*
X152250000Y-70750000D03*
X164600000Y-86200000D03*
X146600000Y-88400000D03*
X136000000Y-81000000D03*
X148750000Y-74500000D03*
X138500000Y-70750000D03*
X126400000Y-55600000D03*
X148000000Y-78000000D03*
X127200000Y-84000000D03*
X140000000Y-43250000D03*
X165750000Y-91750000D03*
X137400000Y-87200000D03*
X128500000Y-78500000D03*
X132800000Y-54600000D03*
X145250000Y-75750000D03*
X131500000Y-46750000D03*
X150500000Y-90750000D03*
X141000000Y-57750000D03*
X153000000Y-80500000D03*
X142000000Y-53750000D03*
X137000000Y-89200000D03*
X162750000Y-48750000D03*
X157750000Y-71500000D03*
X164400000Y-88000000D03*
X166400000Y-79200000D03*
X137000000Y-52750000D03*
X154500000Y-74250000D03*
X153000000Y-55000000D03*
X161500000Y-57750000D03*
X149676000Y-67600000D03*
X134000000Y-88250000D03*
X123200000Y-81800000D03*
X124500000Y-47000000D03*
X156000000Y-91000000D03*
X141500000Y-72250000D03*
X131800000Y-85600000D03*
X148500000Y-83000000D03*
X130000000Y-90000000D03*
X135800000Y-85400000D03*
X145000000Y-43250000D03*
X135000000Y-57750000D03*
X134000000Y-94500000D03*
X138500000Y-48000000D03*
X159000000Y-52600000D03*
X143750000Y-85250000D03*
X151750000Y-83000000D03*
X167000000Y-86250000D03*
X145500000Y-64000000D03*
X137250000Y-84500000D03*
X130000000Y-43250000D03*
X139750000Y-81750000D03*
X132200000Y-81400000D03*
%TO.N,+3V3*%
X135600000Y-52600000D03*
X118400000Y-52600000D03*
X153126990Y-82278317D03*
X126042891Y-82275000D03*
X128750000Y-81250000D03*
X116750000Y-84500000D03*
D43*
X144400000Y-61000000D03*
D42*
X150400000Y-70800000D03*
X130500000Y-77500000D03*
X126800000Y-91200000D03*
X131400000Y-91200000D03*
%TO.N,SCL*%
X136250000Y-87250000D03*
X138250000Y-89250000D03*
%TO.N,EN*%
X131475000Y-80650000D03*
X126750000Y-83000000D03*
X123750000Y-83000000D03*
X117500000Y-78500000D03*
%TO.N,USB_D-*%
X122500000Y-58000000D03*
X162000000Y-47825837D03*
%TO.N,USB_D+*%
X124025000Y-56500000D03*
X161000000Y-47825837D03*
%TO.N,TX0*%
X127500000Y-56000000D03*
X129725000Y-55224999D03*
%TO.N,INT_IMU*%
X142500000Y-81500000D03*
%TO.N,BOOT*%
X131750000Y-55250000D03*
X119025000Y-54500000D03*
%TO.N,IO8*%
X128250000Y-58250000D03*
X124750000Y-58250000D03*
%TO.N,SDA*%
X134750000Y-84500000D03*
X131250000Y-84500000D03*
%TO.N,GND*%
X161000000Y-42320000D03*
%TD*%
D44*
%TO.N,EN*%
X135875000Y-79037500D02*
X137400000Y-79037500D01*
X135337500Y-78500000D02*
X135875000Y-79037500D01*
%TO.N,GND*%
X164200000Y-46800000D02*
X164800000Y-47400000D01*
X164200000Y-46000000D02*
X164200000Y-46800000D01*
%TO.N,+3V3*%
X144300000Y-55600000D02*
X144300000Y-49300000D01*
%TO.N,GND*%
X157255000Y-46000000D02*
X156680000Y-45425000D01*
X157800000Y-46000000D02*
X157255000Y-46000000D01*
X164745000Y-46000000D02*
X165320000Y-45425000D01*
X164200000Y-46000000D02*
X164745000Y-46000000D01*
X131000000Y-68837500D02*
X132637500Y-68837500D01*
X149037500Y-63500000D02*
X149037500Y-62787500D01*
X167000000Y-79800000D02*
X166400000Y-79200000D01*
X149378486Y-68412500D02*
X149676000Y-68114986D01*
X163000000Y-88000000D02*
X164400000Y-88000000D01*
X146450000Y-88250000D02*
X146600000Y-88400000D01*
X146450000Y-86250000D02*
X146600000Y-86400000D01*
X167000000Y-80800000D02*
X167000000Y-79800000D01*
X145250000Y-88250000D02*
X146450000Y-88250000D01*
X146662500Y-68412500D02*
X149378486Y-68412500D01*
X159600000Y-82400000D02*
X160800000Y-82400000D01*
X145250000Y-86250000D02*
X146450000Y-86250000D01*
X146000000Y-72150000D02*
X145500000Y-72650000D01*
X149588500Y-67912500D02*
X146662500Y-67912500D01*
X160800000Y-82400000D02*
X164600000Y-86200000D01*
X128200000Y-78200000D02*
X128500000Y-78500000D01*
X146000000Y-69575000D02*
X146000000Y-72150000D01*
X149676000Y-68114986D02*
X149676000Y-67600000D01*
X156125000Y-88000000D02*
X154800000Y-88000000D01*
X134250000Y-68875000D02*
X132925000Y-68875000D01*
X132637500Y-68837500D02*
X132800000Y-69000000D01*
X118537500Y-83000000D02*
X118537500Y-84987500D01*
X149037500Y-62787500D02*
X148250000Y-62000000D01*
X149676000Y-67600000D02*
X149676000Y-67825000D01*
X159087500Y-87087500D02*
X159600000Y-87600000D01*
X128200000Y-77110000D02*
X128200000Y-78200000D01*
X132925000Y-68875000D02*
X132800000Y-69000000D01*
X145500000Y-72650000D02*
X145500000Y-69575000D01*
X145000000Y-69575000D02*
X145000000Y-72150000D01*
X145000000Y-72150000D02*
X145500000Y-72650000D01*
X146000000Y-67250000D02*
X146000000Y-64500000D01*
X149676000Y-67825000D02*
X149588500Y-67912500D01*
X159087500Y-82912500D02*
X159087500Y-87087500D01*
X146000000Y-64500000D02*
X145500000Y-64000000D01*
X118537500Y-84987500D02*
X118600000Y-85050000D01*
%TO.N,+3V3*%
X168200000Y-81525000D02*
X167000000Y-82725000D01*
D45*
X138900000Y-49300000D02*
X144300000Y-49300000D01*
D44*
X150402000Y-62802000D02*
X148600000Y-61000000D01*
X150402000Y-69023000D02*
X150402000Y-62802000D01*
D45*
X144500000Y-46290000D02*
X144205000Y-45995000D01*
X130500000Y-77500000D02*
X130500000Y-79125000D01*
D44*
X129625000Y-79125000D02*
X128750000Y-80000000D01*
D45*
X116750000Y-83287500D02*
X116462500Y-83000000D01*
X144500000Y-49350000D02*
X141150000Y-46000000D01*
D44*
X146962500Y-64000000D02*
X146500000Y-64462500D01*
X134750000Y-91250000D02*
X131450000Y-91250000D01*
X142800000Y-61000000D02*
X141000000Y-62800000D01*
X126800000Y-91200000D02*
X125000000Y-89400000D01*
X148600000Y-61000000D02*
X164925000Y-77325000D01*
D45*
X128750000Y-81250000D02*
X128750000Y-80000000D01*
X144400000Y-55750000D02*
X144500000Y-55650000D01*
D44*
X164175000Y-81900000D02*
X165000000Y-82725000D01*
D45*
X144400000Y-61000000D02*
X144400000Y-55750000D01*
D44*
X159600000Y-81400000D02*
X164325000Y-81400000D01*
X164925000Y-77325000D02*
X164925000Y-80800000D01*
X150400000Y-70800000D02*
X150400000Y-69475000D01*
X158075000Y-82400000D02*
X153248673Y-82400000D01*
D45*
X117460000Y-86500000D02*
X117460000Y-85210000D01*
D44*
X168200000Y-79800000D02*
X168200000Y-81525000D01*
X146362500Y-61000000D02*
X146962500Y-61600000D01*
X164325000Y-81400000D02*
X164925000Y-80800000D01*
X144400000Y-61000000D02*
X146362500Y-61000000D01*
X144400000Y-61000000D02*
X142800000Y-61000000D01*
D45*
X117170000Y-51370000D02*
X118400000Y-52600000D01*
D44*
X142162500Y-67912500D02*
X144837500Y-67912500D01*
X159600000Y-81900000D02*
X164175000Y-81900000D01*
X120360000Y-89400000D02*
X117460000Y-86500000D01*
D45*
X117170000Y-49250000D02*
X117170000Y-51370000D01*
X125275000Y-82275000D02*
X123000000Y-80000000D01*
D44*
X130500000Y-79125000D02*
X129625000Y-79125000D01*
D45*
X116200000Y-77110000D02*
X116200000Y-82737500D01*
D44*
X141000000Y-66750000D02*
X142162500Y-67912500D01*
X146500000Y-64462500D02*
X146500000Y-67250000D01*
X146962500Y-61600000D02*
X146962500Y-64000000D01*
D45*
X135600000Y-52600000D02*
X138900000Y-49300000D01*
D44*
X153248673Y-82400000D02*
X153126990Y-82278317D01*
X165725000Y-77325000D02*
X168200000Y-79800000D01*
X144400000Y-61000000D02*
X148600000Y-61000000D01*
X164925000Y-77325000D02*
X165725000Y-77325000D01*
D45*
X117460000Y-85210000D02*
X116750000Y-84500000D01*
D44*
X141000000Y-62800000D02*
X141000000Y-66750000D01*
X165000000Y-82725000D02*
X167000000Y-82725000D01*
D45*
X144500000Y-49350000D02*
X144500000Y-46290000D01*
X116750000Y-84500000D02*
X116750000Y-83287500D01*
D44*
X125000000Y-89400000D02*
X120360000Y-89400000D01*
X149837500Y-68912500D02*
X150175000Y-69250000D01*
D45*
X116200000Y-82737500D02*
X116462500Y-83000000D01*
D44*
X150175000Y-69250000D02*
X150402000Y-69023000D01*
X131450000Y-91250000D02*
X131400000Y-91200000D01*
X146662500Y-68912500D02*
X149837500Y-68912500D01*
D45*
X126042891Y-82275000D02*
X125275000Y-82275000D01*
X141150000Y-46000000D02*
X140500000Y-46000000D01*
D44*
X150400000Y-69475000D02*
X150175000Y-69250000D01*
%TO.N,Net-(U2-C1)*%
X158587500Y-82912500D02*
X158587500Y-87850000D01*
X158587500Y-87850000D02*
X158437500Y-88000000D01*
D45*
%TO.N,Net-(D1-K)*%
X155462500Y-53500000D02*
X155462500Y-51362500D01*
X155462500Y-51362500D02*
X155100000Y-51000000D01*
X153150000Y-51000000D02*
X155100000Y-51000000D01*
D44*
%TO.N,Net-(D3-A)*%
X148175000Y-46000000D02*
X146210000Y-46000000D01*
X146210000Y-46000000D02*
X146205000Y-45995000D01*
%TO.N,SCL*%
X132750000Y-83750000D02*
X132500000Y-83750000D01*
X126700000Y-77110000D02*
X126700000Y-79950000D01*
X126700000Y-79950000D02*
X126750000Y-80000000D01*
X136250000Y-87250000D02*
X135250000Y-86250000D01*
X138250000Y-89250000D02*
X138750000Y-89750000D01*
X132500000Y-83750000D02*
X130000000Y-83750000D01*
X143928486Y-86250000D02*
X142750000Y-86250000D01*
X158075000Y-81400000D02*
X148778486Y-81400000D01*
X135250000Y-86250000D02*
X132750000Y-83750000D01*
X148778486Y-81400000D02*
X143928486Y-86250000D01*
X138750000Y-89750000D02*
X138750000Y-91250000D01*
X130000000Y-83750000D02*
X126750000Y-80500000D01*
X126750000Y-80500000D02*
X126750000Y-80000000D01*
X142750000Y-86250000D02*
X135250000Y-86250000D01*
D46*
%TO.N,+5V*%
X163400000Y-46000000D02*
X163500000Y-46100000D01*
D44*
X163150000Y-51350000D02*
X161500000Y-51350000D01*
D46*
X158600000Y-48400000D02*
X160700000Y-50500000D01*
X158600000Y-46000000D02*
X158600000Y-48400000D01*
D45*
X148950000Y-53500000D02*
X146800000Y-55650000D01*
D46*
X161500000Y-51350000D02*
X158250000Y-51350000D01*
D44*
X164000000Y-47500000D02*
X164000000Y-50500000D01*
D46*
X162300000Y-50500000D02*
X161500000Y-50500000D01*
X160700000Y-50500000D02*
X161500000Y-50500000D01*
D45*
X150962500Y-53500000D02*
X148950000Y-53500000D01*
D44*
X163400000Y-46900000D02*
X164000000Y-47500000D01*
X163400000Y-46000000D02*
X163400000Y-46900000D01*
D45*
X150850000Y-51000000D02*
X150850000Y-53387500D01*
D46*
X161500000Y-50500000D02*
X161500000Y-51350000D01*
D45*
X152350000Y-49500000D02*
X156400000Y-49500000D01*
D46*
X158250000Y-51350000D02*
X157900000Y-51000000D01*
D45*
X156400000Y-49500000D02*
X157900000Y-51000000D01*
X150850000Y-51000000D02*
X152350000Y-49500000D01*
D44*
X164000000Y-50500000D02*
X163150000Y-51350000D01*
D45*
X150850000Y-53387500D02*
X150962500Y-53500000D01*
D44*
%TO.N,EN*%
X117500000Y-78500000D02*
X117500000Y-77310000D01*
X126750000Y-83000000D02*
X123750000Y-83000000D01*
X117500000Y-77310000D02*
X117700000Y-77110000D01*
X134250000Y-78500000D02*
X135337500Y-78500000D01*
X131475000Y-80650000D02*
X133625000Y-78500000D01*
X133625000Y-78500000D02*
X134250000Y-78500000D01*
%TO.N,Net-(C11-Pad2)*%
X134250000Y-70750000D02*
X131162500Y-70750000D01*
X131162500Y-70750000D02*
X131000000Y-70912500D01*
D47*
%TO.N,USB_D-*%
X161500220Y-45082000D02*
X161750000Y-45331780D01*
X122200000Y-59610000D02*
X122200000Y-58300000D01*
X160750000Y-46000000D02*
X160750000Y-45331780D01*
X161750000Y-46000000D02*
X161750000Y-46862501D01*
X161750000Y-45331780D02*
X161750000Y-46000000D01*
X160999780Y-45082000D02*
X161500220Y-45082000D01*
X160750000Y-45331780D02*
X160999780Y-45082000D01*
X161750000Y-46862501D02*
X161742000Y-46870501D01*
X122200000Y-58300000D02*
X122500000Y-58000000D01*
X161742000Y-47567837D02*
X162000000Y-47825837D01*
X161742000Y-46870501D02*
X161742000Y-47567837D01*
D44*
%TO.N,Net-(J1-CC2)*%
X158225364Y-44049000D02*
X156337860Y-44049000D01*
X159250000Y-45073636D02*
X158225364Y-44049000D01*
X154650000Y-45736860D02*
X154650000Y-46000000D01*
X159250000Y-46000000D02*
X159250000Y-45073636D01*
X156337860Y-44049000D02*
X154650000Y-45736860D01*
%TO.N,Net-(J1-CC1)*%
X162250000Y-46000000D02*
X162250000Y-45169928D01*
X162250000Y-45169928D02*
X160678072Y-43598000D01*
X160678072Y-43598000D02*
X154852000Y-43598000D01*
X154852000Y-43598000D02*
X154650000Y-43800000D01*
D48*
%TO.N,USB_D+*%
X160250000Y-46000000D02*
X160299000Y-46000000D01*
D47*
X161258000Y-46870501D02*
X161258000Y-47567837D01*
X124025000Y-56500000D02*
X123700000Y-56825000D01*
X160250000Y-46668220D02*
X160499780Y-46918000D01*
X161250000Y-46000000D02*
X161250000Y-46862501D01*
X161250000Y-46862501D02*
X161258000Y-46870501D01*
X160499780Y-46918000D02*
X161000220Y-46918000D01*
X123700000Y-56825000D02*
X123700000Y-59610000D01*
X161250000Y-46668220D02*
X161250000Y-46000000D01*
X160250000Y-46000000D02*
X160250000Y-46668220D01*
X161000220Y-46918000D02*
X161250000Y-46668220D01*
X161258000Y-47567837D02*
X161000000Y-47825837D01*
D44*
%TO.N,RX0*%
X129000000Y-56310000D02*
X129000000Y-53500000D01*
X126700000Y-58610000D02*
X129000000Y-56310000D01*
X129000000Y-53500000D02*
X134500000Y-48000000D01*
X134500000Y-48000000D02*
X134500000Y-46000000D01*
X126700000Y-59610000D02*
X126700000Y-58610000D01*
%TO.N,TX0*%
X129725000Y-55224999D02*
X130275001Y-55224999D01*
X125200000Y-59610000D02*
X125500000Y-59310000D01*
X130275001Y-55224999D02*
X136500000Y-49000000D01*
X125500000Y-59310000D02*
X125500000Y-58000000D01*
X125500000Y-58000000D02*
X127500000Y-56000000D01*
X136500000Y-49000000D02*
X136500000Y-46000000D01*
%TO.N,IO2*%
X122250000Y-54300000D02*
X122250000Y-49250000D01*
X119200000Y-59610000D02*
X119200000Y-57350000D01*
X119200000Y-57350000D02*
X122250000Y-54300000D01*
%TO.N,IO1*%
X119750000Y-49290000D02*
X119710000Y-49250000D01*
X119750000Y-56000000D02*
X119750000Y-49290000D01*
X117700000Y-58050000D02*
X119750000Y-56000000D01*
X117700000Y-59610000D02*
X117700000Y-58050000D01*
%TO.N,IO3*%
X120700000Y-59610000D02*
X120700000Y-56900000D01*
X123750000Y-50290000D02*
X124790000Y-49250000D01*
X123750000Y-53850000D02*
X123750000Y-50290000D01*
X120700000Y-56900000D02*
X123750000Y-53850000D01*
%TO.N,IO4*%
X120000000Y-78500000D02*
X120000000Y-86500000D01*
X119200000Y-77110000D02*
X119200000Y-77700000D01*
X119200000Y-77700000D02*
X120000000Y-78500000D01*
%TO.N,IO5*%
X120700000Y-84660000D02*
X122540000Y-86500000D01*
X120700000Y-77110000D02*
X120700000Y-84660000D01*
%TO.N,INT_MAG*%
X122200000Y-77110000D02*
X122200000Y-78050000D01*
X161000000Y-88000000D02*
X161000000Y-91600000D01*
X159600000Y-86400000D02*
X161000000Y-87800000D01*
X133400000Y-95400000D02*
X123700000Y-85700000D01*
X121500000Y-83500000D02*
X123700000Y-85700000D01*
X157200000Y-95400000D02*
X133400000Y-95400000D01*
X124500000Y-86500000D02*
X125080000Y-86500000D01*
X159600000Y-82900000D02*
X159600000Y-86400000D01*
X122200000Y-78050000D02*
X121500000Y-78750000D01*
X161000000Y-91600000D02*
X157200000Y-95400000D01*
X121500000Y-78750000D02*
X121500000Y-83500000D01*
X123700000Y-85700000D02*
X124500000Y-86500000D01*
X161000000Y-87800000D02*
X161000000Y-88000000D01*
%TO.N,INT_IMU*%
X126256000Y-86012884D02*
X126256884Y-86012884D01*
X124699000Y-85324000D02*
X125567116Y-85324000D01*
X125567116Y-85324000D02*
X126256000Y-86012884D01*
X122000000Y-82625000D02*
X124699000Y-85324000D01*
X123700000Y-77110000D02*
X123700000Y-77550000D01*
X126256884Y-86012884D02*
X126744000Y-86500000D01*
X126744000Y-86500000D02*
X127620000Y-86500000D01*
X122000000Y-79250000D02*
X122000000Y-82625000D01*
X142500000Y-81500000D02*
X146500000Y-77500000D01*
X146500000Y-77500000D02*
X146500000Y-69575000D01*
X123700000Y-77550000D02*
X122000000Y-79250000D01*
%TO.N,BOOT*%
X116200000Y-57575000D02*
X116200000Y-59610000D01*
X131750000Y-55250000D02*
X132250000Y-55750000D01*
X132250000Y-58750000D02*
X132000000Y-59000000D01*
X119025000Y-54500000D02*
X119025000Y-54750000D01*
X132250000Y-55750000D02*
X132250000Y-58750000D01*
X119025000Y-54750000D02*
X116200000Y-57575000D01*
%TO.N,Net-(R7-Pad2)*%
X134250000Y-59250000D02*
X134000000Y-59000000D01*
X134250000Y-61125000D02*
X134250000Y-59250000D01*
%TO.N,IO8*%
X124750000Y-58250000D02*
X124750000Y-51830000D01*
X128200000Y-58300000D02*
X128250000Y-58250000D01*
X128200000Y-59610000D02*
X128200000Y-58300000D01*
X124750000Y-51830000D02*
X127330000Y-49250000D01*
%TO.N,SDA*%
X140750000Y-79500000D02*
X135750000Y-84500000D01*
X139000000Y-88250000D02*
X140750000Y-90000000D01*
X144200000Y-87400000D02*
X143350000Y-88250000D01*
X135750000Y-88250000D02*
X139000000Y-88250000D01*
X153500000Y-82900000D02*
X148976000Y-87424000D01*
X144224000Y-87424000D02*
X144200000Y-87400000D01*
X148976000Y-87424000D02*
X144224000Y-87424000D01*
X135750000Y-84500000D02*
X134750000Y-84500000D01*
X129500000Y-84500000D02*
X131250000Y-84500000D01*
X125200000Y-79800000D02*
X125000000Y-80000000D01*
X131250000Y-84500000D02*
X132000000Y-84500000D01*
X125000000Y-80000000D02*
X129500000Y-84500000D01*
X142250000Y-69000000D02*
X140750000Y-70500000D01*
X140750000Y-70500000D02*
X140750000Y-79500000D01*
X142337500Y-68912500D02*
X142250000Y-69000000D01*
X144837500Y-68912500D02*
X142337500Y-68912500D01*
X132000000Y-84500000D02*
X135750000Y-88250000D01*
X143350000Y-88250000D02*
X142750000Y-88250000D01*
X125200000Y-77110000D02*
X125200000Y-79800000D01*
X140750000Y-90000000D02*
X140750000Y-91250000D01*
X158075000Y-82900000D02*
X153500000Y-82900000D01*
X139000000Y-88250000D02*
X142750000Y-88250000D01*
%TO.N,SCL*%
X139750000Y-79250000D02*
X135250000Y-83750000D01*
X135250000Y-83750000D02*
X132500000Y-83750000D01*
X139750000Y-70750000D02*
X139750000Y-79250000D01*
X144837500Y-68412500D02*
X142087500Y-68412500D01*
X142087500Y-68412500D02*
X139750000Y-70750000D01*
%TD*%
%TA.AperFunction,Conductor*%
%TO.N,GND*%
G36*
X156102265Y-39819685D02*
G01*
X156148020Y-39872489D01*
X156157964Y-39941647D01*
X156128939Y-40005203D01*
X156104117Y-40027102D01*
X156042537Y-40068248D01*
X156042533Y-40068251D01*
X155903251Y-40207533D01*
X155903248Y-40207537D01*
X155793814Y-40371315D01*
X155793807Y-40371328D01*
X155718430Y-40553306D01*
X155718427Y-40553318D01*
X155680000Y-40746504D01*
X155680000Y-40995000D01*
X156380000Y-40995000D01*
X156380000Y-41495000D01*
X155680000Y-41495000D01*
X155680000Y-41743495D01*
X155718427Y-41936681D01*
X155718430Y-41936693D01*
X155793807Y-42118671D01*
X155793814Y-42118684D01*
X155903248Y-42282462D01*
X155903251Y-42282466D01*
X156042533Y-42421748D01*
X156042537Y-42421751D01*
X156206315Y-42531185D01*
X156206328Y-42531192D01*
X156388308Y-42606569D01*
X156430000Y-42614862D01*
X156430000Y-41811988D01*
X156439940Y-41829205D01*
X156495795Y-41885060D01*
X156564204Y-41924556D01*
X156640504Y-41945000D01*
X156719496Y-41945000D01*
X156795796Y-41924556D01*
X156864205Y-41885060D01*
X156920060Y-41829205D01*
X156930000Y-41811988D01*
X156930000Y-42614862D01*
X156971690Y-42606569D01*
X156971692Y-42606569D01*
X157153671Y-42531192D01*
X157153684Y-42531185D01*
X157317462Y-42421751D01*
X157317466Y-42421748D01*
X157456748Y-42282466D01*
X157456751Y-42282462D01*
X157566185Y-42118684D01*
X157566192Y-42118671D01*
X157641569Y-41936693D01*
X157641572Y-41936681D01*
X157679999Y-41743495D01*
X157680000Y-41743492D01*
X157680000Y-41495000D01*
X156980000Y-41495000D01*
X156980000Y-40995000D01*
X157680000Y-40995000D01*
X157680000Y-40746508D01*
X157679999Y-40746504D01*
X157641572Y-40553318D01*
X157641569Y-40553306D01*
X157566192Y-40371328D01*
X157566185Y-40371315D01*
X157456751Y-40207537D01*
X157456748Y-40207533D01*
X157317466Y-40068251D01*
X157317462Y-40068248D01*
X157255883Y-40027102D01*
X157211078Y-39973490D01*
X157202371Y-39904165D01*
X157232526Y-39841137D01*
X157291969Y-39804418D01*
X157324774Y-39800000D01*
X164675226Y-39800000D01*
X164742265Y-39819685D01*
X164788020Y-39872489D01*
X164797964Y-39941647D01*
X164768939Y-40005203D01*
X164744117Y-40027102D01*
X164682537Y-40068248D01*
X164682533Y-40068251D01*
X164543251Y-40207533D01*
X164543248Y-40207537D01*
X164433814Y-40371315D01*
X164433807Y-40371328D01*
X164358430Y-40553306D01*
X164358427Y-40553318D01*
X164320000Y-40746504D01*
X164320000Y-40995000D01*
X165020000Y-40995000D01*
X165020000Y-41495000D01*
X164320000Y-41495000D01*
X164320000Y-41743495D01*
X164358427Y-41936681D01*
X164358430Y-41936693D01*
X164433807Y-42118671D01*
X164433814Y-42118684D01*
X164543248Y-42282462D01*
X164543251Y-42282466D01*
X164682533Y-42421748D01*
X164682537Y-42421751D01*
X164846315Y-42531185D01*
X164846328Y-42531192D01*
X165028308Y-42606569D01*
X165070000Y-42614862D01*
X165070000Y-41811988D01*
X165079940Y-41829205D01*
X165135795Y-41885060D01*
X165204204Y-41924556D01*
X165280504Y-41945000D01*
X165359496Y-41945000D01*
X165435796Y-41924556D01*
X165504205Y-41885060D01*
X165560060Y-41829205D01*
X165570000Y-41811988D01*
X165570000Y-42614862D01*
X165611690Y-42606569D01*
X165611692Y-42606569D01*
X165793671Y-42531192D01*
X165793684Y-42531185D01*
X165957462Y-42421751D01*
X165957466Y-42421748D01*
X166096748Y-42282466D01*
X166096751Y-42282462D01*
X166206185Y-42118684D01*
X166206192Y-42118671D01*
X166281569Y-41936693D01*
X166281572Y-41936681D01*
X166319999Y-41743495D01*
X166320000Y-41743492D01*
X166320000Y-41495000D01*
X165620000Y-41495000D01*
X165620000Y-40995000D01*
X166320000Y-40995000D01*
X166320000Y-40746508D01*
X166319999Y-40746504D01*
X166281572Y-40553318D01*
X166281569Y-40553306D01*
X166206192Y-40371328D01*
X166206185Y-40371315D01*
X166096751Y-40207537D01*
X166096748Y-40207533D01*
X165957466Y-40068251D01*
X165957462Y-40068248D01*
X165895883Y-40027102D01*
X165851078Y-39973490D01*
X165842371Y-39904165D01*
X165872526Y-39841137D01*
X165931969Y-39804418D01*
X165964774Y-39800000D01*
X169609384Y-39800000D01*
X169676423Y-39819685D01*
X169722178Y-39872489D01*
X169732122Y-39941647D01*
X169703097Y-40005203D01*
X169667837Y-40033358D01*
X169595279Y-40072140D01*
X169595261Y-40072151D01*
X169292964Y-40274140D01*
X169292950Y-40274150D01*
X169011893Y-40504807D01*
X168754807Y-40761893D01*
X168524150Y-41042950D01*
X168524140Y-41042964D01*
X168322151Y-41345261D01*
X168322140Y-41345279D01*
X168150756Y-41665916D01*
X168150754Y-41665921D01*
X168011614Y-42001834D01*
X167906067Y-42349776D01*
X167906064Y-42349787D01*
X167835137Y-42706369D01*
X167810865Y-42952815D01*
X167803198Y-43030666D01*
X167799500Y-43068209D01*
X167799500Y-43431790D01*
X167835137Y-43793630D01*
X167906064Y-44150212D01*
X167906067Y-44150223D01*
X168011614Y-44498165D01*
X168091152Y-44690186D01*
X168140780Y-44810000D01*
X168150754Y-44834078D01*
X168150756Y-44834083D01*
X168322140Y-45154720D01*
X168322151Y-45154738D01*
X168524140Y-45457035D01*
X168524150Y-45457049D01*
X168754807Y-45738106D01*
X169011893Y-45995192D01*
X169011898Y-45995196D01*
X169011899Y-45995197D01*
X169292956Y-46225854D01*
X169595268Y-46427853D01*
X169595277Y-46427858D01*
X169595279Y-46427859D01*
X169915916Y-46599243D01*
X169915918Y-46599243D01*
X169915924Y-46599247D01*
X170251836Y-46738386D01*
X170599767Y-46843930D01*
X170599773Y-46843931D01*
X170599776Y-46843932D01*
X170599787Y-46843935D01*
X170946073Y-46912814D01*
X170956369Y-46914862D01*
X171318206Y-46950500D01*
X171318209Y-46950500D01*
X171681791Y-46950500D01*
X171681794Y-46950500D01*
X172043631Y-46914862D01*
X172113045Y-46901054D01*
X172400212Y-46843935D01*
X172400223Y-46843932D01*
X172400223Y-46843931D01*
X172400233Y-46843930D01*
X172748164Y-46738386D01*
X173084076Y-46599247D01*
X173404732Y-46427853D01*
X173707044Y-46225854D01*
X173988101Y-45995197D01*
X174245197Y-45738101D01*
X174475854Y-45457044D01*
X174677853Y-45154732D01*
X174716642Y-45082163D01*
X174765604Y-45032319D01*
X174833742Y-45016858D01*
X174899421Y-45040690D01*
X174941790Y-45096247D01*
X174950000Y-45140616D01*
X174950000Y-91609383D01*
X174930315Y-91676422D01*
X174877511Y-91722177D01*
X174808353Y-91732121D01*
X174744797Y-91703096D01*
X174716642Y-91667837D01*
X174693745Y-91625000D01*
X174677853Y-91595268D01*
X174475854Y-91292956D01*
X174245197Y-91011899D01*
X174245196Y-91011898D01*
X174245192Y-91011893D01*
X173988106Y-90754807D01*
X173707049Y-90524150D01*
X173707048Y-90524149D01*
X173707044Y-90524146D01*
X173404732Y-90322147D01*
X173404727Y-90322144D01*
X173404720Y-90322140D01*
X173084083Y-90150756D01*
X173084078Y-90150754D01*
X173047459Y-90135586D01*
X172966286Y-90101963D01*
X172748165Y-90011614D01*
X172400223Y-89906067D01*
X172400212Y-89906064D01*
X172043630Y-89835137D01*
X171771111Y-89808296D01*
X171681794Y-89799500D01*
X171318206Y-89799500D01*
X171235679Y-89807628D01*
X170956369Y-89835137D01*
X170599787Y-89906064D01*
X170599776Y-89906067D01*
X170251834Y-90011614D01*
X169915921Y-90150754D01*
X169915916Y-90150756D01*
X169595279Y-90322140D01*
X169595261Y-90322151D01*
X169292964Y-90524140D01*
X169292950Y-90524150D01*
X169011893Y-90754807D01*
X168754807Y-91011893D01*
X168524150Y-91292950D01*
X168524140Y-91292964D01*
X168322151Y-91595261D01*
X168322140Y-91595279D01*
X168150756Y-91915916D01*
X168150754Y-91915921D01*
X168011614Y-92251834D01*
X167906067Y-92599776D01*
X167906064Y-92599787D01*
X167835137Y-92956369D01*
X167799500Y-93318209D01*
X167799500Y-93681790D01*
X167835137Y-94043630D01*
X167906064Y-94400212D01*
X167906067Y-94400223D01*
X168011614Y-94748165D01*
X168150754Y-95084078D01*
X168150756Y-95084083D01*
X168322140Y-95404720D01*
X168322151Y-95404738D01*
X168524140Y-95707035D01*
X168524150Y-95707049D01*
X168754807Y-95988106D01*
X169011893Y-96245192D01*
X169011898Y-96245196D01*
X169011899Y-96245197D01*
X169292956Y-96475854D01*
X169398730Y-96546530D01*
X169438192Y-96572898D01*
X169482997Y-96626510D01*
X169491704Y-96695835D01*
X169461550Y-96758863D01*
X169402107Y-96795582D01*
X169369301Y-96800000D01*
X121880699Y-96800000D01*
X121813660Y-96780315D01*
X121767905Y-96727511D01*
X121757961Y-96658353D01*
X121786986Y-96594797D01*
X121811808Y-96572898D01*
X121828191Y-96561951D01*
X121957044Y-96475854D01*
X122238101Y-96245197D01*
X122495197Y-95988101D01*
X122725854Y-95707044D01*
X122927853Y-95404732D01*
X123099247Y-95084076D01*
X123238386Y-94748164D01*
X123343930Y-94400233D01*
X123343932Y-94400223D01*
X123343935Y-94400212D01*
X123414862Y-94043630D01*
X123450500Y-93681790D01*
X123450500Y-93318209D01*
X123414862Y-92956369D01*
X123343935Y-92599787D01*
X123343932Y-92599776D01*
X123343931Y-92599773D01*
X123343930Y-92599767D01*
X123238386Y-92251836D01*
X123099247Y-91915924D01*
X123090447Y-91899461D01*
X122927859Y-91595279D01*
X122927858Y-91595277D01*
X122927853Y-91595268D01*
X122725854Y-91292956D01*
X122495197Y-91011899D01*
X122495196Y-91011898D01*
X122495192Y-91011893D01*
X122238106Y-90754807D01*
X121957049Y-90524150D01*
X121957048Y-90524149D01*
X121957044Y-90524146D01*
X121654732Y-90322147D01*
X121654727Y-90322144D01*
X121654720Y-90322140D01*
X121536327Y-90258858D01*
X121486482Y-90209896D01*
X121471022Y-90141758D01*
X121494854Y-90076078D01*
X121550411Y-90033710D01*
X121594780Y-90025500D01*
X124689548Y-90025500D01*
X124756587Y-90045185D01*
X124777229Y-90061819D01*
X125863181Y-91147771D01*
X125896666Y-91209094D01*
X125899500Y-91235452D01*
X125899500Y-91288695D01*
X125934103Y-91462658D01*
X125934106Y-91462667D01*
X126001983Y-91626540D01*
X126001990Y-91626553D01*
X126100535Y-91774034D01*
X126100538Y-91774038D01*
X126225961Y-91899461D01*
X126225965Y-91899464D01*
X126373446Y-91998009D01*
X126373459Y-91998016D01*
X126496363Y-92048923D01*
X126537334Y-92065894D01*
X126537336Y-92065894D01*
X126537341Y-92065896D01*
X126711304Y-92100499D01*
X126711307Y-92100500D01*
X126711309Y-92100500D01*
X126888693Y-92100500D01*
X126888694Y-92100499D01*
X126946682Y-92088964D01*
X127062658Y-92065896D01*
X127062661Y-92065894D01*
X127062666Y-92065894D01*
X127226547Y-91998013D01*
X127374035Y-91899464D01*
X127499464Y-91774035D01*
X127598013Y-91626547D01*
X127605123Y-91609383D01*
X127634527Y-91538393D01*
X127665894Y-91462666D01*
X127679405Y-91394745D01*
X127699650Y-91292964D01*
X127700500Y-91288691D01*
X127700500Y-91111309D01*
X127700500Y-91111306D01*
X127700499Y-91111304D01*
X127665896Y-90937341D01*
X127665893Y-90937332D01*
X127645620Y-90888389D01*
X127630910Y-90852876D01*
X127623442Y-90783408D01*
X127654717Y-90720929D01*
X127714806Y-90685277D01*
X127784632Y-90687771D01*
X127833153Y-90717744D01*
X133001263Y-95885855D01*
X133001267Y-95885858D01*
X133103710Y-95954309D01*
X133103711Y-95954309D01*
X133103715Y-95954312D01*
X133151049Y-95973918D01*
X133217548Y-96001463D01*
X133237597Y-96005451D01*
X133278615Y-96013610D01*
X133338392Y-96025501D01*
X133338394Y-96025501D01*
X133467721Y-96025501D01*
X133467741Y-96025500D01*
X157261608Y-96025500D01*
X157261608Y-96025499D01*
X157326280Y-96012636D01*
X157382452Y-96001463D01*
X157415792Y-95987652D01*
X157496286Y-95954312D01*
X157549561Y-95918714D01*
X157598733Y-95885858D01*
X157685858Y-95798733D01*
X157685858Y-95798731D01*
X157696066Y-95788524D01*
X157696067Y-95788521D01*
X161485858Y-91998733D01*
X161553388Y-91897666D01*
X161554308Y-91896291D01*
X161554308Y-91896290D01*
X161554312Y-91896285D01*
X161585589Y-91820775D01*
X161601463Y-91782452D01*
X161607060Y-91754311D01*
X161625501Y-91661606D01*
X161625501Y-91538393D01*
X161625500Y-91538387D01*
X161625500Y-89231057D01*
X161645185Y-89164018D01*
X161684401Y-89125520D01*
X161818656Y-89042712D01*
X161912675Y-88948692D01*
X161973994Y-88915210D01*
X162043686Y-88920194D01*
X162088034Y-88948695D01*
X162181654Y-89042315D01*
X162330875Y-89134356D01*
X162330880Y-89134358D01*
X162497302Y-89189505D01*
X162497309Y-89189506D01*
X162600019Y-89199999D01*
X162749999Y-89199999D01*
X163250000Y-89199999D01*
X163399972Y-89199999D01*
X163399986Y-89199998D01*
X163502697Y-89189505D01*
X163669119Y-89134358D01*
X163669124Y-89134356D01*
X163818345Y-89042315D01*
X163942315Y-88918345D01*
X164034356Y-88769124D01*
X164034358Y-88769119D01*
X164089505Y-88602697D01*
X164089506Y-88602690D01*
X164099999Y-88499986D01*
X164100000Y-88499973D01*
X164100000Y-88250000D01*
X163250000Y-88250000D01*
X163250000Y-89199999D01*
X162749999Y-89199999D01*
X162750000Y-89199998D01*
X162750000Y-88124000D01*
X162769685Y-88056961D01*
X162822489Y-88011206D01*
X162874000Y-88000000D01*
X163000000Y-88000000D01*
X163000000Y-87874000D01*
X163019685Y-87806961D01*
X163072489Y-87761206D01*
X163124000Y-87750000D01*
X164099999Y-87750000D01*
X164099999Y-87500028D01*
X164099998Y-87500013D01*
X164089505Y-87397302D01*
X164034358Y-87230880D01*
X164034353Y-87230869D01*
X163984643Y-87150277D01*
X163966202Y-87082885D01*
X163987124Y-87016221D01*
X164000000Y-87000542D01*
X164000000Y-85917045D01*
X164019685Y-85850006D01*
X164072489Y-85804251D01*
X164141647Y-85794307D01*
X164189100Y-85811508D01*
X164205876Y-85821856D01*
X164205880Y-85821858D01*
X164372302Y-85877005D01*
X164372309Y-85877006D01*
X164475019Y-85887499D01*
X164749999Y-85887499D01*
X165250000Y-85887499D01*
X165524972Y-85887499D01*
X165524986Y-85887498D01*
X165627697Y-85877005D01*
X165794119Y-85821858D01*
X165794130Y-85821853D01*
X165934903Y-85735023D01*
X166002295Y-85716582D01*
X166065097Y-85735023D01*
X166205869Y-85821853D01*
X166205880Y-85821858D01*
X166372302Y-85877005D01*
X166372309Y-85877006D01*
X166475019Y-85887499D01*
X166749999Y-85887499D01*
X167250000Y-85887499D01*
X167524972Y-85887499D01*
X167524986Y-85887498D01*
X167627697Y-85877005D01*
X167794119Y-85821858D01*
X167794124Y-85821856D01*
X167943345Y-85729815D01*
X168067315Y-85605845D01*
X168159356Y-85456624D01*
X168159358Y-85456619D01*
X168214505Y-85290197D01*
X168214506Y-85290190D01*
X168224999Y-85187486D01*
X168225000Y-85187473D01*
X168225000Y-85050000D01*
X167250000Y-85050000D01*
X167250000Y-85887499D01*
X166749999Y-85887499D01*
X166750000Y-85887498D01*
X166750000Y-85050000D01*
X165250000Y-85050000D01*
X165250000Y-85887499D01*
X164749999Y-85887499D01*
X164750000Y-85887498D01*
X164750000Y-84924000D01*
X164769685Y-84856961D01*
X164822489Y-84811206D01*
X164874000Y-84800000D01*
X165000000Y-84800000D01*
X165000000Y-84674000D01*
X165019685Y-84606961D01*
X165072489Y-84561206D01*
X165124000Y-84550000D01*
X168224999Y-84550000D01*
X168224999Y-84412528D01*
X168224998Y-84412513D01*
X168214505Y-84309802D01*
X168159358Y-84143380D01*
X168159356Y-84143375D01*
X168067315Y-83994154D01*
X167943344Y-83870183D01*
X167943341Y-83870181D01*
X167940339Y-83868329D01*
X167938713Y-83866521D01*
X167937677Y-83865702D01*
X167937817Y-83865524D01*
X167893617Y-83816380D01*
X167882397Y-83747417D01*
X167910243Y-83683336D01*
X167940344Y-83657254D01*
X167943656Y-83655212D01*
X168067712Y-83531156D01*
X168159814Y-83381834D01*
X168214999Y-83215297D01*
X168225500Y-83112509D01*
X168225499Y-82435450D01*
X168245183Y-82368412D01*
X168261813Y-82347775D01*
X168598729Y-82010860D01*
X168598733Y-82010858D01*
X168685858Y-81923733D01*
X168754311Y-81821286D01*
X168801463Y-81707452D01*
X168809836Y-81665355D01*
X168818286Y-81622876D01*
X168818286Y-81622873D01*
X168825500Y-81586607D01*
X168825500Y-81463394D01*
X168825500Y-79867741D01*
X168825501Y-79867720D01*
X168825501Y-79738391D01*
X168825500Y-79738389D01*
X168803045Y-79625498D01*
X168803045Y-79625497D01*
X168801463Y-79617550D01*
X168801462Y-79617546D01*
X168795610Y-79603419D01*
X168774916Y-79553458D01*
X168774168Y-79551652D01*
X168754315Y-79503721D01*
X168754308Y-79503708D01*
X168685858Y-79401267D01*
X168685855Y-79401263D01*
X166221073Y-76936483D01*
X166210859Y-76926269D01*
X166210858Y-76926267D01*
X166123733Y-76839142D01*
X166064405Y-76799500D01*
X166021286Y-76770688D01*
X165940792Y-76737347D01*
X165907452Y-76723537D01*
X165832040Y-76708537D01*
X165827854Y-76707704D01*
X165827849Y-76707703D01*
X165786608Y-76699500D01*
X165786607Y-76699500D01*
X165786606Y-76699500D01*
X165235453Y-76699500D01*
X165168414Y-76679815D01*
X165147772Y-76663181D01*
X150894928Y-62410338D01*
X150887859Y-62403269D01*
X150887858Y-62403267D01*
X150800733Y-62316142D01*
X150800730Y-62316140D01*
X149085860Y-60601269D01*
X149085858Y-60601267D01*
X148998733Y-60514142D01*
X148998732Y-60514141D01*
X148998731Y-60514140D01*
X148953603Y-60483987D01*
X148947509Y-60479915D01*
X148896286Y-60445688D01*
X148804988Y-60407872D01*
X148800492Y-60406010D01*
X148800487Y-60406007D01*
X148782455Y-60398538D01*
X148782453Y-60398537D01*
X148782452Y-60398537D01*
X148722029Y-60386518D01*
X148661610Y-60374500D01*
X148661607Y-60374500D01*
X148661606Y-60374500D01*
X145554433Y-60374500D01*
X145487394Y-60354815D01*
X145454115Y-60323386D01*
X145406368Y-60257669D01*
X145353828Y-60185354D01*
X145214646Y-60046172D01*
X145168477Y-60012628D01*
X145151613Y-60000375D01*
X145108948Y-59945045D01*
X145100500Y-59900058D01*
X145100500Y-59062230D01*
X145120185Y-58995191D01*
X145136819Y-58974549D01*
X145167712Y-58943656D01*
X145259814Y-58794334D01*
X145314999Y-58627797D01*
X145325500Y-58525009D01*
X145325499Y-57474992D01*
X145322211Y-57442809D01*
X145314999Y-57372203D01*
X145314998Y-57372200D01*
X145299828Y-57326420D01*
X145259814Y-57205666D01*
X145182241Y-57079899D01*
X145174256Y-57050718D01*
X145164005Y-57022258D01*
X145165128Y-57017359D01*
X145163802Y-57012511D01*
X145172861Y-56983643D01*
X145179625Y-56954157D01*
X145183583Y-56949479D01*
X145184724Y-56945847D01*
X145201093Y-56926143D01*
X145205397Y-56921934D01*
X145297722Y-56847722D01*
X145358003Y-56772727D01*
X145363312Y-56767538D01*
X145387869Y-56754485D01*
X145410696Y-56738595D01*
X145418294Y-56738314D01*
X145425008Y-56734746D01*
X145452721Y-56737042D01*
X145480518Y-56736015D01*
X145487062Y-56739887D01*
X145494639Y-56740515D01*
X145516714Y-56757431D01*
X145540651Y-56771594D01*
X145546647Y-56778514D01*
X145602277Y-56847721D01*
X145602278Y-56847722D01*
X145750704Y-56967030D01*
X145750707Y-56967032D01*
X145921302Y-57051639D01*
X145921303Y-57051639D01*
X145921307Y-57051641D01*
X146106111Y-57097600D01*
X146148877Y-57100500D01*
X147051122Y-57100499D01*
X147093889Y-57097600D01*
X147278693Y-57051641D01*
X147449296Y-56967030D01*
X147597722Y-56847722D01*
X147716475Y-56699986D01*
X159850001Y-56699986D01*
X159860494Y-56802697D01*
X159915641Y-56969119D01*
X159915643Y-56969124D01*
X160007684Y-57118345D01*
X160131654Y-57242315D01*
X160280875Y-57334356D01*
X160280880Y-57334358D01*
X160447302Y-57389505D01*
X160447309Y-57389506D01*
X160550019Y-57399999D01*
X161249999Y-57399999D01*
X161750000Y-57399999D01*
X162449972Y-57399999D01*
X162449986Y-57399998D01*
X162552697Y-57389505D01*
X162719119Y-57334358D01*
X162719124Y-57334356D01*
X162868345Y-57242315D01*
X162992315Y-57118345D01*
X163084356Y-56969124D01*
X163084358Y-56969119D01*
X163139505Y-56802697D01*
X163139506Y-56802690D01*
X163149999Y-56699986D01*
X163150000Y-56699973D01*
X163150000Y-55900000D01*
X161750000Y-55900000D01*
X161750000Y-57399999D01*
X161249999Y-57399999D01*
X161250000Y-57399998D01*
X161250000Y-55900000D01*
X159850001Y-55900000D01*
X159850001Y-56699986D01*
X147716475Y-56699986D01*
X147717030Y-56699296D01*
X147801641Y-56528693D01*
X147847600Y-56343889D01*
X147850500Y-56301123D01*
X147850499Y-55641517D01*
X147870184Y-55574479D01*
X147886813Y-55553842D01*
X148716338Y-54724318D01*
X148777661Y-54690833D01*
X148804019Y-54687999D01*
X149525002Y-54687999D01*
X149525008Y-54687999D01*
X149627797Y-54677499D01*
X149794334Y-54622314D01*
X149943656Y-54530212D01*
X149943661Y-54530207D01*
X149949324Y-54525731D01*
X149950112Y-54526728D01*
X150004880Y-54496816D01*
X150074572Y-54501794D01*
X150118931Y-54530299D01*
X150156344Y-54567712D01*
X150305666Y-54659814D01*
X150472203Y-54714999D01*
X150574991Y-54725500D01*
X151350008Y-54725499D01*
X151350016Y-54725498D01*
X151350019Y-54725498D01*
X151406302Y-54719748D01*
X151452797Y-54714999D01*
X151619334Y-54659814D01*
X151768656Y-54567712D01*
X151892712Y-54443656D01*
X151894752Y-54440347D01*
X151896745Y-54438555D01*
X151897193Y-54437989D01*
X151897289Y-54438065D01*
X151946694Y-54393623D01*
X152015656Y-54382395D01*
X152079740Y-54410234D01*
X152105829Y-54440339D01*
X152107681Y-54443341D01*
X152107683Y-54443344D01*
X152231654Y-54567315D01*
X152380875Y-54659356D01*
X152380880Y-54659358D01*
X152547302Y-54714505D01*
X152547309Y-54714506D01*
X152650019Y-54724999D01*
X152787499Y-54724999D01*
X153287500Y-54724999D01*
X153424972Y-54724999D01*
X153424986Y-54724998D01*
X153527697Y-54714505D01*
X153694119Y-54659358D01*
X153694124Y-54659356D01*
X153843345Y-54567315D01*
X153967315Y-54443345D01*
X154059356Y-54294124D01*
X154059358Y-54294119D01*
X154114505Y-54127697D01*
X154114506Y-54127690D01*
X154124999Y-54024986D01*
X154125000Y-54024973D01*
X154125000Y-53750000D01*
X153287500Y-53750000D01*
X153287500Y-54724999D01*
X152787499Y-54724999D01*
X152787500Y-54724998D01*
X152787500Y-53624000D01*
X152807185Y-53556961D01*
X152859989Y-53511206D01*
X152911500Y-53500000D01*
X153037500Y-53500000D01*
X153037500Y-53374000D01*
X153057185Y-53306961D01*
X153109989Y-53261206D01*
X153161500Y-53250000D01*
X154124999Y-53250000D01*
X154124999Y-52975028D01*
X154124998Y-52975013D01*
X154114505Y-52872302D01*
X154059358Y-52705880D01*
X154059356Y-52705875D01*
X153967315Y-52556654D01*
X153843345Y-52432684D01*
X153694124Y-52340643D01*
X153694119Y-52340641D01*
X153612976Y-52313753D01*
X153555531Y-52273980D01*
X153528708Y-52209464D01*
X153541023Y-52140688D01*
X153588566Y-52089489D01*
X153612969Y-52078343D01*
X153744334Y-52034814D01*
X153893656Y-51942712D01*
X154017712Y-51818656D01*
X154026780Y-51803953D01*
X154078724Y-51757229D01*
X154147686Y-51746005D01*
X154211770Y-51773846D01*
X154220000Y-51781368D01*
X154331344Y-51892712D01*
X154480666Y-51984814D01*
X154647203Y-52039999D01*
X154650053Y-52040290D01*
X154650599Y-52040346D01*
X154652558Y-52041145D01*
X154653298Y-52041303D01*
X154655647Y-52040966D01*
X154685213Y-52054468D01*
X154715291Y-52066740D01*
X154716804Y-52068895D01*
X154719203Y-52069991D01*
X154736775Y-52097334D01*
X154755444Y-52123919D01*
X154755990Y-52127233D01*
X154756977Y-52128769D01*
X154762000Y-52163704D01*
X154762000Y-52297911D01*
X154742315Y-52364950D01*
X154703098Y-52403449D01*
X154656344Y-52432287D01*
X154532289Y-52556342D01*
X154440187Y-52705663D01*
X154440185Y-52705668D01*
X154432979Y-52727414D01*
X154385001Y-52872203D01*
X154385001Y-52872204D01*
X154385000Y-52872204D01*
X154374500Y-52974983D01*
X154374500Y-54025001D01*
X154374501Y-54025019D01*
X154385000Y-54127796D01*
X154385001Y-54127799D01*
X154440185Y-54294331D01*
X154440187Y-54294336D01*
X154462728Y-54330880D01*
X154532288Y-54443656D01*
X154656344Y-54567712D01*
X154805666Y-54659814D01*
X154972203Y-54714999D01*
X155074991Y-54725500D01*
X155850008Y-54725499D01*
X155850016Y-54725498D01*
X155850019Y-54725498D01*
X155906302Y-54719748D01*
X155952797Y-54714999D01*
X156119334Y-54659814D01*
X156268656Y-54567712D01*
X156392712Y-54443656D01*
X156394752Y-54440347D01*
X156396745Y-54438555D01*
X156397193Y-54437989D01*
X156397289Y-54438065D01*
X156446694Y-54393623D01*
X156515656Y-54382395D01*
X156579740Y-54410234D01*
X156605829Y-54440339D01*
X156607681Y-54443341D01*
X156607683Y-54443344D01*
X156731654Y-54567315D01*
X156880875Y-54659356D01*
X156880880Y-54659358D01*
X157047302Y-54714505D01*
X157047309Y-54714506D01*
X157150019Y-54724999D01*
X157287499Y-54724999D01*
X157787500Y-54724999D01*
X157924972Y-54724999D01*
X157924986Y-54724998D01*
X158027697Y-54714505D01*
X158194119Y-54659358D01*
X158194124Y-54659356D01*
X158290334Y-54600013D01*
X159850000Y-54600013D01*
X159850000Y-55400000D01*
X161250000Y-55400000D01*
X161750000Y-55400000D01*
X163149999Y-55400000D01*
X163149999Y-54600028D01*
X163149998Y-54600013D01*
X163139505Y-54497302D01*
X163084358Y-54330880D01*
X163084356Y-54330875D01*
X162992315Y-54181654D01*
X162868345Y-54057684D01*
X162719124Y-53965643D01*
X162719119Y-53965641D01*
X162552697Y-53910494D01*
X162552690Y-53910493D01*
X162449986Y-53900000D01*
X161750000Y-53900000D01*
X161750000Y-55400000D01*
X161250000Y-55400000D01*
X161250000Y-53900000D01*
X160550028Y-53900000D01*
X160550012Y-53900001D01*
X160447302Y-53910494D01*
X160280880Y-53965641D01*
X160280875Y-53965643D01*
X160131654Y-54057684D01*
X160007684Y-54181654D01*
X159915643Y-54330875D01*
X159915641Y-54330880D01*
X159860494Y-54497302D01*
X159860493Y-54497309D01*
X159850000Y-54600013D01*
X158290334Y-54600013D01*
X158343345Y-54567315D01*
X158401478Y-54509183D01*
X158467315Y-54443345D01*
X158559356Y-54294124D01*
X158559358Y-54294119D01*
X158614505Y-54127697D01*
X158614506Y-54127690D01*
X158624999Y-54024986D01*
X158625000Y-54024973D01*
X158625000Y-53750000D01*
X157787500Y-53750000D01*
X157787500Y-54724999D01*
X157287499Y-54724999D01*
X157287500Y-54724998D01*
X157287500Y-53624000D01*
X157307185Y-53556961D01*
X157359989Y-53511206D01*
X157411500Y-53500000D01*
X157537500Y-53500000D01*
X157537500Y-53374000D01*
X157557185Y-53306961D01*
X157609989Y-53261206D01*
X157661500Y-53250000D01*
X158624999Y-53250000D01*
X158624999Y-52975028D01*
X158624998Y-52975013D01*
X158614505Y-52872302D01*
X158559358Y-52705880D01*
X158559356Y-52705875D01*
X158467315Y-52556654D01*
X158343345Y-52432684D01*
X158194124Y-52340643D01*
X158194119Y-52340641D01*
X158047948Y-52292205D01*
X157990503Y-52252432D01*
X157963680Y-52187916D01*
X157975995Y-52119141D01*
X158023538Y-52067941D01*
X158086951Y-52050499D01*
X158250008Y-52050499D01*
X158250016Y-52050498D01*
X158250019Y-52050498D01*
X158317829Y-52043571D01*
X158352797Y-52039999D01*
X158377558Y-52031793D01*
X158416562Y-52025500D01*
X159725501Y-52025500D01*
X159792540Y-52045185D01*
X159838295Y-52097989D01*
X159849501Y-52149500D01*
X159849501Y-52400018D01*
X159860000Y-52502796D01*
X159860001Y-52502799D01*
X159915185Y-52669331D01*
X159915187Y-52669336D01*
X159937728Y-52705880D01*
X160007288Y-52818656D01*
X160131344Y-52942712D01*
X160280666Y-53034814D01*
X160447203Y-53089999D01*
X160549991Y-53100500D01*
X162450008Y-53100499D01*
X162552797Y-53089999D01*
X162719334Y-53034814D01*
X162868656Y-52942712D01*
X162992712Y-52818656D01*
X163084814Y-52669334D01*
X163139999Y-52502797D01*
X163150500Y-52400009D01*
X163150500Y-52089418D01*
X163159442Y-52058962D01*
X163166745Y-52028059D01*
X163169217Y-52025672D01*
X163170185Y-52022379D01*
X163194167Y-52001597D01*
X163217024Y-51979543D01*
X163221403Y-51977998D01*
X163222989Y-51976624D01*
X163250302Y-51967802D01*
X163272029Y-51963481D01*
X163332452Y-51951463D01*
X163392911Y-51926420D01*
X163446286Y-51904312D01*
X163497509Y-51870084D01*
X163548733Y-51835858D01*
X163635858Y-51748733D01*
X163635858Y-51748731D01*
X163646066Y-51738524D01*
X163646067Y-51738521D01*
X164485858Y-50898733D01*
X164554312Y-50796285D01*
X164595677Y-50696420D01*
X164601463Y-50682452D01*
X164605531Y-50662000D01*
X164624379Y-50567245D01*
X164625501Y-50561607D01*
X164625501Y-50433283D01*
X164625500Y-50433257D01*
X164625500Y-47438393D01*
X164625499Y-47438389D01*
X164617722Y-47399290D01*
X164601463Y-47317548D01*
X164568346Y-47237596D01*
X164554312Y-47203714D01*
X164551503Y-47199511D01*
X164547150Y-47189645D01*
X164543954Y-47165196D01*
X164536614Y-47141668D01*
X164539506Y-47131168D01*
X164538094Y-47120365D01*
X164548623Y-47098070D01*
X164555169Y-47074307D01*
X164563279Y-47067036D01*
X164567932Y-47057186D01*
X164588840Y-47044124D01*
X164603771Y-47030741D01*
X164603483Y-47030253D01*
X164605932Y-47028804D01*
X164607197Y-47027671D01*
X164610018Y-47026387D01*
X164751550Y-46942686D01*
X164751553Y-46942683D01*
X164778348Y-46915889D01*
X164839671Y-46882403D01*
X164909363Y-46887387D01*
X164913483Y-46889008D01*
X165028308Y-46936569D01*
X165070000Y-46944862D01*
X165070000Y-46141988D01*
X165079940Y-46159205D01*
X165135795Y-46215060D01*
X165204204Y-46254556D01*
X165280504Y-46275000D01*
X165359496Y-46275000D01*
X165435796Y-46254556D01*
X165504205Y-46215060D01*
X165560060Y-46159205D01*
X165570000Y-46141988D01*
X165570000Y-46944862D01*
X165611690Y-46936569D01*
X165611692Y-46936569D01*
X165793671Y-46861192D01*
X165793684Y-46861185D01*
X165957462Y-46751751D01*
X165957466Y-46751748D01*
X166096748Y-46612466D01*
X166096751Y-46612462D01*
X166206185Y-46448684D01*
X166206192Y-46448671D01*
X166281569Y-46266693D01*
X166281572Y-46266681D01*
X166319999Y-46073495D01*
X166320000Y-46073492D01*
X166320000Y-45675000D01*
X165620000Y-45675000D01*
X165620000Y-45175000D01*
X166320000Y-45175000D01*
X166320000Y-44776508D01*
X166319999Y-44776504D01*
X166281572Y-44583318D01*
X166281569Y-44583306D01*
X166206192Y-44401328D01*
X166206185Y-44401315D01*
X166096751Y-44237537D01*
X166096748Y-44237533D01*
X165957466Y-44098251D01*
X165957462Y-44098248D01*
X165793684Y-43988814D01*
X165793671Y-43988807D01*
X165611691Y-43913429D01*
X165611683Y-43913427D01*
X165570000Y-43905135D01*
X165570000Y-44708011D01*
X165560060Y-44690795D01*
X165504205Y-44634940D01*
X165435796Y-44595444D01*
X165359496Y-44575000D01*
X165280504Y-44575000D01*
X165204204Y-44595444D01*
X165135795Y-44634940D01*
X165079940Y-44690795D01*
X165070000Y-44708011D01*
X165070000Y-43905136D01*
X165069999Y-43905135D01*
X165028316Y-43913427D01*
X165028308Y-43913429D01*
X164846328Y-43988807D01*
X164846315Y-43988814D01*
X164682537Y-44098248D01*
X164682533Y-44098251D01*
X164543251Y-44237533D01*
X164543248Y-44237537D01*
X164433814Y-44401315D01*
X164433809Y-44401325D01*
X164405695Y-44469199D01*
X164361854Y-44523602D01*
X164295560Y-44545667D01*
X164227860Y-44528388D01*
X164213270Y-44517053D01*
X164212970Y-44517445D01*
X164206520Y-44512495D01*
X164088978Y-44444632D01*
X164088979Y-44444632D01*
X164073484Y-44440480D01*
X163957867Y-44409500D01*
X163822133Y-44409500D01*
X163706515Y-44440480D01*
X163691021Y-44444632D01*
X163573479Y-44512495D01*
X163573473Y-44512500D01*
X163477500Y-44608473D01*
X163477495Y-44608479D01*
X163409632Y-44726021D01*
X163409631Y-44726025D01*
X163381074Y-44832595D01*
X163370727Y-44849571D01*
X163364931Y-44868595D01*
X163352912Y-44878796D01*
X163344710Y-44892254D01*
X163326825Y-44900941D01*
X163311665Y-44913811D01*
X163291540Y-44918082D01*
X163281863Y-44922783D01*
X163277701Y-44923411D01*
X163269540Y-44924500D01*
X163184306Y-44924500D01*
X163147431Y-44927402D01*
X163062187Y-44952167D01*
X163052943Y-44953401D01*
X163027252Y-44949440D01*
X163001267Y-44949366D01*
X162989094Y-44945053D01*
X162984036Y-44942958D01*
X162975236Y-44939313D01*
X162936376Y-44934197D01*
X162891639Y-44928307D01*
X162827743Y-44900040D01*
X162804723Y-44874258D01*
X162754772Y-44799501D01*
X162735860Y-44771198D01*
X162735859Y-44771197D01*
X162735858Y-44771195D01*
X162648733Y-44684070D01*
X162648732Y-44684069D01*
X162645621Y-44680958D01*
X162645606Y-44680944D01*
X161171222Y-43206560D01*
X161163932Y-43199270D01*
X161163930Y-43199267D01*
X161076805Y-43112142D01*
X161025581Y-43077915D01*
X160974358Y-43043688D01*
X160974355Y-43043686D01*
X160974352Y-43043685D01*
X160900675Y-43013168D01*
X160900673Y-43013167D01*
X160893864Y-43010347D01*
X160860524Y-42996537D01*
X160800101Y-42984518D01*
X160795378Y-42983578D01*
X160795376Y-42983578D01*
X160739682Y-42972500D01*
X160739679Y-42972500D01*
X160739678Y-42972500D01*
X155718144Y-42972500D01*
X155651105Y-42952815D01*
X155612606Y-42913597D01*
X155605313Y-42901774D01*
X155592712Y-42881344D01*
X155468656Y-42757288D01*
X155319334Y-42665186D01*
X155152797Y-42610001D01*
X155152795Y-42610000D01*
X155050010Y-42599500D01*
X154249998Y-42599500D01*
X154249980Y-42599501D01*
X154147203Y-42610000D01*
X154147200Y-42610001D01*
X153980668Y-42665185D01*
X153980663Y-42665187D01*
X153831345Y-42757287D01*
X153737327Y-42851305D01*
X153676003Y-42884789D01*
X153606312Y-42879805D01*
X153561965Y-42851304D01*
X153468345Y-42757684D01*
X153319124Y-42665643D01*
X153319119Y-42665641D01*
X153152697Y-42610494D01*
X153152690Y-42610493D01*
X153049986Y-42600000D01*
X152900000Y-42600000D01*
X152900000Y-47199999D01*
X153049972Y-47199999D01*
X153049986Y-47199998D01*
X153152697Y-47189505D01*
X153319119Y-47134358D01*
X153319124Y-47134356D01*
X153468342Y-47042317D01*
X153561964Y-46948695D01*
X153623287Y-46915210D01*
X153692979Y-46920194D01*
X153737327Y-46948695D01*
X153831344Y-47042712D01*
X153980666Y-47134814D01*
X154147203Y-47189999D01*
X154249991Y-47200500D01*
X155050008Y-47200499D01*
X155050016Y-47200498D01*
X155050019Y-47200498D01*
X155106302Y-47194748D01*
X155152797Y-47189999D01*
X155319334Y-47134814D01*
X155468656Y-47042712D01*
X155592712Y-46918656D01*
X155684814Y-46769334D01*
X155714990Y-46678266D01*
X155754761Y-46620824D01*
X155819276Y-46594000D01*
X155888052Y-46606315D01*
X155920376Y-46629591D01*
X156042533Y-46751748D01*
X156042537Y-46751751D01*
X156206315Y-46861185D01*
X156206328Y-46861192D01*
X156388308Y-46936569D01*
X156430000Y-46944862D01*
X156930000Y-46944862D01*
X156971689Y-46936570D01*
X157086514Y-46889008D01*
X157155983Y-46881539D01*
X157218463Y-46912814D01*
X157221648Y-46915888D01*
X157248438Y-46942678D01*
X157248447Y-46942685D01*
X157389801Y-47026281D01*
X157547514Y-47072100D01*
X157547511Y-47072100D01*
X157549998Y-47072295D01*
X157550000Y-47072295D01*
X157550000Y-46250000D01*
X156930000Y-46250000D01*
X156930000Y-46944862D01*
X156430000Y-46944862D01*
X156430000Y-46141988D01*
X156439940Y-46159205D01*
X156495795Y-46215060D01*
X156564204Y-46254556D01*
X156640504Y-46275000D01*
X156719496Y-46275000D01*
X156795796Y-46254556D01*
X156864205Y-46215060D01*
X156920060Y-46159205D01*
X156959556Y-46090796D01*
X156980000Y-46014496D01*
X156980000Y-45750000D01*
X157675500Y-45750000D01*
X157742539Y-45769685D01*
X157788294Y-45822489D01*
X157799500Y-45874000D01*
X157799500Y-46490701D01*
X157802401Y-46527567D01*
X157802402Y-46527573D01*
X157848254Y-46685393D01*
X157848255Y-46685396D01*
X157848256Y-46685398D01*
X157907232Y-46785121D01*
X157924500Y-46848242D01*
X157924500Y-48466535D01*
X157950457Y-48597028D01*
X157950459Y-48597036D01*
X158001378Y-48719965D01*
X158001383Y-48719975D01*
X158075304Y-48830605D01*
X158075307Y-48830609D01*
X159707518Y-50462819D01*
X159741003Y-50524142D01*
X159736019Y-50593834D01*
X159694147Y-50649767D01*
X159628683Y-50674184D01*
X159619837Y-50674500D01*
X159064981Y-50674500D01*
X158997942Y-50654815D01*
X158952187Y-50602011D01*
X158941623Y-50563101D01*
X158939999Y-50547203D01*
X158939998Y-50547200D01*
X158931804Y-50522471D01*
X158884814Y-50380666D01*
X158792712Y-50231344D01*
X158668656Y-50107288D01*
X158554407Y-50036819D01*
X158519336Y-50015187D01*
X158519331Y-50015185D01*
X158483567Y-50003334D01*
X158352797Y-49960001D01*
X158352795Y-49960000D01*
X158250016Y-49949500D01*
X158250009Y-49949500D01*
X157891518Y-49949500D01*
X157824479Y-49929815D01*
X157803837Y-49913181D01*
X156846546Y-48955888D01*
X156846545Y-48955887D01*
X156731807Y-48879222D01*
X156604332Y-48826421D01*
X156604322Y-48826418D01*
X156468996Y-48799500D01*
X156468994Y-48799500D01*
X156468993Y-48799500D01*
X152281007Y-48799500D01*
X152281003Y-48799500D01*
X152172590Y-48821065D01*
X152172589Y-48821065D01*
X152159131Y-48823742D01*
X152145673Y-48826419D01*
X152119268Y-48837356D01*
X152092866Y-48848292D01*
X152092864Y-48848293D01*
X152092863Y-48848292D01*
X152018191Y-48879223D01*
X151906714Y-48953711D01*
X151906706Y-48953716D01*
X151903455Y-48955887D01*
X150996161Y-49863181D01*
X150934838Y-49896666D01*
X150908480Y-49899500D01*
X150524998Y-49899500D01*
X150524980Y-49899501D01*
X150422203Y-49910000D01*
X150422200Y-49910001D01*
X150255668Y-49965185D01*
X150255663Y-49965187D01*
X150106342Y-50057289D01*
X149982289Y-50181342D01*
X149890187Y-50330663D01*
X149890186Y-50330666D01*
X149868187Y-50397055D01*
X149828414Y-50454499D01*
X149763898Y-50481322D01*
X149711478Y-50475756D01*
X149627700Y-50447995D01*
X149627690Y-50447993D01*
X149524986Y-50437500D01*
X149250000Y-50437500D01*
X149250000Y-51401000D01*
X149230315Y-51468039D01*
X149177511Y-51513794D01*
X149126000Y-51525000D01*
X149000000Y-51525000D01*
X149000000Y-51651000D01*
X148980315Y-51718039D01*
X148927511Y-51763794D01*
X148876000Y-51775000D01*
X147775001Y-51775000D01*
X147775001Y-51912486D01*
X147785494Y-52015197D01*
X147840641Y-52181619D01*
X147840643Y-52181624D01*
X147932684Y-52330845D01*
X148056655Y-52454816D01*
X148056659Y-52454819D01*
X148059656Y-52456668D01*
X148061279Y-52458472D01*
X148062323Y-52459298D01*
X148062181Y-52459476D01*
X148106381Y-52508616D01*
X148117602Y-52577579D01*
X148089759Y-52641661D01*
X148059661Y-52667741D01*
X148056349Y-52669783D01*
X148056343Y-52669788D01*
X147932289Y-52793842D01*
X147840187Y-52943163D01*
X147840185Y-52943168D01*
X147816667Y-53014142D01*
X147785001Y-53109703D01*
X147785001Y-53109704D01*
X147785000Y-53109704D01*
X147774500Y-53212483D01*
X147774500Y-53633480D01*
X147754815Y-53700519D01*
X147738181Y-53721161D01*
X147354125Y-54105216D01*
X147292802Y-54138701D01*
X147236518Y-54137870D01*
X147093893Y-54102400D01*
X147069451Y-54100742D01*
X147051123Y-54099500D01*
X147051120Y-54099500D01*
X146148877Y-54099500D01*
X146148874Y-54099501D01*
X146106113Y-54102399D01*
X146106112Y-54102399D01*
X145921303Y-54148360D01*
X145750707Y-54232967D01*
X145750704Y-54232969D01*
X145602278Y-54352277D01*
X145602277Y-54352278D01*
X145546647Y-54421486D01*
X145489304Y-54461405D01*
X145419482Y-54463985D01*
X145359349Y-54428406D01*
X145353353Y-54421486D01*
X145297722Y-54352278D01*
X145297721Y-54352277D01*
X145149295Y-54232969D01*
X144994405Y-54156151D01*
X144943093Y-54108730D01*
X144925500Y-54045063D01*
X144925500Y-51137513D01*
X147775000Y-51137513D01*
X147775000Y-51275000D01*
X148750000Y-51275000D01*
X148750000Y-50437500D01*
X148475029Y-50437500D01*
X148475012Y-50437501D01*
X148372302Y-50447994D01*
X148205880Y-50503141D01*
X148205875Y-50503143D01*
X148056654Y-50595184D01*
X147932684Y-50719154D01*
X147840643Y-50868375D01*
X147840641Y-50868380D01*
X147785494Y-51034802D01*
X147785493Y-51034809D01*
X147775000Y-51137513D01*
X144925500Y-51137513D01*
X144925500Y-50924499D01*
X144945185Y-50857460D01*
X144997989Y-50811705D01*
X145049500Y-50800499D01*
X145758028Y-50800499D01*
X145758036Y-50800499D01*
X145877418Y-50789886D01*
X146073049Y-50733909D01*
X146253407Y-50639698D01*
X146411109Y-50511109D01*
X146539698Y-50353407D01*
X146633909Y-50173049D01*
X146689886Y-49977418D01*
X146700500Y-49858037D01*
X146700499Y-48741964D01*
X146689886Y-48622582D01*
X146633909Y-48426951D01*
X146539698Y-48246593D01*
X146465022Y-48155010D01*
X146411109Y-48088890D01*
X146253409Y-47960304D01*
X146253410Y-47960304D01*
X146253407Y-47960302D01*
X146073049Y-47866091D01*
X146073048Y-47866090D01*
X146073045Y-47866089D01*
X145936470Y-47827011D01*
X145877418Y-47810114D01*
X145877415Y-47810113D01*
X145877413Y-47810113D01*
X145804631Y-47803642D01*
X145758037Y-47799500D01*
X145758033Y-47799500D01*
X145324500Y-47799500D01*
X145257461Y-47779815D01*
X145211706Y-47727011D01*
X145200500Y-47675500D01*
X145200500Y-47145256D01*
X145220185Y-47078217D01*
X145272989Y-47032462D01*
X145342147Y-47022518D01*
X145389591Y-47039714D01*
X145535666Y-47129814D01*
X145702203Y-47184999D01*
X145804991Y-47195500D01*
X146605008Y-47195499D01*
X146605016Y-47195498D01*
X146605019Y-47195498D01*
X146663686Y-47189505D01*
X146707797Y-47184999D01*
X146874334Y-47129814D01*
X147023656Y-47037712D01*
X147112319Y-46949049D01*
X147173642Y-46915564D01*
X147243334Y-46920548D01*
X147287681Y-46949049D01*
X147381344Y-47042712D01*
X147530666Y-47134814D01*
X147697203Y-47189999D01*
X147799991Y-47200500D01*
X148550008Y-47200499D01*
X148550016Y-47200498D01*
X148550019Y-47200498D01*
X148606302Y-47194748D01*
X148652797Y-47189999D01*
X148819334Y-47134814D01*
X148968656Y-47042712D01*
X149092712Y-46918656D01*
X149094752Y-46915347D01*
X149096745Y-46913555D01*
X149097193Y-46912989D01*
X149097289Y-46913065D01*
X149146694Y-46868623D01*
X149215656Y-46857395D01*
X149279740Y-46885234D01*
X149305829Y-46915339D01*
X149307681Y-46918341D01*
X149307683Y-46918344D01*
X149431654Y-47042315D01*
X149580875Y-47134356D01*
X149580880Y-47134358D01*
X149747302Y-47189505D01*
X149747309Y-47189506D01*
X149850019Y-47199999D01*
X149974999Y-47199999D01*
X150475000Y-47199999D01*
X150599972Y-47199999D01*
X150599986Y-47199998D01*
X150702697Y-47189505D01*
X150869119Y-47134358D01*
X150869124Y-47134356D01*
X151018345Y-47042315D01*
X151142315Y-46918345D01*
X151234356Y-46769124D01*
X151234358Y-46769119D01*
X151289505Y-46602697D01*
X151289506Y-46602690D01*
X151299999Y-46499986D01*
X151550001Y-46499986D01*
X151560494Y-46602697D01*
X151615641Y-46769119D01*
X151615643Y-46769124D01*
X151707684Y-46918345D01*
X151831654Y-47042315D01*
X151980875Y-47134356D01*
X151980880Y-47134358D01*
X152147302Y-47189505D01*
X152147309Y-47189506D01*
X152250019Y-47199999D01*
X152399999Y-47199999D01*
X152400000Y-47199998D01*
X152400000Y-46250000D01*
X151550001Y-46250000D01*
X151550001Y-46499986D01*
X151299999Y-46499986D01*
X151300000Y-46499973D01*
X151300000Y-46250000D01*
X150475000Y-46250000D01*
X150475000Y-47199999D01*
X149974999Y-47199999D01*
X149975000Y-47199998D01*
X149975000Y-45750000D01*
X150475000Y-45750000D01*
X151299999Y-45750000D01*
X151299999Y-45500029D01*
X151299998Y-45500013D01*
X151550000Y-45500013D01*
X151550000Y-45750000D01*
X152400000Y-45750000D01*
X152400000Y-44050000D01*
X151550001Y-44050000D01*
X151550001Y-44299986D01*
X151560494Y-44402697D01*
X151615641Y-44569119D01*
X151615643Y-44569124D01*
X151707684Y-44718345D01*
X151801658Y-44812319D01*
X151835143Y-44873642D01*
X151830159Y-44943334D01*
X151801658Y-44987681D01*
X151707684Y-45081654D01*
X151615643Y-45230875D01*
X151615641Y-45230880D01*
X151560494Y-45397302D01*
X151560493Y-45397309D01*
X151550000Y-45500013D01*
X151299998Y-45500013D01*
X151299998Y-45500012D01*
X151289505Y-45397302D01*
X151234358Y-45230880D01*
X151234356Y-45230875D01*
X151142315Y-45081654D01*
X151018345Y-44957684D01*
X150869124Y-44865643D01*
X150869119Y-44865641D01*
X150702697Y-44810494D01*
X150702690Y-44810493D01*
X150599986Y-44800000D01*
X150475000Y-44800000D01*
X150475000Y-45750000D01*
X149975000Y-45750000D01*
X149975000Y-44800000D01*
X149850027Y-44800000D01*
X149850012Y-44800001D01*
X149747302Y-44810494D01*
X149580880Y-44865641D01*
X149580875Y-44865643D01*
X149431654Y-44957684D01*
X149307683Y-45081655D01*
X149307679Y-45081660D01*
X149305826Y-45084665D01*
X149304018Y-45086290D01*
X149303202Y-45087323D01*
X149303025Y-45087183D01*
X149253874Y-45131385D01*
X149184911Y-45142601D01*
X149120831Y-45114752D01*
X149094753Y-45084653D01*
X149093217Y-45082163D01*
X149092712Y-45081344D01*
X148968656Y-44957288D01*
X148875777Y-44900000D01*
X148819336Y-44865187D01*
X148819331Y-44865185D01*
X148799794Y-44858711D01*
X148652797Y-44810001D01*
X148652795Y-44810000D01*
X148550010Y-44799500D01*
X147799998Y-44799500D01*
X147799980Y-44799501D01*
X147697203Y-44810000D01*
X147697200Y-44810001D01*
X147530668Y-44865185D01*
X147530663Y-44865187D01*
X147381342Y-44957289D01*
X147292681Y-45045951D01*
X147231358Y-45079436D01*
X147161666Y-45074452D01*
X147117319Y-45045951D01*
X147023657Y-44952289D01*
X147023656Y-44952288D01*
X146916132Y-44885967D01*
X146874336Y-44860187D01*
X146874331Y-44860185D01*
X146842300Y-44849571D01*
X146707797Y-44805001D01*
X146707795Y-44805000D01*
X146605010Y-44794500D01*
X145804998Y-44794500D01*
X145804980Y-44794501D01*
X145702203Y-44805000D01*
X145702200Y-44805001D01*
X145535668Y-44860185D01*
X145535663Y-44860187D01*
X145386342Y-44952289D01*
X145292681Y-45045951D01*
X145231358Y-45079436D01*
X145161666Y-45074452D01*
X145117319Y-45045951D01*
X145023657Y-44952289D01*
X145023656Y-44952288D01*
X144916132Y-44885967D01*
X144874336Y-44860187D01*
X144874331Y-44860185D01*
X144842300Y-44849571D01*
X144707797Y-44805001D01*
X144707795Y-44805000D01*
X144605010Y-44794500D01*
X143804998Y-44794500D01*
X143804980Y-44794501D01*
X143702203Y-44805000D01*
X143702200Y-44805001D01*
X143535668Y-44860185D01*
X143535663Y-44860187D01*
X143386342Y-44952289D01*
X143262289Y-45076342D01*
X143170187Y-45225663D01*
X143170186Y-45225666D01*
X143115001Y-45392203D01*
X143115001Y-45392204D01*
X143115000Y-45392204D01*
X143104500Y-45494983D01*
X143104500Y-46495001D01*
X143104501Y-46495019D01*
X143115000Y-46597796D01*
X143115001Y-46597799D01*
X143137042Y-46664313D01*
X143139444Y-46734141D01*
X143103712Y-46794183D01*
X143041192Y-46825376D01*
X142971732Y-46817815D01*
X142931655Y-46790998D01*
X141636818Y-45496161D01*
X141603333Y-45434838D01*
X141600499Y-45408480D01*
X141600499Y-45324998D01*
X141600498Y-45324981D01*
X141589999Y-45222203D01*
X141589998Y-45222200D01*
X141586669Y-45212155D01*
X141534814Y-45055666D01*
X141442712Y-44906344D01*
X141318656Y-44782288D01*
X141225888Y-44725069D01*
X141169336Y-44690187D01*
X141169331Y-44690185D01*
X141150868Y-44684067D01*
X141002797Y-44635001D01*
X141002795Y-44635000D01*
X140900010Y-44624500D01*
X140099998Y-44624500D01*
X140099980Y-44624501D01*
X139997203Y-44635000D01*
X139997200Y-44635001D01*
X139830668Y-44690185D01*
X139830663Y-44690187D01*
X139681342Y-44782289D01*
X139557289Y-44906342D01*
X139557288Y-44906344D01*
X139523135Y-44961716D01*
X139517420Y-44970981D01*
X139465472Y-45017705D01*
X139396509Y-45028928D01*
X139332427Y-45001084D01*
X139324200Y-44993565D01*
X139216602Y-44885967D01*
X139076524Y-44784195D01*
X138922257Y-44705591D01*
X138757589Y-44652087D01*
X138757581Y-44652085D01*
X138750000Y-44650884D01*
X138750000Y-45719670D01*
X138730255Y-45699925D01*
X138644745Y-45650556D01*
X138549370Y-45625000D01*
X138450630Y-45625000D01*
X138355255Y-45650556D01*
X138269745Y-45699925D01*
X138250000Y-45719670D01*
X138250000Y-44650884D01*
X138249999Y-44650884D01*
X138242418Y-44652085D01*
X138242410Y-44652087D01*
X138077742Y-44705591D01*
X137923475Y-44784195D01*
X137783397Y-44885967D01*
X137660965Y-45008399D01*
X137660961Y-45008404D01*
X137600627Y-45091448D01*
X137545297Y-45134114D01*
X137475684Y-45140093D01*
X137413889Y-45107488D01*
X137399991Y-45091449D01*
X137399990Y-45091448D01*
X137339414Y-45008072D01*
X137216928Y-44885586D01*
X137076788Y-44783768D01*
X136922445Y-44705127D01*
X136757701Y-44651598D01*
X136757699Y-44651597D01*
X136757698Y-44651597D01*
X136626271Y-44630781D01*
X136586611Y-44624500D01*
X136413389Y-44624500D01*
X136373728Y-44630781D01*
X136242302Y-44651597D01*
X136242299Y-44651598D01*
X136142371Y-44684067D01*
X136077552Y-44705128D01*
X135923211Y-44783768D01*
X135852004Y-44835504D01*
X135783072Y-44885586D01*
X135783070Y-44885588D01*
X135783069Y-44885588D01*
X135660588Y-45008069D01*
X135660581Y-45008078D01*
X135600317Y-45091023D01*
X135544987Y-45133689D01*
X135475374Y-45139667D01*
X135413579Y-45107061D01*
X135399683Y-45091023D01*
X135339655Y-45008404D01*
X135339414Y-45008072D01*
X135216928Y-44885586D01*
X135076788Y-44783768D01*
X134922445Y-44705127D01*
X134757701Y-44651598D01*
X134757699Y-44651597D01*
X134757698Y-44651597D01*
X134626271Y-44630781D01*
X134586611Y-44624500D01*
X134413389Y-44624500D01*
X134373728Y-44630781D01*
X134242302Y-44651597D01*
X134242299Y-44651598D01*
X134142371Y-44684067D01*
X134077552Y-44705128D01*
X133923211Y-44783768D01*
X133852004Y-44835504D01*
X133783072Y-44885586D01*
X133783070Y-44885588D01*
X133783069Y-44885588D01*
X133660588Y-45008069D01*
X133660588Y-45008070D01*
X133660586Y-45008072D01*
X133636888Y-45040690D01*
X133558768Y-45148211D01*
X133480128Y-45302552D01*
X133426597Y-45467302D01*
X133399500Y-45638389D01*
X133399500Y-46361610D01*
X133425785Y-46527573D01*
X133426598Y-46532701D01*
X133480127Y-46697445D01*
X133558768Y-46851788D01*
X133660586Y-46991928D01*
X133660588Y-46991930D01*
X133783075Y-47114417D01*
X133823384Y-47143702D01*
X133866050Y-47199031D01*
X133874500Y-47244021D01*
X133874500Y-47689547D01*
X133854815Y-47756586D01*
X133838181Y-47777228D01*
X128604018Y-53011390D01*
X128604010Y-53011398D01*
X128601269Y-53014140D01*
X128601267Y-53014142D01*
X128514142Y-53101267D01*
X128485513Y-53144114D01*
X128480908Y-53151005D01*
X128480904Y-53151010D01*
X128445690Y-53203709D01*
X128445688Y-53203713D01*
X128433701Y-53232652D01*
X128416749Y-53273580D01*
X128398538Y-53317544D01*
X128398535Y-53317554D01*
X128389268Y-53364141D01*
X128389269Y-53364142D01*
X128375972Y-53430997D01*
X128375970Y-53431006D01*
X128374501Y-53438388D01*
X128374500Y-53438399D01*
X128374500Y-55301638D01*
X128354815Y-55368677D01*
X128302011Y-55414432D01*
X128232853Y-55424376D01*
X128169297Y-55395351D01*
X128162819Y-55389319D01*
X128074038Y-55300538D01*
X128074034Y-55300535D01*
X127926553Y-55201990D01*
X127926540Y-55201983D01*
X127762667Y-55134106D01*
X127762658Y-55134103D01*
X127588694Y-55099500D01*
X127588691Y-55099500D01*
X127411309Y-55099500D01*
X127411306Y-55099500D01*
X127237341Y-55134103D01*
X127237332Y-55134106D01*
X127073459Y-55201983D01*
X127073446Y-55201990D01*
X126925965Y-55300535D01*
X126925961Y-55300538D01*
X126800538Y-55425961D01*
X126800535Y-55425965D01*
X126701990Y-55573446D01*
X126701983Y-55573459D01*
X126634106Y-55737332D01*
X126634103Y-55737341D01*
X126599500Y-55911304D01*
X126599500Y-55964548D01*
X126579815Y-56031587D01*
X126563181Y-56052229D01*
X125587181Y-57028229D01*
X125525858Y-57061714D01*
X125456166Y-57056730D01*
X125400233Y-57014858D01*
X125375816Y-56949394D01*
X125375500Y-56940548D01*
X125375500Y-52140451D01*
X125395185Y-52073412D01*
X125411814Y-52052775D01*
X126872162Y-50592426D01*
X126933483Y-50558943D01*
X126998162Y-50562179D01*
X127013757Y-50567246D01*
X127223713Y-50600500D01*
X127223714Y-50600500D01*
X127436286Y-50600500D01*
X127436287Y-50600500D01*
X127646243Y-50567246D01*
X127848412Y-50501557D01*
X128037816Y-50405051D01*
X128071379Y-50380666D01*
X128209786Y-50280109D01*
X128209788Y-50280106D01*
X128209792Y-50280104D01*
X128360104Y-50129792D01*
X128360106Y-50129788D01*
X128360109Y-50129786D01*
X128432125Y-50030663D01*
X128485051Y-49957816D01*
X128489793Y-49948508D01*
X128537763Y-49897711D01*
X128605583Y-49880911D01*
X128671719Y-49903445D01*
X128710763Y-49948500D01*
X128715373Y-49957547D01*
X128754728Y-50011716D01*
X129387037Y-49379408D01*
X129404075Y-49442993D01*
X129469901Y-49557007D01*
X129562993Y-49650099D01*
X129677007Y-49715925D01*
X129740590Y-49732962D01*
X129108282Y-50365269D01*
X129108282Y-50365270D01*
X129162449Y-50404624D01*
X129351782Y-50501095D01*
X129553870Y-50566757D01*
X129763754Y-50600000D01*
X129976246Y-50600000D01*
X130186127Y-50566757D01*
X130186130Y-50566757D01*
X130388217Y-50501095D01*
X130577554Y-50404622D01*
X130631716Y-50365270D01*
X130631717Y-50365270D01*
X129999408Y-49732962D01*
X130062993Y-49715925D01*
X130177007Y-49650099D01*
X130270099Y-49557007D01*
X130335925Y-49442993D01*
X130352962Y-49379408D01*
X130985270Y-50011717D01*
X130985270Y-50011716D01*
X131024622Y-49957554D01*
X131121095Y-49768217D01*
X131186757Y-49566130D01*
X131186757Y-49566127D01*
X131220000Y-49356246D01*
X131220000Y-49143753D01*
X131186757Y-48933872D01*
X131186757Y-48933869D01*
X131121095Y-48731782D01*
X131024624Y-48542449D01*
X130985270Y-48488282D01*
X130985269Y-48488282D01*
X130352962Y-49120590D01*
X130335925Y-49057007D01*
X130270099Y-48942993D01*
X130177007Y-48849901D01*
X130062993Y-48784075D01*
X129999409Y-48767037D01*
X130631716Y-48134728D01*
X130577550Y-48095375D01*
X130388217Y-47998904D01*
X130186129Y-47933242D01*
X129976246Y-47900000D01*
X129763754Y-47900000D01*
X129553872Y-47933242D01*
X129553869Y-47933242D01*
X129351782Y-47998904D01*
X129162439Y-48095380D01*
X129108282Y-48134727D01*
X129108282Y-48134728D01*
X129740591Y-48767037D01*
X129677007Y-48784075D01*
X129562993Y-48849901D01*
X129469901Y-48942993D01*
X129404075Y-49057007D01*
X129387037Y-49120591D01*
X128754728Y-48488282D01*
X128754727Y-48488282D01*
X128715380Y-48542440D01*
X128715376Y-48542446D01*
X128710760Y-48551505D01*
X128662781Y-48602297D01*
X128594959Y-48619087D01*
X128528826Y-48596543D01*
X128489794Y-48551493D01*
X128485051Y-48542184D01*
X128485049Y-48542181D01*
X128485048Y-48542179D01*
X128360109Y-48370213D01*
X128209786Y-48219890D01*
X128037820Y-48094951D01*
X127848414Y-47998444D01*
X127848413Y-47998443D01*
X127848412Y-47998443D01*
X127646243Y-47932754D01*
X127646241Y-47932753D01*
X127646240Y-47932753D01*
X127484957Y-47907208D01*
X127436287Y-47899500D01*
X127223713Y-47899500D01*
X127175042Y-47907208D01*
X127013760Y-47932753D01*
X126811585Y-47998444D01*
X126622179Y-48094951D01*
X126450213Y-48219890D01*
X126299890Y-48370213D01*
X126174949Y-48542182D01*
X126170484Y-48550946D01*
X126122509Y-48601742D01*
X126054688Y-48618536D01*
X125988553Y-48595998D01*
X125949516Y-48550946D01*
X125945050Y-48542182D01*
X125820109Y-48370213D01*
X125669786Y-48219890D01*
X125497820Y-48094951D01*
X125308414Y-47998444D01*
X125308413Y-47998443D01*
X125308412Y-47998443D01*
X125106243Y-47932754D01*
X125106241Y-47932753D01*
X125106240Y-47932753D01*
X124944957Y-47907208D01*
X124896287Y-47899500D01*
X124683713Y-47899500D01*
X124635042Y-47907208D01*
X124473760Y-47932753D01*
X124271585Y-47998444D01*
X124082179Y-48094951D01*
X123910213Y-48219890D01*
X123759890Y-48370213D01*
X123634949Y-48542182D01*
X123630484Y-48550946D01*
X123582509Y-48601742D01*
X123514688Y-48618536D01*
X123448553Y-48595998D01*
X123409516Y-48550946D01*
X123405050Y-48542182D01*
X123280109Y-48370213D01*
X123129786Y-48219890D01*
X122957820Y-48094951D01*
X122768414Y-47998444D01*
X122768413Y-47998443D01*
X122768412Y-47998443D01*
X122566243Y-47932754D01*
X122566241Y-47932753D01*
X122566240Y-47932753D01*
X122404957Y-47907208D01*
X122356287Y-47899500D01*
X122143713Y-47899500D01*
X122095042Y-47907208D01*
X121933760Y-47932753D01*
X121731585Y-47998444D01*
X121542179Y-48094951D01*
X121370213Y-48219890D01*
X121219890Y-48370213D01*
X121094949Y-48542182D01*
X121090484Y-48550946D01*
X121042509Y-48601742D01*
X120974688Y-48618536D01*
X120908553Y-48595998D01*
X120869516Y-48550946D01*
X120865050Y-48542182D01*
X120740109Y-48370213D01*
X120589786Y-48219890D01*
X120417820Y-48094951D01*
X120228414Y-47998444D01*
X120228413Y-47998443D01*
X120228412Y-47998443D01*
X120026243Y-47932754D01*
X120026241Y-47932753D01*
X120026240Y-47932753D01*
X119864957Y-47907208D01*
X119816287Y-47899500D01*
X119603713Y-47899500D01*
X119555042Y-47907208D01*
X119393760Y-47932753D01*
X119191585Y-47998444D01*
X119002179Y-48094951D01*
X118830215Y-48219889D01*
X118716673Y-48333431D01*
X118655350Y-48366915D01*
X118585658Y-48361931D01*
X118529725Y-48320059D01*
X118512810Y-48289082D01*
X118463797Y-48157671D01*
X118463793Y-48157664D01*
X118377547Y-48042455D01*
X118377544Y-48042452D01*
X118262335Y-47956206D01*
X118262328Y-47956202D01*
X118127482Y-47905908D01*
X118127483Y-47905908D01*
X118067883Y-47899501D01*
X118067881Y-47899500D01*
X118067873Y-47899500D01*
X118067865Y-47899500D01*
X116524000Y-47899500D01*
X116456961Y-47879815D01*
X116411206Y-47827011D01*
X116400000Y-47775500D01*
X116400000Y-45305868D01*
X116419685Y-45238829D01*
X116472489Y-45193074D01*
X116541647Y-45183130D01*
X116605203Y-45212155D01*
X116627099Y-45236974D01*
X116765888Y-45444685D01*
X116774140Y-45457035D01*
X116774150Y-45457049D01*
X117004807Y-45738106D01*
X117261893Y-45995192D01*
X117261898Y-45995196D01*
X117261899Y-45995197D01*
X117542956Y-46225854D01*
X117845268Y-46427853D01*
X117845277Y-46427858D01*
X117845279Y-46427859D01*
X118165916Y-46599243D01*
X118165918Y-46599243D01*
X118165924Y-46599247D01*
X118501836Y-46738386D01*
X118849767Y-46843930D01*
X118849773Y-46843931D01*
X118849776Y-46843932D01*
X118849787Y-46843935D01*
X119196073Y-46912814D01*
X119206369Y-46914862D01*
X119568206Y-46950500D01*
X119568209Y-46950500D01*
X119931791Y-46950500D01*
X119931794Y-46950500D01*
X120293631Y-46914862D01*
X120363045Y-46901054D01*
X120650212Y-46843935D01*
X120650223Y-46843932D01*
X120650223Y-46843931D01*
X120650233Y-46843930D01*
X120998164Y-46738386D01*
X121334076Y-46599247D01*
X121654732Y-46427853D01*
X121957044Y-46225854D01*
X122238101Y-45995197D01*
X122495197Y-45738101D01*
X122725854Y-45457044D01*
X122927853Y-45154732D01*
X123099247Y-44834076D01*
X123238386Y-44498164D01*
X123343930Y-44150233D01*
X123343932Y-44150223D01*
X123343935Y-44150212D01*
X123414862Y-43793630D01*
X123450500Y-43431794D01*
X123450500Y-43300013D01*
X151550000Y-43300013D01*
X151550000Y-43550000D01*
X152400000Y-43550000D01*
X152400000Y-42600000D01*
X152250027Y-42600000D01*
X152250012Y-42600001D01*
X152147302Y-42610494D01*
X151980880Y-42665641D01*
X151980875Y-42665643D01*
X151831654Y-42757684D01*
X151707684Y-42881654D01*
X151615643Y-43030875D01*
X151615641Y-43030880D01*
X151560494Y-43197302D01*
X151560493Y-43197309D01*
X151550000Y-43300013D01*
X123450500Y-43300013D01*
X123450500Y-43068206D01*
X123414862Y-42706369D01*
X123406761Y-42665641D01*
X123343935Y-42349787D01*
X123343932Y-42349776D01*
X123343931Y-42349773D01*
X123343930Y-42349767D01*
X123238386Y-42001836D01*
X123099247Y-41665924D01*
X123010826Y-41500500D01*
X122927859Y-41345279D01*
X122927858Y-41345277D01*
X122927853Y-41345268D01*
X122725854Y-41042956D01*
X122495197Y-40761899D01*
X122495196Y-40761898D01*
X122495192Y-40761893D01*
X122238106Y-40504807D01*
X121957049Y-40274150D01*
X121957048Y-40274149D01*
X121957044Y-40274146D01*
X121654732Y-40072147D01*
X121654727Y-40072144D01*
X121654720Y-40072140D01*
X121582163Y-40033358D01*
X121532319Y-39984396D01*
X121516858Y-39916258D01*
X121540690Y-39850579D01*
X121596247Y-39808210D01*
X121640616Y-39800000D01*
X156035226Y-39800000D01*
X156102265Y-39819685D01*
G37*
%TD.AperFunction*%
%TA.AperFunction,Conductor*%
G36*
X153519334Y-83867769D02*
G01*
X153575267Y-83909641D01*
X153599684Y-83975105D01*
X153600000Y-83983951D01*
X153600000Y-87000000D01*
X155007954Y-87000000D01*
X155074993Y-87019685D01*
X155120748Y-87072489D01*
X155130692Y-87141647D01*
X155113493Y-87189096D01*
X155103145Y-87205871D01*
X155103141Y-87205880D01*
X155047994Y-87372302D01*
X155047993Y-87372309D01*
X155037500Y-87475013D01*
X155037500Y-87750000D01*
X156001000Y-87750000D01*
X156068039Y-87769685D01*
X156113794Y-87822489D01*
X156125000Y-87874000D01*
X156125000Y-88000000D01*
X156251000Y-88000000D01*
X156318039Y-88019685D01*
X156363794Y-88072489D01*
X156375000Y-88124000D01*
X156375000Y-89224999D01*
X156512472Y-89224999D01*
X156512486Y-89224998D01*
X156615197Y-89214505D01*
X156781619Y-89159358D01*
X156781624Y-89159356D01*
X156930845Y-89067315D01*
X157054818Y-88943342D01*
X157056665Y-88940348D01*
X157058469Y-88938724D01*
X157059298Y-88937677D01*
X157059476Y-88937818D01*
X157108610Y-88893621D01*
X157177573Y-88882396D01*
X157241656Y-88910236D01*
X157267743Y-88940341D01*
X157269788Y-88943656D01*
X157393844Y-89067712D01*
X157543166Y-89159814D01*
X157709703Y-89214999D01*
X157812491Y-89225500D01*
X158587508Y-89225499D01*
X158587516Y-89225498D01*
X158587519Y-89225498D01*
X158643802Y-89219748D01*
X158690297Y-89214999D01*
X158856834Y-89159814D01*
X159006156Y-89067712D01*
X159130212Y-88943656D01*
X159222314Y-88794334D01*
X159277499Y-88627797D01*
X159288000Y-88525009D01*
X159287999Y-87474992D01*
X159286210Y-87457483D01*
X159277499Y-87372203D01*
X159250403Y-87290434D01*
X159238820Y-87255480D01*
X159236419Y-87185656D01*
X159272150Y-87125613D01*
X159334670Y-87094420D01*
X159404130Y-87101980D01*
X159444208Y-87128798D01*
X159863181Y-87547771D01*
X159896666Y-87609094D01*
X159899500Y-87635452D01*
X159899501Y-88500000D01*
X159899501Y-88500019D01*
X159910000Y-88602796D01*
X159910001Y-88602799D01*
X159965185Y-88769331D01*
X159965187Y-88769336D01*
X159980604Y-88794331D01*
X160057288Y-88918656D01*
X160181344Y-89042712D01*
X160315597Y-89125519D01*
X160362321Y-89177465D01*
X160374500Y-89231057D01*
X160374500Y-91289547D01*
X160354815Y-91356586D01*
X160338181Y-91377228D01*
X156977229Y-94738181D01*
X156915906Y-94771666D01*
X156889548Y-94774500D01*
X133710453Y-94774500D01*
X133643414Y-94754815D01*
X133622772Y-94738181D01*
X131193136Y-92308545D01*
X131159651Y-92247222D01*
X131164635Y-92177530D01*
X131206507Y-92121597D01*
X131271971Y-92097180D01*
X131305008Y-92099246D01*
X131311309Y-92100500D01*
X131311310Y-92100500D01*
X131488693Y-92100500D01*
X131488694Y-92100499D01*
X131546682Y-92088964D01*
X131662658Y-92065896D01*
X131662661Y-92065894D01*
X131662666Y-92065894D01*
X131826547Y-91998013D01*
X131902227Y-91947445D01*
X131978624Y-91896398D01*
X132045301Y-91875520D01*
X132047515Y-91875500D01*
X133532465Y-91875500D01*
X133599504Y-91895185D01*
X133645259Y-91947989D01*
X133655823Y-91986898D01*
X133660001Y-92027797D01*
X133660001Y-92027799D01*
X133691083Y-92121597D01*
X133715186Y-92194334D01*
X133807288Y-92343656D01*
X133931344Y-92467712D01*
X134080666Y-92559814D01*
X134247203Y-92614999D01*
X134349991Y-92625500D01*
X135150008Y-92625499D01*
X135150016Y-92625498D01*
X135150019Y-92625498D01*
X135206302Y-92619748D01*
X135252797Y-92614999D01*
X135419334Y-92559814D01*
X135568656Y-92467712D01*
X135692712Y-92343656D01*
X135732581Y-92279016D01*
X135784525Y-92232294D01*
X135853488Y-92221071D01*
X135917570Y-92248914D01*
X135925799Y-92256434D01*
X136033397Y-92364032D01*
X136173475Y-92465804D01*
X136327744Y-92544408D01*
X136492415Y-92597914D01*
X136492414Y-92597914D01*
X136499999Y-92599115D01*
X136500000Y-92599114D01*
X136500000Y-91530330D01*
X136519745Y-91550075D01*
X136605255Y-91599444D01*
X136700630Y-91625000D01*
X136799370Y-91625000D01*
X136894745Y-91599444D01*
X136980255Y-91550075D01*
X137000000Y-91530330D01*
X137000000Y-92599115D01*
X137007584Y-92597914D01*
X137172255Y-92544408D01*
X137326524Y-92465804D01*
X137466602Y-92364032D01*
X137589036Y-92241598D01*
X137649371Y-92158552D01*
X137704700Y-92115886D01*
X137774313Y-92109905D01*
X137836109Y-92142510D01*
X137850008Y-92158550D01*
X137850318Y-92158976D01*
X137910586Y-92241928D01*
X138033072Y-92364414D01*
X138173212Y-92466232D01*
X138327555Y-92544873D01*
X138492299Y-92598402D01*
X138663389Y-92625500D01*
X138663390Y-92625500D01*
X138836610Y-92625500D01*
X138836611Y-92625500D01*
X139007701Y-92598402D01*
X139172445Y-92544873D01*
X139326788Y-92466232D01*
X139466928Y-92364414D01*
X139589414Y-92241928D01*
X139649682Y-92158975D01*
X139705012Y-92116311D01*
X139774626Y-92110332D01*
X139836421Y-92142938D01*
X139850315Y-92158973D01*
X139910586Y-92241928D01*
X140033072Y-92364414D01*
X140173212Y-92466232D01*
X140327555Y-92544873D01*
X140492299Y-92598402D01*
X140663389Y-92625500D01*
X140663390Y-92625500D01*
X140836610Y-92625500D01*
X140836611Y-92625500D01*
X141007701Y-92598402D01*
X141172445Y-92544873D01*
X141326788Y-92466232D01*
X141466928Y-92364414D01*
X141589414Y-92241928D01*
X141691232Y-92101788D01*
X141769873Y-91947445D01*
X141823402Y-91782701D01*
X141850500Y-91611611D01*
X141850500Y-90888389D01*
X141823402Y-90717299D01*
X141769873Y-90552555D01*
X141691232Y-90398212D01*
X141589414Y-90258072D01*
X141466928Y-90135586D01*
X141459864Y-90130454D01*
X141426613Y-90106295D01*
X141383948Y-90050965D01*
X141375500Y-90005978D01*
X141375500Y-89938396D01*
X141375500Y-89938394D01*
X141351463Y-89817548D01*
X141351461Y-89817543D01*
X141331962Y-89770468D01*
X141331947Y-89770435D01*
X141331932Y-89770397D01*
X141304312Y-89703715D01*
X141286159Y-89676547D01*
X141235858Y-89601267D01*
X141235855Y-89601263D01*
X141145637Y-89511045D01*
X141145606Y-89511016D01*
X140721771Y-89087181D01*
X140688286Y-89025858D01*
X140693270Y-88956166D01*
X140735142Y-88900233D01*
X140800606Y-88875816D01*
X140809452Y-88875500D01*
X141780622Y-88875500D01*
X141847661Y-88895185D01*
X141886159Y-88934401D01*
X141907288Y-88968656D01*
X142031344Y-89092712D01*
X142180666Y-89184814D01*
X142347203Y-89239999D01*
X142449991Y-89250500D01*
X143050008Y-89250499D01*
X143050016Y-89250498D01*
X143050019Y-89250498D01*
X143106302Y-89244748D01*
X143152797Y-89239999D01*
X143319334Y-89184814D01*
X143468656Y-89092712D01*
X143592712Y-88968656D01*
X143684814Y-88819334D01*
X143688765Y-88807411D01*
X143721329Y-88756263D01*
X143728909Y-88749103D01*
X143748733Y-88735858D01*
X143835858Y-88648733D01*
X143835859Y-88648730D01*
X144038322Y-88446266D01*
X144099642Y-88412784D01*
X144169334Y-88417768D01*
X144225267Y-88459640D01*
X144249684Y-88525104D01*
X144250000Y-88533944D01*
X144250000Y-88549967D01*
X144250001Y-88549987D01*
X144260494Y-88652697D01*
X144315641Y-88819119D01*
X144315643Y-88819124D01*
X144407684Y-88968345D01*
X144531654Y-89092315D01*
X144680875Y-89184356D01*
X144680880Y-89184358D01*
X144847302Y-89239505D01*
X144847309Y-89239506D01*
X144950019Y-89249999D01*
X145500000Y-89249999D01*
X145549972Y-89249999D01*
X145549986Y-89249998D01*
X145652697Y-89239505D01*
X145819119Y-89184358D01*
X145819124Y-89184356D01*
X145968345Y-89092315D01*
X146092315Y-88968345D01*
X146184356Y-88819124D01*
X146184358Y-88819119D01*
X146239505Y-88652697D01*
X146239506Y-88652690D01*
X146249999Y-88549986D01*
X146250000Y-88549973D01*
X146250000Y-88524986D01*
X155037501Y-88524986D01*
X155047994Y-88627697D01*
X155103141Y-88794119D01*
X155103143Y-88794124D01*
X155195184Y-88943345D01*
X155319154Y-89067315D01*
X155468375Y-89159356D01*
X155468380Y-89159358D01*
X155634802Y-89214505D01*
X155634809Y-89214506D01*
X155737519Y-89224999D01*
X155874999Y-89224999D01*
X155875000Y-89224998D01*
X155875000Y-88250000D01*
X155037501Y-88250000D01*
X155037501Y-88524986D01*
X146250000Y-88524986D01*
X146250000Y-88500000D01*
X145500000Y-88500000D01*
X145500000Y-89249999D01*
X144950019Y-89249999D01*
X144999999Y-89249998D01*
X145000000Y-89249998D01*
X145000000Y-88173500D01*
X145019685Y-88106461D01*
X145072489Y-88060706D01*
X145124000Y-88049500D01*
X149037607Y-88049500D01*
X149098029Y-88037481D01*
X149158452Y-88025463D01*
X149191792Y-88011652D01*
X149272286Y-87978312D01*
X149332027Y-87938393D01*
X149374733Y-87909858D01*
X149461858Y-87822733D01*
X149461859Y-87822731D01*
X149468925Y-87815665D01*
X149468927Y-87815661D01*
X153388321Y-83896268D01*
X153449642Y-83862785D01*
X153519334Y-83867769D01*
G37*
%TD.AperFunction*%
%TA.AperFunction,Conductor*%
G36*
X131867985Y-85257276D02*
G01*
X131890501Y-85275091D01*
X135264139Y-88648729D01*
X135264142Y-88648733D01*
X135351267Y-88735858D01*
X135409099Y-88774500D01*
X135453715Y-88804312D01*
X135489980Y-88819333D01*
X135489981Y-88819334D01*
X135532401Y-88836904D01*
X135567548Y-88851463D01*
X135627971Y-88863481D01*
X135688393Y-88875500D01*
X135688394Y-88875500D01*
X137255257Y-88875500D01*
X137322296Y-88895185D01*
X137368051Y-88947989D01*
X137377995Y-89017147D01*
X137376874Y-89023692D01*
X137349500Y-89161306D01*
X137349500Y-89338695D01*
X137384103Y-89512658D01*
X137384106Y-89512667D01*
X137451983Y-89676540D01*
X137451990Y-89676553D01*
X137550535Y-89824034D01*
X137550538Y-89824038D01*
X137675961Y-89949461D01*
X137675965Y-89949464D01*
X137823446Y-90048009D01*
X137823459Y-90048016D01*
X137862659Y-90064253D01*
X137881008Y-90079039D01*
X137901828Y-90090085D01*
X137907710Y-90100556D01*
X137917063Y-90108093D01*
X137924505Y-90130454D01*
X137936048Y-90151002D01*
X137935335Y-90162992D01*
X137939128Y-90174388D01*
X137933299Y-90197222D01*
X137931901Y-90220748D01*
X137923678Y-90234919D01*
X137921849Y-90242087D01*
X137915360Y-90251926D01*
X137911650Y-90257007D01*
X137910586Y-90258072D01*
X137850195Y-90341192D01*
X137849843Y-90341675D01*
X137822262Y-90362843D01*
X137794677Y-90384115D01*
X137794532Y-90384127D01*
X137794417Y-90384216D01*
X137759773Y-90387112D01*
X137725063Y-90390093D01*
X137724934Y-90390024D01*
X137724790Y-90390037D01*
X137694001Y-90373702D01*
X137663269Y-90357486D01*
X137663128Y-90357323D01*
X137663069Y-90357292D01*
X137663010Y-90357187D01*
X137649371Y-90341447D01*
X137589036Y-90258401D01*
X137466602Y-90135967D01*
X137326524Y-90034195D01*
X137172257Y-89955591D01*
X137007589Y-89902087D01*
X137007581Y-89902085D01*
X137000000Y-89900884D01*
X137000000Y-90969670D01*
X136980255Y-90949925D01*
X136894745Y-90900556D01*
X136799370Y-90875000D01*
X136700630Y-90875000D01*
X136605255Y-90900556D01*
X136519745Y-90949925D01*
X136500000Y-90969670D01*
X136500000Y-89900884D01*
X136499999Y-89900884D01*
X136492418Y-89902085D01*
X136492410Y-89902087D01*
X136327742Y-89955591D01*
X136173475Y-90034195D01*
X136033401Y-90135964D01*
X135925799Y-90243566D01*
X135864476Y-90277050D01*
X135794784Y-90272066D01*
X135738851Y-90230194D01*
X135732585Y-90220988D01*
X135692712Y-90156344D01*
X135568656Y-90032288D01*
X135434376Y-89949464D01*
X135419336Y-89940187D01*
X135419331Y-89940185D01*
X135413926Y-89938394D01*
X135252797Y-89885001D01*
X135252795Y-89885000D01*
X135150010Y-89874500D01*
X134349998Y-89874500D01*
X134349980Y-89874501D01*
X134247203Y-89885000D01*
X134247200Y-89885001D01*
X134080668Y-89940185D01*
X134080663Y-89940187D01*
X133931342Y-90032289D01*
X133807289Y-90156342D01*
X133715187Y-90305663D01*
X133715185Y-90305668D01*
X133660001Y-90472204D01*
X133660000Y-90472205D01*
X133655823Y-90513102D01*
X133629427Y-90577793D01*
X133572247Y-90617945D01*
X133532465Y-90624500D01*
X132149361Y-90624500D01*
X132082322Y-90604815D01*
X132061684Y-90588185D01*
X131974035Y-90500536D01*
X131974034Y-90500535D01*
X131974033Y-90500534D01*
X131826553Y-90401990D01*
X131826540Y-90401983D01*
X131662667Y-90334106D01*
X131662658Y-90334103D01*
X131488694Y-90299500D01*
X131488691Y-90299500D01*
X131311309Y-90299500D01*
X131311306Y-90299500D01*
X131137341Y-90334103D01*
X131137332Y-90334106D01*
X130973459Y-90401983D01*
X130973446Y-90401990D01*
X130825965Y-90500535D01*
X130825961Y-90500538D01*
X130700538Y-90625961D01*
X130700535Y-90625965D01*
X130601990Y-90773446D01*
X130601983Y-90773459D01*
X130534106Y-90937332D01*
X130534103Y-90937341D01*
X130499500Y-91111304D01*
X130499500Y-91288695D01*
X130500753Y-91294995D01*
X130494523Y-91364586D01*
X130451658Y-91419762D01*
X130385768Y-91443004D01*
X130317771Y-91426934D01*
X130291454Y-91406863D01*
X126663941Y-87779350D01*
X126630456Y-87718027D01*
X126635440Y-87648335D01*
X126677312Y-87592402D01*
X126742776Y-87567985D01*
X126811049Y-87582837D01*
X126824507Y-87591351D01*
X126870134Y-87624500D01*
X126912184Y-87655051D01*
X127101588Y-87751557D01*
X127303757Y-87817246D01*
X127513713Y-87850500D01*
X127513714Y-87850500D01*
X127726286Y-87850500D01*
X127726287Y-87850500D01*
X127936243Y-87817246D01*
X128138412Y-87751557D01*
X128327816Y-87655051D01*
X128391071Y-87609094D01*
X128499786Y-87530109D01*
X128499788Y-87530106D01*
X128499792Y-87530104D01*
X128650104Y-87379792D01*
X128650106Y-87379788D01*
X128650109Y-87379786D01*
X128735890Y-87261717D01*
X128775051Y-87207816D01*
X128779793Y-87198508D01*
X128827763Y-87147711D01*
X128895583Y-87130911D01*
X128961719Y-87153445D01*
X129000763Y-87198500D01*
X129005373Y-87207547D01*
X129044728Y-87261716D01*
X129677037Y-86629408D01*
X129694075Y-86692993D01*
X129759901Y-86807007D01*
X129852993Y-86900099D01*
X129967007Y-86965925D01*
X130030590Y-86982962D01*
X129398282Y-87615269D01*
X129398282Y-87615270D01*
X129452449Y-87654624D01*
X129641782Y-87751095D01*
X129843870Y-87816757D01*
X130053754Y-87850000D01*
X130266246Y-87850000D01*
X130476127Y-87816757D01*
X130476130Y-87816757D01*
X130678217Y-87751095D01*
X130867554Y-87654622D01*
X130921716Y-87615270D01*
X130921717Y-87615270D01*
X130289408Y-86982962D01*
X130352993Y-86965925D01*
X130467007Y-86900099D01*
X130560099Y-86807007D01*
X130625925Y-86692993D01*
X130642962Y-86629408D01*
X131275270Y-87261717D01*
X131275270Y-87261716D01*
X131314622Y-87207554D01*
X131411095Y-87018217D01*
X131476757Y-86816130D01*
X131476757Y-86816127D01*
X131510000Y-86606246D01*
X131510000Y-86393753D01*
X131476757Y-86183872D01*
X131476757Y-86183869D01*
X131411095Y-85981782D01*
X131314624Y-85792449D01*
X131275270Y-85738282D01*
X131275269Y-85738282D01*
X130642962Y-86370590D01*
X130625925Y-86307007D01*
X130560099Y-86192993D01*
X130467007Y-86099901D01*
X130352993Y-86034075D01*
X130289409Y-86017037D01*
X130901446Y-85404999D01*
X130962769Y-85371514D01*
X131013319Y-85371063D01*
X131161306Y-85400500D01*
X131161309Y-85400500D01*
X131338693Y-85400500D01*
X131338694Y-85400499D01*
X131417987Y-85384727D01*
X131512658Y-85365896D01*
X131512661Y-85365894D01*
X131512666Y-85365894D01*
X131676547Y-85298013D01*
X131733930Y-85259670D01*
X131800605Y-85238792D01*
X131867985Y-85257276D01*
G37*
%TD.AperFunction*%
%TA.AperFunction,Conductor*%
G36*
X141790412Y-86878374D02*
G01*
X141800538Y-86877110D01*
X141823371Y-86888052D01*
X141847661Y-86895185D01*
X141856018Y-86903698D01*
X141863546Y-86907306D01*
X141886159Y-86934401D01*
X141907288Y-86968656D01*
X142031344Y-87092712D01*
X142089849Y-87128798D01*
X142115243Y-87144461D01*
X142161967Y-87196409D01*
X142173190Y-87265372D01*
X142145346Y-87329454D01*
X142115243Y-87355539D01*
X142031342Y-87407289D01*
X141907289Y-87531342D01*
X141886161Y-87565597D01*
X141834213Y-87612321D01*
X141780622Y-87624500D01*
X137244743Y-87624500D01*
X137177704Y-87604815D01*
X137131949Y-87552011D01*
X137122005Y-87482853D01*
X137123126Y-87476308D01*
X137150500Y-87338693D01*
X137150500Y-87161306D01*
X137123126Y-87023692D01*
X137129353Y-86954100D01*
X137172216Y-86898923D01*
X137238105Y-86875678D01*
X137244743Y-86875500D01*
X141780622Y-86875500D01*
X141790412Y-86878374D01*
G37*
%TD.AperFunction*%
%TA.AperFunction,Conductor*%
G36*
X152175081Y-82045185D02*
G01*
X152220836Y-82097989D01*
X152230780Y-82167147D01*
X152229659Y-82173691D01*
X152226490Y-82189621D01*
X152226490Y-82367012D01*
X152261093Y-82540975D01*
X152261096Y-82540984D01*
X152328973Y-82704857D01*
X152328980Y-82704870D01*
X152427525Y-82852351D01*
X152427528Y-82852355D01*
X152457610Y-82882437D01*
X152491095Y-82943760D01*
X152486111Y-83013452D01*
X152457610Y-83057799D01*
X148753229Y-86762181D01*
X148691906Y-86795666D01*
X148665548Y-86798500D01*
X146361648Y-86798500D01*
X146294609Y-86778815D01*
X146248854Y-86726011D01*
X146239287Y-86659478D01*
X146238818Y-86659431D01*
X146239010Y-86657549D01*
X146238910Y-86656853D01*
X146239310Y-86654614D01*
X146249999Y-86549986D01*
X146250000Y-86549973D01*
X146250000Y-86500000D01*
X145500000Y-86500000D01*
X145500000Y-86674500D01*
X145480315Y-86741539D01*
X145427511Y-86787294D01*
X145376000Y-86798500D01*
X145124000Y-86798500D01*
X145056961Y-86778815D01*
X145011206Y-86726011D01*
X145000000Y-86674500D01*
X145000000Y-86374000D01*
X145019685Y-86306961D01*
X145072489Y-86261206D01*
X145124000Y-86250000D01*
X145250000Y-86250000D01*
X145250000Y-86124000D01*
X145269685Y-86056961D01*
X145322489Y-86011206D01*
X145374000Y-86000000D01*
X146249999Y-86000000D01*
X146249999Y-85950028D01*
X146249998Y-85950013D01*
X146239505Y-85847302D01*
X146184358Y-85680880D01*
X146184356Y-85680875D01*
X146092315Y-85531654D01*
X145968344Y-85407683D01*
X145968340Y-85407680D01*
X145908257Y-85370620D01*
X145861532Y-85318672D01*
X145850311Y-85249710D01*
X145878154Y-85185628D01*
X145885659Y-85177416D01*
X149001257Y-82061819D01*
X149062580Y-82028334D01*
X149088938Y-82025500D01*
X152108042Y-82025500D01*
X152175081Y-82045185D01*
G37*
%TD.AperFunction*%
%TA.AperFunction,Conductor*%
G36*
X127647603Y-83532445D02*
G01*
X127652426Y-83537016D01*
X129014139Y-84898729D01*
X129014142Y-84898733D01*
X129101267Y-84985858D01*
X129130921Y-85005672D01*
X129203714Y-85054312D01*
X129203719Y-85054314D01*
X129277390Y-85084829D01*
X129277394Y-85084830D01*
X129284207Y-85087652D01*
X129317548Y-85101463D01*
X129377971Y-85113481D01*
X129409153Y-85119683D01*
X129471063Y-85152069D01*
X129505637Y-85212785D01*
X129501896Y-85282554D01*
X129461029Y-85339226D01*
X129456350Y-85342463D01*
X129456387Y-85342513D01*
X129398282Y-85384727D01*
X129398282Y-85384728D01*
X130030591Y-86017037D01*
X129967007Y-86034075D01*
X129852993Y-86099901D01*
X129759901Y-86192993D01*
X129694075Y-86307007D01*
X129677037Y-86370591D01*
X129044728Y-85738282D01*
X129044727Y-85738282D01*
X129005380Y-85792440D01*
X129005376Y-85792446D01*
X129000760Y-85801505D01*
X128952781Y-85852297D01*
X128884959Y-85869087D01*
X128818826Y-85846543D01*
X128779794Y-85801493D01*
X128775051Y-85792184D01*
X128775049Y-85792181D01*
X128775048Y-85792179D01*
X128650109Y-85620213D01*
X128499786Y-85469890D01*
X128327820Y-85344951D01*
X128138414Y-85248444D01*
X128138413Y-85248443D01*
X128138412Y-85248443D01*
X127936243Y-85182754D01*
X127936241Y-85182753D01*
X127936240Y-85182753D01*
X127768128Y-85156127D01*
X127726287Y-85149500D01*
X127513713Y-85149500D01*
X127471872Y-85156127D01*
X127303760Y-85182753D01*
X127101585Y-85248444D01*
X126912184Y-85344948D01*
X126743290Y-85467656D01*
X126677483Y-85491135D01*
X126609429Y-85475309D01*
X126582724Y-85455018D01*
X126060604Y-84932898D01*
X126052976Y-84925270D01*
X126052974Y-84925267D01*
X125965849Y-84838142D01*
X125903206Y-84796285D01*
X125863402Y-84769688D01*
X125863403Y-84769688D01*
X125863401Y-84769687D01*
X125823938Y-84753342D01*
X125782908Y-84736347D01*
X125749568Y-84722537D01*
X125689145Y-84710518D01*
X125684422Y-84709578D01*
X125684420Y-84709578D01*
X125628726Y-84698500D01*
X125628723Y-84698500D01*
X125628722Y-84698500D01*
X125009453Y-84698500D01*
X124942414Y-84678815D01*
X124921772Y-84662181D01*
X124212085Y-83952494D01*
X124203951Y-83937599D01*
X124191783Y-83925769D01*
X124187553Y-83907568D01*
X124178600Y-83891171D01*
X124179810Y-83874244D01*
X124175969Y-83857712D01*
X124182251Y-83840115D01*
X124183584Y-83821479D01*
X124193894Y-83807501D01*
X124199461Y-83791910D01*
X124219864Y-83772295D01*
X124224063Y-83766604D01*
X124227378Y-83764047D01*
X124324035Y-83699464D01*
X124367330Y-83656168D01*
X124373658Y-83651291D01*
X124399068Y-83641402D01*
X124423001Y-83628334D01*
X124436336Y-83626900D01*
X124438771Y-83625953D01*
X124440980Y-83626401D01*
X124449361Y-83625500D01*
X126050639Y-83625500D01*
X126117678Y-83645185D01*
X126138321Y-83661820D01*
X126175961Y-83699461D01*
X126175965Y-83699464D01*
X126323446Y-83798009D01*
X126323459Y-83798016D01*
X126425097Y-83840115D01*
X126487334Y-83865894D01*
X126487336Y-83865894D01*
X126487341Y-83865896D01*
X126661304Y-83900499D01*
X126661307Y-83900500D01*
X126661309Y-83900500D01*
X126838693Y-83900500D01*
X126838694Y-83900499D01*
X126896682Y-83888964D01*
X127012658Y-83865896D01*
X127012661Y-83865894D01*
X127012666Y-83865894D01*
X127176547Y-83798013D01*
X127324035Y-83699464D01*
X127449464Y-83574035D01*
X127461642Y-83555809D01*
X127515250Y-83511003D01*
X127584574Y-83502293D01*
X127647603Y-83532445D01*
G37*
%TD.AperFunction*%
%TA.AperFunction,Conductor*%
G36*
X151232703Y-64517739D02*
G01*
X151239181Y-64523771D01*
X163703728Y-76988319D01*
X163737213Y-77049642D01*
X163732229Y-77119334D01*
X163690357Y-77175267D01*
X163624893Y-77199684D01*
X163616047Y-77200000D01*
X153600000Y-77200000D01*
X153600000Y-80650500D01*
X153580315Y-80717539D01*
X153527511Y-80763294D01*
X153476000Y-80774500D01*
X148716875Y-80774500D01*
X148666021Y-80784615D01*
X148666016Y-80784616D01*
X148656457Y-80786518D01*
X148596034Y-80798537D01*
X148548883Y-80818067D01*
X148482201Y-80845688D01*
X148482200Y-80845689D01*
X148459833Y-80860633D01*
X148459830Y-80860635D01*
X148379754Y-80914140D01*
X148346640Y-80947255D01*
X148292628Y-81001267D01*
X148292625Y-81001270D01*
X143765312Y-85528582D01*
X143703989Y-85562067D01*
X143634297Y-85557083D01*
X143589950Y-85528582D01*
X143468657Y-85407289D01*
X143468656Y-85407288D01*
X143319334Y-85315186D01*
X143152797Y-85260001D01*
X143152795Y-85260000D01*
X143050010Y-85249500D01*
X142449998Y-85249500D01*
X142449980Y-85249501D01*
X142347203Y-85260000D01*
X142347200Y-85260001D01*
X142180668Y-85315185D01*
X142180663Y-85315187D01*
X142031342Y-85407289D01*
X141907289Y-85531342D01*
X141886161Y-85565597D01*
X141834213Y-85612321D01*
X141780622Y-85624500D01*
X135560452Y-85624500D01*
X135493413Y-85604815D01*
X135472771Y-85588181D01*
X135287016Y-85402426D01*
X135280684Y-85390830D01*
X135270663Y-85382220D01*
X135264263Y-85360758D01*
X135253531Y-85341103D01*
X135254473Y-85327924D01*
X135250698Y-85315263D01*
X135256917Y-85293748D01*
X135258515Y-85271411D01*
X135266869Y-85259324D01*
X135270102Y-85248142D01*
X135285427Y-85232475D01*
X135293103Y-85221372D01*
X135299131Y-85216104D01*
X135324035Y-85199464D01*
X135364635Y-85158863D01*
X135367767Y-85156127D01*
X135395854Y-85143158D01*
X135423001Y-85128334D01*
X135429463Y-85127639D01*
X135431201Y-85126837D01*
X135433692Y-85127184D01*
X135449361Y-85125500D01*
X135811607Y-85125500D01*
X135872029Y-85113481D01*
X135932452Y-85101463D01*
X135965792Y-85087652D01*
X136046286Y-85054312D01*
X136119079Y-85005672D01*
X136148733Y-84985858D01*
X136235858Y-84898733D01*
X136235860Y-84898729D01*
X141148729Y-79985860D01*
X141148733Y-79985858D01*
X141235858Y-79898733D01*
X141268295Y-79850187D01*
X141287254Y-79821813D01*
X141287256Y-79821810D01*
X141304310Y-79796288D01*
X141304310Y-79796287D01*
X141304312Y-79796285D01*
X141351463Y-79682451D01*
X141375500Y-79561607D01*
X141375500Y-79438393D01*
X141375500Y-70810452D01*
X141395185Y-70743413D01*
X141411819Y-70722771D01*
X142038319Y-70096271D01*
X142099642Y-70062786D01*
X142169334Y-70067770D01*
X142225267Y-70109642D01*
X142249684Y-70175106D01*
X142250000Y-70183952D01*
X142250000Y-72250000D01*
X145635287Y-72250000D01*
X145702326Y-72269685D01*
X145748081Y-72322489D01*
X145758025Y-72391647D01*
X145740826Y-72439096D01*
X145715189Y-72480659D01*
X145715185Y-72480668D01*
X145715115Y-72480880D01*
X145660001Y-72647203D01*
X145660001Y-72647204D01*
X145660000Y-72647204D01*
X145649500Y-72749983D01*
X145649500Y-73750001D01*
X145649501Y-73750019D01*
X145660000Y-73852796D01*
X145660001Y-73852799D01*
X145715115Y-74019119D01*
X145715186Y-74019334D01*
X145807096Y-74168345D01*
X145807289Y-74168657D01*
X145838181Y-74199549D01*
X145871666Y-74260872D01*
X145874500Y-74287230D01*
X145874500Y-77189548D01*
X145854815Y-77256587D01*
X145838181Y-77277229D01*
X142552229Y-80563181D01*
X142490906Y-80596666D01*
X142464548Y-80599500D01*
X142411306Y-80599500D01*
X142237341Y-80634103D01*
X142237332Y-80634106D01*
X142073459Y-80701983D01*
X142073446Y-80701990D01*
X141925965Y-80800535D01*
X141925961Y-80800538D01*
X141800538Y-80925961D01*
X141800535Y-80925965D01*
X141701990Y-81073446D01*
X141701983Y-81073459D01*
X141634106Y-81237332D01*
X141634103Y-81237341D01*
X141599500Y-81411304D01*
X141599500Y-81588695D01*
X141634103Y-81762658D01*
X141634106Y-81762667D01*
X141701983Y-81926540D01*
X141701990Y-81926553D01*
X141800535Y-82074034D01*
X141800538Y-82074038D01*
X141925961Y-82199461D01*
X141925965Y-82199464D01*
X142073446Y-82298009D01*
X142073459Y-82298016D01*
X142193578Y-82347770D01*
X142237334Y-82365894D01*
X142237336Y-82365894D01*
X142237341Y-82365896D01*
X142411304Y-82400499D01*
X142411307Y-82400500D01*
X142411309Y-82400500D01*
X142588693Y-82400500D01*
X142588694Y-82400499D01*
X142646682Y-82388964D01*
X142762658Y-82365896D01*
X142762661Y-82365894D01*
X142762666Y-82365894D01*
X142926547Y-82298013D01*
X143074035Y-82199464D01*
X143199464Y-82074035D01*
X143298013Y-81926547D01*
X143299180Y-81923731D01*
X143314054Y-81887819D01*
X143365894Y-81762666D01*
X143370169Y-81741178D01*
X143393702Y-81622867D01*
X143400500Y-81588691D01*
X143400500Y-81535451D01*
X143420185Y-81468412D01*
X143436814Y-81447775D01*
X146898729Y-77985860D01*
X146898733Y-77985858D01*
X146985858Y-77898733D01*
X147054311Y-77796286D01*
X147101463Y-77682452D01*
X147113629Y-77621285D01*
X147125500Y-77561607D01*
X147125500Y-77438393D01*
X147125500Y-74564981D01*
X147145185Y-74497942D01*
X147197989Y-74452187D01*
X147236899Y-74441623D01*
X147237391Y-74441572D01*
X147252797Y-74439999D01*
X147419334Y-74384814D01*
X147568656Y-74292712D01*
X147662675Y-74198692D01*
X147723994Y-74165210D01*
X147793686Y-74170194D01*
X147838034Y-74198695D01*
X147931654Y-74292315D01*
X148080875Y-74384356D01*
X148080880Y-74384358D01*
X148247302Y-74439505D01*
X148247309Y-74439506D01*
X148350019Y-74449999D01*
X148499999Y-74449999D01*
X149000000Y-74449999D01*
X149149972Y-74449999D01*
X149149986Y-74449998D01*
X149252697Y-74439505D01*
X149419119Y-74384358D01*
X149419124Y-74384356D01*
X149568345Y-74292315D01*
X149692315Y-74168345D01*
X149784356Y-74019124D01*
X149784358Y-74019119D01*
X149839505Y-73852697D01*
X149839506Y-73852690D01*
X149849999Y-73749986D01*
X149850000Y-73749973D01*
X149850000Y-73500000D01*
X149000000Y-73500000D01*
X149000000Y-74449999D01*
X148499999Y-74449999D01*
X148500000Y-74449998D01*
X148500000Y-73374000D01*
X148519685Y-73306961D01*
X148572489Y-73261206D01*
X148624000Y-73250000D01*
X148750000Y-73250000D01*
X148750000Y-73124000D01*
X148769685Y-73056961D01*
X148822489Y-73011206D01*
X148874000Y-73000000D01*
X149849999Y-73000000D01*
X149849999Y-72750028D01*
X149849998Y-72750013D01*
X149839505Y-72647302D01*
X149784358Y-72480880D01*
X149784356Y-72480875D01*
X149692315Y-72331654D01*
X149568345Y-72207684D01*
X149419124Y-72115643D01*
X149419121Y-72115642D01*
X149334995Y-72087765D01*
X149277550Y-72047992D01*
X149250728Y-71983476D01*
X149250000Y-71970059D01*
X149250000Y-70466582D01*
X149269685Y-70399543D01*
X149322489Y-70353788D01*
X149391647Y-70343844D01*
X149439093Y-70361042D01*
X149483060Y-70388161D01*
X149529784Y-70440106D01*
X149541007Y-70509069D01*
X149535137Y-70531277D01*
X149535875Y-70531501D01*
X149534104Y-70537336D01*
X149499500Y-70711304D01*
X149499500Y-70888695D01*
X149534103Y-71062658D01*
X149534106Y-71062667D01*
X149601983Y-71226540D01*
X149601990Y-71226553D01*
X149700535Y-71374034D01*
X149700538Y-71374038D01*
X149825961Y-71499461D01*
X149825965Y-71499464D01*
X149973446Y-71598009D01*
X149973459Y-71598016D01*
X150096363Y-71648923D01*
X150137334Y-71665894D01*
X150137336Y-71665894D01*
X150137341Y-71665896D01*
X150311304Y-71700499D01*
X150311307Y-71700500D01*
X150311309Y-71700500D01*
X150488693Y-71700500D01*
X150488694Y-71700499D01*
X150546682Y-71688964D01*
X150662658Y-71665896D01*
X150662661Y-71665894D01*
X150662666Y-71665894D01*
X150826547Y-71598013D01*
X150974035Y-71499464D01*
X151099464Y-71374035D01*
X151198013Y-71226547D01*
X151265894Y-71062666D01*
X151300500Y-70888691D01*
X151300500Y-70711309D01*
X151300500Y-70711306D01*
X151300499Y-70711304D01*
X151265896Y-70537341D01*
X151265893Y-70537332D01*
X151235727Y-70464505D01*
X151222828Y-70433364D01*
X151215360Y-70363896D01*
X151246635Y-70301417D01*
X151306725Y-70265765D01*
X151376550Y-70268259D01*
X151425071Y-70298232D01*
X151444154Y-70317315D01*
X151593375Y-70409356D01*
X151593380Y-70409358D01*
X151759802Y-70464505D01*
X151759809Y-70464506D01*
X151862519Y-70474999D01*
X151999999Y-70474999D01*
X152500000Y-70474999D01*
X152637472Y-70474999D01*
X152637486Y-70474998D01*
X152740197Y-70464505D01*
X152906619Y-70409358D01*
X152906624Y-70409356D01*
X153055845Y-70317315D01*
X153179815Y-70193345D01*
X153271856Y-70044124D01*
X153271858Y-70044119D01*
X153327005Y-69877697D01*
X153327006Y-69877690D01*
X153337499Y-69774986D01*
X153337500Y-69774973D01*
X153337500Y-69500000D01*
X152500000Y-69500000D01*
X152500000Y-70474999D01*
X151999999Y-70474999D01*
X152000000Y-70474998D01*
X152000000Y-69000000D01*
X152500000Y-69000000D01*
X153337499Y-69000000D01*
X153337499Y-68725028D01*
X153337498Y-68725013D01*
X153327005Y-68622302D01*
X153271858Y-68455880D01*
X153271856Y-68455875D01*
X153179815Y-68306654D01*
X153055845Y-68182684D01*
X152906624Y-68090643D01*
X152906619Y-68090641D01*
X152740197Y-68035494D01*
X152740190Y-68035493D01*
X152637486Y-68025000D01*
X152500000Y-68025000D01*
X152500000Y-69000000D01*
X152000000Y-69000000D01*
X152000000Y-68025000D01*
X151862527Y-68025000D01*
X151862512Y-68025001D01*
X151759802Y-68035494D01*
X151593380Y-68090641D01*
X151593375Y-68090643D01*
X151444154Y-68182684D01*
X151320183Y-68306655D01*
X151320179Y-68306660D01*
X151318326Y-68309665D01*
X151316518Y-68311290D01*
X151315702Y-68312323D01*
X151315525Y-68312183D01*
X151266374Y-68356385D01*
X151197411Y-68367601D01*
X151133331Y-68339752D01*
X151121123Y-68328061D01*
X151113330Y-68319506D01*
X151105212Y-68306344D01*
X151061772Y-68262904D01*
X151059830Y-68260772D01*
X151045749Y-68231858D01*
X151030334Y-68203628D01*
X151029861Y-68199235D01*
X151029238Y-68197955D01*
X151029492Y-68195804D01*
X151027500Y-68177270D01*
X151027500Y-64611452D01*
X151047185Y-64544413D01*
X151099989Y-64498658D01*
X151169147Y-64488714D01*
X151232703Y-64517739D01*
G37*
%TD.AperFunction*%
%TA.AperFunction,Conductor*%
G36*
X118567824Y-78326232D02*
G01*
X118642517Y-78354091D01*
X118702127Y-78360500D01*
X118924546Y-78360499D01*
X118991586Y-78380183D01*
X119012228Y-78396818D01*
X119338181Y-78722771D01*
X119371666Y-78784094D01*
X119374500Y-78810452D01*
X119374500Y-79740112D01*
X119354815Y-79807151D01*
X119302011Y-79852906D01*
X119232853Y-79862850D01*
X119198105Y-79852499D01*
X119194124Y-79850643D01*
X119027697Y-79795494D01*
X119027690Y-79795493D01*
X118924986Y-79785000D01*
X118787500Y-79785000D01*
X118787500Y-84224999D01*
X118924972Y-84224999D01*
X118924986Y-84224998D01*
X119027697Y-84214505D01*
X119194118Y-84159358D01*
X119198096Y-84157504D01*
X119267174Y-84147013D01*
X119330957Y-84175533D01*
X119369196Y-84234010D01*
X119374500Y-84269887D01*
X119374500Y-85227019D01*
X119354815Y-85294058D01*
X119306797Y-85337503D01*
X119292180Y-85344950D01*
X119120215Y-85469889D01*
X119006673Y-85583431D01*
X118945350Y-85616915D01*
X118875658Y-85611931D01*
X118819725Y-85570059D01*
X118802810Y-85539082D01*
X118753797Y-85407671D01*
X118753793Y-85407664D01*
X118667547Y-85292455D01*
X118667544Y-85292452D01*
X118552335Y-85206206D01*
X118552328Y-85206202D01*
X118417482Y-85155908D01*
X118417483Y-85155908D01*
X118357883Y-85149501D01*
X118357881Y-85149500D01*
X118357873Y-85149500D01*
X118357865Y-85149500D01*
X118263953Y-85149500D01*
X118196914Y-85129815D01*
X118151159Y-85077011D01*
X118142336Y-85049695D01*
X118133580Y-85005672D01*
X118125373Y-84985858D01*
X118080777Y-84878192D01*
X118004112Y-84763454D01*
X118004111Y-84763453D01*
X117676732Y-84436075D01*
X117667669Y-84419478D01*
X117654537Y-84405868D01*
X117644130Y-84376370D01*
X117643247Y-84374752D01*
X117642826Y-84372735D01*
X117616681Y-84241291D01*
X117622910Y-84171704D01*
X117665773Y-84116527D01*
X117731663Y-84093283D01*
X117799660Y-84109351D01*
X117803396Y-84111566D01*
X117880875Y-84159356D01*
X117880880Y-84159358D01*
X118047302Y-84214505D01*
X118047309Y-84214506D01*
X118150019Y-84224999D01*
X118287499Y-84224999D01*
X118287500Y-84224998D01*
X118287500Y-79785000D01*
X118150027Y-79785000D01*
X118150012Y-79785001D01*
X118047302Y-79795494D01*
X117880880Y-79850641D01*
X117880875Y-79850643D01*
X117731654Y-79942684D01*
X117607683Y-80066655D01*
X117607679Y-80066660D01*
X117605826Y-80069665D01*
X117604018Y-80071290D01*
X117603202Y-80072323D01*
X117603025Y-80072183D01*
X117553874Y-80116385D01*
X117484911Y-80127601D01*
X117420831Y-80099752D01*
X117394753Y-80069653D01*
X117394737Y-80069628D01*
X117392712Y-80066344D01*
X117268656Y-79942288D01*
X117175888Y-79885069D01*
X117119336Y-79850187D01*
X117119335Y-79850186D01*
X117119334Y-79850186D01*
X116985495Y-79805836D01*
X116928051Y-79766063D01*
X116901228Y-79701547D01*
X116900500Y-79688130D01*
X116900500Y-79411952D01*
X116920185Y-79344913D01*
X116972989Y-79299158D01*
X117042147Y-79289214D01*
X117071952Y-79297391D01*
X117073451Y-79298012D01*
X117073453Y-79298013D01*
X117237334Y-79365894D01*
X117237336Y-79365894D01*
X117237341Y-79365896D01*
X117411304Y-79400499D01*
X117411307Y-79400500D01*
X117411309Y-79400500D01*
X117588693Y-79400500D01*
X117588694Y-79400499D01*
X117668520Y-79384621D01*
X117762658Y-79365896D01*
X117762661Y-79365894D01*
X117762666Y-79365894D01*
X117902535Y-79307958D01*
X117926540Y-79298016D01*
X117926540Y-79298015D01*
X117926547Y-79298013D01*
X118074035Y-79199464D01*
X118199464Y-79074035D01*
X118298013Y-78926547D01*
X118365894Y-78762666D01*
X118366606Y-78759090D01*
X118400499Y-78588695D01*
X118400500Y-78588693D01*
X118400500Y-78442417D01*
X118420185Y-78375378D01*
X118472989Y-78329623D01*
X118542147Y-78319679D01*
X118567824Y-78326232D01*
G37*
%TD.AperFunction*%
%TA.AperFunction,Conductor*%
G36*
X135270011Y-79363993D02*
G01*
X135287794Y-79362722D01*
X135303441Y-79371266D01*
X135320863Y-79375056D01*
X135349117Y-79396207D01*
X135386016Y-79433106D01*
X135386045Y-79433137D01*
X135476264Y-79523356D01*
X135476267Y-79523358D01*
X135521315Y-79553458D01*
X135578715Y-79591812D01*
X135624697Y-79610858D01*
X135692548Y-79638963D01*
X135718350Y-79644095D01*
X135741625Y-79648725D01*
X135741645Y-79648728D01*
X135741667Y-79648733D01*
X135813391Y-79662999D01*
X135813392Y-79663000D01*
X135813393Y-79663000D01*
X135813394Y-79663000D01*
X136151652Y-79663000D01*
X136218691Y-79682685D01*
X136257189Y-79721901D01*
X136332288Y-79843656D01*
X136456344Y-79967712D01*
X136605666Y-80059814D01*
X136772203Y-80114999D01*
X136874991Y-80125500D01*
X137690547Y-80125499D01*
X137757586Y-80145183D01*
X137803341Y-80197987D01*
X137813285Y-80267146D01*
X137784260Y-80330702D01*
X137778228Y-80337180D01*
X135027229Y-83088181D01*
X134965906Y-83121666D01*
X134939548Y-83124500D01*
X130310452Y-83124500D01*
X130243413Y-83104815D01*
X130222771Y-83088181D01*
X129287016Y-82152426D01*
X129253531Y-82091103D01*
X129258515Y-82021411D01*
X129300387Y-81965478D01*
X129305787Y-81961656D01*
X129324035Y-81949464D01*
X129449464Y-81824035D01*
X129548013Y-81676547D01*
X129615894Y-81512666D01*
X129621084Y-81486578D01*
X129650499Y-81338695D01*
X129650500Y-81338693D01*
X129650500Y-81161306D01*
X129630175Y-81059130D01*
X129636402Y-80989538D01*
X129664110Y-80947256D01*
X129692712Y-80918656D01*
X129784814Y-80769334D01*
X129839999Y-80602797D01*
X129850500Y-80500009D01*
X129850499Y-80436947D01*
X129870183Y-80369910D01*
X129922986Y-80324154D01*
X129990454Y-80314452D01*
X129990469Y-80314311D01*
X129991037Y-80314369D01*
X129992144Y-80314210D01*
X129995697Y-80314845D01*
X129997202Y-80314998D01*
X129997203Y-80314999D01*
X130099991Y-80325500D01*
X130470311Y-80325499D01*
X130537349Y-80345183D01*
X130583104Y-80397987D01*
X130593048Y-80467146D01*
X130591928Y-80473689D01*
X130574500Y-80561309D01*
X130574500Y-80738695D01*
X130609103Y-80912658D01*
X130609106Y-80912667D01*
X130676983Y-81076540D01*
X130676990Y-81076553D01*
X130775535Y-81224034D01*
X130775538Y-81224038D01*
X130900961Y-81349461D01*
X130900965Y-81349464D01*
X131048446Y-81448009D01*
X131048459Y-81448016D01*
X131141558Y-81486578D01*
X131212334Y-81515894D01*
X131212336Y-81515894D01*
X131212341Y-81515896D01*
X131386304Y-81550499D01*
X131386307Y-81550500D01*
X131386309Y-81550500D01*
X131563693Y-81550500D01*
X131563694Y-81550499D01*
X131641574Y-81535008D01*
X131737658Y-81515896D01*
X131737661Y-81515894D01*
X131737666Y-81515894D01*
X131901547Y-81448013D01*
X132049035Y-81349464D01*
X132174464Y-81224035D01*
X132273013Y-81076547D01*
X132274298Y-81073446D01*
X132304193Y-81001270D01*
X132340894Y-80912666D01*
X132375500Y-80738691D01*
X132375500Y-80685451D01*
X132395185Y-80618412D01*
X132411815Y-80597774D01*
X132647771Y-80361817D01*
X132709094Y-80328333D01*
X132735452Y-80325499D01*
X132900002Y-80325499D01*
X132900008Y-80325499D01*
X133002797Y-80314999D01*
X133169334Y-80259814D01*
X133318656Y-80167712D01*
X133442712Y-80043656D01*
X133534814Y-79894334D01*
X133589999Y-79727797D01*
X133589999Y-79727791D01*
X133590909Y-79723545D01*
X133624189Y-79662110D01*
X133685400Y-79628421D01*
X133712152Y-79625499D01*
X134797872Y-79625499D01*
X134857483Y-79619091D01*
X134992331Y-79568796D01*
X135107546Y-79482546D01*
X135162170Y-79409576D01*
X135176441Y-79398893D01*
X135187126Y-79384621D01*
X135203828Y-79378391D01*
X135218102Y-79367706D01*
X135235886Y-79366434D01*
X135252590Y-79360204D01*
X135270011Y-79363993D01*
G37*
%TD.AperFunction*%
%TA.AperFunction,Conductor*%
G36*
X123225519Y-81220184D02*
G01*
X123246161Y-81236818D01*
X123897162Y-81887819D01*
X123930647Y-81949142D01*
X123925663Y-82018834D01*
X123883791Y-82074767D01*
X123818327Y-82099184D01*
X123809481Y-82099500D01*
X123661306Y-82099500D01*
X123487341Y-82134103D01*
X123487332Y-82134106D01*
X123323459Y-82201983D01*
X123323446Y-82201990D01*
X123175965Y-82300535D01*
X123175961Y-82300538D01*
X123050538Y-82425961D01*
X123050535Y-82425965D01*
X122988288Y-82519124D01*
X122972121Y-82532634D01*
X122959496Y-82549500D01*
X122945850Y-82554589D01*
X122934675Y-82563929D01*
X122913771Y-82566554D01*
X122894032Y-82573917D01*
X122879800Y-82570821D01*
X122865350Y-82572636D01*
X122846345Y-82563543D01*
X122825759Y-82559065D01*
X122805877Y-82544181D01*
X122802323Y-82542481D01*
X122797505Y-82537914D01*
X122661819Y-82402228D01*
X122628334Y-82340905D01*
X122625500Y-82314547D01*
X122625500Y-81324499D01*
X122645185Y-81257460D01*
X122697989Y-81211705D01*
X122749500Y-81200499D01*
X123158480Y-81200499D01*
X123225519Y-81220184D01*
G37*
%TD.AperFunction*%
%TA.AperFunction,Conductor*%
G36*
X165755703Y-78240739D02*
G01*
X165762181Y-78246771D01*
X166878729Y-79363319D01*
X166912214Y-79424642D01*
X166907230Y-79494334D01*
X166865358Y-79550267D01*
X166799894Y-79574684D01*
X166791049Y-79575000D01*
X166612529Y-79575000D01*
X166612512Y-79575001D01*
X166509802Y-79585494D01*
X166343380Y-79640641D01*
X166343375Y-79640643D01*
X166194154Y-79732684D01*
X166070183Y-79856655D01*
X166070179Y-79856660D01*
X166068326Y-79859665D01*
X166066518Y-79861290D01*
X166065702Y-79862323D01*
X166065525Y-79862183D01*
X166016374Y-79906385D01*
X165947411Y-79917601D01*
X165883331Y-79889752D01*
X165857253Y-79859653D01*
X165857237Y-79859628D01*
X165855212Y-79856344D01*
X165731156Y-79732288D01*
X165609402Y-79657190D01*
X165562679Y-79605243D01*
X165550500Y-79551652D01*
X165550500Y-78334452D01*
X165570185Y-78267413D01*
X165622989Y-78221658D01*
X165692147Y-78211714D01*
X165755703Y-78240739D01*
G37*
%TD.AperFunction*%
%TA.AperFunction,Conductor*%
G36*
X138750000Y-47349115D02*
G01*
X138757584Y-47347914D01*
X138922255Y-47294408D01*
X139076524Y-47215804D01*
X139216598Y-47114035D01*
X139324199Y-47006434D01*
X139385522Y-46972949D01*
X139455214Y-46977933D01*
X139511148Y-47019804D01*
X139517418Y-47029016D01*
X139525866Y-47042712D01*
X139545353Y-47074307D01*
X139557288Y-47093656D01*
X139681344Y-47217712D01*
X139830666Y-47309814D01*
X139997203Y-47364999D01*
X140099991Y-47375500D01*
X140900008Y-47375499D01*
X140900016Y-47375498D01*
X140900019Y-47375498D01*
X140956302Y-47369748D01*
X141002797Y-47364999D01*
X141169334Y-47309814D01*
X141271328Y-47246903D01*
X141338720Y-47228464D01*
X141405383Y-47249387D01*
X141424105Y-47264762D01*
X142136328Y-47976984D01*
X142169813Y-48038307D01*
X142164829Y-48107998D01*
X142144749Y-48143025D01*
X142060305Y-48246587D01*
X142060303Y-48246591D01*
X141966090Y-48426953D01*
X141942439Y-48509612D01*
X141905072Y-48568649D01*
X141841718Y-48598113D01*
X141823223Y-48599500D01*
X138831004Y-48599500D01*
X138695677Y-48626418D01*
X138695667Y-48626421D01*
X138568192Y-48679222D01*
X138453454Y-48755887D01*
X135536075Y-51673266D01*
X135474752Y-51706751D01*
X135472586Y-51707202D01*
X135337340Y-51734104D01*
X135337332Y-51734106D01*
X135173459Y-51801983D01*
X135173446Y-51801990D01*
X135025965Y-51900535D01*
X135025961Y-51900538D01*
X134900538Y-52025961D01*
X134900535Y-52025965D01*
X134801990Y-52173446D01*
X134801983Y-52173459D01*
X134734106Y-52337332D01*
X134734103Y-52337341D01*
X134699500Y-52511304D01*
X134699500Y-52688695D01*
X134734103Y-52862658D01*
X134734106Y-52862667D01*
X134801983Y-53026540D01*
X134801990Y-53026553D01*
X134900535Y-53174034D01*
X134900538Y-53174038D01*
X135025961Y-53299461D01*
X135025965Y-53299464D01*
X135173446Y-53398009D01*
X135173459Y-53398016D01*
X135253084Y-53430997D01*
X135337334Y-53465894D01*
X135337336Y-53465894D01*
X135337341Y-53465896D01*
X135511304Y-53500499D01*
X135511307Y-53500500D01*
X135511309Y-53500500D01*
X135688693Y-53500500D01*
X135688694Y-53500499D01*
X135746682Y-53488964D01*
X135862658Y-53465896D01*
X135862661Y-53465894D01*
X135862666Y-53465894D01*
X136026547Y-53398013D01*
X136174035Y-53299464D01*
X136299464Y-53174035D01*
X136398013Y-53026547D01*
X136465894Y-52862666D01*
X136492797Y-52727408D01*
X136525180Y-52665503D01*
X136526676Y-52663979D01*
X139153838Y-50036819D01*
X139215161Y-50003334D01*
X139241519Y-50000500D01*
X141823223Y-50000500D01*
X141890262Y-50020185D01*
X141936017Y-50072989D01*
X141942439Y-50090388D01*
X141958184Y-50145417D01*
X141966091Y-50173049D01*
X142060302Y-50353407D01*
X142188890Y-50511109D01*
X142282803Y-50587684D01*
X142346593Y-50639698D01*
X142526951Y-50733909D01*
X142722582Y-50789886D01*
X142841963Y-50800500D01*
X143550500Y-50800499D01*
X143617539Y-50820183D01*
X143663294Y-50872987D01*
X143674500Y-50924499D01*
X143674500Y-54045063D01*
X143654815Y-54112102D01*
X143605595Y-54156151D01*
X143450704Y-54232969D01*
X143328898Y-54330880D01*
X143302278Y-54352278D01*
X143295999Y-54360090D01*
X143246326Y-54421885D01*
X143188982Y-54461803D01*
X143119160Y-54464383D01*
X143059027Y-54428804D01*
X143053031Y-54421884D01*
X142997364Y-54352630D01*
X142849025Y-54233392D01*
X142849022Y-54233390D01*
X142678523Y-54148831D01*
X142493824Y-54102897D01*
X142451097Y-54100000D01*
X142250000Y-54100000D01*
X142250000Y-56645000D01*
X142288500Y-56645000D01*
X142355539Y-56664685D01*
X142401294Y-56717489D01*
X142412500Y-56769000D01*
X142412500Y-59224999D01*
X142549972Y-59224999D01*
X142549986Y-59224998D01*
X142652697Y-59214505D01*
X142819119Y-59159358D01*
X142819124Y-59159356D01*
X142968345Y-59067315D01*
X143092318Y-58943342D01*
X143094165Y-58940348D01*
X143095969Y-58938724D01*
X143096798Y-58937677D01*
X143096976Y-58937818D01*
X143146110Y-58893621D01*
X143215073Y-58882396D01*
X143279156Y-58910236D01*
X143305243Y-58940341D01*
X143307288Y-58943656D01*
X143431344Y-59067712D01*
X143580666Y-59159814D01*
X143614500Y-59171025D01*
X143671947Y-59210796D01*
X143698772Y-59275311D01*
X143699500Y-59288732D01*
X143699500Y-59900058D01*
X143679815Y-59967097D01*
X143648387Y-60000375D01*
X143585354Y-60046171D01*
X143446173Y-60185352D01*
X143345885Y-60323386D01*
X143290554Y-60366051D01*
X143245567Y-60374500D01*
X142738388Y-60374500D01*
X142617555Y-60398535D01*
X142617547Y-60398537D01*
X142503716Y-60445687D01*
X142401265Y-60514142D01*
X142401262Y-60514145D01*
X140601269Y-62314140D01*
X140514144Y-62401264D01*
X140514138Y-62401272D01*
X140445692Y-62503705D01*
X140445684Y-62503719D01*
X140412347Y-62584207D01*
X140406823Y-62597543D01*
X140398537Y-62617545D01*
X140398535Y-62617553D01*
X140374500Y-62738389D01*
X140374500Y-66811611D01*
X140398535Y-66932444D01*
X140398540Y-66932461D01*
X140445685Y-67046280D01*
X140445687Y-67046283D01*
X140445688Y-67046286D01*
X140479915Y-67097509D01*
X140514142Y-67148733D01*
X140601267Y-67235858D01*
X140601270Y-67235860D01*
X140608554Y-67243144D01*
X141402728Y-68037318D01*
X141436213Y-68098641D01*
X141431229Y-68168333D01*
X141402728Y-68212680D01*
X140287719Y-69327690D01*
X139351270Y-70264139D01*
X139351267Y-70264142D01*
X139317177Y-70298232D01*
X139264144Y-70351264D01*
X139264142Y-70351267D01*
X139249711Y-70372865D01*
X139249710Y-70372867D01*
X139249709Y-70372866D01*
X139195689Y-70453712D01*
X139195685Y-70453719D01*
X139170814Y-70513766D01*
X139170814Y-70513767D01*
X139148538Y-70567545D01*
X139148535Y-70567555D01*
X139124500Y-70688389D01*
X139124500Y-78939547D01*
X139104815Y-79006586D01*
X139088181Y-79027228D01*
X138837180Y-79278228D01*
X138775857Y-79311713D01*
X138706165Y-79306729D01*
X138650232Y-79264857D01*
X138625815Y-79199393D01*
X138625499Y-79190566D01*
X138625499Y-78649992D01*
X138624390Y-78639140D01*
X138614999Y-78547203D01*
X138614998Y-78547200D01*
X138580276Y-78442417D01*
X138559814Y-78380666D01*
X138467712Y-78231344D01*
X138343656Y-78107288D01*
X138340342Y-78105243D01*
X138338546Y-78103248D01*
X138337989Y-78102807D01*
X138338064Y-78102711D01*
X138293618Y-78053297D01*
X138282397Y-77984334D01*
X138310240Y-77920252D01*
X138340348Y-77894165D01*
X138343342Y-77892318D01*
X138467315Y-77768345D01*
X138559356Y-77619124D01*
X138559358Y-77619119D01*
X138614505Y-77452697D01*
X138614506Y-77452690D01*
X138624999Y-77349986D01*
X138625000Y-77349973D01*
X138625000Y-77212500D01*
X136175001Y-77212500D01*
X136175001Y-77349986D01*
X136185494Y-77452697D01*
X136240641Y-77619119D01*
X136240643Y-77619124D01*
X136332684Y-77768345D01*
X136456655Y-77892316D01*
X136456659Y-77892319D01*
X136459656Y-77894168D01*
X136461279Y-77895972D01*
X136462323Y-77896798D01*
X136462181Y-77896976D01*
X136506381Y-77946116D01*
X136517602Y-78015079D01*
X136489759Y-78079161D01*
X136459661Y-78105241D01*
X136456349Y-78107283D01*
X136456343Y-78107288D01*
X136332288Y-78231343D01*
X136332285Y-78231347D01*
X136270084Y-78332191D01*
X136218136Y-78378916D01*
X136149174Y-78390137D01*
X136085092Y-78362294D01*
X136076865Y-78354775D01*
X135830650Y-78108560D01*
X135823360Y-78101270D01*
X135823358Y-78101267D01*
X135736233Y-78014142D01*
X135685009Y-77979915D01*
X135633786Y-77945688D01*
X135633783Y-77945686D01*
X135633780Y-77945685D01*
X135550623Y-77911241D01*
X135550619Y-77911240D01*
X135542488Y-77907872D01*
X135519952Y-77898537D01*
X135439080Y-77882451D01*
X135399107Y-77874500D01*
X135399106Y-77874500D01*
X135366977Y-77874500D01*
X135299938Y-77854815D01*
X135254183Y-77802011D01*
X135246733Y-77774865D01*
X135245876Y-77775068D01*
X135244092Y-77767520D01*
X135193797Y-77632671D01*
X135193793Y-77632664D01*
X135107547Y-77517455D01*
X135107544Y-77517452D01*
X134992335Y-77431206D01*
X134992328Y-77431202D01*
X134857482Y-77380908D01*
X134857483Y-77380908D01*
X134797883Y-77374501D01*
X134797881Y-77374500D01*
X134797873Y-77374500D01*
X134797864Y-77374500D01*
X133702129Y-77374500D01*
X133702123Y-77374501D01*
X133642516Y-77380908D01*
X133507671Y-77431202D01*
X133507664Y-77431206D01*
X133392455Y-77517452D01*
X133392452Y-77517455D01*
X133306206Y-77632664D01*
X133306202Y-77632671D01*
X133255908Y-77767517D01*
X133249501Y-77827116D01*
X133249500Y-77827135D01*
X133249500Y-77845030D01*
X133229815Y-77912069D01*
X133177011Y-77957824D01*
X133107853Y-77967768D01*
X133086497Y-77962736D01*
X133002799Y-77935001D01*
X133002795Y-77935000D01*
X132900010Y-77924500D01*
X132099998Y-77924500D01*
X132099980Y-77924501D01*
X131997203Y-77935000D01*
X131997200Y-77935001D01*
X131830668Y-77990185D01*
X131830663Y-77990187D01*
X131681342Y-78082289D01*
X131587681Y-78175951D01*
X131579735Y-78180289D01*
X131574310Y-78187537D01*
X131549550Y-78196771D01*
X131526358Y-78209436D01*
X131517328Y-78208790D01*
X131508846Y-78211954D01*
X131483025Y-78206337D01*
X131456666Y-78204452D01*
X131447612Y-78198633D01*
X131440573Y-78197102D01*
X131412319Y-78175951D01*
X131315858Y-78079490D01*
X131282373Y-78018167D01*
X131287357Y-77948475D01*
X131295686Y-77932204D01*
X131295144Y-77931914D01*
X131298009Y-77926552D01*
X131298013Y-77926547D01*
X131365894Y-77762666D01*
X131400500Y-77588691D01*
X131400500Y-77411309D01*
X131400500Y-77411306D01*
X131400499Y-77411304D01*
X131365896Y-77237341D01*
X131365893Y-77237332D01*
X131355607Y-77212500D01*
X131340185Y-77175267D01*
X131298016Y-77073459D01*
X131298009Y-77073446D01*
X131199464Y-76925965D01*
X131199461Y-76925961D01*
X131074038Y-76800538D01*
X131074034Y-76800535D01*
X130926553Y-76701990D01*
X130926540Y-76701983D01*
X130888978Y-76686425D01*
X130762667Y-76634106D01*
X130762658Y-76634103D01*
X130588694Y-76599500D01*
X130588691Y-76599500D01*
X130411309Y-76599500D01*
X130411306Y-76599500D01*
X130237341Y-76634103D01*
X130237332Y-76634106D01*
X130073459Y-76701983D01*
X130073446Y-76701990D01*
X129925965Y-76800535D01*
X129925961Y-76800538D01*
X129800538Y-76925961D01*
X129800535Y-76925965D01*
X129701990Y-77073446D01*
X129701983Y-77073459D01*
X129634106Y-77237332D01*
X129634103Y-77237341D01*
X129599500Y-77411304D01*
X129599500Y-77588695D01*
X129634103Y-77762658D01*
X129634106Y-77762667D01*
X129701983Y-77926540D01*
X129704860Y-77931922D01*
X129702731Y-77933059D01*
X129720440Y-77989566D01*
X129701971Y-78056951D01*
X129684142Y-78079490D01*
X129557287Y-78206345D01*
X129465187Y-78355663D01*
X129465186Y-78355666D01*
X129448923Y-78404746D01*
X129422154Y-78485528D01*
X129382381Y-78542972D01*
X129351904Y-78561082D01*
X129328715Y-78570688D01*
X129328714Y-78570689D01*
X129226268Y-78639140D01*
X129182705Y-78682703D01*
X129139142Y-78726267D01*
X129139138Y-78726271D01*
X129102226Y-78763182D01*
X129040902Y-78796667D01*
X129014546Y-78799500D01*
X128349998Y-78799500D01*
X128349980Y-78799501D01*
X128247203Y-78810000D01*
X128247200Y-78810001D01*
X128080668Y-78865185D01*
X128080663Y-78865187D01*
X127931342Y-78957289D01*
X127837681Y-79050951D01*
X127776358Y-79084436D01*
X127706666Y-79079452D01*
X127662319Y-79050951D01*
X127568657Y-78957289D01*
X127568656Y-78957288D01*
X127419334Y-78865186D01*
X127419333Y-78865185D01*
X127419332Y-78865185D01*
X127410493Y-78862256D01*
X127353049Y-78822482D01*
X127326228Y-78757965D01*
X127325500Y-78744551D01*
X127325500Y-78413861D01*
X127329292Y-78400946D01*
X127328330Y-78387522D01*
X127338943Y-78368076D01*
X127345185Y-78346822D01*
X127356086Y-78336670D01*
X127361805Y-78326194D01*
X127390056Y-78305038D01*
X127391083Y-78304477D01*
X127459353Y-78289615D01*
X127499206Y-78301313D01*
X127499602Y-78300253D01*
X127642623Y-78353597D01*
X127642627Y-78353598D01*
X127702155Y-78359999D01*
X127702172Y-78360000D01*
X127950000Y-78360000D01*
X128450000Y-78360000D01*
X128697828Y-78360000D01*
X128697844Y-78359999D01*
X128757372Y-78353598D01*
X128757379Y-78353596D01*
X128892086Y-78303354D01*
X128892093Y-78303350D01*
X129007187Y-78217190D01*
X129007190Y-78217187D01*
X129093350Y-78102093D01*
X129093354Y-78102086D01*
X129143596Y-77967379D01*
X129143598Y-77967372D01*
X129149999Y-77907844D01*
X129150000Y-77907827D01*
X129150000Y-77360000D01*
X128450000Y-77360000D01*
X128450000Y-78360000D01*
X127950000Y-78360000D01*
X127950000Y-76860000D01*
X128450000Y-76860000D01*
X129150000Y-76860000D01*
X129150000Y-76575013D01*
X136175000Y-76575013D01*
X136175000Y-76712500D01*
X137150000Y-76712500D01*
X137650000Y-76712500D01*
X138624999Y-76712500D01*
X138624999Y-76575028D01*
X138624998Y-76575013D01*
X138614505Y-76472302D01*
X138559358Y-76305880D01*
X138559356Y-76305875D01*
X138467315Y-76156654D01*
X138343345Y-76032684D01*
X138194124Y-75940643D01*
X138194119Y-75940641D01*
X138027697Y-75885494D01*
X138027690Y-75885493D01*
X137924986Y-75875000D01*
X137650000Y-75875000D01*
X137650000Y-76712500D01*
X137150000Y-76712500D01*
X137150000Y-75875000D01*
X136875029Y-75875000D01*
X136875012Y-75875001D01*
X136772302Y-75885494D01*
X136605880Y-75940641D01*
X136605875Y-75940643D01*
X136456654Y-76032684D01*
X136332684Y-76156654D01*
X136240643Y-76305875D01*
X136240641Y-76305880D01*
X136185494Y-76472302D01*
X136185493Y-76472309D01*
X136175000Y-76575013D01*
X129150000Y-76575013D01*
X129150000Y-76312172D01*
X129149999Y-76312155D01*
X129143598Y-76252627D01*
X129143596Y-76252620D01*
X129093354Y-76117913D01*
X129093350Y-76117906D01*
X129007190Y-76002812D01*
X129007187Y-76002809D01*
X128892093Y-75916649D01*
X128892086Y-75916645D01*
X128757379Y-75866403D01*
X128757372Y-75866401D01*
X128697844Y-75860000D01*
X128450000Y-75860000D01*
X128450000Y-76860000D01*
X127950000Y-76860000D01*
X127950000Y-75860000D01*
X127702155Y-75860000D01*
X127642627Y-75866401D01*
X127642620Y-75866403D01*
X127499601Y-75919746D01*
X127498924Y-75917931D01*
X127441674Y-75930383D01*
X127400967Y-75918428D01*
X127400641Y-75919303D01*
X127257482Y-75865908D01*
X127257483Y-75865908D01*
X127197883Y-75859501D01*
X127197881Y-75859500D01*
X127197873Y-75859500D01*
X127197864Y-75859500D01*
X126202129Y-75859500D01*
X126202123Y-75859501D01*
X126142516Y-75865908D01*
X125999359Y-75919303D01*
X125998714Y-75917575D01*
X125941147Y-75930095D01*
X125901011Y-75918310D01*
X125900641Y-75919303D01*
X125757482Y-75865908D01*
X125757483Y-75865908D01*
X125697883Y-75859501D01*
X125697881Y-75859500D01*
X125697873Y-75859500D01*
X125697864Y-75859500D01*
X124702129Y-75859500D01*
X124702123Y-75859501D01*
X124642516Y-75865908D01*
X124499359Y-75919303D01*
X124498714Y-75917575D01*
X124441147Y-75930095D01*
X124401011Y-75918310D01*
X124400641Y-75919303D01*
X124257482Y-75865908D01*
X124257483Y-75865908D01*
X124197883Y-75859501D01*
X124197881Y-75859500D01*
X124197873Y-75859500D01*
X124197864Y-75859500D01*
X123202129Y-75859500D01*
X123202123Y-75859501D01*
X123142516Y-75865908D01*
X122999359Y-75919303D01*
X122998714Y-75917575D01*
X122941147Y-75930095D01*
X122901011Y-75918310D01*
X122900641Y-75919303D01*
X122757482Y-75865908D01*
X122757483Y-75865908D01*
X122697883Y-75859501D01*
X122697881Y-75859500D01*
X122697873Y-75859500D01*
X122697864Y-75859500D01*
X121702129Y-75859500D01*
X121702123Y-75859501D01*
X121642516Y-75865908D01*
X121499359Y-75919303D01*
X121498714Y-75917575D01*
X121441147Y-75930095D01*
X121401011Y-75918310D01*
X121400641Y-75919303D01*
X121257482Y-75865908D01*
X121257483Y-75865908D01*
X121197883Y-75859501D01*
X121197881Y-75859500D01*
X121197873Y-75859500D01*
X121197864Y-75859500D01*
X120202129Y-75859500D01*
X120202123Y-75859501D01*
X120142516Y-75865908D01*
X119999359Y-75919303D01*
X119998714Y-75917575D01*
X119941147Y-75930095D01*
X119901011Y-75918310D01*
X119900641Y-75919303D01*
X119757482Y-75865908D01*
X119757483Y-75865908D01*
X119697883Y-75859501D01*
X119697881Y-75859500D01*
X119697873Y-75859500D01*
X119697864Y-75859500D01*
X118702129Y-75859500D01*
X118702123Y-75859501D01*
X118642516Y-75865908D01*
X118499359Y-75919303D01*
X118498714Y-75917575D01*
X118441147Y-75930095D01*
X118401011Y-75918310D01*
X118400641Y-75919303D01*
X118257482Y-75865908D01*
X118257483Y-75865908D01*
X118197883Y-75859501D01*
X118197881Y-75859500D01*
X118197873Y-75859500D01*
X118197864Y-75859500D01*
X117202129Y-75859500D01*
X117202123Y-75859501D01*
X117142516Y-75865908D01*
X116999359Y-75919303D01*
X116998714Y-75917575D01*
X116941147Y-75930095D01*
X116901011Y-75918310D01*
X116900641Y-75919303D01*
X116757482Y-75865908D01*
X116757483Y-75865908D01*
X116697883Y-75859501D01*
X116697881Y-75859500D01*
X116697873Y-75859500D01*
X116697865Y-75859500D01*
X116524000Y-75859500D01*
X116456961Y-75839815D01*
X116411206Y-75787011D01*
X116400000Y-75735500D01*
X116400000Y-70524983D01*
X129774500Y-70524983D01*
X129774500Y-71300001D01*
X129774501Y-71300019D01*
X129785000Y-71402796D01*
X129785001Y-71402799D01*
X129808904Y-71474932D01*
X129840186Y-71569334D01*
X129932288Y-71718656D01*
X130056344Y-71842712D01*
X130205666Y-71934814D01*
X130372203Y-71989999D01*
X130474991Y-72000500D01*
X131525008Y-72000499D01*
X131525016Y-72000498D01*
X131525019Y-72000498D01*
X131581302Y-71994748D01*
X131627797Y-71989999D01*
X131794334Y-71934814D01*
X131943656Y-71842712D01*
X132067712Y-71718656D01*
X132159814Y-71569334D01*
X132195879Y-71460494D01*
X132235652Y-71403051D01*
X132300167Y-71376228D01*
X132313585Y-71375500D01*
X133133023Y-71375500D01*
X133200062Y-71395185D01*
X133245817Y-71447989D01*
X133253266Y-71475134D01*
X133254124Y-71474932D01*
X133255907Y-71482479D01*
X133306202Y-71617328D01*
X133306206Y-71617335D01*
X133392452Y-71732544D01*
X133392455Y-71732547D01*
X133507664Y-71818793D01*
X133507671Y-71818797D01*
X133642517Y-71869091D01*
X133642516Y-71869091D01*
X133649444Y-71869835D01*
X133702127Y-71875500D01*
X134797872Y-71875499D01*
X134857483Y-71869091D01*
X134992331Y-71818796D01*
X135107546Y-71732546D01*
X135193796Y-71617331D01*
X135244091Y-71482483D01*
X135250500Y-71422873D01*
X135250499Y-70077128D01*
X135244091Y-70017517D01*
X135230951Y-69982288D01*
X135193797Y-69882671D01*
X135189546Y-69874886D01*
X135191826Y-69873640D01*
X135172167Y-69820922D01*
X135187022Y-69752650D01*
X135190765Y-69746825D01*
X135193352Y-69742088D01*
X135243597Y-69607376D01*
X135243598Y-69607372D01*
X135249999Y-69547844D01*
X135250000Y-69547827D01*
X135250000Y-69125000D01*
X133250000Y-69125000D01*
X133250000Y-69547844D01*
X133256401Y-69607372D01*
X133256403Y-69607379D01*
X133306645Y-69742086D01*
X133310897Y-69749872D01*
X133308431Y-69751218D01*
X133327833Y-69803246D01*
X133320158Y-69855875D01*
X133313949Y-69872322D01*
X133306204Y-69882669D01*
X133255909Y-70017517D01*
X133254621Y-70029489D01*
X133249034Y-70044292D01*
X133237132Y-70060060D01*
X133229571Y-70078312D01*
X133216516Y-70087375D01*
X133206942Y-70100060D01*
X133188405Y-70106890D01*
X133172177Y-70118157D01*
X133146573Y-70122304D01*
X133141382Y-70124218D01*
X133138587Y-70123598D01*
X133133024Y-70124500D01*
X132137231Y-70124500D01*
X132070192Y-70104815D01*
X132049550Y-70088182D01*
X132005487Y-70044119D01*
X131943656Y-69982288D01*
X131940342Y-69980243D01*
X131938546Y-69978248D01*
X131937989Y-69977807D01*
X131938064Y-69977711D01*
X131893618Y-69928297D01*
X131882397Y-69859334D01*
X131910240Y-69795252D01*
X131940348Y-69769165D01*
X131943342Y-69767318D01*
X132067315Y-69643345D01*
X132159356Y-69494124D01*
X132159358Y-69494119D01*
X132214505Y-69327697D01*
X132214506Y-69327690D01*
X132224999Y-69224986D01*
X132225000Y-69224973D01*
X132225000Y-69087500D01*
X129775001Y-69087500D01*
X129775001Y-69224986D01*
X129785494Y-69327697D01*
X129840641Y-69494119D01*
X129840643Y-69494124D01*
X129932684Y-69643345D01*
X130056655Y-69767316D01*
X130056659Y-69767319D01*
X130059656Y-69769168D01*
X130061279Y-69770972D01*
X130062323Y-69771798D01*
X130062181Y-69771976D01*
X130106381Y-69821116D01*
X130117602Y-69890079D01*
X130089759Y-69954161D01*
X130059661Y-69980241D01*
X130056349Y-69982283D01*
X130056343Y-69982288D01*
X129932289Y-70106342D01*
X129840187Y-70255663D01*
X129840185Y-70255668D01*
X129819626Y-70317712D01*
X129785001Y-70422203D01*
X129785001Y-70422204D01*
X129785000Y-70422204D01*
X129774500Y-70524983D01*
X116400000Y-70524983D01*
X116400000Y-68450013D01*
X129775000Y-68450013D01*
X129775000Y-68587500D01*
X130750000Y-68587500D01*
X131250000Y-68587500D01*
X132224999Y-68587500D01*
X132224999Y-68450028D01*
X132224998Y-68450013D01*
X132214505Y-68347302D01*
X132178238Y-68237855D01*
X132166408Y-68202155D01*
X133250000Y-68202155D01*
X133250000Y-68625000D01*
X134000000Y-68625000D01*
X134500000Y-68625000D01*
X135250000Y-68625000D01*
X135250000Y-68202172D01*
X135249999Y-68202155D01*
X135243598Y-68142627D01*
X135243596Y-68142620D01*
X135193354Y-68007913D01*
X135193350Y-68007906D01*
X135107190Y-67892812D01*
X135107187Y-67892809D01*
X134992093Y-67806649D01*
X134992086Y-67806645D01*
X134857379Y-67756403D01*
X134857372Y-67756401D01*
X134797844Y-67750000D01*
X134500000Y-67750000D01*
X134500000Y-68625000D01*
X134000000Y-68625000D01*
X134000000Y-67750000D01*
X133702155Y-67750000D01*
X133642627Y-67756401D01*
X133642620Y-67756403D01*
X133507913Y-67806645D01*
X133507906Y-67806649D01*
X133392812Y-67892809D01*
X133392809Y-67892812D01*
X133306649Y-68007906D01*
X133306645Y-68007913D01*
X133256403Y-68142620D01*
X133256401Y-68142627D01*
X133250000Y-68202155D01*
X132166408Y-68202155D01*
X132159358Y-68180880D01*
X132159356Y-68180875D01*
X132067315Y-68031654D01*
X131943345Y-67907684D01*
X131794124Y-67815643D01*
X131794119Y-67815641D01*
X131627697Y-67760494D01*
X131627690Y-67760493D01*
X131524986Y-67750000D01*
X131250000Y-67750000D01*
X131250000Y-68587500D01*
X130750000Y-68587500D01*
X130750000Y-67750000D01*
X130475029Y-67750000D01*
X130475012Y-67750001D01*
X130372302Y-67760494D01*
X130205880Y-67815641D01*
X130205875Y-67815643D01*
X130056654Y-67907684D01*
X129932684Y-68031654D01*
X129840643Y-68180875D01*
X129840641Y-68180880D01*
X129785494Y-68347302D01*
X129785493Y-68347309D01*
X129775000Y-68450013D01*
X116400000Y-68450013D01*
X116400000Y-60984499D01*
X116419685Y-60917460D01*
X116472489Y-60871705D01*
X116523999Y-60860499D01*
X116697872Y-60860499D01*
X116757483Y-60854091D01*
X116892331Y-60803796D01*
X116892333Y-60803794D01*
X116900640Y-60800696D01*
X116901285Y-60802426D01*
X116958837Y-60789902D01*
X116998988Y-60801691D01*
X116999360Y-60800696D01*
X117007666Y-60803794D01*
X117007669Y-60803796D01*
X117142517Y-60854091D01*
X117202127Y-60860500D01*
X118197872Y-60860499D01*
X118257483Y-60854091D01*
X118392331Y-60803796D01*
X118392333Y-60803794D01*
X118400640Y-60800696D01*
X118401285Y-60802426D01*
X118458837Y-60789902D01*
X118498988Y-60801691D01*
X118499360Y-60800696D01*
X118507666Y-60803794D01*
X118507669Y-60803796D01*
X118642517Y-60854091D01*
X118702127Y-60860500D01*
X119697872Y-60860499D01*
X119757483Y-60854091D01*
X119892331Y-60803796D01*
X119892333Y-60803794D01*
X119900640Y-60800696D01*
X119901285Y-60802426D01*
X119958837Y-60789902D01*
X119998988Y-60801691D01*
X119999360Y-60800696D01*
X120007666Y-60803794D01*
X120007669Y-60803796D01*
X120142517Y-60854091D01*
X120202127Y-60860500D01*
X121197872Y-60860499D01*
X121257483Y-60854091D01*
X121392331Y-60803796D01*
X121392333Y-60803794D01*
X121400640Y-60800696D01*
X121401285Y-60802426D01*
X121458837Y-60789902D01*
X121498988Y-60801691D01*
X121499360Y-60800696D01*
X121507666Y-60803794D01*
X121507669Y-60803796D01*
X121642517Y-60854091D01*
X121702127Y-60860500D01*
X122697872Y-60860499D01*
X122757483Y-60854091D01*
X122892331Y-60803796D01*
X122892333Y-60803794D01*
X122900640Y-60800696D01*
X122901285Y-60802426D01*
X122958837Y-60789902D01*
X122998988Y-60801691D01*
X122999360Y-60800696D01*
X123007666Y-60803794D01*
X123007669Y-60803796D01*
X123142517Y-60854091D01*
X123202127Y-60860500D01*
X124197872Y-60860499D01*
X124257483Y-60854091D01*
X124392331Y-60803796D01*
X124392333Y-60803794D01*
X124400640Y-60800696D01*
X124401285Y-60802426D01*
X124458837Y-60789902D01*
X124498988Y-60801691D01*
X124499360Y-60800696D01*
X124507666Y-60803794D01*
X124507669Y-60803796D01*
X124642517Y-60854091D01*
X124702127Y-60860500D01*
X125697872Y-60860499D01*
X125757483Y-60854091D01*
X125892331Y-60803796D01*
X125892333Y-60803794D01*
X125900640Y-60800696D01*
X125901285Y-60802426D01*
X125958837Y-60789902D01*
X125998988Y-60801691D01*
X125999360Y-60800696D01*
X126007666Y-60803794D01*
X126007669Y-60803796D01*
X126142517Y-60854091D01*
X126202127Y-60860500D01*
X127197872Y-60860499D01*
X127257483Y-60854091D01*
X127392331Y-60803796D01*
X127392333Y-60803794D01*
X127400640Y-60800696D01*
X127401285Y-60802426D01*
X127458837Y-60789902D01*
X127498988Y-60801691D01*
X127499360Y-60800696D01*
X127507666Y-60803794D01*
X127507669Y-60803796D01*
X127642517Y-60854091D01*
X127702127Y-60860500D01*
X128697872Y-60860499D01*
X128757483Y-60854091D01*
X128892331Y-60803796D01*
X129007546Y-60717546D01*
X129093796Y-60602331D01*
X129144091Y-60467483D01*
X129150500Y-60407873D01*
X129150499Y-58812128D01*
X129144091Y-58752517D01*
X129100708Y-58636200D01*
X129095724Y-58566508D01*
X129102329Y-58545414D01*
X129110781Y-58525009D01*
X129115894Y-58512666D01*
X129150500Y-58338691D01*
X129150500Y-58161309D01*
X129150500Y-58161306D01*
X129150499Y-58161304D01*
X129115896Y-57987341D01*
X129115893Y-57987332D01*
X129048016Y-57823459D01*
X129048009Y-57823446D01*
X128949464Y-57675965D01*
X128949461Y-57675961D01*
X128821725Y-57548225D01*
X128788240Y-57486902D01*
X128793224Y-57417210D01*
X128821723Y-57372865D01*
X129398729Y-56795860D01*
X129398733Y-56795858D01*
X129485858Y-56708733D01*
X129554311Y-56606286D01*
X129601463Y-56492452D01*
X129620104Y-56398733D01*
X129625500Y-56371607D01*
X129625500Y-56248393D01*
X129625500Y-56246728D01*
X129625625Y-56243942D01*
X129636096Y-56213411D01*
X129645185Y-56182460D01*
X129647358Y-56180576D01*
X129648293Y-56177852D01*
X129673614Y-56157825D01*
X129697989Y-56136705D01*
X129701203Y-56136005D01*
X129703095Y-56134510D01*
X129712187Y-56133616D01*
X129749500Y-56125499D01*
X129813693Y-56125499D01*
X129813694Y-56125498D01*
X129871682Y-56113963D01*
X129987658Y-56090895D01*
X129987661Y-56090893D01*
X129987666Y-56090893D01*
X130151547Y-56023012D01*
X130299035Y-55924463D01*
X130355438Y-55868059D01*
X130367847Y-55860624D01*
X130375195Y-55851999D01*
X130397390Y-55842927D01*
X130407174Y-55837066D01*
X130412979Y-55835307D01*
X130457453Y-55826462D01*
X130493316Y-55811607D01*
X130571287Y-55779311D01*
X130634108Y-55737334D01*
X130673734Y-55710857D01*
X130752199Y-55632391D01*
X130755249Y-55629718D01*
X130783395Y-55616665D01*
X130810634Y-55601792D01*
X130814825Y-55602091D01*
X130818635Y-55600325D01*
X130849377Y-55604562D01*
X130880326Y-55606776D01*
X130883687Y-55609292D01*
X130887850Y-55609866D01*
X130911421Y-55630052D01*
X130936260Y-55648646D01*
X130939237Y-55653875D01*
X130940918Y-55655314D01*
X130941875Y-55658507D01*
X130949097Y-55671187D01*
X130949117Y-55671177D01*
X130949514Y-55671920D01*
X130951554Y-55675502D01*
X130951985Y-55676544D01*
X130951990Y-55676553D01*
X131050535Y-55824034D01*
X131050538Y-55824038D01*
X131175961Y-55949461D01*
X131175965Y-55949464D01*
X131323446Y-56048009D01*
X131323459Y-56048016D01*
X131400106Y-56079763D01*
X131487334Y-56115894D01*
X131524691Y-56123324D01*
X131586602Y-56155709D01*
X131621176Y-56216425D01*
X131624500Y-56244942D01*
X131624500Y-57685018D01*
X131604815Y-57752057D01*
X131552011Y-57797812D01*
X131513107Y-57808376D01*
X131497200Y-57810001D01*
X131330668Y-57865185D01*
X131330663Y-57865187D01*
X131181342Y-57957289D01*
X131057289Y-58081342D01*
X130965187Y-58230663D01*
X130965185Y-58230668D01*
X130954581Y-58262669D01*
X130910001Y-58397203D01*
X130910001Y-58397204D01*
X130910000Y-58397204D01*
X130899500Y-58499983D01*
X130899500Y-59500001D01*
X130899501Y-59500019D01*
X130910000Y-59602796D01*
X130910001Y-59602799D01*
X130965185Y-59769331D01*
X130965186Y-59769334D01*
X131057288Y-59918656D01*
X131181344Y-60042712D01*
X131330666Y-60134814D01*
X131497203Y-60189999D01*
X131599991Y-60200500D01*
X132400008Y-60200499D01*
X132400016Y-60200498D01*
X132400019Y-60200498D01*
X132456302Y-60194748D01*
X132502797Y-60189999D01*
X132669334Y-60134814D01*
X132818656Y-60042712D01*
X132912319Y-59949049D01*
X132973642Y-59915564D01*
X133043334Y-59920548D01*
X133087681Y-59949049D01*
X133181344Y-60042712D01*
X133262448Y-60092737D01*
X133309173Y-60144685D01*
X133320396Y-60213647D01*
X133308923Y-60249217D01*
X133309303Y-60249359D01*
X133255908Y-60392517D01*
X133250192Y-60445687D01*
X133249501Y-60452123D01*
X133249500Y-60452135D01*
X133249500Y-61797870D01*
X133249501Y-61797876D01*
X133255908Y-61857483D01*
X133306202Y-61992328D01*
X133306206Y-61992335D01*
X133392452Y-62107544D01*
X133392455Y-62107547D01*
X133507664Y-62193793D01*
X133507671Y-62193797D01*
X133642517Y-62244091D01*
X133642516Y-62244091D01*
X133649444Y-62244835D01*
X133702127Y-62250500D01*
X134797872Y-62250499D01*
X134857483Y-62244091D01*
X134992331Y-62193796D01*
X135107546Y-62107546D01*
X135193796Y-61992331D01*
X135244091Y-61857483D01*
X135250500Y-61797873D01*
X135250499Y-60452128D01*
X135244091Y-60392517D01*
X135226217Y-60344595D01*
X135193797Y-60257671D01*
X135193793Y-60257664D01*
X135107547Y-60142455D01*
X135097337Y-60134812D01*
X135041133Y-60092737D01*
X134991063Y-60055254D01*
X134949193Y-59999320D01*
X134944209Y-59929628D01*
X134959837Y-59890891D01*
X135000001Y-59825776D01*
X135034814Y-59769334D01*
X135089999Y-59602797D01*
X135100500Y-59500009D01*
X135100499Y-58524986D01*
X141075001Y-58524986D01*
X141085494Y-58627697D01*
X141140641Y-58794119D01*
X141140643Y-58794124D01*
X141232684Y-58943345D01*
X141356654Y-59067315D01*
X141505875Y-59159356D01*
X141505880Y-59159358D01*
X141672302Y-59214505D01*
X141672309Y-59214506D01*
X141775019Y-59224999D01*
X141912499Y-59224999D01*
X141912500Y-59224998D01*
X141912500Y-58250000D01*
X141075001Y-58250000D01*
X141075001Y-58524986D01*
X135100499Y-58524986D01*
X135100499Y-58499992D01*
X135089999Y-58397203D01*
X135034814Y-58230666D01*
X134942712Y-58081344D01*
X134818656Y-57957288D01*
X134702191Y-57885452D01*
X134669336Y-57865187D01*
X134669331Y-57865185D01*
X134632034Y-57852826D01*
X134502797Y-57810001D01*
X134502795Y-57810000D01*
X134400010Y-57799500D01*
X133599998Y-57799500D01*
X133599980Y-57799501D01*
X133497203Y-57810000D01*
X133497200Y-57810001D01*
X133330668Y-57865185D01*
X133330663Y-57865187D01*
X133181342Y-57957289D01*
X133087681Y-58050951D01*
X133079735Y-58055289D01*
X133074310Y-58062537D01*
X133049550Y-58071771D01*
X133026358Y-58084436D01*
X133017328Y-58083790D01*
X133008846Y-58086954D01*
X132983025Y-58081337D01*
X132956666Y-58079452D01*
X132947612Y-58073633D01*
X132940573Y-58072102D01*
X132912319Y-58050951D01*
X132911819Y-58050451D01*
X132878334Y-57989128D01*
X132875500Y-57962770D01*
X132875500Y-56301096D01*
X140750000Y-56301096D01*
X140752897Y-56343824D01*
X140798831Y-56528523D01*
X140883390Y-56699022D01*
X140883392Y-56699025D01*
X141002632Y-56847366D01*
X141002633Y-56847367D01*
X141156214Y-56970819D01*
X141154528Y-56972915D01*
X141192486Y-57016506D01*
X141202596Y-57085641D01*
X141185355Y-57133386D01*
X141140645Y-57205871D01*
X141140641Y-57205880D01*
X141085494Y-57372302D01*
X141085493Y-57372309D01*
X141075000Y-57475013D01*
X141075000Y-57750000D01*
X141912500Y-57750000D01*
X141912500Y-57230000D01*
X141874000Y-57230000D01*
X141806961Y-57210315D01*
X141761206Y-57157511D01*
X141750000Y-57106000D01*
X141750000Y-55850000D01*
X140750000Y-55850000D01*
X140750000Y-56301096D01*
X132875500Y-56301096D01*
X132875500Y-55800069D01*
X132875500Y-55688394D01*
X132874725Y-55684500D01*
X132854140Y-55581006D01*
X132851463Y-55567548D01*
X132805211Y-55455886D01*
X132804312Y-55453715D01*
X132768754Y-55400500D01*
X132735858Y-55351267D01*
X132735856Y-55351264D01*
X132686819Y-55302227D01*
X132653334Y-55240904D01*
X132650500Y-55214546D01*
X132650500Y-55161306D01*
X132650499Y-55161304D01*
X132615896Y-54987341D01*
X132615894Y-54987336D01*
X132615894Y-54987334D01*
X132579265Y-54898903D01*
X140750000Y-54898903D01*
X140750000Y-55350000D01*
X141750000Y-55350000D01*
X141750000Y-54100000D01*
X141548903Y-54100000D01*
X141506175Y-54102897D01*
X141321476Y-54148831D01*
X141150977Y-54233390D01*
X141150974Y-54233392D01*
X141002633Y-54352632D01*
X141002632Y-54352633D01*
X140883392Y-54500974D01*
X140883390Y-54500977D01*
X140798831Y-54671476D01*
X140752897Y-54856175D01*
X140750000Y-54898903D01*
X132579265Y-54898903D01*
X132548013Y-54823453D01*
X132548011Y-54823450D01*
X132548009Y-54823446D01*
X132449464Y-54675965D01*
X132449461Y-54675961D01*
X132324038Y-54550538D01*
X132324034Y-54550535D01*
X132176553Y-54451990D01*
X132176534Y-54451980D01*
X132175493Y-54451549D01*
X132175031Y-54451177D01*
X132171177Y-54449117D01*
X132171568Y-54448385D01*
X132121094Y-54407703D01*
X132099036Y-54341406D01*
X132116322Y-54273709D01*
X132135272Y-54249316D01*
X136898729Y-49485860D01*
X136898733Y-49485858D01*
X136985858Y-49398733D01*
X137020084Y-49347509D01*
X137054312Y-49296286D01*
X137087652Y-49215792D01*
X137101463Y-49182452D01*
X137118724Y-49095671D01*
X137125500Y-49061607D01*
X137125500Y-48938393D01*
X137125500Y-47244021D01*
X137145185Y-47176982D01*
X137176616Y-47143702D01*
X137188850Y-47134814D01*
X137216928Y-47114414D01*
X137339414Y-46991928D01*
X137399991Y-46908550D01*
X137455321Y-46865885D01*
X137524934Y-46859906D01*
X137586729Y-46892512D01*
X137600628Y-46908551D01*
X137660967Y-46991602D01*
X137783397Y-47114032D01*
X137923475Y-47215804D01*
X138077744Y-47294408D01*
X138242415Y-47347914D01*
X138242414Y-47347914D01*
X138249999Y-47349115D01*
X138250000Y-47349114D01*
X138250000Y-46280330D01*
X138269745Y-46300075D01*
X138355255Y-46349444D01*
X138450630Y-46375000D01*
X138549370Y-46375000D01*
X138644745Y-46349444D01*
X138730255Y-46300075D01*
X138750000Y-46280330D01*
X138750000Y-47349115D01*
G37*
%TD.AperFunction*%
%TA.AperFunction,Conductor*%
G36*
X149743365Y-64719403D02*
G01*
X149774559Y-64781923D01*
X149776500Y-64803780D01*
X149776500Y-67915085D01*
X149756815Y-67982124D01*
X149704011Y-68027879D01*
X149690915Y-68032227D01*
X149691129Y-68032872D01*
X149684704Y-68035000D01*
X149684703Y-68035001D01*
X149600703Y-68062835D01*
X149518168Y-68090185D01*
X149518159Y-68090189D01*
X149439096Y-68138956D01*
X149371704Y-68157396D01*
X149305040Y-68136473D01*
X149260271Y-68082831D01*
X149250000Y-68033417D01*
X149250000Y-64848999D01*
X149269685Y-64781960D01*
X149322489Y-64736205D01*
X149374000Y-64724999D01*
X149424972Y-64724999D01*
X149424986Y-64724998D01*
X149527695Y-64714506D01*
X149613495Y-64686074D01*
X149683323Y-64683672D01*
X149743365Y-64719403D01*
G37*
%TD.AperFunction*%
%TA.AperFunction,Conductor*%
G36*
X143312606Y-61645185D02*
G01*
X143345886Y-61676614D01*
X143446172Y-61814646D01*
X143585354Y-61953828D01*
X143744595Y-62069524D01*
X143819214Y-62107544D01*
X143919970Y-62158882D01*
X143919972Y-62158882D01*
X143919975Y-62158884D01*
X144020317Y-62191487D01*
X144107173Y-62219709D01*
X144301578Y-62250500D01*
X144301583Y-62250500D01*
X144498422Y-62250500D01*
X144692826Y-62219709D01*
X144880025Y-62158884D01*
X145055405Y-62069524D01*
X145214646Y-61953828D01*
X145353828Y-61814646D01*
X145454115Y-61676614D01*
X145509446Y-61633949D01*
X145554433Y-61625500D01*
X146052048Y-61625500D01*
X146081488Y-61634144D01*
X146111475Y-61640668D01*
X146116490Y-61644422D01*
X146119087Y-61645185D01*
X146139729Y-61661819D01*
X146300681Y-61822771D01*
X146334166Y-61884094D01*
X146337000Y-61910452D01*
X146337000Y-62251652D01*
X146317315Y-62318691D01*
X146278098Y-62357189D01*
X146206642Y-62401264D01*
X146156342Y-62432289D01*
X146032289Y-62556342D01*
X145940187Y-62705663D01*
X145940185Y-62705668D01*
X145929341Y-62738394D01*
X145885001Y-62872203D01*
X145885001Y-62872204D01*
X145885000Y-62872204D01*
X145874500Y-62974983D01*
X145874500Y-64025001D01*
X145874501Y-64025019D01*
X145885000Y-64127796D01*
X145885002Y-64127803D01*
X145904526Y-64186723D01*
X145907798Y-64252935D01*
X145905458Y-64263338D01*
X145898537Y-64280048D01*
X145874500Y-64400894D01*
X145874500Y-64400985D01*
X145874000Y-64403209D01*
X145857752Y-64432472D01*
X145842254Y-64462102D01*
X145840862Y-64462894D01*
X145840085Y-64464295D01*
X145810610Y-64480121D01*
X145781539Y-64496676D01*
X145779291Y-64496937D01*
X145778528Y-64497348D01*
X145776882Y-64497218D01*
X145753022Y-64500000D01*
X142250000Y-64500000D01*
X142250000Y-66816048D01*
X142230315Y-66883087D01*
X142177511Y-66928842D01*
X142108353Y-66938786D01*
X142044797Y-66909761D01*
X142038319Y-66903729D01*
X141661819Y-66527229D01*
X141628334Y-66465906D01*
X141625500Y-66439548D01*
X141625500Y-63110452D01*
X141645185Y-63043413D01*
X141661819Y-63022771D01*
X143022772Y-61661819D01*
X143049699Y-61647115D01*
X143075518Y-61630523D01*
X143081718Y-61629631D01*
X143084095Y-61628334D01*
X143110453Y-61625500D01*
X143245567Y-61625500D01*
X143312606Y-61645185D01*
G37*
%TD.AperFunction*%
%TA.AperFunction,Conductor*%
G36*
X148356587Y-61645185D02*
G01*
X148377229Y-61661819D01*
X148778729Y-62063319D01*
X148812214Y-62124642D01*
X148807230Y-62194334D01*
X148765358Y-62250267D01*
X148699894Y-62274684D01*
X148691051Y-62275000D01*
X148650030Y-62275000D01*
X148650012Y-62275001D01*
X148547302Y-62285494D01*
X148380880Y-62340641D01*
X148380875Y-62340643D01*
X148231654Y-62432684D01*
X148107683Y-62556655D01*
X148107679Y-62556660D01*
X148105826Y-62559665D01*
X148104018Y-62561290D01*
X148103202Y-62562323D01*
X148103025Y-62562183D01*
X148053874Y-62606385D01*
X147984911Y-62617601D01*
X147920831Y-62589752D01*
X147894753Y-62559653D01*
X147894737Y-62559628D01*
X147892712Y-62556344D01*
X147768656Y-62432288D01*
X147646902Y-62357190D01*
X147600179Y-62305243D01*
X147588000Y-62251652D01*
X147588000Y-61749500D01*
X147607685Y-61682461D01*
X147660489Y-61636706D01*
X147712000Y-61625500D01*
X148289548Y-61625500D01*
X148356587Y-61645185D01*
G37*
%TD.AperFunction*%
%TA.AperFunction,Conductor*%
G36*
X124043834Y-54543270D02*
G01*
X124099767Y-54585142D01*
X124124184Y-54650606D01*
X124124500Y-54659452D01*
X124124500Y-55475500D01*
X124104815Y-55542539D01*
X124052011Y-55588294D01*
X124000500Y-55599500D01*
X123936306Y-55599500D01*
X123762341Y-55634103D01*
X123762332Y-55634106D01*
X123598459Y-55701983D01*
X123598446Y-55701990D01*
X123450965Y-55800535D01*
X123450961Y-55800538D01*
X123325538Y-55925961D01*
X123325535Y-55925965D01*
X123226990Y-56073446D01*
X123226983Y-56073459D01*
X123159106Y-56237332D01*
X123159103Y-56237341D01*
X123124500Y-56411304D01*
X123124500Y-56510781D01*
X123115061Y-56558233D01*
X123082191Y-56637587D01*
X123082189Y-56637595D01*
X123057499Y-56761716D01*
X123057499Y-56894394D01*
X123057500Y-56894415D01*
X123057500Y-57070650D01*
X123037815Y-57137689D01*
X122985011Y-57183444D01*
X122915853Y-57193388D01*
X122886049Y-57185212D01*
X122819171Y-57157511D01*
X122762666Y-57134106D01*
X122762662Y-57134105D01*
X122762658Y-57134103D01*
X122588694Y-57099500D01*
X122588691Y-57099500D01*
X122411309Y-57099500D01*
X122411306Y-57099500D01*
X122237341Y-57134103D01*
X122237332Y-57134106D01*
X122073459Y-57201983D01*
X122073446Y-57201990D01*
X121925965Y-57300535D01*
X121925961Y-57300538D01*
X121800538Y-57425961D01*
X121800535Y-57425965D01*
X121701990Y-57573446D01*
X121701983Y-57573459D01*
X121634106Y-57737332D01*
X121634103Y-57737341D01*
X121599500Y-57911304D01*
X121599500Y-58046137D01*
X121595348Y-58077957D01*
X121593226Y-58085947D01*
X121582191Y-58112590D01*
X121570353Y-58172096D01*
X121569348Y-58175885D01*
X121553179Y-58202547D01*
X121538731Y-58230168D01*
X121535216Y-58232169D01*
X121533119Y-58235628D01*
X121505107Y-58249314D01*
X121478015Y-58264742D01*
X121473975Y-58264525D01*
X121470342Y-58266301D01*
X121439372Y-58262669D01*
X121408246Y-58261001D01*
X121404966Y-58258636D01*
X121400948Y-58258165D01*
X121376859Y-58238367D01*
X121351574Y-58220134D01*
X121350092Y-58216369D01*
X121346969Y-58213802D01*
X121337410Y-58184135D01*
X121325993Y-58155116D01*
X121325660Y-58147667D01*
X121325542Y-58147299D01*
X121325616Y-58146667D01*
X121325500Y-58144065D01*
X121325500Y-57210452D01*
X121345185Y-57143413D01*
X121361819Y-57122771D01*
X123912819Y-54571771D01*
X123974142Y-54538286D01*
X124043834Y-54543270D01*
G37*
%TD.AperFunction*%
%TA.AperFunction,Conductor*%
G36*
X116605203Y-51793541D02*
G01*
X116621627Y-51812158D01*
X116622022Y-51811835D01*
X116625888Y-51816546D01*
X117473266Y-52663923D01*
X117506751Y-52725246D01*
X117507202Y-52727413D01*
X117534103Y-52862658D01*
X117534106Y-52862667D01*
X117601983Y-53026540D01*
X117601990Y-53026553D01*
X117700535Y-53174034D01*
X117700538Y-53174038D01*
X117825961Y-53299461D01*
X117825965Y-53299464D01*
X117973446Y-53398009D01*
X117973459Y-53398016D01*
X118053084Y-53430997D01*
X118137334Y-53465894D01*
X118137336Y-53465894D01*
X118137341Y-53465896D01*
X118311304Y-53500499D01*
X118311307Y-53500500D01*
X118491226Y-53500500D01*
X118558265Y-53520185D01*
X118604020Y-53572989D01*
X118613964Y-53642147D01*
X118584939Y-53705703D01*
X118560117Y-53727602D01*
X118450965Y-53800535D01*
X118450961Y-53800538D01*
X118325538Y-53925961D01*
X118325535Y-53925965D01*
X118226990Y-54073446D01*
X118226983Y-54073459D01*
X118159106Y-54237332D01*
X118159103Y-54237341D01*
X118124500Y-54411304D01*
X118124500Y-54588695D01*
X118140971Y-54671501D01*
X118134744Y-54741093D01*
X118107035Y-54783373D01*
X116611681Y-56278728D01*
X116550358Y-56312213D01*
X116480666Y-56307229D01*
X116424733Y-56265357D01*
X116400316Y-56199893D01*
X116400000Y-56191047D01*
X116400000Y-51887254D01*
X116419685Y-51820215D01*
X116472489Y-51774460D01*
X116541647Y-51764516D01*
X116605203Y-51793541D01*
G37*
%TD.AperFunction*%
%TA.AperFunction,Conductor*%
G36*
X159516551Y-47060794D02*
G01*
X159516705Y-47059626D01*
X159524763Y-47060686D01*
X159524764Y-47060687D01*
X159637280Y-47075500D01*
X159697285Y-47075500D01*
X159764324Y-47095185D01*
X159784966Y-47111819D01*
X159995887Y-47322740D01*
X159995931Y-47322783D01*
X160000715Y-47327567D01*
X160000717Y-47327570D01*
X160090210Y-47417063D01*
X160096947Y-47421564D01*
X160105181Y-47429616D01*
X160116865Y-47450456D01*
X160132186Y-47468792D01*
X160133640Y-47480375D01*
X160139350Y-47490560D01*
X160137912Y-47514409D01*
X160140888Y-47538118D01*
X160135466Y-47557213D01*
X160135875Y-47557338D01*
X160135187Y-47559606D01*
X160135145Y-47560303D01*
X160134855Y-47560698D01*
X160134104Y-47563173D01*
X160099500Y-47737141D01*
X160099500Y-47914532D01*
X160134103Y-48088495D01*
X160134106Y-48088504D01*
X160201983Y-48252377D01*
X160201990Y-48252390D01*
X160300535Y-48399871D01*
X160300538Y-48399875D01*
X160425961Y-48525298D01*
X160425965Y-48525301D01*
X160573446Y-48623846D01*
X160573459Y-48623853D01*
X160696363Y-48674760D01*
X160737334Y-48691731D01*
X160737336Y-48691731D01*
X160737341Y-48691733D01*
X160911304Y-48726336D01*
X160911307Y-48726337D01*
X160911309Y-48726337D01*
X161088693Y-48726337D01*
X161088694Y-48726336D01*
X161146682Y-48714801D01*
X161262658Y-48691733D01*
X161262661Y-48691731D01*
X161262666Y-48691731D01*
X161426547Y-48623850D01*
X161431107Y-48620802D01*
X161497783Y-48599923D01*
X161565163Y-48618406D01*
X161568867Y-48620785D01*
X161573453Y-48623850D01*
X161573455Y-48623851D01*
X161573457Y-48623852D01*
X161682707Y-48669104D01*
X161737334Y-48691731D01*
X161737336Y-48691731D01*
X161737341Y-48691733D01*
X161911304Y-48726336D01*
X161911307Y-48726337D01*
X161911309Y-48726337D01*
X162088693Y-48726337D01*
X162088694Y-48726336D01*
X162146682Y-48714801D01*
X162262658Y-48691733D01*
X162262661Y-48691731D01*
X162262666Y-48691731D01*
X162420340Y-48626421D01*
X162426540Y-48623853D01*
X162426540Y-48623852D01*
X162426547Y-48623850D01*
X162574035Y-48525301D01*
X162699464Y-48399872D01*
X162798013Y-48252384D01*
X162865894Y-48088503D01*
X162883717Y-47998904D01*
X162888964Y-47972519D01*
X162900500Y-47914528D01*
X162900500Y-47737146D01*
X162900500Y-47737143D01*
X162900499Y-47737141D01*
X162868001Y-47573761D01*
X162874228Y-47504170D01*
X162917091Y-47448992D01*
X162982981Y-47425748D01*
X163050978Y-47441816D01*
X163077299Y-47461889D01*
X163338181Y-47722771D01*
X163371666Y-47784094D01*
X163374500Y-47810452D01*
X163374500Y-50136455D01*
X163354815Y-50203494D01*
X163302011Y-50249249D01*
X163232853Y-50259193D01*
X163169297Y-50230168D01*
X163132794Y-50175459D01*
X163117661Y-50129792D01*
X163084814Y-50030666D01*
X162992712Y-49881344D01*
X162868656Y-49757288D01*
X162719334Y-49665186D01*
X162552797Y-49610001D01*
X162552795Y-49610000D01*
X162450016Y-49599500D01*
X162450009Y-49599500D01*
X160806163Y-49599500D01*
X160739124Y-49579815D01*
X160718482Y-49563181D01*
X159311819Y-48156518D01*
X159278334Y-48095195D01*
X159275500Y-48068837D01*
X159275500Y-47195727D01*
X159295185Y-47128688D01*
X159347989Y-47082933D01*
X159383311Y-47072789D01*
X159475236Y-47060687D01*
X159475236Y-47060686D01*
X159483295Y-47059626D01*
X159483698Y-47062689D01*
X159483903Y-47062689D01*
X159497197Y-47058457D01*
X159516551Y-47060794D01*
G37*
%TD.AperFunction*%
%TA.AperFunction,Conductor*%
G36*
X164393039Y-46019685D02*
G01*
X164438794Y-46072489D01*
X164450000Y-46124000D01*
X164450000Y-46766048D01*
X164430315Y-46833087D01*
X164377511Y-46878842D01*
X164308353Y-46888786D01*
X164244797Y-46859761D01*
X164238319Y-46853729D01*
X164185193Y-46800603D01*
X164151708Y-46739280D01*
X164153797Y-46678328D01*
X164197598Y-46527569D01*
X164200500Y-46490694D01*
X164200500Y-46124000D01*
X164203050Y-46115314D01*
X164201762Y-46106353D01*
X164212740Y-46082312D01*
X164220185Y-46056961D01*
X164227025Y-46051033D01*
X164230787Y-46042797D01*
X164253021Y-46028507D01*
X164272989Y-46011206D01*
X164283503Y-46008918D01*
X164289565Y-46005023D01*
X164324500Y-46000000D01*
X164326000Y-46000000D01*
X164393039Y-46019685D01*
G37*
%TD.AperFunction*%
%TD*%
M02*
