%TF.GenerationSoftware,KiCad,Pcbnew,9.0.2*%
%TF.CreationDate,2025-06-11T21:50:26+08:00*%
%TF.ProjectId,imu,696d752e-6b69-4636-9164-5f7063625858,rev?*%
%TF.SameCoordinates,Original*%
%TF.FileFunction,Paste,Top*%
%TF.FilePolarity,Positive*%
%FSLAX46Y46*%
G04 Gerber Fmt 4.6, Leading zero omitted, Abs format (unit mm)*
G04 Created by KiCad (PCBNEW 9.0.2) date 2025-06-11 21:50:26*
%MOMM*%
%LPD*%
G01*
G04 APERTURE LIST*
G04 Aperture macros list*
%AMRoundRect*
0 Rectangle with rounded corners*
0 $1 Rounding radius*
0 $2 $3 $4 $5 $6 $7 $8 $9 X,Y pos of 4 corners*
0 Add a 4 corners polygon primitive as box body*
4,1,4,$2,$3,$4,$5,$6,$7,$8,$9,$2,$3,0*
0 Add four circle primitives for the rounded corners*
1,1,$1+$1,$2,$3*
1,1,$1+$1,$4,$5*
1,1,$1+$1,$6,$7*
1,1,$1+$1,$8,$9*
0 Add four rect primitives between the rounded corners*
20,1,$1+$1,$2,$3,$4,$5,0*
20,1,$1+$1,$4,$5,$6,$7,0*
20,1,$1+$1,$6,$7,$8,$9,0*
20,1,$1+$1,$8,$9,$2,$3,0*%
G04 Aperture macros list end*
%ADD10RoundRect,0.250000X0.337500X0.475000X-0.337500X0.475000X-0.337500X-0.475000X0.337500X-0.475000X0*%
%ADD11RoundRect,0.250000X-0.450000X0.350000X-0.450000X-0.350000X0.450000X-0.350000X0.450000X0.350000X0*%
%ADD12R,0.375000X0.350000*%
%ADD13R,0.350000X0.375000*%
%ADD14RoundRect,0.250000X0.475000X-0.337500X0.475000X0.337500X-0.475000X0.337500X-0.475000X-0.337500X0*%
%ADD15RoundRect,0.087500X-0.087500X0.225000X-0.087500X-0.225000X0.087500X-0.225000X0.087500X0.225000X0*%
%ADD16RoundRect,0.087500X-0.225000X0.087500X-0.225000X-0.087500X0.225000X-0.087500X0.225000X0.087500X0*%
%ADD17RoundRect,0.250000X-0.900000X1.000000X-0.900000X-1.000000X0.900000X-1.000000X0.900000X1.000000X0*%
%ADD18RoundRect,0.250000X0.275000X0.350000X-0.275000X0.350000X-0.275000X-0.350000X0.275000X-0.350000X0*%
%ADD19RoundRect,0.250000X-0.450000X0.325000X-0.450000X-0.325000X0.450000X-0.325000X0.450000X0.325000X0*%
%ADD20RoundRect,0.250000X-0.475000X0.337500X-0.475000X-0.337500X0.475000X-0.337500X0.475000X0.337500X0*%
%ADD21RoundRect,0.250000X-0.337500X-0.475000X0.337500X-0.475000X0.337500X0.475000X-0.337500X0.475000X0*%
%ADD22RoundRect,0.250000X-0.300000X-0.300000X0.300000X-0.300000X0.300000X0.300000X-0.300000X0.300000X0*%
%ADD23RoundRect,0.375000X0.375000X-0.625000X0.375000X0.625000X-0.375000X0.625000X-0.375000X-0.625000X0*%
%ADD24RoundRect,0.500000X1.400000X-0.500000X1.400000X0.500000X-1.400000X0.500000X-1.400000X-0.500000X0*%
%ADD25RoundRect,0.250000X0.450000X-0.350000X0.450000X0.350000X-0.450000X0.350000X-0.450000X-0.350000X0*%
G04 APERTURE END LIST*
D10*
%TO.C,C7*%
X75438000Y-23622000D03*
X73363000Y-23622000D03*
%TD*%
D11*
%TO.C,R1*%
X67564000Y-40910000D03*
X67564000Y-42910000D03*
%TD*%
%TO.C,R2*%
X87122000Y-34814000D03*
X87122000Y-36814000D03*
%TD*%
D10*
%TO.C,C5*%
X68623000Y-30226000D03*
X66548000Y-30226000D03*
%TD*%
D12*
%TO.C,U2*%
X75438000Y-40894000D03*
X75438000Y-40394000D03*
X75438000Y-39894000D03*
X75438000Y-39394000D03*
D13*
X74925500Y-39381500D03*
X74425500Y-39381500D03*
D12*
X73913000Y-39394000D03*
X73913000Y-39894000D03*
X73913000Y-40394000D03*
X73913000Y-40894000D03*
D13*
X74425500Y-40906500D03*
X74925500Y-40906500D03*
%TD*%
D14*
%TO.C,C1*%
X71628000Y-32025500D03*
X71628000Y-29950500D03*
%TD*%
D15*
%TO.C,U1*%
X79593500Y-29309500D03*
X79093500Y-29309500D03*
X78593500Y-29309500D03*
X78093500Y-29309500D03*
D16*
X77931000Y-29972000D03*
X77931000Y-30472000D03*
X77931000Y-30972000D03*
D15*
X78093500Y-31634500D03*
X78593500Y-31634500D03*
X79093500Y-31634500D03*
X79593500Y-31634500D03*
D16*
X79756000Y-30972000D03*
X79756000Y-30472000D03*
X79756000Y-29972000D03*
%TD*%
D17*
%TO.C,D2*%
X85852000Y-21726000D03*
X85852000Y-26026000D03*
%TD*%
D18*
%TO.C,FB1*%
X75706000Y-21590000D03*
X73406000Y-21590000D03*
%TD*%
D19*
%TO.C,D3*%
X65366000Y-40908000D03*
X65366000Y-42958000D03*
%TD*%
D20*
%TO.C,C2*%
X73914000Y-29972000D03*
X73914000Y-32047000D03*
%TD*%
D21*
%TO.C,C3*%
X73130500Y-37846000D03*
X75205500Y-37846000D03*
%TD*%
D20*
%TO.C,C6*%
X77724000Y-21822500D03*
X77724000Y-23897500D03*
%TD*%
D22*
%TO.C,D1*%
X79880000Y-21844000D03*
X82680000Y-21844000D03*
%TD*%
D23*
%TO.C,U3*%
X66520000Y-27432000D03*
X68820000Y-27432000D03*
D24*
X68820000Y-21132000D03*
D23*
X71120000Y-27432000D03*
%TD*%
D21*
%TO.C,C4*%
X73363000Y-25654000D03*
X75438000Y-25654000D03*
%TD*%
D25*
%TO.C,R3*%
X87122000Y-32512000D03*
X87122000Y-30512000D03*
%TD*%
M02*
