%TF.GenerationSoftware,KiCad,Pcbnew,6.0.2+dfsg-1*%
%TF.CreationDate,2025-01-26T18:46:54+08:00*%
%TF.ProjectId,LSM6DSL,4c534d36-4453-44c2-9e6b-696361645f70,rev?*%
%TF.SameCoordinates,Original*%
%TF.FileFunction,Copper,L1,Top*%
%TF.FilePolarity,Positive*%
%FSLAX46Y46*%
G04 Gerber Fmt 4.6, Leading zero omitted, Abs format (unit mm)*
G04 Created by KiCad (PCBNEW 6.0.2+dfsg-1) date 2025-01-26 18:46:54*
%MOMM*%
%LPD*%
G01*
G04 APERTURE LIST*
G04 Aperture macros list*
%AMRoundRect*
0 Rectangle with rounded corners*
0 $1 Rounding radius*
0 $2 $3 $4 $5 $6 $7 $8 $9 X,Y pos of 4 corners*
0 Add a 4 corners polygon primitive as box body*
4,1,4,$2,$3,$4,$5,$6,$7,$8,$9,$2,$3,0*
0 Add four circle primitives for the rounded corners*
1,1,$1+$1,$2,$3*
1,1,$1+$1,$4,$5*
1,1,$1+$1,$6,$7*
1,1,$1+$1,$8,$9*
0 Add four rect primitives between the rounded corners*
20,1,$1+$1,$2,$3,$4,$5,0*
20,1,$1+$1,$4,$5,$6,$7,0*
20,1,$1+$1,$6,$7,$8,$9,0*
20,1,$1+$1,$8,$9,$2,$3,0*%
%AMFreePoly0*
4,1,48,0.036020,0.199191,0.037970,0.199714,0.040958,0.198321,0.057086,0.195477,0.069630,0.184951,0.084467,0.178033,0.290533,-0.028033,0.293203,-0.031847,0.294953,-0.032857,0.296081,-0.035957,0.305473,-0.049370,0.306900,-0.065680,0.312500,-0.081066,0.312500,-0.125000,0.310782,-0.134742,0.311361,-0.138024,0.309695,-0.140910,0.307977,-0.150652,0.295451,-0.165579,0.285709,-0.182453,
0.279350,-0.184767,0.275000,-0.189952,0.255809,-0.193336,0.237500,-0.200000,-0.237500,-0.200000,-0.247242,-0.198282,-0.250524,-0.198861,-0.253410,-0.197195,-0.263152,-0.195477,-0.278079,-0.182951,-0.294953,-0.173209,-0.297267,-0.166850,-0.302452,-0.162500,-0.305836,-0.143309,-0.312500,-0.125000,-0.312500,0.125000,-0.310782,0.134742,-0.311361,0.138024,-0.309695,0.140910,-0.307977,0.150652,
-0.295451,0.165579,-0.285709,0.182453,-0.279350,0.184767,-0.275000,0.189952,-0.255809,0.193336,-0.237500,0.200000,0.031434,0.200000,0.036020,0.199191,0.036020,0.199191,$1*%
%AMFreePoly1*
4,1,48,0.247242,0.198282,0.250524,0.198861,0.253410,0.197195,0.263152,0.195477,0.278079,0.182951,0.294953,0.173209,0.297267,0.166850,0.302452,0.162500,0.305836,0.143309,0.312500,0.125000,0.312500,0.081066,0.311691,0.076480,0.312214,0.074529,0.310820,0.071540,0.307977,0.055414,0.297452,0.042871,0.290533,0.028033,0.084467,-0.178033,0.080653,-0.180703,0.079643,-0.182453,
0.076543,-0.183581,0.063130,-0.192973,0.046819,-0.194400,0.031434,-0.200000,-0.237500,-0.200000,-0.247242,-0.198282,-0.250524,-0.198861,-0.253410,-0.197195,-0.263152,-0.195477,-0.278079,-0.182951,-0.294953,-0.173209,-0.297267,-0.166850,-0.302452,-0.162500,-0.305836,-0.143309,-0.312500,-0.125000,-0.312500,0.125000,-0.310782,0.134742,-0.311361,0.138024,-0.309695,0.140910,-0.307977,0.150652,
-0.295451,0.165579,-0.285709,0.182453,-0.279350,0.184767,-0.275000,0.189952,-0.255809,0.193336,-0.237500,0.200000,0.237500,0.200000,0.247242,0.198282,0.247242,0.198282,$1*%
%AMFreePoly2*
4,1,48,0.134742,0.310782,0.138024,0.311361,0.140910,0.309695,0.150652,0.307977,0.165579,0.295451,0.182453,0.285709,0.184767,0.279350,0.189952,0.275000,0.193336,0.255809,0.200000,0.237500,0.200000,-0.237500,0.198282,-0.247242,0.198861,-0.250524,0.197195,-0.253410,0.195477,-0.263152,0.182951,-0.278079,0.173209,-0.294953,0.166850,-0.297267,0.162500,-0.302452,0.143309,-0.305836,
0.125000,-0.312500,-0.125000,-0.312500,-0.134742,-0.310782,-0.138024,-0.311361,-0.140910,-0.309695,-0.150652,-0.307977,-0.165579,-0.295451,-0.182453,-0.285709,-0.184767,-0.279350,-0.189952,-0.275000,-0.193336,-0.255809,-0.200000,-0.237500,-0.200000,0.031434,-0.199191,0.036020,-0.199714,0.037970,-0.198321,0.040958,-0.195477,0.057086,-0.184951,0.069630,-0.178033,0.084467,0.028033,0.290533,
0.031847,0.293203,0.032857,0.294953,0.035957,0.296081,0.049370,0.305473,0.065680,0.306900,0.081066,0.312500,0.125000,0.312500,0.134742,0.310782,0.134742,0.310782,$1*%
%AMFreePoly3*
4,1,48,-0.076480,0.311691,-0.074530,0.312214,-0.071542,0.310821,-0.055414,0.307977,-0.042870,0.297451,-0.028033,0.290533,0.178033,0.084467,0.180703,0.080653,0.182453,0.079643,0.183581,0.076543,0.192973,0.063130,0.194400,0.046820,0.200000,0.031434,0.200000,-0.237500,0.198282,-0.247242,0.198861,-0.250524,0.197195,-0.253410,0.195477,-0.263152,0.182951,-0.278079,0.173209,-0.294953,
0.166850,-0.297267,0.162500,-0.302452,0.143309,-0.305836,0.125000,-0.312500,-0.125000,-0.312500,-0.134742,-0.310782,-0.138024,-0.311361,-0.140910,-0.309695,-0.150652,-0.307977,-0.165579,-0.295451,-0.182453,-0.285709,-0.184767,-0.279350,-0.189952,-0.275000,-0.193336,-0.255809,-0.200000,-0.237500,-0.200000,0.237500,-0.198282,0.247242,-0.198861,0.250524,-0.197195,0.253410,-0.195477,0.263152,
-0.182951,0.278079,-0.173209,0.294953,-0.166850,0.297267,-0.162500,0.302452,-0.143309,0.305836,-0.125000,0.312500,-0.081066,0.312500,-0.076480,0.311691,-0.076480,0.311691,$1*%
%AMFreePoly4*
4,1,48,0.247242,0.198282,0.250524,0.198861,0.253410,0.197195,0.263152,0.195477,0.278079,0.182951,0.294953,0.173209,0.297267,0.166850,0.302452,0.162500,0.305836,0.143309,0.312500,0.125000,0.312500,-0.125000,0.310782,-0.134742,0.311361,-0.138024,0.309695,-0.140910,0.307977,-0.150652,0.295451,-0.165579,0.285709,-0.182453,0.279350,-0.184767,0.275000,-0.189952,0.255809,-0.193336,
0.237500,-0.200000,-0.031434,-0.200000,-0.036020,-0.199191,-0.037971,-0.199714,-0.040960,-0.198320,-0.057086,-0.195477,-0.069629,-0.184952,-0.084467,-0.178033,-0.290533,0.028033,-0.293203,0.031847,-0.294953,0.032857,-0.296081,0.035957,-0.305473,0.049370,-0.306900,0.065681,-0.312500,0.081066,-0.312500,0.125000,-0.310782,0.134742,-0.311361,0.138024,-0.309695,0.140910,-0.307977,0.150652,
-0.295451,0.165579,-0.285709,0.182453,-0.279350,0.184767,-0.275000,0.189952,-0.255809,0.193336,-0.237500,0.200000,0.237500,0.200000,0.247242,0.198282,0.247242,0.198282,$1*%
%AMFreePoly5*
4,1,48,0.247242,0.198282,0.250524,0.198861,0.253410,0.197195,0.263152,0.195477,0.278079,0.182951,0.294953,0.173209,0.297267,0.166850,0.302452,0.162500,0.305836,0.143309,0.312500,0.125000,0.312500,-0.125000,0.310782,-0.134742,0.311361,-0.138024,0.309695,-0.140910,0.307977,-0.150652,0.295451,-0.165579,0.285709,-0.182453,0.279350,-0.184767,0.275000,-0.189952,0.255809,-0.193336,
0.237500,-0.200000,-0.237500,-0.200000,-0.247242,-0.198282,-0.250524,-0.198861,-0.253410,-0.197195,-0.263152,-0.195477,-0.278079,-0.182951,-0.294953,-0.173209,-0.297267,-0.166850,-0.302452,-0.162500,-0.305836,-0.143309,-0.312500,-0.125000,-0.312500,-0.081066,-0.311691,-0.076480,-0.312214,-0.074530,-0.310821,-0.071542,-0.307977,-0.055414,-0.297451,-0.042870,-0.290533,-0.028033,-0.084467,0.178033,
-0.080653,0.180703,-0.079643,0.182453,-0.076543,0.183581,-0.063130,0.192973,-0.046820,0.194400,-0.031434,0.200000,0.237500,0.200000,0.247242,0.198282,0.247242,0.198282,$1*%
%AMFreePoly6*
4,1,48,0.134742,0.310782,0.138024,0.311361,0.140910,0.309695,0.150652,0.307977,0.165579,0.295451,0.182453,0.285709,0.184767,0.279350,0.189952,0.275000,0.193336,0.255809,0.200000,0.237500,0.200000,-0.031434,0.199191,-0.036020,0.199714,-0.037971,0.198320,-0.040960,0.195477,-0.057086,0.184952,-0.069629,0.178033,-0.084467,-0.028033,-0.290533,-0.031847,-0.293203,-0.032857,-0.294953,
-0.035957,-0.296081,-0.049370,-0.305473,-0.065681,-0.306900,-0.081066,-0.312500,-0.125000,-0.312500,-0.134742,-0.310782,-0.138024,-0.311361,-0.140910,-0.309695,-0.150652,-0.307977,-0.165579,-0.295451,-0.182453,-0.285709,-0.184767,-0.279350,-0.189952,-0.275000,-0.193336,-0.255809,-0.200000,-0.237500,-0.200000,0.237500,-0.198282,0.247242,-0.198861,0.250524,-0.197195,0.253410,-0.195477,0.263152,
-0.182951,0.278079,-0.173209,0.294953,-0.166850,0.297267,-0.162500,0.302452,-0.143309,0.305836,-0.125000,0.312500,0.125000,0.312500,0.134742,0.310782,0.134742,0.310782,$1*%
%AMFreePoly7*
4,1,48,0.134742,0.310782,0.138024,0.311361,0.140910,0.309695,0.150652,0.307977,0.165579,0.295451,0.182453,0.285709,0.184767,0.279350,0.189952,0.275000,0.193336,0.255809,0.200000,0.237500,0.200000,-0.237500,0.198282,-0.247242,0.198861,-0.250524,0.197195,-0.253410,0.195477,-0.263152,0.182951,-0.278079,0.173209,-0.294953,0.166850,-0.297267,0.162500,-0.302452,0.143309,-0.305836,
0.125000,-0.312500,0.081066,-0.312500,0.076480,-0.311691,0.074529,-0.312214,0.071540,-0.310820,0.055414,-0.307977,0.042871,-0.297452,0.028033,-0.290533,-0.178033,-0.084467,-0.180703,-0.080653,-0.182453,-0.079643,-0.183581,-0.076543,-0.192973,-0.063130,-0.194400,-0.046819,-0.200000,-0.031434,-0.200000,0.237500,-0.198282,0.247242,-0.198861,0.250524,-0.197195,0.253410,-0.195477,0.263152,
-0.182951,0.278079,-0.173209,0.294953,-0.166850,0.297267,-0.162500,0.302452,-0.143309,0.305836,-0.125000,0.312500,0.125000,0.312500,0.134742,0.310782,0.134742,0.310782,$1*%
G04 Aperture macros list end*
%TA.AperFunction,SMDPad,CuDef*%
%ADD10RoundRect,0.135000X0.185000X-0.135000X0.185000X0.135000X-0.185000X0.135000X-0.185000X-0.135000X0*%
%TD*%
%TA.AperFunction,SMDPad,CuDef*%
%ADD11RoundRect,0.140000X-0.140000X-0.170000X0.140000X-0.170000X0.140000X0.170000X-0.140000X0.170000X0*%
%TD*%
%TA.AperFunction,SMDPad,CuDef*%
%ADD12FreePoly0,270.000000*%
%TD*%
%TA.AperFunction,SMDPad,CuDef*%
%ADD13RoundRect,0.100000X-0.100000X0.212500X-0.100000X-0.212500X0.100000X-0.212500X0.100000X0.212500X0*%
%TD*%
%TA.AperFunction,SMDPad,CuDef*%
%ADD14FreePoly1,270.000000*%
%TD*%
%TA.AperFunction,SMDPad,CuDef*%
%ADD15FreePoly2,270.000000*%
%TD*%
%TA.AperFunction,SMDPad,CuDef*%
%ADD16RoundRect,0.100000X-0.212500X0.100000X-0.212500X-0.100000X0.212500X-0.100000X0.212500X0.100000X0*%
%TD*%
%TA.AperFunction,SMDPad,CuDef*%
%ADD17FreePoly3,270.000000*%
%TD*%
%TA.AperFunction,SMDPad,CuDef*%
%ADD18FreePoly4,270.000000*%
%TD*%
%TA.AperFunction,SMDPad,CuDef*%
%ADD19FreePoly5,270.000000*%
%TD*%
%TA.AperFunction,SMDPad,CuDef*%
%ADD20FreePoly6,270.000000*%
%TD*%
%TA.AperFunction,SMDPad,CuDef*%
%ADD21FreePoly7,270.000000*%
%TD*%
%TA.AperFunction,SMDPad,CuDef*%
%ADD22RoundRect,0.140000X0.140000X0.170000X-0.140000X0.170000X-0.140000X-0.170000X0.140000X-0.170000X0*%
%TD*%
%TA.AperFunction,ComponentPad*%
%ADD23R,0.850000X0.850000*%
%TD*%
%TA.AperFunction,ComponentPad*%
%ADD24O,0.850000X0.850000*%
%TD*%
%TA.AperFunction,ViaPad*%
%ADD25C,0.800000*%
%TD*%
%TA.AperFunction,ViaPad*%
%ADD26C,0.600000*%
%TD*%
%TA.AperFunction,Conductor*%
%ADD27C,0.250000*%
%TD*%
%TA.AperFunction,Conductor*%
%ADD28C,0.200000*%
%TD*%
%TA.AperFunction,Conductor*%
%ADD29C,0.125000*%
%TD*%
G04 APERTURE END LIST*
D10*
%TO.P,R2,1*%
%TO.N,VDD*%
X28448000Y-29466000D03*
%TO.P,R2,2*%
%TO.N,SCL*%
X28448000Y-28446000D03*
%TD*%
D11*
%TO.P,C2,1*%
%TO.N,GND*%
X25936000Y-28702000D03*
%TO.P,C2,2*%
%TO.N,VDD*%
X26896000Y-28702000D03*
%TD*%
D10*
%TO.P,R1,1*%
%TO.N,VDD*%
X29464000Y-29466000D03*
%TO.P,R1,2*%
%TO.N,SDA*%
X29464000Y-28446000D03*
%TD*%
D12*
%TO.P,U1,1,SDO/SA0*%
%TO.N,unconnected-(U1-Pad1)*%
X28436000Y-23475500D03*
D13*
%TO.P,U1,2,SDx*%
%TO.N,GND*%
X27936000Y-23475500D03*
%TO.P,U1,3,SCx*%
X27436000Y-23475500D03*
D14*
%TO.P,U1,4,INT1*%
%TO.N,INT1*%
X26936000Y-23475500D03*
D15*
%TO.P,U1,5,VDDIO*%
%TO.N,VDD*%
X26773500Y-24138000D03*
D16*
%TO.P,U1,6,GND*%
%TO.N,GND*%
X26773500Y-24638000D03*
D17*
%TO.P,U1,7,GND*%
X26773500Y-25138000D03*
D18*
%TO.P,U1,8,VDD*%
%TO.N,VDD*%
X26936000Y-25800500D03*
D13*
%TO.P,U1,9,INT2*%
%TO.N,INT2*%
X27436000Y-25800500D03*
%TO.P,U1,10,NC*%
%TO.N,unconnected-(U1-Pad10)*%
X27936000Y-25800500D03*
D19*
%TO.P,U1,11,NC*%
%TO.N,unconnected-(U1-Pad11)*%
X28436000Y-25800500D03*
D20*
%TO.P,U1,12,CS*%
%TO.N,CS*%
X28598500Y-25138000D03*
D16*
%TO.P,U1,13,SCL*%
%TO.N,SCL*%
X28598500Y-24638000D03*
D21*
%TO.P,U1,14,SDA*%
%TO.N,SDA*%
X28598500Y-24138000D03*
%TD*%
D22*
%TO.P,C1,1*%
%TO.N,VDD*%
X26896000Y-27686000D03*
%TO.P,C1,2*%
%TO.N,GND*%
X25936000Y-27686000D03*
%TD*%
D23*
%TO.P,J1,1,SDA*%
%TO.N,SDA*%
X31496000Y-23368000D03*
D24*
%TO.P,J1,2,SCL*%
%TO.N,SCL*%
X31496000Y-24368000D03*
%TO.P,J1,3,CS*%
%TO.N,CS*%
X31496000Y-25368000D03*
%TO.P,J1,4,INT1*%
%TO.N,INT1*%
X31496000Y-26368000D03*
%TO.P,J1,5,INT2*%
%TO.N,INT2*%
X31496000Y-27368000D03*
%TO.P,J1,6,GND*%
%TO.N,GND*%
X31496000Y-28368000D03*
%TO.P,J1,7,VCC*%
%TO.N,VDD*%
X31496000Y-29368000D03*
%TD*%
D25*
%TO.N,VDD*%
X26924000Y-26670000D03*
X25908000Y-24130000D03*
%TO.N,GND*%
X25908000Y-25146000D03*
X27432000Y-22606000D03*
X25908000Y-26670000D03*
D26*
%TO.N,SCL*%
X29464000Y-24384000D03*
X28448000Y-27676500D03*
%TO.N,SDA*%
X29464000Y-27676500D03*
X29972000Y-23622000D03*
%TD*%
D27*
%TO.N,VDD*%
X30476000Y-29466000D02*
X30478000Y-29464000D01*
X28360500Y-29553500D02*
X28448000Y-29466000D01*
X26896000Y-27686000D02*
X26896000Y-26698000D01*
X27660000Y-29466000D02*
X29464000Y-29466000D01*
X30478000Y-29464000D02*
X31400000Y-29464000D01*
X26896000Y-27686000D02*
X26896000Y-28702000D01*
X26936000Y-25800500D02*
X26936000Y-26658000D01*
X26896000Y-28702000D02*
X27660000Y-29466000D01*
X26896000Y-26698000D02*
X26924000Y-26670000D01*
X26896000Y-28702000D02*
X26908520Y-28689480D01*
X31400000Y-29464000D02*
X31496000Y-29368000D01*
X25924520Y-24113480D02*
X26736841Y-24113480D01*
X25908000Y-24130000D02*
X25924520Y-24113480D01*
X26952000Y-28730000D02*
X26924000Y-28702000D01*
X26924000Y-27686000D02*
X26904500Y-27686000D01*
X29464000Y-29466000D02*
X30476000Y-29466000D01*
D28*
X26936000Y-26658000D02*
X26924000Y-26670000D01*
D27*
%TO.N,GND*%
X27432000Y-22606000D02*
X27911480Y-23085480D01*
X25916000Y-25138000D02*
X25908000Y-25146000D01*
X27911480Y-23085480D02*
X27911480Y-23475500D01*
X25908000Y-25146000D02*
X26391480Y-24662520D01*
X26773500Y-25138000D02*
X25916000Y-25138000D01*
X26391480Y-24662520D02*
X26773500Y-24662520D01*
X27460520Y-22634520D02*
X27460520Y-23475500D01*
X27432000Y-22606000D02*
X27460520Y-22634520D01*
X25964000Y-27679070D02*
X25964000Y-27686000D01*
D28*
X25936000Y-26698000D02*
X25908000Y-26670000D01*
X25936000Y-27686000D02*
X25936000Y-26698000D01*
D27*
X25964000Y-28702000D02*
X25964000Y-27686000D01*
D29*
%TO.N,CS*%
X28606500Y-25146000D02*
X31274000Y-25146000D01*
D28*
X28598500Y-25138000D02*
X28606500Y-25146000D01*
X31274000Y-25146000D02*
X31496000Y-25368000D01*
D29*
%TO.N,SCL*%
X29464000Y-24384000D02*
X29210000Y-24638000D01*
X29480000Y-24368000D02*
X31496000Y-24368000D01*
D28*
X29464000Y-24384000D02*
X29480000Y-24368000D01*
D29*
X28448000Y-27676500D02*
X28448000Y-28446000D01*
X29210000Y-24638000D02*
X28598500Y-24638000D01*
%TO.N,SDA*%
X31242000Y-23622000D02*
X31496000Y-23368000D01*
X29089980Y-23622000D02*
X28598500Y-24113480D01*
X29972000Y-23622000D02*
X29089980Y-23622000D01*
X29464000Y-27676500D02*
X29464000Y-28446000D01*
X29972000Y-23622000D02*
X31242000Y-23622000D01*
%TO.N,INT2*%
X27673994Y-26416000D02*
X30519386Y-26416000D01*
X31471386Y-27368000D02*
X31496000Y-27368000D01*
X27436000Y-26178006D02*
X27673994Y-26416000D01*
X27436000Y-25800500D02*
X27436000Y-26178006D01*
X30519386Y-26416000D02*
X31471386Y-27368000D01*
X31306000Y-27178000D02*
X31496000Y-27368000D01*
%TD*%
M02*
